<?xml version="1.0" encoding="UTF-8"?>
<svg id="Layer_2" xmlns="http://www.w3.org/2000/svg" version="1.1" viewBox="0 0 636 753">
  <!-- Generator: Adobe Illustrator 29.0.1, SVG Export Plug-In . SVG Version: 2.1.0 Build 192)  -->
  <defs>
    <style>
      .st0 {
        fill: #f0d35d;
      }

      .st1 {
        fill: #59452f;
      }

      .st2 {
        fill: #2e342f;
      }

      .st3 {
        fill: #161c17;
      }

      .st4 {
        fill: #faf5ea;
      }

      .st5 {
        fill: #2b2e4e;
      }

      .st6 {
        fill: #1c4551;
      }

      .st7 {
        fill: #3f2e1c;
      }

      .st8 {
        fill: #e5decf;
      }

      .st9 {
        fill: #3e6e7c;
      }

      .st10 {
        fill: #454975;
      }

      .st11 {
        fill: #eddad5;
      }

      .st12 {
        fill: #092b35;
      }

      .st13 {
        fill: #ddab63;
      }
    </style>
  </defs>
  <path class="st1" d="M573.2,517.36s-25.28-110.98-107.77-78.62c13.13,31.52,21.95,59.22,23.51,90.38-35.47-13.52-45.61-13.3-45.61-13.3,0,0,27.19,97.09,25.23,125.51,4.7,4.51,4.26,17.73,25.87,25.08,8.67-12.05,6.66-30.57,6.66-30.57,0,0,28.41,35.91,59.57,36.05,7.79-19.91.39-40.37.39-40.37,0,0,22.73,31.74,70.15,45.66,0-54.08-24.64-115.88-58-159.82Z"/>
  <path class="st7" d="M517.55,462.62s41.34,17.88,63.81,61.04c-6.49,12.15-18.54,16.56-18.54,16.56,0,0-9.85-41.88-45.26-77.6Z"/>
  <path class="st7" d="M455.22,533.15l14.13,115.81s15.23,24.1,31.3,26.85c10.97-16.66,9.09-24.69,9.09-24.69,0,0,31.67,34.1,58.71,30.18,8.03-17.83,3.14-33.7,3.14-33.7,0,0,24.15,27.43,59.62,29.59-39.97-14.7-93.33-86.41-111.74-133.05-15.09-25.08-22.93-39.97-22.93-39.97,0,0-2.55,3.53-1.57,8.23s21.95,38.21,28.61,58.78c6.66,20.57,2.9,31.94-13.83,24.69-16.73-7.25-54.52-62.71-54.52-62.71Z"/>
  <path class="st10" d="M417.81,374.67s40.66,4.47,110.91,66.63c-36.05-8.45-59.18-2.57-59.18-2.57,0,0,20.18,46.8,23.12,93.83-13.32-2.35-42.88-13.72-42.88-13.72,0,0,6.24,24.49,4.47,39.97-1.76,15.48-76.08-135.6-76.08-135.6l39.63-48.56Z"/>
  <path class="st5" d="M396.26,441.65s3.72-21.36,12.54-29c9.41,5.68,32.92,26.09,32.92,26.09l-4.7,7.61s26.16,32.72,23.66,79.95c-13.67-10.9-16.8-17.83-36.99-24.89-20.18-7.05-27.43-59.76-27.43-59.76Z"/>
  <path class="st7" d="M67.74,501.9s.02,87.59-16.66,134.81c-42.33-25.08-56.04-86.41-36.05-144.61,19.99-58.2,52.71,9.8,52.71,9.8Z"/>
  <path class="st5" d="M60.99,438.74s-54.87,54.64-26.26,110.88c17.05-9.8,29.39-36.84,29.39-36.84,0,0-3.92,43.7,5.49,52.91,9.41,9.21,37.23-90.14,37.23-90.14l-45.85-36.81Z"/>
  <path class="st10" d="M60.99,420.27s-57.65,16.68-54.99,106.23c14.82-12.74,27.45-29,27.45-29,0,0,11.67-37.79,27.54-58.76,15.87-20.97,0-18.47,0-18.47Z"/>
  <path class="st6" d="M500.5,183.39s21.75-68.78-38.8-121.1S309.45-10.6,212.46,28.2c-26.45,23.51-45.26,104.05-39.97,111.69-19.99-4.11-93.47,82.89-105.81,117.57-12.34,34.68-27.04,79.36-22.34,121.1,4.7,41.74,5.29,66.43,35.27,105.81-7.64,30.57-20.57,104.64-22.34,118.75,9.99,14.7,1.76,27.04,151.66,119.92,77.6-44.68,72.89-42.62,83.47-44.68-1.18,9.7-15.28,62.9-15.28,62.9,0,0,121.68-68.48,193.4-89.35,18.22-52.91-79.07-228.67-79.07-228.67,0,0,22.34-15.41,36.74-48.56-35.27-11.4-85.83-25.51-85.83-25.51l158.13-165.77Z"/>
  <path class="st12" d="M333.08,345.83s-54.78,52.22-126.21,0c-71.42-52.22-64.08-58.98-64.08-58.98,0,0-17.13,78.63,65.25,130.21,73.71,46.15,125.64,5.48,137.56-2.35,27.08-17.8,51.29-49.67,51.29-49.67l-63.82-19.2Z"/>
  <path class="st12" d="M391.46,423.23s106.11,178.41,79.07,228.67c-46.73,12.93-196.65,97-196.65,97,0,0,13.54-42.33,18.54-70.54-18.23,7.24-81.71,51.14-81.71,51.14,0,0-146.67-73.19-153.43-126.39,2.06-12.16,3.07-29.89,5.29-42.03,7.94-43.36,17.05-76.71,17.05-76.71,0,0-9.7,51.44-8.82,74.66,7.94,22.93,35.86,101.4,138.14,108.75.59-22.34,2.94-86.41,2.94-86.41,0,0,16.86,61.43,19.01,84.65,110.32-7.64,229.7-106.4,160.58-242.78Z"/>
  <path class="st6" d="M169.54,127.15s-87.74-9.16-129.62,71.52c2.54-1.29,5.67-2.57,8.94-3.78,9.82-3.62,20.89-6.51,20.89-6.51,0,0-31.99,26.85-43.65,62.8,6.27-4.11,25.57-13.13,33.7-15.68-9.5,10.39-28.9,30.32-32.33,73.09,7.89-6.32,35.96-27.63,35.96-27.63l103.76-140.79,2.35-13.03Z"/>
  <path class="st9" d="M202.15,80.58s-89.34-23.92-149,60.08c25.52.17,49.45-3.94,119.01,2.91,7.66-24.34,12.59-36.06,29.99-62.98Z"/>
  <path class="st9" d="M237,37.9S204.08-7.66,107.67,70.82c24.25-1.91,62.02,4.11,78.04,10.14,6.61-9.7,16.75-25.28,51.29-43.06Z"/>
  <path class="st12" d="M56.57,192.26s27.74-8.57,48.22-11.22c1.71-6.91,7.76-13.52,7.76-13.52,0,0-32.97,5.98-55.98,24.74Z"/>
  <path class="st12" d="M30.38,248.69s33.24-25.29,58.68-30.97c-5.98,6.97-5.21,15.48-5.21,15.48,0,0-28.94,3.63-53.47,15.48Z"/>
  <path class="st12" d="M27.48,308.6s15.53-28.51,37.13-41.44c-3.23,8.82-1.76,17.05-1.76,17.05,0,0-25.5,15.87-35.37,24.4Z"/>
  <path class="st9" d="M184.31,208.44s-4.1,24.14,9.45,42.05c-39.28-1.3-67.68,14.82-67.68,14.82,0,0,8.44-29.97,58.23-56.86Z"/>
  <path class="st9" d="M118.86,566.29s13.48,15.7,33.84,16.22c-9.62,17.28,11.08,56.96,11.08,56.96,0,0-41.8-24.69-44.92-73.19Z"/>
  <path class="st11" d="M243.03,385.8s15.34,29.98,30.84,4.7c-5.17,21.36-11.17,27.63-15.42,29.39s-17.19-1.76-15.42-34.1Z"/>
  <path class="st11" d="M177.97,316.83s-3.33,24.89,16.46,25.08c-12.93,11.17-34.68,10.19-16.46-25.08Z"/>
  <path class="st11" d="M220.13,345.83s.2,23.51,22.73,12.93c-14.5,20.77-28.22,23.12-22.73-12.93Z"/>
  <path class="st11" d="M288.44,374.67s13.52,12.11,22.73-6.5c-1.37,20.97-9.41,33.19-22.73,6.5Z"/>
  <path class="st11" d="M180.32,373.79s2.16,30.88,23.51,18.6c-11.56,27.31-38.8,27.78-23.51-18.6Z"/>
  <g>
    <path class="st4" d="M364.73,207.06s10.81-51.21-13.3-69.92c-24.11-18.71-51.04-13.97-51.04-13.97,0,0-17.62,1.5-36.41,13.14-2.33,18.62,15.13,47.22,21.45,54.2,6.32,6.98,29.68,18.12,79.31,16.54Z"/>
    <path class="st1" d="M292.21,150.27s-7.35,19.4,11.95,30.18,31.45-4.6,34.68-9.6c3.23-5,.29-16.75-12.34-23.51s-28.02-10.58-34.29,2.94Z"/>
    <path class="st3" d="M324.93,147.33s-18.42-7.35-23.91,6.86,8.64,23.22,20.63,19.01c11.99-4.21,16.75-20.53,3.27-25.87Z"/>
    <path class="st4" d="M311.3,145.06s-6.39,7.05,2.94,10.58,8.95-6.8,4.31-9.99-7.25-.59-7.25-.59Z"/>
    <path class="st8" d="M349.29,145.43s13.81,19.83,9.8,51.48c-28.71,2.35-35.86,0-35.86,0,0,0,23.19-1.26,29.78-3.33,1.86-7.84,1.06-40.4-18.62-55.65,12.34,8.62,18.03,18.43,18.03,18.43,0,0-.49-5.19-3.14-10.93Z"/>
    <path class="st8" d="M276.63,132.44s-4.97,1.23-8.92,4.7,4.36,30.91,13.81,42.13,6.37,7.45,6.37,7.45c0,0-15.19-31.84-15.58-41.74s4.31-12.54,4.31-12.54Z"/>
  </g>
  <path class="st4" d="M497.71,187.33s13.72-19.94,6.59-37.12c-23.59-5.81-68.86-2.26-81.4,9.68-12.54,11.94-16.98,30.15-7.45,43.29,9.53,13.15,26.65,15.68,26.65,15.68l55.6-31.53"/>
  <path class="st2" d="M441.33,163.76s-11.09,5.8-11.68,14.26c-.59,8.46,6.66,11.98,10.97,9.44,4.31-2.55,9.97-14.94,9.01-18.36-1.17-4.2-3.55-8.44-8.31-5.33Z"/>
  <path class="st8" d="M419.43,180.01s-7.21,23.66,20.25,29.69,7.03-5.88,7.03-5.88c0,0-16.51,4.26-27.28-23.81Z"/>
  <path class="st8" d="M505.83,155.27s3.83,10.95-5.98,28.49c-3.85-1.88-3.51-5.07-3.51-5.07,0,0,7.96-8.23,9.49-23.42Z"/>
  <path class="st8" d="M455.11,152.46s10,6.73,8.62,17.05c1.67-8.52,1.07-16.01-8.62-17.05Z"/>
  <g>
    <path class="st0" d="M378.18,242.17s-35.27,11.46-55.85,44.68c-20.57,33.21-15.58,48.06-15.58,48.06,0,0-3.14,19.66,26.75,17.19,21.16,9.99,70.31,32.6,122.75,3.51l-1.06-15.86s-21.46-1.18-29.98-32.33c-8.52-31.16-26.16-34.68-47.03-65.25Z"/>
    <path class="st13" d="M322.34,286.85s-.59,15.77,0,26.85c.59,11.07,4.51,24.98,22.44,35.47,17.93,10.48,37.13,14.5,52.12,15.87,14.99,1.37,29.81,2.18,33.41,1.14-8.1,1.85-45.46,12.87-96.8-14.08-4.21,1.18-55.45,8.82-11.17-65.25Z"/>
    <path class="st13" d="M378.18,242.17s10.88,75.38,36.05,86.23c5.39,2.73,10.48,6.06,14.89,15.27,4.7,7.64,15.28,7.45,15.28,7.45,0,0-2.39,6.9-10.7,14.08,5.7-1.25,15.27-3.82,22.53-9.59,2.76-8.81,4.43-38.79,4.43-38.79l-66.43-51.14-5.88-9.99-10.19-13.52Z"/>
    <path class="st0" d="M496.34,178.69s37.33,54.38,25.87,122.27c-11.46,67.9-50.55,133.44-97,154.02,11.17-15.58,36.74-52.91,29.98-115.22-12.34-2.35-22.93-6.17-29.98-32.33-16.46-7.05-37.92-26.75-39.39-52.91,17.34-21.46,66.13-67.6,110.52-75.83Z"/>
    <path class="st13" d="M496.34,178.69s39.68,50.85,25.87,122.27c-13.81,71.42-11.81,52.85-40.44,102.55-31.86,47.06-56.55,51.47-56.55,51.47,0,0,101.7-95.82,71.13-276.29Z"/>
  </g>
</svg>