<?xml version="1.0" encoding="UTF-8"?>
<svg id="Layer_2" xmlns="http://www.w3.org/2000/svg" version="1.1" viewBox="0 0 416 462">
  <!-- Generator: Adobe Illustrator 29.0.1, SVG Export Plug-In . SVG Version: 2.1.0 Build 192)  -->
  <defs>
    <style>
      .st0 {
        fill: #161c17;
      }

      .st1 {
        fill: #1c4551;
      }

      .st2 {
        fill: #3e6e7c;
      }
    </style>
  </defs>
  <path class="st2" d="M315.77,413.79s-132.05-171.49-137.43-111.14c28.08-94.41,13.15-117.11,13.15-117.11,0,0-94.41-34.66-113.53-157.74-2.99-21.51-16.73-45.41-50.19-7.17C9.43,41.58-13.28,107.9,11.04,189.12c20.06,67.01,67.32,141.94,217.49,229.45,40.63-5.98,66.92-4.78,66.92-4.78,0,0-24.5,8.82-51.39,16.06,32.86,14.41,89.63-8.89,89.63-8.89,0,0,16.73-33.53,14.34-85.78-9.56,40.97-32.27,78.61-32.27,78.61Z"/>
  <path class="st1" d="M2.46,149.16s41.16,28.82,67.88,25.43c5.85,14.22,17.77,23.65,17.77,23.65,0,0-56.17,8.81-77.08-9.11-1.51-5.44-3.38-11.77-4.79-18.41-2.33-11.05-3.79-21.56-3.79-21.56Z"/>
  <path class="st1" d="M222.78,189.68s13.46,54.91,50.33,77.36c37.88,23.06,55.21,46.37,55.21,46.37,0,0,10.46,86.04-12.55,105.76-35.55-21.51-118.31-77.08-118.31-77.08l-15.52-15.26s-8.5-42.55,13.46-64.58c22.74-22.81,28.58-66.3,27.38-72.57Z"/>
  <path class="st1" d="M228.53,418.57s46.61-4.78,66.92-4.78-27.09-22.51-27.09-22.51l-6.77-2.39s-23.88,4.86-67.81,8.5c16.69,10.42,34.74,21.17,34.74,21.17Z"/>
  <path class="st2" d="M244.66,375.35l71.1,38.44,6.98-4.48s15.13-22.41,5.57-95.9c-8.21-9.35-9.42-14.69-38.83-35.54,7.96,82.15-15.29,105.76-15.29,105.76l-29.53-8.28Z"/>
  <path class="st0" d="M395.24,438.29l20.32,23.31S95.28,388.69,46.29,85.75c81.26,275.45,312.5,337.59,348.95,352.53Z"/>
</svg>