<?xml version="1.0" encoding="UTF-8"?>
<svg id="Layer_2" xmlns="http://www.w3.org/2000/svg" version="1.1" viewBox="0 0 390 264">
  <!-- Generator: Adobe Illustrator 29.0.1, SVG Export Plug-In . SVG Version: 2.1.0 Build 192)  -->
  <defs>
    <style>
      .st0 {
        fill: #161c17;
      }

      .st1 {
        fill: #1c4551;
      }

      .st2 {
        fill: #3e6e7c;
      }
    </style>
  </defs>
  <path class="st2" d="M197.39,184.8s73.49,29.28,109.94,31.07c29.28-17.33,83.05-118.9,82.46-173.28-.6-54.37-34.06-46.61-64.53-29.88-30.47,16.73-129.06,83.8-179.25,95.38-23.9,40.26-34.66,81.49-34.66,81.49,0,0-5.38-33.46,7.17-66.92-14.94,9.56-52.37,41.83-58.75,100.38,29.71-7.36,137.62-38.24,137.62-38.24Z"/>
  <path class="st1" d="M202.17,184.01l54.57-31.47s66.72,18.27,95.7,4.65c-8.77,15.19-22.4,44.94-45.11,58.68-20.61-2.89-62.14-7.17-105.16-31.87Z"/>
  <path class="st2" d="M59.77,223.04c-18.86,4.47,147.18,113.53,247.56-45.41-57.36,47.8-123.78,13.15-123.78,13.15,0,0-80.95,22.11-123.78,32.27Z"/>
  <path class="st0" d="M.21,213.48v15.54s215.1,41.23,358.51-186.42C281.04,137.26,146.6,231.41.21,213.48Z"/>
</svg>