<?xml version="1.0" encoding="UTF-8"?>
<svg id="Layer_2" xmlns="http://www.w3.org/2000/svg" version="1.1" viewBox="0 0 576 215">
  <!-- Generator: Adobe Illustrator 29.0.1, SVG Export Plug-In . SVG Version: 2.1.0 Build 192)  -->
  <defs>
    <style>
      .st0 {
        fill: #161c17;
      }

      .st1 {
        fill: #1c4551;
      }

      .st2 {
        fill: #3e6e7c;
      }
    </style>
  </defs>
  <path class="st1" d="M79.14,72.61s-13.11,26.63-1.94,75.47c5.35-23.3,13.74-65.7,13.74-65.7l-11.81-9.78Z"/>
  <path class="st1" d="M84.89,70.25s24.43-25.69,41.01-30.62c-3.14,10.76-28.17,40.52-28.17,40.52l-12.84-9.9Z"/>
  <path class="st2" d="M486.2,75.48c11.2-14.57,86.04-23.3,86.04-23.3,0,0,19.73,55.27-36.75,90.34-56.48,35.07-76.31,44.1-76.31,44.1l-102.05-9.86-30.47-34.24s71.7,47.24,159.54-67.04Z"/>
  <path class="st0" d="M572.24,52.18s-124.45,126.37-161.26,121.89l9.79,8.96s83.35-42.12,151.47-130.85Z"/>
  <path class="st1" d="M89.15,85.34l68.12-41.23s113.2,78.67,222.87,109.51c58.79,16.53,116.57,19.33,155.35-11.11-40.78,32.45-207.49,138.66-426.62,10.94-13.44-29.58-19.72-68.12-19.72-68.12Z"/>
  <path class="st0" d="M11.18.2s140.85,177.06,399.8,202.81C152.92,176.4,32.24,35.6.42,6.47L11.18.2Z"/>
</svg>