<?xml version="1.0" encoding="UTF-8"?>
<svg xmlns="http://www.w3.org/2000/svg" version="1.1" viewBox="0 0 1920 1080">
  <!-- Generator: Adobe Illustrator 29.0.1, SVG Export Plug-In . SVG Version: 2.1.0 Build 192)  -->
  <defs>
    <style>
      .st0 {
        stroke-width: 3px;
      }

      .st0, .st1, .st2, .st3 {
        fill: #161c17;
      }

      .st0, .st4, .st2 {
        stroke-miterlimit: 10;
      }

      .st0, .st2 {
        stroke: #161c17;
      }

      .st5 {
        fill: #d1745d;
      }

      .st6 {
        font-size: 42.76px;
      }

      .st6, .st4, .st7 {
        fill: #faf5ea;
      }

      .st6, .st7, .st3 {
        font-family: SegoePrint-Bold, 'Segoe Print';
        font-weight: 700;
      }

      .st8 {
        fill: #fff;
      }

      .st4 {
        stroke: #231f20;
      }

      .st9 {
        fill: #98aa6d;
      }

      .st7 {
        font-size: 36px;
      }

      .st10 {
        fill: #ebe9e5;
      }

      .st2 {
        stroke-width: 5px;
      }

      .st3 {
        font-size: 120px;
      }
    </style>
  </defs>
  <g id="Layer_2">
    <rect class="st4" x=".38" y=".5" width="1920" height="1080"/>
  </g>
  <g id="Layer_1">
    <path class="st9" d="M358.21,241.7l762.68-92.55s65.01-6.61,95.67,12.94c36.45,23.24,36.06,77.35,36.06,77.35l39.42,490.99s2.24,33.69-13.64,47.48c-15.23,13.23-53.67,10.99-53.67,10.99l-808.65-24.94s-76.67-1.55-112.22-32.54c-27.59-24.05-21.43-108.48-21.43-108.48l8.65-312.13s-.98-28.97,18.46-47.2,48.67-21.91,48.67-21.91Z"/>
    <text class="st3" transform="translate(423.53 270.02)"><tspan x="0" y="0">Oops...</tspan></text>
    <g>
      <path class="st5" d="M1034.52,636.85h306.34s49.52-1.97,49.52,42.07-49.52,46.02-49.52,46.02h-306.34s-43.39,0-43.39-44.05c0-44.05,43.39-44.04,43.39-44.04Z"/>
      <text class="st6" transform="translate(1089.29 692.23)"><tspan x="0" y="0">Prøv </tspan></text>
    </g>
    <text class="st7" transform="translate(385.76 390.78)"><tspan x="0" y="0">Hovsa sovsa!</tspan><tspan x="0" y="86.4">Du er nok nød til at gøre rent inden du </tspan><tspan x="0" y="129.6">træder i klatterne. Eller i hvert fald bare </tspan><tspan x="0" y="172.8">inden din mor kommer på besøg. </tspan></text>
    <g>
      <path class="st8" d="M1181.76,74.35c0,9-9,72-18,81s0,18,0,18c0,0,9,18,18,9s9,9,9,9v9s0,63-18,63-18,9-27,18-63,0-54-54,45-99,45-108c0,9,0,27,9,9s9-27,0-36,18-54,27-54,9,27,9,36Z"/>
      <path class="st10" d="M1109.76,191.35s45-18,45,0,0,9,9,18,9,36-9,45-18,9-27,9-27-18-27-27,0-36,9-45Z"/>
      <path class="st1" d="M1104.66,222.05c-1.24.14-3.9-1.87-3.9-3.12-.02-3.95,24.51-30.03,39.36-27.38,4.65.83,12.75,4.58,9.97,10.15-.56,1.12-3.69,2.25-4.74,1.58-3.63-2.33-3.36-6.32-6.1-6.81-10.12-1.81-24.74,24.49-34.58,25.58Z"/>
      <path class="st0" d="M1118.06,250.47c-3.12,0-5.1-.98-5.9-2.91-1.74-4.19,3.58-9.8,13.14-19.35,9.62-9.62,28.16-10.22,28.77-9.73.97.79.88,4.11,0,5-.12.12-17.09.12-25.23,8.27-4.18,4.18-10.99,10.99-11.89,13.65.25.04.61.08,1.13.08,6.89,0,20.73-10.46,25.88-8.74,1.19.4,2.75,3.33,2.24,4.47-.35.77-18.64,9.26-28.12,9.26Z"/>
    </g>
    <g>
      <path class="st8" d="M1588.31,217.19s0,36-18,63,27,99,54,90c-18-9-27-27-18-45s-9-54-9-63-9-45-9-45Z"/>
      <path class="st8" d="M1561.31,388.19s9-36,36,0,36,63,27,72,9,54,9,54c0,0,18,45,9,54-9,18-90,54-99,9s-18-72,9-99c27-27,9-90,9-90Z"/>
      <path class="st10" d="M1597.31,469.19s-18,18,9,27q9-9-9-27Z"/>
      <path class="st10" d="M1570.31,514.19s27,18,36,0c9,0,27,27,27,36s-36,27-36,45c-9,18-45,0-45-27s-9-54,18-54Z"/>
      <path class="st2" d="M1583.13,567.38c-1.53,0-2.85-.32-3.94-.77-6.4-2.65-12.55-12.49-9.37-16.42.16-.19.82-.18,1,0,3.38,3.38,2.78,13.02,8.76,15.49,4.84,2,10.8-.31,17.24-6.7-.09-25.95-17-25.79-17.5-26.29-.18-.18-.19-.84,0-1,.14-.12,18.5.31,18.5,27.5v.21l-.15.15c-6.05,6.05-10.9,7.84-14.54,7.84Z"/>
      <path class="st1" d="M1617.55,560.31c-1.19.4-4.2-1.02-4.47-2.24-3.71-16.93-7.66-22.96-7.89-23.65-.39-1.19,1.02-4.2,2.24-4.47.22-.05,5.07,2.57,8.76,7.49,3.5,4.67,12.43,19.18,1.36,22.87Z"/>
      <path class="st1" d="M1570.31,586.19s9-9,18-9c0,9-9,18-18,9Z"/>
    </g>
    <g>
      <path class="st8" d="M1260.15,946.3s36-36,90-36,72-9,72-9h9s18,18,36,18c9,9,45,36-27,27s-54,27-153,0c-27,0-27,9-54-9-18,0-18-9-27,0s-36,0-36,9,27,0,45,0,36,9,45,0Z"/>
      <path class="st10" d="M1314.15,919.3s-9-45,72-18c18,0,36-18,54,9s9,54-63,36c-54,9-54,0-63-27Z"/>
      <path class="st1" d="M1323.15,933.87c-6.25.6-12.58-16.33-11.23-22.46.27-1.22,3.29-2.63,4.47-2.24,3.69,1.23,6.95,13.91,6.95,13.91,3.58-5.39,10.97-14.35,21.44-16.05,8.36-1.35,16.82,2.17,25.13,10.49,7.41,7.41,13.86,10.42,19.19,8.95,8.9-2.45,6.04-16.18,12.62-16.79,1.24-.12,4.32.08,4.85,1.22.3.65-4.41,17.15-16.12,20.39-7.19,1.99-13.53,5.78-22.3-3-7.11-7.11-15.87-17.4-22.55-16.33-12.31,1.98-20.16,17.29-20.22,17.45-.42,1.17-1,4.34-2.24,4.46Z"/>
      <path class="st1" d="M1396.27,948.53c-1.19-.4-2.75-3.34-2.24-4.47,2.09-4.58,18-9,18-9,16.04-8.02,16.56-15.77,16.62-15.83.91-.86,4.22-.91,5,.06.67.84-.54,10.82-19.38,20.24,0,0-13.23,10.59-18,9Z"/>
      <path class="st1" d="M1360.22,940.91c4.62,11.86-23.72,9.24-20.1,1l3.62-8.24s11.86-4.62,16.48,7.24Z"/>
    </g>
    <g>
      <path class="st8" d="M206.19,857.52s-27,9-45,9-18,0-18,9,27,9,54,9,36,9,72,9,27-9,81-9c18,0,18-9,18-9,0,0,0-9-27-9s-135-9-135-9Z"/>
      <path class="st10" d="M233.19,839.52s9,0,18-9,27-27,36-9,18,36,27,36,36,18,18,18-72,9-90,0-27,0-36-9-18-36,9-27,18,0,18,0Z"/>
      <path class="st1" d="M215.19,830.52s27,0,27,9-18,27-18,9-36,0-9-18Z"/>
      <path class="st1" d="M269.19,839.52s27-9,36,9c0,9,0,0-18,0s-27,9-18-9Z"/>
      <path class="st1" d="M303.42,877.29c-7.72-.82-20.03-8.27-43.23-8.27-8.44,0-14.77-8.23-11.5-11.5.88-.88,5.13-1.24,5,0-.07.62-2.5,0-2.5,0l2.5-.02c.01,1.09.39,6.52,6.5,6.52,15.9,0,46.77-2.6,46.77,9.73,0,1.25-2.29,3.67-3.54,3.54Z"/>
      <path class="st8" d="M431.19,893.52s-18-9-27-9-9,9-18,9-18,9-18,9c0,0,54,0,63-9Z"/>
    </g>
  </g>
</svg>