<?xml version="1.0" encoding="UTF-8"?>
<svg xmlns="http://www.w3.org/2000/svg" version="1.1" viewBox="0 0 1920 1080">
  <!-- Generator: Adobe Illustrator 29.0.1, SVG Export Plug-In . SVG Version: 2.1.0 Build 192)  -->
  <defs>
    <style>
      .st0 {
        fill: #d1745d;
      }

      .st1 {
        fill: #fff;
      }

      .st2 {
        fill: #161c17;
      }

      .st3 {
        fill: #faf5ea;
      }

      .st4 {
        fill: #98aa6d;
      }

      .st5 {
        fill: #231f20;
      }

      .st6 {
        fill: #ebe9e5;
      }
    </style>
  </defs>
  <g id="Layer_2">
    <g>
      <rect class="st3" x=".38" y=".5" width="1920" height="1080"/>
      <path class="st5" d="M1920.88,1081H-.12V0h1921v1081ZM.88,1080h1919V1H.88v1079Z"/>
    </g>
  </g>
  <g id="Layer_1">
    <path class="st4" d="M358.21,241.7l762.68-92.55s65.01-6.61,95.67,12.94c36.45,23.24,36.06,77.35,36.06,77.35l39.42,490.99s2.24,33.69-13.64,47.48c-15.23,13.23-53.67,10.99-53.67,10.99l-808.65-24.94s-76.67-1.55-112.22-32.54c-27.59-24.05-21.43-108.48-21.43-108.48l8.65-312.13s-.98-28.97,18.46-47.2,48.67-21.91,48.67-21.91Z"/>
    <g>
      <path class="st2" d="M454.7,274.06c-6.6,0-12.46-3.17-17.58-9.52-5.12-6.35-7.68-12.9-7.68-19.66,0-7.97,2.44-16.91,7.32-26.84,4.88-9.92,11.18-18.03,18.9-24.32,7.71-6.29,15.77-9.43,24.17-9.43,6.52,0,11.9.78,16.14,2.34,4.24,1.56,8.14,3.86,11.72,6.88,3.57,3.03,5.96,6.15,7.15,9.38,1.19,3.22,1.79,7.65,1.79,13.27,0,4.96-1.59,10.99-4.78,18.08-3.18,7.09-7.81,13.78-13.89,20.07-6.07,6.29-12.26,11.15-18.54,14.59-6.29,3.44-14.53,5.16-24.73,5.16ZM444.27,244.35c0,4.8,1.43,8.81,4.28,12.01,2.85,3.2,6.13,4.8,9.84,4.8,10.47,0,20.29-5.03,29.47-15.09,9.18-10.06,13.77-20.73,13.77-32.02,0-3.98-.76-7.2-2.29-9.64-1.52-2.44-4.11-4.47-7.76-6.09-3.65-1.62-7.57-2.43-11.75-2.43-7.54,0-15.35,5.45-23.44,16.35s-12.13,21.6-12.13,32.11Z"/>
      <path class="st2" d="M580.56,240.31c-2.62,9.14-7.59,16.85-14.91,23.12s-14.64,9.4-21.94,9.4c-5.78,0-10.55-2.12-14.3-6.36s-5.62-9.44-5.62-15.62c0-10.08,3.44-20,10.31-29.77,6.87-9.77,15.21-14.65,25.02-14.65,6.68,0,12.09,2.47,16.23,7.41,4.14,4.94,6.21,10.83,6.21,17.67,0,2.97-.33,5.88-1,8.73v.06ZM550.1,221.79c-2.73,2.42-5.41,6.29-8.03,11.6-2.62,5.31-3.93,10.65-3.93,16,0,3.24.6,5.92,1.79,8.03,1.19,2.11,2.76,3.16,4.72,3.16,4.84,0,9.88-2.87,15.12-8.61,5.23-5.74,7.85-12.19,7.85-19.34,0-4.02-.85-7.33-2.55-9.93-1.7-2.6-4.07-3.9-7.12-3.9s-5.49,1-7.79,2.99h-.06Z"/>
      <path class="st2" d="M606.4,265.86c-.66,2.73-1.33,6.87-1.99,12.42l-2.81,23.03c-.47,3.75-1.38,6.35-2.72,7.79-1.35,1.44-3,2.17-4.95,2.17-1.76,0-3.43-.65-5.01-1.96-1.58-1.31-2.37-2.76-2.37-4.37,0-3.16.49-6.82,1.46-10.96,5.82-23.24,9-47.36,9.55-72.36v-1.17c0-5.23.15-8.72.44-10.46.29-1.74,1.13-3.27,2.52-4.6,1.39-1.33,3.35-1.99,5.89-1.99,4.26,0,6.39,3.26,6.39,9.79,0,2.66-.49,7.17-1.46,13.54l-.59,4.04c4.45-7.42,9.75-13.58,15.88-18.49,6.13-4.9,11.62-7.35,16.46-7.35,4.37,0,8.1,1.56,11.16,4.69,3.07,3.13,4.6,7.05,4.6,11.78,0,12.62-4.89,24.09-14.68,34.42-9.79,10.33-19.46,15.5-29.03,15.5-4.53,0-7.44-1.82-8.73-5.45ZM640.8,218.22c-4.77,0-10.95,4.65-18.54,13.95-7.6,9.3-11.4,16.6-11.4,21.91,0,1.37.67,2.59,2.02,3.66,1.35,1.07,2.92,1.61,4.72,1.61,4.96,0,10.65-3.9,17.08-11.69,6.43-7.79,9.64-15.32,9.64-22.59,0-2.42-.37-4.17-1.11-5.24-.74-1.07-1.54-1.61-2.4-1.61Z"/>
      <path class="st2" d="M697.75,255.13c-.16-2.11-3.52-4.69-10.08-7.73-8.05-3.87-13.18-7.2-15.41-9.99-2.23-2.79-3.34-5.83-3.34-9.11,0-6.91,3.88-12.96,11.63-18.13,7.75-5.18,14.99-7.76,21.71-7.76s9.9,2.87,9.9,8.61c0,1.52-.75,2.89-2.26,4.1-1.5,1.21-2.78,1.82-3.84,1.82-.43,0-1.19-.27-2.29-.82-1.09-.55-1.93-.82-2.52-.82-3.48,0-7.31,1.17-11.48,3.52-4.18,2.34-6.27,5.08-6.27,8.2,0,1.52.74,3,2.23,4.42,1.48,1.43,4.51,3.21,9.08,5.36,6.76,3.2,11.21,6.09,13.36,8.67,2.15,2.58,3.22,5.43,3.22,8.55,0,5.7-3.86,10.46-11.57,14.27-7.72,3.81-16.38,5.71-25.99,5.71-7.07,0-10.61-2.56-10.61-7.68,0-1.88.74-3.48,2.23-4.8,1.48-1.33,3.14-1.99,4.98-1.99.74,0,1.89.27,3.46.82,1.56.59,3.01.88,4.34.88,3.67,0,7.52-.59,11.54-1.76,4.02-1.17,6.68-2.62,7.97-4.34Z"/>
      <path class="st2" d="M726.64,268.49c-2.34,0-4.07-.46-5.19-1.38-1.11-.92-1.67-3.33-1.67-7.24,0-2.19.1-3.86.29-5.01.19-1.15,1.14-2.06,2.84-2.72,1.7-.66,4.15-1,7.35-1,2.38,0,4.2.56,5.45,1.67,1.25,1.11,1.88,2.33,1.88,3.66,0,2.19-.34,3.87-1.03,5.04-.68,1.17-2.17,2.63-4.45,4.37-2.29,1.74-4.11,2.61-5.48,2.61Z"/>
      <path class="st2" d="M756.52,268.49c-2.34,0-4.07-.46-5.19-1.38-1.11-.92-1.67-3.33-1.67-7.24,0-2.19.1-3.86.29-5.01.19-1.15,1.14-2.06,2.84-2.72,1.7-.66,4.15-1,7.35-1,2.38,0,4.2.56,5.45,1.67,1.25,1.11,1.88,2.33,1.88,3.66,0,2.19-.34,3.87-1.03,5.04-.68,1.17-2.17,2.63-4.45,4.37-2.29,1.74-4.11,2.61-5.48,2.61Z"/>
      <path class="st2" d="M786.4,268.49c-2.34,0-4.07-.46-5.19-1.38-1.11-.92-1.67-3.33-1.67-7.24,0-2.19.1-3.86.29-5.01.19-1.15,1.14-2.06,2.84-2.72,1.7-.66,4.15-1,7.35-1,2.38,0,4.2.56,5.45,1.67,1.25,1.11,1.88,2.33,1.88,3.66,0,2.19-.34,3.87-1.03,5.04-.68,1.17-2.17,2.63-4.45,4.37-2.29,1.74-4.11,2.61-5.48,2.61Z"/>
    </g>
    <g>
      <path class="st0" d="M1034.52,636.85h306.34s49.52-1.97,49.52,42.07-49.52,46.02-49.52,46.02h-306.34s-43.39,0-43.39-44.05c0-44.05,43.39-44.04,43.39-44.04Z"/>
      <g>
        <path class="st3" d="M1098.85,682.77c-.35,3.23-.52,5.82-.52,7.77,0,.77-.23,1.45-.69,2.05-.46.6-1.09.9-1.88.9-1.71,0-2.57-1-2.57-2.99,0-1.1.4-4.82,1.21-11.15.65-5.12.98-8.18.98-9.17,0-1.13-.05-1.77-.15-1.92-.91-.46-1.36-1.29-1.36-2.48s1.89-2.19,5.66-3.06,7-1.3,9.69-1.3c3.15,0,5.65.65,7.52,1.94,1.87,1.29,2.8,3.04,2.8,5.24,0,3.17-1.71,5.96-5.14,8.36s-7.59,4.1-12.49,5.11c-1.8.38-2.82.61-3.07.71ZM1100.71,667.09l-1.23,10.98c4.01-.67,7.53-1.86,10.57-3.56s4.55-3.53,4.55-5.48c0-2.32-1.84-3.49-5.51-3.49-2.55,0-5.34.52-8.37,1.55Z"/>
        <path class="st3" d="M1125.75,681.87l.35-.67c1.68-3.38,3.5-6.13,5.44-8.24,1.94-2.11,3.84-3.16,5.69-3.16,1.42,0,2.58.39,3.48,1.17.9.78,1.35,1.71,1.35,2.78,0,.67-.15,1.24-.46,1.72-.31.48-.73.72-1.27.72-.86,0-1.65-.35-2.36-1.06-.5-.46-.9-.69-1.19-.69-1.04,0-2.79,1.62-5.24,4.87-2.45,3.24-3.92,6.89-4.43,10.94-.15,1.17-.49,1.99-1.02,2.45-.53.47-1.25.7-2.15.7-.96,0-1.64-.55-2.05-1.64-.4-1.09-.61-2.88-.61-5.36,0-1.02.03-2.39.08-4.11.06-1.63.22-3.62.48-5.97.07-.61.12-1.09.15-1.44.12-1.36.27-2.3.43-2.81.16-.51.53-.98,1.12-1.43s1.23-.67,1.94-.67c.75,0,1.32.22,1.71.65.39.43.58.91.58,1.42,0,.66-.31,2.01-.94,4.07-.22.71-.41,1.56-.56,2.55l-.52,3.21Z"/>
        <path class="st3" d="M1160.58,672.72c1.45,2.33,2.17,4.4,2.17,6.22,0,2.67-.8,5.22-2.41,7.65-1.61,2.43-3.48,4.14-5.63,5.14-2.14,1-4.11,1.49-5.89,1.49-.53,0-1.04-.06-1.55-.19-1.04,1.8-1.92,2.69-2.63,2.69-.58,0-1.09-.2-1.52-.58-.43-.39-.65-.81-.65-1.27s.38-1.42,1.15-2.88c-1.27-1.7-1.9-3.56-1.9-5.6,0-4.29,1.15-8,3.46-11.13,2.3-3.13,5.35-4.7,9.13-4.7.84,0,1.76.18,2.78.54l.54-.65c.77-.97,1.5-1.46,2.19-1.46.5,0,.97.3,1.4.89.43.59.65,1.12.65,1.6,0,.18-.11.44-.33.77-.24.35-.56.83-.96,1.46ZM1150.66,674.65c-.85.7-1.86,2.16-3.03,4.4s-1.64,4.05-1.4,5.44l.33,1.92c1.24-1.8,3.44-5.21,6.6-10.23l1.59-2.51c-1.89,0-3.25.33-4.07.98h-.02ZM1157.59,676.82c-2.77,3.93-4.29,6.17-4.57,6.72-.79,1.52-1.81,3.1-3.05,4.76l-.19.5c2.71-.47,4.76-1.71,6.15-3.73,1.39-2.01,2.08-3.92,2.08-5.71,0-.13-.06-.56-.19-1.29l-.23-1.25Z"/>
        <path class="st3" d="M1170.16,692.02c.01-.92-.54-2.9-1.65-5.93-2.24-6-3.36-10.27-3.36-12.82,0-2.28.9-3.42,2.69-3.42s2.63,1.04,2.63,3.13c0,1.34.03,2.29.09,2.85.06.56.28,1.59.65,3.07.37,1.48.73,2.72,1.1,3.71.21.6.46,1.38.75,2.34.17.6.31,1.02.44,1.25.08-.13.38-.67.88-1.63.29-.58,1.28-2.25,2.96-4.98,1.68-2.74,3.16-4.92,4.44-6.55,1.27-1.63,2.22-2.62,2.85-2.99.63-.36,1.29-.54,1.98-.54s1.32.24,1.79.71c.47.47.7,1.05.7,1.73,0,.81-.58,1.6-1.75,2.38-1.14.78-2.7,2.56-4.67,5.35s-4.09,6.29-6.36,10.5c-1.28,2.41-2.43,3.61-3.45,3.61-.88,0-1.78-.59-2.71-1.78Z"/>
        <path class="st3" d="M1208.17,678.36v.02c.45-2.53.67-3.98.67-4.34,0-1.03.23-1.89.68-2.59.45-.7,1.08-1.04,1.89-1.04.95,0,1.68.22,2.21.67s.79.95.79,1.5-.26,1.71-.77,3.45l-.12.46c-.77,2.69-1.22,4.88-1.38,6.58s-.23,3.07-.23,4.11c0,.85.15,1.98.44,3.4.04.25.06.46.06.63,0,.32-.3.75-.91,1.29s-1.26.81-1.95.81c-1.84,0-2.76-1.39-2.76-4.18,0-2.37.33-5.25,1-8.64.14-.75.26-1.46.38-2.13ZM1218.25,661.2c0,.99-.45,1.86-1.34,2.6-.89.75-1.66,1.12-2.32,1.12-.83,0-1.58-.35-2.22-1.04s-.97-1.39-.97-2.09c0-1,.32-1.81.96-2.43.64-.62,1.56-.93,2.76-.93.93,0,1.69.28,2.27.83.58.55.87,1.2.87,1.95Z"/>
        <path class="st3" d="M1233.27,685.84c-1.54,1.74-3.34,3.17-5.4,4.29-2.05,1.12-3.83,1.68-5.31,1.68s-2.62-.43-3.43-1.29c-.81-.86-1.22-2.05-1.22-3.57,0-2.16.82-4.56,2.45-7.2,1.64-2.64,3.91-4.95,6.81-6.9,2.9-1.96,5.52-2.93,7.84-2.93,1.28,0,2.39.35,3.32,1.04.22.17.42.31.58.42.33.24.64.67.93,1.31.29.63.43,1.14.43,1.53,0,.25-.26,1.09-.79,2.53-.54,1.49-.92,2.93-1.14,4.33-.22,1.4-.64,4.89-1.28,10.47-.57,4.86-1.93,8.41-4.07,10.65-2.14,2.24-4.52,3.36-7.14,3.36s-5.41-.92-7.99-2.77c-2.58-1.84-3.87-3.37-3.87-4.56,0-1.06.51-1.59,1.54-1.59.4,0,1.22.4,2.46,1.21,3.17,2.09,5.9,3.13,8.17,3.13,1.73,0,3.17-1.08,4.34-3.25,1.17-2.17,2.09-6.13,2.78-11.89ZM1233.77,674.23c-1.03,0-2.38.62-4.05,1.85-1.67,1.23-3.22,2.89-4.64,4.98-1.42,2.09-2.13,3.82-2.13,5.2,0,.72.26,1.09.79,1.09,1.8,0,3.58-.73,5.35-2.18,1.77-1.45,3.2-3.13,4.29-5.02,1.09-1.89,1.64-3.33,1.64-4.3,0-.49-.12-.88-.38-1.17-.25-.29-.54-.44-.88-.44Z"/>
        <path class="st3" d="M1262.12,685.04c0,1.45-1.22,3.18-3.65,5.19-2.44,2.01-5.19,3.02-8.25,3.02-2.35,0-4.2-.74-5.55-2.22-1.35-1.48-2.03-3.55-2.03-6.19,0-3.9,1.38-7.55,4.13-10.96,2.76-3.41,5.7-5.12,8.83-5.12,1.56,0,2.81.49,3.76,1.48.95.99,1.42,2.17,1.42,3.53,0,2.42-1.16,4.73-3.49,6.92-2.33,2.19-5.3,3.71-8.94,4.54-.42.1-.63.35-.63.75,0,.67.3,1.3.89,1.91.59.61,1.38.91,2.37.91,2.8,0,5.58-1.44,8.33-4.32.53-.56,1.04-.83,1.54-.83.84,0,1.25.47,1.25,1.4ZM1248.11,681.35c2.2-.45,4.14-1.38,5.82-2.82,1.68-1.43,2.52-2.74,2.52-3.9,0-.46-.13-.85-.39-1.16-.26-.31-.59-.47-.99-.47-1.21,0-2.55.89-4.03,2.67s-2.45,3.67-2.92,5.68Z"/>
        <path class="st3" d="M1283.13,689.18c-.67-1.25-1.16-3.59-1.46-7.02-.31-3.56-.99-5.35-2.05-5.35-1,0-2.74,1.86-5.2,5.56-2.46,3.71-3.98,6.45-4.55,8.22-.13.53-.36.97-.7,1.32s-.68.52-1.01.52c-2.12,0-3.17-.97-3.17-2.9,0-.65.21-2.14.63-4.47.54-3.01.81-6.68.81-11.03,0-.65.29-1.35.86-2.1.57-.74,1.18-1.12,1.82-1.12.81,0,1.43.2,1.86.61.43.4.65,1.48.65,3.22,0,1.32-.4,3.88-1.19,7.68,3.02-7.07,6.39-10.61,10.11-10.61,3.23,0,5.12,2.54,5.68,7.62.56,5.18,1.2,7.77,1.92,7.77.32,0,.69-.07,1.11-.21.5-.17.9-.25,1.19-.25.67,0,1,.39,1,1.17,0,.71-.46,1.47-1.38,2.27-.92.8-2.07,1.2-3.47,1.2-1.61,0-2.77-.7-3.47-2.11h.02Z"/>
      </g>
    </g>
    <g>
      <path class="st3" d="M393.83,380.9c-.3.63-.53,2.38-.67,5.24-.06,1.68-.29,3.08-.69,4.2s-.93,1.69-1.59,1.69c-.74,0-1.36-.23-1.85-.69s-.75-1.13-.75-2.01c0-.77.17-1.84.51-3.2.76-3.07,1.61-9.5,2.53-19.28.06-.4.3-.78.71-1.15s.85-.55,1.31-.55c1.55,0,2.32.96,2.32,2.88,0,.87-.18,2.24-.53,4.13-.41,2.17-.62,3.75-.62,4.75.09.12.52.18,1.27.18,1.64,0,3.97-.13,6.98-.39s4.63-.59,4.86-1,.47-1.6.72-3.56.38-4.05.38-6.27c0-.33.25-.72.74-1.19s1.02-.69,1.58-.69c.64,0,1.18.21,1.61.62s.64.92.64,1.53c0,.88-.22,2.47-.65,4.78-.49,2.59-.91,5.91-1.24,9.97s-.5,6.75-.5,8.09c0,.63-.3,1.26-.91,1.88s-1.15.93-1.63.93c-.52,0-1.01-.19-1.49-.58s-.72-.88-.72-1.49c0-.4.16-1.76.47-4.1.32-2.32.47-3.91.47-4.78,0-.56-.11-.84-.33-.84-.55,0-1.64.06-3.27.19-1.64.14-2.76.21-3.36.21-.43,0-1.57.06-3.4.19s-2.8.24-2.89.33Z"/>
      <path class="st3" d="M433.29,381.86c-.79,2.74-2.28,5.05-4.47,6.93s-4.39,2.82-6.58,2.82c-1.73,0-3.16-.64-4.29-1.91s-1.69-2.83-1.69-4.68c0-3.02,1.03-6,3.09-8.93s4.56-4.39,7.51-4.39c2,0,3.63.74,4.87,2.22s1.86,3.25,1.86,5.3c0,.89-.1,1.76-.3,2.62v.02ZM424.15,376.31c-.82.73-1.62,1.89-2.41,3.48s-1.18,3.19-1.18,4.8c0,.97.18,1.78.54,2.41s.83.95,1.42.95c1.45,0,2.96-.86,4.54-2.58s2.36-3.66,2.36-5.8c0-1.21-.25-2.2-.76-2.98s-1.22-1.17-2.14-1.17-1.65.3-2.34.9h-.02Z"/>
      <path class="st3" d="M440.2,390.6c.01-.77-.45-2.44-1.39-4.99-1.89-5.05-2.83-8.65-2.83-10.79,0-1.92.76-2.88,2.27-2.88s2.21.88,2.21,2.64c0,1.12.03,1.92.08,2.4s.23,1.34.54,2.58.62,2.29.92,3.12c.18.5.39,1.16.63,1.97.14.5.26.86.37,1.05.07-.11.32-.56.74-1.37.25-.49,1.08-1.89,2.5-4.19s2.66-4.14,3.74-5.51,1.87-2.21,2.4-2.51,1.08-.46,1.67-.46,1.11.2,1.5.6.59.88.59,1.46c0,.68-.49,1.35-1.48,2-.96.66-2.27,2.16-3.93,4.5s-3.44,5.29-5.35,8.84c-1.08,2.03-2.04,3.04-2.9,3.04-.74,0-1.5-.5-2.29-1.49Z"/>
      <path class="st3" d="M464.83,386.31c-.05-.63-1.05-1.41-3.02-2.32-2.41-1.16-3.96-2.16-4.62-3s-1-1.75-1-2.73c0-2.07,1.16-3.89,3.49-5.44s4.5-2.33,6.51-2.33,2.97.86,2.97,2.58c0,.46-.23.87-.68,1.23s-.83.54-1.15.54c-.13,0-.36-.08-.69-.25s-.58-.25-.76-.25c-1.04,0-2.19.35-3.45,1.05s-1.88,1.52-1.88,2.46c0,.46.22.9.67,1.33s1.35.96,2.72,1.61c2.03.96,3.36,1.83,4.01,2.6s.97,1.63.97,2.57c0,1.71-1.16,3.14-3.47,4.28s-4.91,1.71-7.8,1.71c-2.12,0-3.18-.77-3.18-2.3,0-.56.22-1.04.67-1.44s.94-.6,1.49-.6c.22,0,.57.08,1.04.25.47.18.9.26,1.3.26,1.1,0,2.26-.18,3.46-.53s2-.79,2.39-1.3Z"/>
      <path class="st3" d="M483.79,384.89c-3.08,4.07-6.06,6.1-8.93,6.1-1.05,0-1.96-.42-2.72-1.25s-1.14-1.89-1.14-3.18c0-3.11,1.38-6.41,4.15-9.92s5.55-5.26,8.37-5.26c1.43,0,2.37.72,2.81,2.16,1.35,0,2.02.52,2.02,1.55,0,.49-.13,1.38-.39,2.67-.47,2.41-.7,4.34-.7,5.78s.1,2.55.31,3.16.35,1.01.45,1.2.38.39.84.6c.47.22.7.53.7.93,0,.6-.3,1.1-.91,1.49s-1.23.6-1.89.6c-2.2,0-3.19-2.21-2.97-6.63ZM482.74,375.13c-1.18,0-2.72,1.31-4.61,3.93s-2.84,4.84-2.84,6.67c0,.96.2,1.44.6,1.44,1.38,0,3.08-1.23,5.11-3.68s3.03-4.6,3.03-6.44c0-.59-.13-1.05-.4-1.4s-.56-.52-.89-.52Z"/>
      <path class="st3" d="M515.49,386.31c-.05-.63-1.05-1.41-3.02-2.32-2.41-1.16-3.96-2.16-4.62-3s-1-1.75-1-2.73c0-2.07,1.16-3.89,3.49-5.44s4.5-2.33,6.51-2.33,2.97.86,2.97,2.58c0,.46-.23.87-.68,1.23s-.83.54-1.15.54c-.13,0-.36-.08-.69-.25s-.58-.25-.76-.25c-1.04,0-2.19.35-3.45,1.05s-1.88,1.52-1.88,2.46c0,.46.22.9.67,1.33s1.35.96,2.72,1.61c2.03.96,3.36,1.83,4.01,2.6s.97,1.63.97,2.57c0,1.71-1.16,3.14-3.47,4.28s-4.91,1.71-7.8,1.71c-2.12,0-3.18-.77-3.18-2.3,0-.56.22-1.04.67-1.44s.94-.6,1.49-.6c.22,0,.57.08,1.04.25.47.18.9.26,1.3.26,1.1,0,2.26-.18,3.46-.53s2-.79,2.39-1.3Z"/>
      <path class="st3" d="M539.02,381.86c-.79,2.74-2.28,5.05-4.47,6.93s-4.39,2.82-6.58,2.82c-1.73,0-3.16-.64-4.29-1.91s-1.69-2.83-1.69-4.68c0-3.02,1.03-6,3.09-8.93s4.56-4.39,7.51-4.39c2,0,3.63.74,4.87,2.22s1.86,3.25,1.86,5.3c0,.89-.1,1.76-.3,2.62v.02ZM529.88,376.31c-.82.73-1.62,1.89-2.41,3.48s-1.18,3.19-1.18,4.8c0,.97.18,1.78.54,2.41s.83.95,1.42.95c1.45,0,2.96-.86,4.54-2.58s2.36-3.66,2.36-5.8c0-1.21-.25-2.2-.76-2.98s-1.22-1.17-2.14-1.17-1.65.3-2.34.9h-.02Z"/>
      <path class="st3" d="M545.93,390.6c.01-.77-.45-2.44-1.39-4.99-1.89-5.05-2.83-8.65-2.83-10.79,0-1.92.76-2.88,2.27-2.88s2.21.88,2.21,2.64c0,1.12.03,1.92.08,2.4s.23,1.34.54,2.58.62,2.29.92,3.12c.18.5.39,1.16.63,1.97.14.5.26.86.37,1.05.07-.11.32-.56.74-1.37.25-.49,1.08-1.89,2.5-4.19s2.66-4.14,3.74-5.51,1.87-2.21,2.4-2.51,1.08-.46,1.67-.46,1.11.2,1.5.6.59.88.59,1.46c0,.68-.49,1.35-1.48,2-.96.66-2.27,2.16-3.93,4.5s-3.44,5.29-5.35,8.84c-1.08,2.03-2.04,3.04-2.9,3.04-.74,0-1.5-.5-2.29-1.49Z"/>
      <path class="st3" d="M570.56,386.31c-.05-.63-1.05-1.41-3.02-2.32-2.41-1.16-3.96-2.16-4.62-3s-1-1.75-1-2.73c0-2.07,1.16-3.89,3.49-5.44s4.5-2.33,6.51-2.33,2.97.86,2.97,2.58c0,.46-.23.87-.68,1.23s-.83.54-1.15.54c-.13,0-.36-.08-.69-.25s-.58-.25-.76-.25c-1.04,0-2.19.35-3.45,1.05s-1.88,1.52-1.88,2.46c0,.46.22.9.67,1.33s1.35.96,2.72,1.61c2.03.96,3.36,1.83,4.01,2.6s.97,1.63.97,2.57c0,1.71-1.16,3.14-3.47,4.28s-4.91,1.71-7.8,1.71c-2.12,0-3.18-.77-3.18-2.3,0-.56.22-1.04.67-1.44s.94-.6,1.49-.6c.22,0,.57.08,1.04.25.47.18.9.26,1.3.26,1.1,0,2.26-.18,3.46-.53s2-.79,2.39-1.3Z"/>
      <path class="st3" d="M589.52,384.89c-3.08,4.07-6.06,6.1-8.93,6.1-1.05,0-1.96-.42-2.72-1.25s-1.14-1.89-1.14-3.18c0-3.11,1.38-6.41,4.15-9.92s5.55-5.26,8.37-5.26c1.43,0,2.37.72,2.81,2.16,1.35,0,2.02.52,2.02,1.55,0,.49-.13,1.38-.39,2.67-.47,2.41-.7,4.34-.7,5.78s.1,2.55.31,3.16.35,1.01.45,1.2.38.39.84.6c.47.22.7.53.7.93,0,.6-.3,1.1-.91,1.49s-1.23.6-1.89.6c-2.2,0-3.19-2.21-2.97-6.63ZM588.47,375.13c-1.18,0-2.72,1.31-4.61,3.93s-2.84,4.84-2.84,6.67c0,.96.2,1.44.6,1.44,1.38,0,3.08-1.23,5.11-3.68s3.03-4.6,3.03-6.44c0-.59-.13-1.05-.4-1.4s-.56-.52-.89-.52Z"/>
      <path class="st3" d="M600.42,390.44c-1.29,0-1.93-.71-1.93-2.14,0-.54.26-1.16.79-1.86s1.1-1.05,1.71-1.05c.4,0,.9.19,1.49.58s.9.71.9.98l-.18,1.09c-.11.77-.49,1.37-1.14,1.78s-1.2.62-1.63.62ZM602.92,382.36c-1.17,0-2.08-.24-2.72-.72-.19-2.29-.02-4.63.49-7.05.57-2.61.86-4.57.86-5.87,0-.13.06-.62.18-1.47s.5-1.5,1.12-1.94,1.15-.67,1.58-.67c.47,0,.92.17,1.34.52s.64.72.64,1.13c0,.33-.24,1.54-.71,3.65s-.95,4.04-1.42,5.81c-.49,1.84-.75,3.31-.77,4.41-.02.83-.22,1.56-.6,2.2Z"/>
      <path class="st3" d="M389.13,474.35c.13-.57.23-1.61.3-3.09.27-4.08.77-8.34,1.51-12.8.19-.94.28-1.65.28-2.14,0-.21-.09-.34-.28-.39-1.24-.32-1.86-.86-1.86-1.63,0-.56.25-1.09.76-1.59s1.05-.75,1.63-.75l2.37.07c1.08,0,2.56-.08,4.45-.23,1.61-.14,2.91-.21,3.92-.21,3.27,0,5.92.92,7.94,2.75s3.03,4.26,3.03,7.29c0,3.38-1.56,6.42-4.68,9.15s-6.89,4.58-11.32,5.58c-1.17.26-2,.48-2.48.67s-1.04.49-1.69.9c-.8.55-1.58.83-2.36.83-.6,0-1.13-.29-1.6-.86s-.7-1.04-.7-1.41c0-.25.12-.6.37-1.07l.4-1.05ZM393.72,473.47c.62,0,2.4-.45,5.33-1.36s5.32-2.31,7.15-4.19,2.74-4.04,2.74-6.45c0-1.93-.68-3.47-2.03-4.61s-3.13-1.71-5.32-1.71c-1.5,0-3.3.14-5.41.42-.27.04-.49.06-.65.07-1.28,7.83-1.92,13.35-1.92,16.58,0,.6.04,1.02.11,1.27Z"/>
      <path class="st3" d="M428.65,470.74c-1.12,2.05-2.43,3.68-3.91,4.89s-2.99,1.81-4.51,1.81c-.9,0-1.81-.47-2.73-1.42s-1.38-2.41-1.38-4.38c0-1.39.35-3.5,1.05-6.31.61-2.32.91-4.08.91-5.29.47-.98,1.2-1.48,2.2-1.48.68,0,1.22.23,1.63.68s.61.91.61,1.36c0,.83-.29,2.02-.88,3.55-.34.91-.71,2.21-1.1,3.88s-.59,2.74-.59,3.21c0,1.56.32,2.34.97,2.34,1.02,0,2.4-.98,4.13-2.94s2.87-3.96,3.39-6.01c.53-2,1-3.32,1.41-3.94s.99-.93,1.74-.93c1.22,0,1.83.68,1.83,2.04,0,.2-.1.6-.3,1.2-.69,2.07-1.04,4.41-1.04,7.01,0,3.05.52,4.87,1.55,5.47.34.2.51.45.51.74,0,.42-.3.82-.9,1.2s-1.17.56-1.71.56c-.93,0-1.64-.65-2.14-1.96s-.75-3.06-.75-5.26Z"/>
      <path class="st3" d="M468.29,471.13c0,1.22-1.03,2.67-3.08,4.37s-4.37,2.54-6.94,2.54c-1.98,0-3.54-.62-4.68-1.87s-1.71-2.99-1.71-5.21c0-3.28,1.16-6.36,3.48-9.23s4.8-4.31,7.44-4.31c1.31,0,2.37.42,3.16,1.25s1.2,1.82,1.2,2.97c0,2.04-.98,3.98-2.94,5.83s-4.46,3.12-7.52,3.82c-.35.08-.53.29-.53.63,0,.56.25,1.1.75,1.61s1.16.76,2,.76c2.36,0,4.69-1.21,7.01-3.64.45-.47.88-.7,1.3-.7.7,0,1.05.39,1.05,1.18ZM456.49,468.02c1.85-.38,3.48-1.17,4.9-2.37s2.12-2.3,2.12-3.29c0-.39-.11-.71-.33-.98s-.5-.4-.83-.4c-1.02,0-2.15.75-3.39,2.25s-2.06,3.09-2.46,4.78Z"/>
      <path class="st3" d="M475.6,468.46l.3-.56c1.42-2.85,2.94-5.16,4.58-6.93s3.23-2.66,4.79-2.66c1.2,0,2.17.33,2.93.98s1.13,1.44,1.13,2.34c0,.56-.13,1.05-.39,1.45s-.62.61-1.07.61c-.73,0-1.39-.3-1.99-.9-.42-.39-.76-.58-1-.58-.88,0-2.35,1.37-4.41,4.1s-3.3,5.8-3.73,9.21c-.13.98-.42,1.67-.86,2.07s-1.05.59-1.81.59c-.81,0-1.38-.46-1.72-1.38s-.51-2.42-.51-4.51c0-.86.02-2.01.07-3.46.05-1.37.18-3.05.4-5.03.06-.52.1-.92.12-1.21.11-1.15.23-1.94.36-2.36s.45-.83.94-1.2,1.04-.56,1.63-.56c.63,0,1.11.18,1.44.54s.49.76.49,1.2c0,.55-.26,1.69-.79,3.43-.19.6-.35,1.31-.47,2.14l-.44,2.71Z"/>
      <path class="st3" d="M518.63,474.61c-.56-1.05-.97-3.02-1.23-5.91-.26-3-.83-4.5-1.72-4.5-.84,0-2.3,1.56-4.38,4.68s-3.35,5.43-3.83,6.92c-.11.45-.3.81-.59,1.11s-.57.44-.85.44c-1.78,0-2.67-.81-2.67-2.44,0-.55.18-1.8.53-3.76.46-2.53.69-5.62.69-9.28,0-.55.24-1.14.72-1.77s.99-.94,1.53-.94c.68,0,1.2.17,1.56.51s.54,1.24.54,2.71c0,1.11-.33,3.27-1,6.47,2.54-5.95,5.38-8.93,8.51-8.93,2.72,0,4.31,2.14,4.78,6.42.47,4.36,1.01,6.54,1.62,6.54.27,0,.58-.06.93-.18.42-.14.76-.21,1-.21.56,0,.84.33.84.98,0,.6-.39,1.23-1.16,1.91s-1.75,1.01-2.92,1.01c-1.36,0-2.33-.59-2.92-1.78h.02Z"/>
      <path class="st3" d="M544.28,468.26c-.79,2.74-2.28,5.05-4.47,6.93s-4.39,2.82-6.58,2.82c-1.73,0-3.16-.64-4.29-1.91s-1.69-2.83-1.69-4.68c0-3.02,1.03-6,3.09-8.93s4.56-4.39,7.51-4.39c2,0,3.63.74,4.87,2.22s1.86,3.25,1.86,5.3c0,.89-.1,1.76-.3,2.62v.02ZM535.14,462.71c-.82.73-1.62,1.89-2.41,3.48s-1.18,3.19-1.18,4.8c0,.97.18,1.78.54,2.41s.83.95,1.42.95c1.45,0,2.96-.86,4.54-2.58s2.36-3.66,2.36-5.8c0-1.21-.25-2.2-.76-2.98s-1.22-1.17-2.14-1.17-1.65.3-2.34.9h-.02Z"/>
      <path class="st3" d="M564.27,462.5h.02l-.04.04c-.68.38-1.23.7-1.65.98-.79.53-1.58,1.1-2.37,1.71-.91.7-1.6,1.29-2.06,1.78-.39.4-.58.69-.58.88,0,.21.69,1.03,2.06,2.47s2.46,2.46,3.26,3.08,1.6.93,2.38.93l.77-.02c.28,0,.51.08.68.25s.25.42.25.76c0,.48-.3,1.04-.9,1.67s-1.62.95-3.08.95c-.86,0-1.72-.31-2.6-.94s-2.23-2.04-4.04-4.25c-1.45-1.77-2.24-2.65-2.37-2.65-.08,0-.33.21-.74.63s-.68.74-.81.97v.02c-.2.97-.3,2.24-.3,3.81,0,.79-.23,1.42-.69,1.92s-1.03.74-1.7.74-1.23-.2-1.62-.59-.58-.79-.58-1.19c0-.42.15-1.35.44-2.78.56-2.78,1.04-6.46,1.42-11.06.38-3.67.7-6.53.98-8.59s.53-3.4.76-4.04.57-1.15,1.04-1.53.97-.57,1.51-.57.93.21,1.24.64.47.95.47,1.56c0,.76-.49,3.74-1.48,8.93l-.42,2.3h.02c-.52,3.39-.78,5.34-.79,5.87l5.4-4.89c2.75-2.66,4.78-3.99,6.06-3.99s1.86.5,1.86,1.49c0,1.24-.6,2.14-1.81,2.69Z"/>
      <path class="st3" d="M598.33,474.61c-.56-1.05-.97-3.02-1.23-5.91-.26-3-.83-4.5-1.72-4.5-.84,0-2.3,1.56-4.38,4.68s-3.35,5.43-3.83,6.92c-.11.45-.3.81-.59,1.11s-.57.44-.85.44c-1.78,0-2.67-.81-2.67-2.44,0-.55.18-1.8.53-3.76.46-2.53.69-5.62.69-9.28,0-.55.24-1.14.72-1.77s.99-.94,1.53-.94c.68,0,1.2.17,1.56.51s.54,1.24.54,2.71c0,1.11-.33,3.27-1,6.47,2.54-5.95,5.38-8.93,8.51-8.93,2.72,0,4.31,2.14,4.78,6.42.47,4.36,1.01,6.54,1.62,6.54.27,0,.58-.06.93-.18.42-.14.76-.21,1-.21.56,0,.84.33.84.98,0,.6-.39,1.23-1.16,1.91s-1.75,1.01-2.92,1.01c-1.36,0-2.33-.59-2.92-1.78h.02Z"/>
      <path class="st3" d="M622.82,460.76c1.22,1.96,1.83,3.7,1.83,5.24,0,2.25-.68,4.4-2.03,6.44s-2.93,3.49-4.74,4.32-3.46,1.26-4.96,1.26c-.45,0-.88-.05-1.3-.16-.88,1.51-1.62,2.27-2.21,2.27-.49,0-.92-.16-1.28-.49s-.54-.69-.54-1.07.32-1.2.97-2.43c-1.07-1.43-1.6-3-1.6-4.71,0-3.61.97-6.73,2.91-9.37s4.5-3.96,7.69-3.96c.7,0,1.48.15,2.34.46l.46-.54c.64-.82,1.26-1.23,1.85-1.23.42,0,.81.25,1.18.75s.54.95.54,1.34c0,.15-.09.37-.28.65-.2.29-.47.7-.81,1.23ZM614.47,462.38c-.71.59-1.56,1.82-2.55,3.7s-1.38,3.41-1.18,4.58l.28,1.62c1.04-1.51,2.89-4.38,5.55-8.61l1.34-2.11c-1.59,0-2.74.28-3.43.83h-.02ZM620.3,464.2c-2.33,3.3-3.62,5.19-3.85,5.66-.67,1.28-1.52,2.61-2.57,4.01l-.16.42c2.29-.4,4.01-1.44,5.18-3.14s1.75-3.3,1.75-4.81c0-.11-.05-.47-.16-1.09l-.19-1.05Z"/>
      <path class="st3" d="M640.08,471.31c-3.04,4.3-6.09,6.45-9.16,6.45-1.24,0-2.24-.49-3.01-1.47s-1.14-2.22-1.14-3.74c0-3.06,1.25-6.1,3.75-9.12s5.04-4.54,7.6-4.54c1.48,0,2.53.39,3.15,1.16.88-3.84,1.4-6.25,1.56-7.21.35-1.78.64-2.96.88-3.55s.59-1.04,1.07-1.36.9-.48,1.25-.48c.6,0,1.05.25,1.37.74s.47,1.11.47,1.86c0,.33-.26,1.27-.77,2.83-.84,2.53-1.63,5.59-2.35,9.18s-1.08,6.44-1.08,8.56.45,3.04,1.34,3.04c.46,0,.94-.12,1.46-.37.52-.23.88-.35,1.09-.35.57,0,.86.33.86,1,0,.81-.58,1.61-1.75,2.42s-2.27,1.2-3.31,1.2c-1.12,0-1.99-.6-2.6-1.81s-.84-2.69-.69-4.45ZM638.13,462.29c-1.54,0-3.14,1.17-4.81,3.52s-2.5,4.49-2.5,6.43c0,1.14.42,1.71,1.27,1.71,1.43,0,3.13-1.27,5.12-3.81s2.97-4.55,2.97-6.03c0-.45-.19-.86-.56-1.24s-.87-.57-1.48-.57Z"/>
      <path class="st3" d="M672.95,462.9c-.11,0-.44,1.31-.99,3.92s-.83,4.2-.83,4.75c0,.96.1,1.63.31,2.01s.54.57,1.01.57c.66,0,1.29-.11,1.89-.34s1.4-.74,2.38-1.54c.61-.5,1.12-.76,1.55-.76.34,0,.61.1.82.29s.31.42.31.68c0,1.03-.83,2.2-2.5,3.51s-3.42,1.96-5.27,1.96c-1.55,0-2.73-.46-3.54-1.37s-1.22-2.23-1.22-3.94c0-1.58.59-4.74,1.78-9.47-.75.08-1.27.12-1.56.12h-.37c-.54,0-1.09-.18-1.64-.53s-.83-.91-.83-1.69c0-.98.56-1.48,1.67-1.48l3.76-.14c.49-1.42,1.01-3.28,1.56-5.57.33-1.43,1.07-2.14,2.23-2.14.64,0,1.15.2,1.51.59s.54.83.54,1.31c0,.19-.5,2-1.49,5.43,3.73-.33,5.77-.49,6.13-.49.62,0,1.03.09,1.23.27s.3.53.3,1.05c0,1.04-.88,1.71-2.65,1.99l-6.06,1.02Z"/>
      <path class="st3" d="M683.83,465.5v.02c.38-2.13.56-3.35.56-3.66,0-.87.19-1.59.57-2.18s.91-.88,1.59-.88c.8,0,1.42.19,1.86.56s.67.8.67,1.27-.22,1.44-.65,2.9l-.11.39c-.64,2.26-1.03,4.11-1.16,5.54s-.19,2.58-.19,3.46c0,.71.12,1.67.37,2.87.04.21.05.39.05.53,0,.27-.25.63-.76,1.09s-1.06.69-1.64.69c-1.55,0-2.32-1.17-2.32-3.52,0-1.99.28-4.42.84-7.28.12-.63.22-1.23.32-1.79ZM692.32,451.06c0,.83-.38,1.56-1.12,2.19s-1.4.94-1.95.94c-.7,0-1.33-.29-1.87-.88s-.82-1.17-.82-1.76c0-.84.27-1.53.81-2.05s1.31-.78,2.32-.78c.79,0,1.42.23,1.91.69s.73,1.01.73,1.64Z"/>
      <path class="st3" d="M699.35,447.42c1.27,0,1.9.69,1.9,2.07,0,.63-.09,1.32-.26,2.05s-.66,2.55-1.44,5.44c-.57,2.1-1.01,4.39-1.31,6.86s-.45,4.42-.45,5.81c0,1.49.11,3.26.33,5.31.06.55.09.9.09,1.04,0,.7-.26,1.31-.77,1.81s-1.08.76-1.69.76c-.83,0-1.42-.39-1.76-1.18s-.51-2.13-.51-4.04c0-4.11.48-8.96,1.45-14.54s1.76-8.87,2.37-9.88,1.3-1.51,2.05-1.51Z"/>
      <path class="st3" d="M729.59,471.29c-3.08,4.07-6.06,6.1-8.93,6.1-1.05,0-1.96-.42-2.72-1.25s-1.14-1.89-1.14-3.18c0-3.11,1.38-6.41,4.15-9.92s5.55-5.26,8.37-5.26c1.43,0,2.37.72,2.81,2.16,1.35,0,2.02.52,2.02,1.55,0,.49-.13,1.38-.39,2.67-.47,2.41-.7,4.34-.7,5.78s.1,2.55.31,3.16.35,1.01.45,1.2.38.39.84.6c.47.22.7.53.7.93,0,.6-.3,1.1-.91,1.49s-1.23.6-1.89.6c-2.2,0-3.19-2.21-2.97-6.63ZM728.53,461.53c-1.18,0-2.72,1.31-4.61,3.93s-2.84,4.84-2.84,6.67c0,.96.2,1.44.6,1.44,1.38,0,3.08-1.23,5.11-3.68s3.03-4.6,3.03-6.44c0-.59-.13-1.05-.4-1.4s-.56-.52-.89-.52Z"/>
      <path class="st3" d="M745.78,462.9c-.11,0-.44,1.31-.99,3.92s-.83,4.2-.83,4.75c0,.96.1,1.63.31,2.01s.54.57,1.01.57c.66,0,1.29-.11,1.89-.34s1.4-.74,2.38-1.54c.61-.5,1.12-.76,1.55-.76.34,0,.61.1.82.29s.31.42.31.68c0,1.03-.83,2.2-2.5,3.51s-3.42,1.96-5.27,1.96c-1.55,0-2.73-.46-3.54-1.37s-1.22-2.23-1.22-3.94c0-1.58.59-4.74,1.78-9.47-.75.08-1.27.12-1.56.12h-.37c-.54,0-1.09-.18-1.64-.53s-.83-.91-.83-1.69c0-.98.56-1.48,1.67-1.48l3.76-.14c.49-1.42,1.01-3.28,1.56-5.57.33-1.43,1.07-2.14,2.23-2.14.64,0,1.15.2,1.51.59s.54.83.54,1.31c0,.19-.5,2-1.49,5.43,3.73-.33,5.77-.49,6.13-.49.62,0,1.03.09,1.23.27s.3.53.3,1.05c0,1.04-.88,1.71-2.65,1.99l-6.06,1.02Z"/>
      <path class="st3" d="M781.85,471.8c-1.3,1.46-2.82,2.67-4.54,3.61s-3.22,1.42-4.47,1.42-2.21-.36-2.89-1.09-1.03-1.73-1.03-3.01c0-1.82.69-3.84,2.07-6.06s3.29-4.16,5.73-5.81,4.64-2.47,6.6-2.47c1.08,0,2.01.29,2.79.88.19.14.35.26.49.35.28.2.54.57.78,1.1s.36.96.36,1.29c0,.21-.22.92-.67,2.13-.46,1.25-.78,2.47-.96,3.65s-.54,4.12-1.08,8.82c-.48,4.09-1.62,7.08-3.43,8.96s-3.81,2.83-6.01,2.83-4.55-.78-6.72-2.33-3.26-2.83-3.26-3.84c0-.89.43-1.34,1.3-1.34.34,0,1.03.34,2.07,1.02,2.67,1.76,4.96,2.64,6.87,2.64,1.45,0,2.67-.91,3.66-2.73s1.76-5.16,2.34-10.01ZM782.27,462.02c-.87,0-2,.52-3.41,1.56s-2.71,2.43-3.9,4.19-1.79,3.22-1.79,4.38c0,.61.22.91.67.91,1.51,0,3.01-.61,4.5-1.84s2.69-2.63,3.61-4.23,1.38-2.8,1.38-3.62c0-.41-.11-.74-.32-.98s-.46-.37-.74-.37Z"/>
      <path class="st3" d="M805.86,460.76c1.22,1.96,1.83,3.7,1.83,5.24,0,2.25-.68,4.4-2.03,6.44s-2.93,3.49-4.74,4.32-3.46,1.26-4.96,1.26c-.45,0-.88-.05-1.3-.16-.88,1.51-1.62,2.27-2.21,2.27-.49,0-.92-.16-1.28-.49s-.54-.69-.54-1.07.32-1.2.97-2.43c-1.07-1.43-1.6-3-1.6-4.71,0-3.61.97-6.73,2.91-9.37s4.5-3.96,7.69-3.96c.7,0,1.48.15,2.34.46l.46-.54c.64-.82,1.26-1.23,1.85-1.23.42,0,.81.25,1.18.75s.54.95.54,1.34c0,.15-.09.37-.28.65-.2.29-.47.7-.81,1.23ZM797.51,462.38c-.71.59-1.56,1.82-2.55,3.7s-1.38,3.41-1.18,4.58l.28,1.62c1.04-1.51,2.89-4.38,5.55-8.61l1.34-2.11c-1.59,0-2.74.28-3.43.83h-.02ZM803.35,464.2c-2.33,3.3-3.62,5.19-3.85,5.66-.67,1.28-1.52,2.61-2.57,4.01l-.16.42c2.29-.4,4.01-1.44,5.18-3.14s1.75-3.3,1.75-4.81c0-.11-.05-.47-.16-1.09l-.19-1.05Z"/>
      <path class="st3" d="M815.09,468.46l.3-.56c1.42-2.85,2.94-5.16,4.58-6.93s3.23-2.66,4.79-2.66c1.2,0,2.17.33,2.93.98s1.13,1.44,1.13,2.34c0,.56-.13,1.05-.39,1.45s-.62.61-1.07.61c-.73,0-1.39-.3-1.99-.9-.42-.39-.76-.58-1-.58-.88,0-2.35,1.37-4.41,4.1s-3.3,5.8-3.73,9.21c-.13.98-.42,1.67-.86,2.07s-1.05.59-1.81.59c-.81,0-1.38-.46-1.72-1.38s-.51-2.42-.51-4.51c0-.86.02-2.01.07-3.46.05-1.37.18-3.05.4-5.03.06-.52.1-.92.12-1.21.11-1.15.23-1.94.36-2.36s.45-.83.94-1.2,1.04-.56,1.63-.56c.63,0,1.11.18,1.44.54s.49.76.49,1.2c0,.55-.26,1.69-.79,3.43-.19.6-.35,1.31-.47,2.14l-.44,2.71Z"/>
      <path class="st3" d="M844.86,471.13c0,1.22-1.03,2.67-3.08,4.37s-4.37,2.54-6.94,2.54c-1.98,0-3.54-.62-4.68-1.87s-1.71-2.99-1.71-5.21c0-3.28,1.16-6.36,3.48-9.23s4.8-4.31,7.44-4.31c1.31,0,2.37.42,3.16,1.25s1.2,1.82,1.2,2.97c0,2.04-.98,3.98-2.94,5.83s-4.46,3.12-7.52,3.82c-.35.08-.53.29-.53.63,0,.56.25,1.1.75,1.61s1.16.76,2,.76c2.36,0,4.69-1.21,7.01-3.64.45-.47.88-.7,1.3-.7.7,0,1.05.39,1.05,1.18ZM833.07,468.02c1.85-.38,3.48-1.17,4.9-2.37s2.12-2.3,2.12-3.29c0-.39-.11-.71-.33-.98s-.5-.4-.83-.4c-1.02,0-2.15.75-3.39,2.25s-2.06,3.09-2.46,4.78Z"/>
      <path class="st3" d="M866.57,468.46l.3-.56c1.42-2.85,2.94-5.16,4.58-6.93s3.23-2.66,4.79-2.66c1.2,0,2.17.33,2.93.98s1.13,1.44,1.13,2.34c0,.56-.13,1.05-.39,1.45s-.62.61-1.07.61c-.73,0-1.39-.3-1.99-.9-.42-.39-.76-.58-1-.58-.88,0-2.35,1.37-4.41,4.1s-3.3,5.8-3.73,9.21c-.13.98-.42,1.67-.86,2.07s-1.05.59-1.81.59c-.81,0-1.38-.46-1.72-1.38s-.51-2.42-.51-4.51c0-.86.02-2.01.07-3.46.05-1.37.18-3.05.4-5.03.06-.52.1-.92.12-1.21.11-1.15.23-1.94.36-2.36s.45-.83.94-1.2,1.04-.56,1.63-.56c.63,0,1.11.18,1.44.54s.49.76.49,1.2c0,.55-.26,1.69-.79,3.43-.19.6-.35,1.31-.47,2.14l-.44,2.71Z"/>
      <path class="st3" d="M896.35,471.13c0,1.22-1.03,2.67-3.08,4.37s-4.37,2.54-6.94,2.54c-1.98,0-3.54-.62-4.68-1.87s-1.71-2.99-1.71-5.21c0-3.28,1.16-6.36,3.48-9.23s4.8-4.31,7.44-4.31c1.31,0,2.37.42,3.16,1.25s1.2,1.82,1.2,2.97c0,2.04-.98,3.98-2.94,5.83s-4.46,3.12-7.52,3.82c-.35.08-.53.29-.53.63,0,.56.25,1.1.75,1.61s1.16.76,2,.76c2.36,0,4.69-1.21,7.01-3.64.45-.47.88-.7,1.3-.7.7,0,1.05.39,1.05,1.18ZM884.56,468.02c1.85-.38,3.48-1.17,4.9-2.37s2.12-2.3,2.12-3.29c0-.39-.11-.71-.33-.98s-.5-.4-.83-.4c-1.02,0-2.15.75-3.39,2.25s-2.06,3.09-2.46,4.78Z"/>
      <path class="st3" d="M914.03,474.61c-.56-1.05-.97-3.02-1.23-5.91-.26-3-.83-4.5-1.72-4.5-.84,0-2.3,1.56-4.38,4.68s-3.35,5.43-3.83,6.92c-.11.45-.3.81-.59,1.11s-.57.44-.85.44c-1.78,0-2.67-.81-2.67-2.44,0-.55.18-1.8.53-3.76.46-2.53.69-5.62.69-9.28,0-.55.24-1.14.72-1.77s.99-.94,1.53-.94c.68,0,1.2.17,1.56.51s.54,1.24.54,2.71c0,1.11-.33,3.27-1,6.47,2.54-5.95,5.38-8.93,8.51-8.93,2.72,0,4.31,2.14,4.78,6.42.47,4.36,1.01,6.54,1.62,6.54.27,0,.58-.06.93-.18.42-.14.76-.21,1-.21.56,0,.84.33.84.98,0,.6-.39,1.23-1.16,1.91s-1.75,1.01-2.92,1.01c-1.36,0-2.33-.59-2.92-1.78h.02Z"/>
      <path class="st3" d="M930.24,462.9c-.11,0-.44,1.31-.99,3.92s-.83,4.2-.83,4.75c0,.96.1,1.63.31,2.01s.54.57,1.01.57c.66,0,1.29-.11,1.89-.34s1.4-.74,2.38-1.54c.61-.5,1.12-.76,1.55-.76.34,0,.61.1.82.29s.31.42.31.68c0,1.03-.83,2.2-2.5,3.51s-3.42,1.96-5.27,1.96c-1.55,0-2.73-.46-3.54-1.37s-1.22-2.23-1.22-3.94c0-1.58.59-4.74,1.78-9.47-.75.08-1.27.12-1.56.12h-.37c-.54,0-1.09-.18-1.64-.53s-.83-.91-.83-1.69c0-.98.56-1.48,1.67-1.48l3.76-.14c.49-1.42,1.01-3.28,1.56-5.57.33-1.43,1.07-2.14,2.23-2.14.64,0,1.15.2,1.51.59s.54.83.54,1.31c0,.19-.5,2-1.49,5.43,3.73-.33,5.77-.49,6.13-.49.62,0,1.03.09,1.23.27s.3.53.3,1.05c0,1.04-.88,1.71-2.65,1.99l-6.06,1.02Z"/>
      <path class="st3" d="M955.52,465.5v.02c.38-2.13.56-3.35.56-3.66,0-.87.19-1.59.57-2.18s.91-.88,1.59-.88c.8,0,1.42.19,1.86.56s.67.8.67,1.27-.22,1.44-.65,2.9l-.11.39c-.64,2.26-1.03,4.11-1.16,5.54s-.19,2.58-.19,3.46c0,.71.12,1.67.37,2.87.04.21.05.39.05.53,0,.27-.25.63-.76,1.09s-1.06.69-1.64.69c-1.55,0-2.32-1.17-2.32-3.52,0-1.99.28-4.42.84-7.28.12-.63.22-1.23.32-1.79ZM964.01,451.06c0,.83-.38,1.56-1.12,2.19s-1.4.94-1.95.94c-.7,0-1.33-.29-1.87-.88s-.82-1.17-.82-1.76c0-.84.27-1.53.81-2.05s1.31-.78,2.32-.78c.79,0,1.42.23,1.91.69s.73,1.01.73,1.64Z"/>
      <path class="st3" d="M979.37,474.61c-.56-1.05-.97-3.02-1.23-5.91-.26-3-.83-4.5-1.72-4.5-.84,0-2.3,1.56-4.38,4.68s-3.35,5.43-3.83,6.92c-.11.45-.3.81-.59,1.11s-.57.44-.85.44c-1.78,0-2.67-.81-2.67-2.44,0-.55.18-1.8.53-3.76.46-2.53.69-5.62.69-9.28,0-.55.24-1.14.72-1.77s.99-.94,1.53-.94c.68,0,1.2.17,1.56.51s.54,1.24.54,2.71c0,1.11-.33,3.27-1,6.47,2.54-5.95,5.38-8.93,8.51-8.93,2.72,0,4.31,2.14,4.78,6.42.47,4.36,1.01,6.54,1.62,6.54.27,0,.58-.06.93-.18.42-.14.76-.21,1-.21.56,0,.84.33.84.98,0,.6-.39,1.23-1.16,1.91s-1.75,1.01-2.92,1.01c-1.36,0-2.33-.59-2.92-1.78h.02Z"/>
      <path class="st3" d="M1000.84,471.31c-3.04,4.3-6.09,6.45-9.16,6.45-1.24,0-2.24-.49-3.01-1.47s-1.14-2.22-1.14-3.74c0-3.06,1.25-6.1,3.75-9.12s5.04-4.54,7.6-4.54c1.48,0,2.53.39,3.15,1.16.88-3.84,1.4-6.25,1.56-7.21.35-1.78.64-2.96.88-3.55s.59-1.04,1.07-1.36.9-.48,1.25-.48c.6,0,1.05.25,1.37.74s.47,1.11.47,1.86c0,.33-.26,1.27-.77,2.83-.84,2.53-1.63,5.59-2.35,9.18s-1.08,6.44-1.08,8.56.45,3.04,1.34,3.04c.46,0,.94-.12,1.46-.37.52-.23.88-.35,1.09-.35.57,0,.86.33.86,1,0,.81-.58,1.61-1.75,2.42s-2.27,1.2-3.31,1.2c-1.12,0-1.99-.6-2.6-1.81s-.84-2.69-.69-4.45ZM998.88,462.29c-1.54,0-3.14,1.17-4.81,3.52s-2.5,4.49-2.5,6.43c0,1.14.42,1.71,1.27,1.71,1.43,0,3.13-1.27,5.12-3.81s2.97-4.55,2.97-6.03c0-.45-.19-.86-.56-1.24s-.87-.57-1.48-.57Z"/>
      <path class="st3" d="M1027.87,471.13c0,1.22-1.03,2.67-3.08,4.37s-4.37,2.54-6.94,2.54c-1.98,0-3.54-.62-4.68-1.87s-1.71-2.99-1.71-5.21c0-3.28,1.16-6.36,3.48-9.23s4.8-4.31,7.43-4.31c1.31,0,2.37.42,3.16,1.25s1.2,1.82,1.2,2.97c0,2.04-.98,3.98-2.94,5.83s-4.46,3.12-7.52,3.82c-.35.08-.53.29-.53.63,0,.56.25,1.1.75,1.61s1.16.76,1.99.76c2.36,0,4.69-1.21,7.01-3.64.45-.47.88-.7,1.3-.7.7,0,1.05.39,1.05,1.18ZM1016.08,468.02c1.85-.38,3.48-1.17,4.9-2.37s2.12-2.3,2.12-3.29c0-.39-.11-.71-.32-.98s-.5-.4-.84-.4c-1.02,0-2.15.75-3.39,2.25-1.24,1.5-2.06,3.09-2.46,4.78Z"/>
      <path class="st3" d="M1045.55,474.61c-.56-1.05-.97-3.02-1.23-5.91-.26-3-.83-4.5-1.72-4.5-.84,0-2.3,1.56-4.38,4.68s-3.35,5.43-3.83,6.92c-.11.45-.3.81-.59,1.11s-.57.44-.85.44c-1.78,0-2.67-.81-2.67-2.44,0-.55.18-1.8.53-3.76.46-2.53.69-5.62.69-9.28,0-.55.24-1.14.72-1.77s.99-.94,1.53-.94c.68,0,1.2.17,1.56.51s.54,1.24.54,2.71c0,1.11-.33,3.27-1,6.47,2.54-5.95,5.38-8.93,8.51-8.93,2.72,0,4.31,2.14,4.78,6.42.47,4.36,1.01,6.54,1.62,6.54.27,0,.58-.06.93-.18.42-.14.76-.21,1-.21.56,0,.84.33.84.98,0,.6-.39,1.23-1.16,1.91s-1.75,1.01-2.92,1.01c-1.36,0-2.33-.59-2.92-1.78h.02Z"/>
      <path class="st3" d="M1081.41,471.31c-3.04,4.3-6.09,6.45-9.16,6.45-1.24,0-2.24-.49-3.01-1.47s-1.14-2.22-1.14-3.74c0-3.06,1.25-6.1,3.75-9.12s5.04-4.54,7.6-4.54c1.48,0,2.53.39,3.15,1.16.88-3.84,1.4-6.25,1.56-7.21.35-1.78.64-2.96.88-3.55s.59-1.04,1.07-1.36.9-.48,1.25-.48c.6,0,1.05.25,1.37.74s.47,1.11.47,1.86c0,.33-.26,1.27-.77,2.83-.84,2.53-1.63,5.59-2.35,9.18s-1.08,6.44-1.08,8.56.45,3.04,1.34,3.04c.46,0,.94-.12,1.46-.37.52-.23.88-.35,1.09-.35.57,0,.86.33.86,1,0,.81-.58,1.61-1.75,2.42s-2.27,1.2-3.31,1.2c-1.12,0-1.99-.6-2.6-1.81s-.84-2.69-.69-4.45ZM1079.46,462.29c-1.54,0-3.14,1.17-4.81,3.52s-2.5,4.49-2.5,6.43c0,1.14.42,1.71,1.27,1.71,1.43,0,3.13-1.27,5.12-3.81s2.97-4.55,2.97-6.03c0-.45-.19-.86-.56-1.24s-.87-.57-1.48-.57Z"/>
      <path class="st3" d="M1105.09,470.74c-1.12,2.05-2.43,3.68-3.91,4.89s-2.99,1.81-4.51,1.81c-.9,0-1.81-.47-2.73-1.42s-1.38-2.41-1.38-4.38c0-1.39.35-3.5,1.05-6.31.61-2.32.91-4.08.91-5.29.47-.98,1.2-1.48,2.2-1.48.68,0,1.22.23,1.63.68s.61.91.61,1.36c0,.83-.29,2.02-.88,3.55-.34.91-.71,2.21-1.1,3.88s-.59,2.74-.59,3.21c0,1.56.32,2.34.97,2.34,1.02,0,2.4-.98,4.13-2.94s2.87-3.96,3.39-6.01c.53-2,1-3.32,1.41-3.94s.99-.93,1.74-.93c1.22,0,1.83.68,1.83,2.04,0,.2-.1.6-.3,1.2-.69,2.07-1.04,4.41-1.04,7.01,0,3.05.52,4.87,1.55,5.47.34.2.51.45.51.74,0,.42-.3.82-.9,1.2s-1.17.56-1.71.56c-.93,0-1.64-.65-2.14-1.96s-.75-3.06-.75-5.26Z"/>
      <path class="st3" d="M394.92,506.1c-.11,0-.44,1.31-.99,3.92s-.83,4.2-.83,4.75c0,.96.1,1.63.31,2.01s.54.57,1.01.57c.66,0,1.29-.11,1.89-.34s1.4-.74,2.38-1.54c.61-.5,1.12-.76,1.55-.76.34,0,.61.1.82.29s.31.42.31.68c0,1.03-.83,2.2-2.5,3.51s-3.42,1.96-5.27,1.96c-1.55,0-2.73-.46-3.54-1.37s-1.22-2.23-1.22-3.94c0-1.58.59-4.74,1.78-9.47-.75.08-1.27.12-1.56.12h-.37c-.54,0-1.09-.18-1.64-.53s-.83-.91-.83-1.69c0-.98.56-1.48,1.67-1.48l3.76-.14c.49-1.42,1.01-3.28,1.56-5.57.33-1.43,1.07-2.14,2.23-2.14.64,0,1.15.2,1.51.59s.54.83.54,1.31c0,.19-.5,2-1.49,5.43,3.73-.33,5.77-.49,6.13-.49.62,0,1.03.09,1.23.27s.3.53.3,1.05c0,1.04-.88,1.71-2.65,1.99l-6.06,1.02Z"/>
      <path class="st3" d="M408.94,511.66l.3-.56c1.42-2.85,2.94-5.16,4.58-6.93s3.23-2.66,4.79-2.66c1.2,0,2.17.33,2.93.98s1.13,1.44,1.13,2.34c0,.56-.13,1.05-.39,1.45s-.62.61-1.07.61c-.73,0-1.39-.3-1.99-.9-.42-.39-.76-.58-1-.58-.88,0-2.35,1.37-4.41,4.1s-3.3,5.8-3.73,9.21c-.13.98-.42,1.67-.86,2.07s-1.05.59-1.81.59c-.81,0-1.38-.46-1.72-1.38s-.51-2.42-.51-4.51c0-.86.02-2.01.07-3.46.05-1.37.18-3.05.4-5.03.06-.52.1-.92.12-1.21.11-1.15.23-1.94.36-2.36s.45-.83.94-1.2,1.04-.56,1.63-.56c.63,0,1.11.18,1.44.54s.49.76.49,1.2c0,.55-.26,1.69-.79,3.43-.19.6-.35,1.31-.47,2.14l-.44,2.71Z"/>
      <path class="st3" d="M432.62,515.05c-.28.6-.6,1.16-.95,1.69h.02c-2.07,3.25-4.22,4.87-6.43,4.87-1.07,0-1.9-.45-2.49-1.34s-.89-1.97-.89-3.25c0-1.79.27-3.51.81-5.15v.02c.6-1.8,1.33-3.4,2.2-4.78v.02c.83-1.35,1.87-2.55,3.11-3.62h-.02c1.55-1.31,3.45-1.97,5.7-1.97,1.23,0,2.02.32,2.37.95s.53,1.28.53,1.95c2.16-2.58,4.52-3.87,7.1-3.87,1.03,0,1.88.44,2.55,1.31s1,1.8,1,2.79c0,1.5-.55,3.01-1.64,4.52s-3.82,3.45-8.18,5.82c-.35.2-.53.45-.53.74,0,.41.24.8.73,1.16s1.16.54,2.01.54c2,0,4.28-1.34,6.84-4.01.45-.47.88-.7,1.3-.7.82,0,1.23.46,1.23,1.37,0,1.28-1.08,2.78-3.23,4.5s-4.42,2.58-6.79,2.58c-1.97,0-3.52-.54-4.65-1.63s-1.7-2.59-1.7-4.5ZM432.83,506.44c0-.21.06-.43.18-.65.13-.26.19-.52.19-.77,0-.19-.2-.28-.6-.28-1.22,0-2.26.59-3.14,1.76s-1.75,2.51-2.64,4.03-1.33,3.63-1.33,6.35c0,.35.23.53.69.53.29,0,.59-.11.88-.33s.85-.95,1.67-2.18,1.75-2.92,2.78-5.08l1.32-3.36ZM437.1,511.71c.19-.13.64-.41,1.37-.84,1.18-.69,2.35-1.62,3.51-2.79s1.73-2.06,1.73-2.68c0-.33-.11-.62-.32-.88s-.4-.39-.58-.39c-.97,0-2.04.74-3.19,2.22s-2,3.27-2.52,5.35Z"/>
      <path class="st3" d="M464.6,514.5c-3.04,4.3-6.09,6.45-9.16,6.45-1.24,0-2.24-.49-3.01-1.47s-1.14-2.22-1.14-3.74c0-3.06,1.25-6.1,3.75-9.12s5.04-4.54,7.6-4.54c1.48,0,2.53.39,3.15,1.16.88-3.84,1.4-6.25,1.56-7.21.35-1.78.64-2.96.88-3.55s.59-1.04,1.07-1.36.9-.48,1.25-.48c.6,0,1.05.25,1.37.74s.47,1.11.47,1.86c0,.33-.26,1.27-.77,2.83-.84,2.53-1.63,5.59-2.35,9.18s-1.08,6.44-1.08,8.56.45,3.04,1.34,3.04c.46,0,.94-.12,1.46-.37.52-.23.88-.35,1.09-.35.57,0,.86.33.86,1,0,.81-.58,1.61-1.75,2.42s-2.27,1.2-3.31,1.2c-1.12,0-1.99-.6-2.6-1.81s-.84-2.69-.69-4.45ZM462.65,505.49c-1.54,0-3.14,1.17-4.81,3.52s-2.5,4.49-2.5,6.43c0,1.14.42,1.71,1.27,1.71,1.43,0,3.13-1.27,5.12-3.81s2.97-4.55,2.97-6.03c0-.45-.19-.86-.56-1.24s-.87-.57-1.48-.57Z"/>
      <path class="st3" d="M491.63,514.33c0,1.22-1.03,2.67-3.08,4.37s-4.37,2.54-6.94,2.54c-1.98,0-3.54-.62-4.68-1.87s-1.71-2.99-1.71-5.21c0-3.28,1.16-6.36,3.48-9.23s4.8-4.31,7.44-4.31c1.31,0,2.37.42,3.16,1.25s1.2,1.82,1.2,2.97c0,2.04-.98,3.98-2.94,5.83s-4.46,3.12-7.52,3.82c-.35.08-.53.29-.53.63,0,.56.25,1.1.75,1.61s1.16.76,2,.76c2.36,0,4.69-1.21,7.01-3.64.45-.47.88-.7,1.3-.7.7,0,1.05.39,1.05,1.18ZM479.84,511.22c1.85-.38,3.48-1.17,4.9-2.37s2.12-2.3,2.12-3.29c0-.39-.11-.71-.33-.98s-.5-.4-.83-.4c-1.02,0-2.15.75-3.39,2.25s-2.06,3.09-2.46,4.78Z"/>
      <path class="st3" d="M498.94,511.66l.3-.56c1.42-2.85,2.94-5.16,4.58-6.93s3.23-2.66,4.79-2.66c1.2,0,2.17.33,2.93.98s1.13,1.44,1.13,2.34c0,.56-.13,1.05-.39,1.45s-.62.61-1.07.61c-.73,0-1.39-.3-1.99-.9-.42-.39-.76-.58-1-.58-.88,0-2.35,1.37-4.41,4.1s-3.3,5.8-3.73,9.21c-.13.98-.42,1.67-.86,2.07s-1.05.59-1.81.59c-.81,0-1.38-.46-1.72-1.38s-.51-2.42-.51-4.51c0-.86.02-2.01.07-3.46.05-1.37.18-3.05.4-5.03.06-.52.1-.92.12-1.21.11-1.15.23-1.94.36-2.36s.45-.83.94-1.2,1.04-.56,1.63-.56c.63,0,1.11.18,1.44.54s.49.76.49,1.2c0,.55-.26,1.69-.79,3.43-.19.6-.35,1.31-.47,2.14l-.44,2.71Z"/>
      <path class="st3" d="M528.46,508.7v.02c.38-2.13.56-3.35.56-3.66,0-.87.19-1.59.57-2.18s.91-.88,1.59-.88c.8,0,1.42.19,1.86.56s.67.8.67,1.27-.22,1.44-.65,2.9l-.11.39c-.64,2.26-1.03,4.11-1.16,5.54s-.19,2.58-.19,3.46c0,.71.12,1.67.37,2.87.04.21.05.39.05.53,0,.27-.25.63-.76,1.09s-1.06.69-1.64.69c-1.55,0-2.32-1.17-2.32-3.52,0-1.99.28-4.42.84-7.28.12-.63.22-1.23.32-1.79ZM536.95,494.25c0,.83-.38,1.56-1.12,2.19s-1.4.94-1.95.94c-.7,0-1.33-.29-1.87-.88s-.82-1.17-.82-1.76c0-.84.27-1.53.81-2.05s1.31-.78,2.32-.78c.79,0,1.42.23,1.91.69s.73,1.01.73,1.64Z"/>
      <path class="st3" d="M568.26,505.7h.02l-.04.04c-.68.38-1.23.7-1.65.98-.79.53-1.58,1.1-2.37,1.71-.91.7-1.6,1.29-2.06,1.78-.39.4-.58.69-.58.88,0,.21.69,1.03,2.06,2.47s2.46,2.46,3.26,3.08,1.6.93,2.38.93l.77-.02c.28,0,.51.08.68.25s.25.42.25.76c0,.48-.3,1.04-.9,1.67s-1.62.95-3.08.95c-.86,0-1.72-.31-2.6-.94s-2.23-2.04-4.04-4.25c-1.45-1.77-2.24-2.65-2.37-2.65-.08,0-.33.21-.74.63s-.68.74-.81.97v.02c-.2.97-.3,2.24-.3,3.81,0,.79-.23,1.42-.69,1.92s-1.03.74-1.7.74-1.23-.2-1.62-.59-.58-.79-.58-1.19c0-.42.15-1.35.44-2.78.56-2.78,1.04-6.46,1.42-11.06.38-3.67.7-6.53.98-8.59s.53-3.4.76-4.04.57-1.15,1.04-1.53.97-.57,1.51-.57.93.21,1.24.64.47.95.47,1.56c0,.76-.49,3.74-1.48,8.93l-.42,2.3h.02c-.52,3.39-.78,5.34-.79,5.87l5.4-4.89c2.75-2.66,4.78-3.99,6.06-3.99s1.86.5,1.86,1.49c0,1.24-.6,2.14-1.81,2.69Z"/>
      <path class="st3" d="M579.59,490.62c1.27,0,1.9.69,1.9,2.07,0,.63-.09,1.32-.26,2.05s-.66,2.55-1.44,5.44c-.57,2.1-1.01,4.39-1.31,6.86s-.45,4.42-.45,5.81c0,1.49.11,3.26.33,5.31.06.55.09.9.09,1.04,0,.7-.26,1.31-.77,1.81s-1.08.76-1.69.76c-.83,0-1.42-.39-1.76-1.18s-.51-2.13-.51-4.04c0-4.11.48-8.96,1.45-14.54s1.76-8.87,2.37-9.88,1.3-1.51,2.05-1.51Z"/>
      <path class="st3" d="M595.43,514.49c-3.08,4.07-6.06,6.1-8.93,6.1-1.05,0-1.96-.42-2.72-1.25s-1.14-1.89-1.14-3.18c0-3.11,1.38-6.41,4.15-9.92s5.55-5.26,8.37-5.26c1.43,0,2.37.72,2.81,2.16,1.35,0,2.02.52,2.02,1.55,0,.49-.13,1.38-.39,2.67-.47,2.41-.7,4.34-.7,5.78s.1,2.55.31,3.16.35,1.01.45,1.2.38.39.84.6c.47.22.7.53.7.93,0,.6-.3,1.1-.91,1.49s-1.23.6-1.89.6c-2.2,0-3.19-2.21-2.97-6.63ZM594.38,504.73c-1.18,0-2.72,1.31-4.61,3.93s-2.84,4.84-2.84,6.67c0,.96.2,1.44.6,1.44,1.38,0,3.08-1.23,5.11-3.68s3.03-4.6,3.03-6.44c0-.59-.13-1.05-.4-1.4s-.56-.52-.89-.52Z"/>
      <path class="st3" d="M611.62,506.1c-.11,0-.44,1.31-.99,3.92s-.83,4.2-.83,4.75c0,.96.1,1.63.31,2.01s.54.57,1.01.57c.66,0,1.29-.11,1.89-.34s1.4-.74,2.38-1.54c.61-.5,1.12-.76,1.55-.76.34,0,.61.1.82.29s.31.42.31.68c0,1.03-.83,2.2-2.5,3.51s-3.42,1.96-5.27,1.96c-1.55,0-2.73-.46-3.54-1.37s-1.22-2.23-1.22-3.94c0-1.58.59-4.74,1.78-9.47-.75.08-1.27.12-1.56.12h-.37c-.54,0-1.09-.18-1.64-.53s-.83-.91-.83-1.69c0-.98.56-1.48,1.67-1.48l3.76-.14c.49-1.42,1.01-3.28,1.56-5.57.33-1.43,1.07-2.14,2.23-2.14.64,0,1.15.2,1.51.59s.54.83.54,1.31c0,.19-.5,2-1.49,5.43,3.73-.33,5.77-.49,6.13-.49.62,0,1.03.09,1.23.27s.3.53.3,1.05c0,1.04-.88,1.71-2.65,1.99l-6.06,1.02Z"/>
      <path class="st3" d="M628.43,506.1c-.11,0-.44,1.31-.99,3.92s-.83,4.2-.83,4.75c0,.96.1,1.63.31,2.01s.54.57,1.01.57c.66,0,1.29-.11,1.89-.34s1.4-.74,2.38-1.54c.61-.5,1.12-.76,1.55-.76.34,0,.61.1.82.29s.31.42.31.68c0,1.03-.83,2.2-2.5,3.51s-3.42,1.96-5.27,1.96c-1.55,0-2.73-.46-3.54-1.37s-1.22-2.23-1.22-3.94c0-1.58.59-4.74,1.78-9.47-.75.08-1.27.12-1.56.12h-.37c-.54,0-1.09-.18-1.64-.53s-.83-.91-.83-1.69c0-.98.56-1.48,1.67-1.48l3.76-.14c.49-1.42,1.01-3.28,1.56-5.57.33-1.43,1.07-2.14,2.23-2.14.64,0,1.15.2,1.51.59s.54.83.54,1.31c0,.19-.5,2-1.49,5.43,3.73-.33,5.77-.49,6.13-.49.62,0,1.03.09,1.23.27s.3.53.3,1.05c0,1.04-.88,1.71-2.65,1.99l-6.06,1.02Z"/>
      <path class="st3" d="M653.79,514.33c0,1.22-1.03,2.67-3.08,4.37s-4.37,2.54-6.94,2.54c-1.98,0-3.54-.62-4.68-1.87s-1.71-2.99-1.71-5.21c0-3.28,1.16-6.36,3.48-9.23s4.8-4.31,7.44-4.31c1.31,0,2.37.42,3.16,1.25s1.2,1.82,1.2,2.97c0,2.04-.98,3.98-2.94,5.83s-4.46,3.12-7.52,3.82c-.35.08-.53.29-.53.63,0,.56.25,1.1.75,1.61s1.16.76,2,.76c2.36,0,4.69-1.21,7.01-3.64.45-.47.88-.7,1.3-.7.7,0,1.05.39,1.05,1.18ZM642,511.22c1.85-.38,3.48-1.17,4.9-2.37s2.12-2.3,2.12-3.29c0-.39-.11-.71-.33-.98s-.5-.4-.83-.4c-1.02,0-2.15.75-3.39,2.25s-2.06,3.09-2.46,4.78Z"/>
      <path class="st3" d="M661.1,511.66l.3-.56c1.42-2.85,2.94-5.16,4.58-6.93s3.23-2.66,4.79-2.66c1.2,0,2.17.33,2.93.98s1.13,1.44,1.13,2.34c0,.56-.13,1.05-.39,1.45s-.62.61-1.07.61c-.73,0-1.39-.3-1.99-.9-.42-.39-.76-.58-1-.58-.88,0-2.35,1.37-4.41,4.1s-3.3,5.8-3.73,9.21c-.13.98-.42,1.67-.86,2.07s-1.05.59-1.81.59c-.81,0-1.38-.46-1.72-1.38s-.51-2.42-.51-4.51c0-.86.02-2.01.07-3.46.05-1.37.18-3.05.4-5.03.06-.52.1-.92.12-1.21.11-1.15.23-1.94.36-2.36s.45-.83.94-1.2,1.04-.56,1.63-.56c.63,0,1.11.18,1.44.54s.49.76.49,1.2c0,.55-.26,1.69-.79,3.43-.19.6-.35,1.31-.47,2.14l-.44,2.71Z"/>
      <path class="st3" d="M690.44,517.81c-.56-1.05-.97-3.02-1.23-5.91-.26-3-.83-4.5-1.72-4.5-.84,0-2.3,1.56-4.38,4.68s-3.35,5.43-3.83,6.92c-.11.45-.3.81-.59,1.11s-.57.44-.85.44c-1.78,0-2.67-.81-2.67-2.44,0-.55.18-1.8.53-3.76.46-2.53.69-5.62.69-9.28,0-.55.24-1.14.72-1.77s.99-.94,1.53-.94c.68,0,1.2.17,1.56.51s.54,1.24.54,2.71c0,1.11-.33,3.27-1,6.47,2.54-5.95,5.38-8.93,8.51-8.93,2.72,0,4.31,2.14,4.78,6.42.47,4.36,1.01,6.54,1.62,6.54.27,0,.58-.06.93-.18.42-.14.76-.21,1-.21.56,0,.84.33.84.98,0,.6-.39,1.23-1.16,1.91s-1.75,1.01-2.92,1.01c-1.36,0-2.33-.59-2.92-1.78h.02Z"/>
      <path class="st3" d="M715.21,514.33c0,1.22-1.03,2.67-3.08,4.37s-4.37,2.54-6.94,2.54c-1.98,0-3.54-.62-4.68-1.87s-1.71-2.99-1.71-5.21c0-3.28,1.16-6.36,3.48-9.23s4.8-4.31,7.44-4.31c1.31,0,2.37.42,3.16,1.25s1.2,1.82,1.2,2.97c0,2.04-.98,3.98-2.94,5.83s-4.46,3.12-7.52,3.82c-.35.08-.53.29-.53.63,0,.56.25,1.1.75,1.61s1.16.76,2,.76c2.36,0,4.69-1.21,7.01-3.64.45-.47.88-.7,1.3-.7.7,0,1.05.39,1.05,1.18ZM703.41,511.22c1.85-.38,3.48-1.17,4.9-2.37s2.12-2.3,2.12-3.29c0-.39-.11-.71-.33-.98s-.5-.4-.83-.4c-1.02,0-2.15.75-3.39,2.25s-2.06,3.09-2.46,4.78Z"/>
      <path class="st3" d="M719.87,519.92c-.7,0-1.22-.14-1.56-.41s-.5-1-.5-2.17c0-.66.03-1.16.09-1.5s.34-.62.85-.82,1.25-.3,2.21-.3c.71,0,1.26.17,1.63.5s.56.7.56,1.1c0,.66-.1,1.16-.31,1.51s-.65.79-1.34,1.31-1.23.78-1.64.78Z"/>
      <path class="st3" d="M761.98,498.58l-5.41.28c-1.89.11-3.51.27-4.87.5s-2.09.4-2.21.53-.19.48-.24,1.08c-.06.59-.27,1.62-.63,3.09-.29,1.12-.47,2.04-.53,2.76.75,0,1.83-.08,3.23-.23s2.4-.3,2.99-.44c1.69-.41,2.99-.62,3.92-.62,1.85,0,2.78.55,2.78,1.65,0,.81-.26,1.37-.77,1.68s-1.32.52-2.43.64c-.68.07-1.44.18-2.29.32-.45.07-1,.14-1.67.21-3.25.38-5.16.67-5.75.88h-.02c-.2.06-.35.19-.45.4s-.28,1.08-.54,2.61-.39,2.6-.39,3.21c.06.43.33.65.81.65.56,0,2.04-.16,4.44-.47s3.88-.52,4.46-.64c1.61-.34,2.65-.51,3.15-.51,1.49.21,2.23.9,2.23,2.07,0,.54-.18.95-.53,1.23-1.17.53-2.79.86-4.87.98-1.61.09-3.55.29-5.84.6-2.04.43-3.96.65-5.77.65-.95,0-1.63-.2-2.06-.61s-.67-1.03-.76-1.89l-.05-.58c-.01-.09.09-.45.3-1.07.47-1.44,1.04-4.65,1.72-9.62s1.02-7.73,1.02-8.3c0-.01-.04-.06-.11-.14-.08-.07-.22-.3-.41-.68s-.29-.77-.29-1.17c0-.21.02-.38.07-.51.05-.25.3-.49.76-.74s.88-.37,1.28-.37c.55,0,1.11.04,1.67.11.97,0,4.14-.35,9.49-1.05,1.78-.23,2.71-.35,2.79-.35l.25-.02c2.11-.15,3.16.53,3.16,2.04,0,.28-.19.63-.57,1.05s-.75.67-1.1.76Z"/>
      <path class="st3" d="M772.48,490.62c1.27,0,1.9.69,1.9,2.07,0,.63-.09,1.32-.26,2.05s-.66,2.55-1.44,5.44c-.57,2.1-1.01,4.39-1.31,6.86s-.45,4.42-.45,5.81c0,1.49.11,3.26.33,5.31.06.55.09.9.09,1.04,0,.7-.26,1.31-.77,1.81s-1.08.76-1.69.76c-.83,0-1.42-.39-1.76-1.18s-.51-2.13-.51-4.04c0-4.11.48-8.96,1.45-14.54s1.76-8.87,2.37-9.88,1.3-1.51,2.05-1.51Z"/>
      <path class="st3" d="M782.71,490.62c1.27,0,1.9.69,1.9,2.07,0,.63-.09,1.32-.26,2.05s-.66,2.55-1.44,5.44c-.57,2.1-1.01,4.39-1.31,6.86s-.45,4.42-.45,5.81c0,1.49.11,3.26.33,5.31.06.55.09.9.09,1.04,0,.7-.26,1.31-.77,1.81s-1.08.76-1.69.76c-.83,0-1.42-.39-1.76-1.18s-.51-2.13-.51-4.04c0-4.11.48-8.96,1.45-14.54s1.76-8.87,2.37-9.88,1.3-1.51,2.05-1.51Z"/>
      <path class="st3" d="M802.24,514.33c0,1.22-1.03,2.67-3.08,4.37s-4.37,2.54-6.94,2.54c-1.98,0-3.54-.62-4.68-1.87s-1.71-2.99-1.71-5.21c0-3.28,1.16-6.36,3.48-9.23s4.8-4.31,7.44-4.31c1.31,0,2.37.42,3.16,1.25s1.2,1.82,1.2,2.97c0,2.04-.98,3.98-2.94,5.83s-4.46,3.12-7.52,3.82c-.35.08-.53.29-.53.63,0,.56.25,1.1.75,1.61s1.16.76,2,.76c2.36,0,4.69-1.21,7.01-3.64.45-.47.88-.7,1.3-.7.7,0,1.05.39,1.05,1.18ZM790.44,511.22c1.85-.38,3.48-1.17,4.9-2.37s2.12-2.3,2.12-3.29c0-.39-.11-.71-.33-.98s-.5-.4-.83-.4c-1.02,0-2.15.75-3.39,2.25s-2.06,3.09-2.46,4.78Z"/>
      <path class="st3" d="M809.55,511.66l.3-.56c1.42-2.85,2.94-5.16,4.58-6.93s3.23-2.66,4.79-2.66c1.2,0,2.17.33,2.93.98s1.13,1.44,1.13,2.34c0,.56-.13,1.05-.39,1.45s-.62.61-1.07.61c-.73,0-1.39-.3-1.99-.9-.42-.39-.76-.58-1-.58-.88,0-2.35,1.37-4.41,4.1s-3.3,5.8-3.73,9.21c-.13.98-.42,1.67-.86,2.07s-1.05.59-1.81.59c-.81,0-1.38-.46-1.72-1.38s-.51-2.42-.51-4.51c0-.86.02-2.01.07-3.46.05-1.37.18-3.05.4-5.03.06-.52.1-.92.12-1.21.11-1.15.23-1.94.36-2.36s.45-.83.94-1.2,1.04-.56,1.63-.56c.63,0,1.11.18,1.44.54s.49.76.49,1.2c0,.55-.26,1.69-.79,3.43-.19.6-.35,1.31-.47,2.14l-.44,2.71Z"/>
      <path class="st3" d="M839.06,508.7v.02c.38-2.13.56-3.35.56-3.66,0-.87.19-1.59.57-2.18s.91-.88,1.59-.88c.8,0,1.42.19,1.86.56s.67.8.67,1.27-.22,1.44-.65,2.9l-.11.39c-.64,2.26-1.03,4.11-1.16,5.54s-.19,2.58-.19,3.46c0,.71.12,1.67.37,2.87.04.21.05.39.05.53,0,.27-.25.63-.76,1.09s-1.06.69-1.64.69c-1.55,0-2.32-1.17-2.32-3.52,0-1.99.28-4.42.84-7.28.12-.63.22-1.23.32-1.79ZM847.55,494.25c0,.83-.38,1.56-1.12,2.19s-1.4.94-1.95.94c-.7,0-1.33-.29-1.87-.88s-.82-1.17-.82-1.76c0-.84.27-1.53.81-2.05s1.31-.78,2.32-.78c.79,0,1.42.23,1.91.69s.73,1.01.73,1.64Z"/>
      <path class="st3" d="M866.54,512.27c1.95-3.64,3.62-6.13,5.04-7.44s2.84-1.98,4.28-1.98c1,0,1.83.34,2.49,1.03s1.15,2.47,1.45,5.35c.13,1.37.29,2.48.49,3.32s.42,1.59.67,2.24.6,1.26,1.05,1.84c.35.46.53.9.53,1.32s-.2.81-.61,1.16-.87.53-1.4.53c-1.04,0-1.97-.57-2.78-1.71s-1.29-2.71-1.44-4.71c-.19-2.45-.39-4.01-.61-4.69s-.58-1.02-1.08-1.02c-.68,0-2,1.36-3.96,4.07s-3.38,4.88-4.25,6.51c-.54,1.23-.96,2.03-1.25,2.39s-.66.54-1.09.54c-.71,0-1.29-.18-1.74-.53s-.67-.85-.67-1.49c0-.32.16-1.31.47-2.97,1.2-6.29,2.17-12.99,2.94-20.09.19-1.71.55-2.89,1.08-3.54s1.02-.98,1.47-.98c.62,0,1.16.24,1.62.72s.69,1.15.69,2c0,1.31-.16,2.82-.47,4.54s-.91,4.44-1.78,8.19c-.53,2.26-.91,4.06-1.14,5.4Z"/>
      <path class="st3" d="M888.25,520.2c.01-.77-.45-2.44-1.39-4.99-1.89-5.05-2.83-8.65-2.83-10.79,0-1.92.76-2.88,2.27-2.88s2.21.88,2.21,2.64c0,1.12.03,1.92.08,2.4s.23,1.34.54,2.58.62,2.29.92,3.12c.18.5.39,1.16.63,1.97.14.5.26.86.37,1.05.07-.11.32-.56.74-1.37.25-.49,1.08-1.89,2.5-4.19s2.66-4.14,3.74-5.51,1.87-2.21,2.4-2.51,1.08-.46,1.67-.46,1.11.2,1.5.6.59.88.59,1.46c0,.68-.49,1.35-1.48,2-.96.66-2.27,2.16-3.93,4.5s-3.44,5.29-5.35,8.84c-1.08,2.03-2.04,3.04-2.9,3.04-.74,0-1.5-.5-2.29-1.49Z"/>
      <path class="st3" d="M920.33,514.33c0,1.22-1.03,2.67-3.08,4.37s-4.37,2.54-6.94,2.54c-1.98,0-3.54-.62-4.68-1.87s-1.71-2.99-1.71-5.21c0-3.28,1.16-6.36,3.48-9.23s4.8-4.31,7.44-4.31c1.31,0,2.37.42,3.16,1.25s1.2,1.82,1.2,2.97c0,2.04-.98,3.98-2.94,5.83s-4.46,3.12-7.52,3.82c-.35.08-.53.29-.53.63,0,.56.25,1.1.75,1.61s1.16.76,2,.76c2.36,0,4.69-1.21,7.01-3.64.45-.47.88-.7,1.3-.7.7,0,1.05.39,1.05,1.18ZM908.53,511.22c1.85-.38,3.48-1.17,4.9-2.37s2.12-2.3,2.12-3.29c0-.39-.11-.71-.33-.98s-.5-.4-.83-.4c-1.02,0-2.15.75-3.39,2.25s-2.06,3.09-2.46,4.78Z"/>
      <path class="st3" d="M927.64,511.66l.3-.56c1.42-2.85,2.94-5.16,4.58-6.93s3.23-2.66,4.79-2.66c1.2,0,2.17.33,2.93.98s1.13,1.44,1.13,2.34c0,.56-.13,1.05-.39,1.45s-.62.61-1.07.61c-.73,0-1.39-.3-1.99-.9-.42-.39-.76-.58-1-.58-.88,0-2.35,1.37-4.41,4.1s-3.3,5.8-3.73,9.21c-.13.98-.42,1.67-.86,2.07s-1.05.59-1.81.59c-.81,0-1.38-.46-1.72-1.38s-.51-2.42-.51-4.51c0-.86.02-2.01.07-3.46.05-1.37.18-3.05.4-5.03.06-.52.1-.92.12-1.21.11-1.15.23-1.94.36-2.36s.45-.83.94-1.2,1.04-.56,1.63-.56c.63,0,1.11.18,1.44.54s.49.76.49,1.2c0,.55-.26,1.69-.79,3.43-.19.6-.35,1.31-.47,2.14l-.44,2.71Z"/>
      <path class="st3" d="M950.26,506.1c-.11,0-.44,1.31-.99,3.92s-.83,4.2-.83,4.75c0,.96.1,1.63.31,2.01s.54.57,1.01.57c.66,0,1.29-.11,1.89-.34s1.4-.74,2.38-1.54c.61-.5,1.12-.76,1.55-.76.34,0,.61.1.82.29s.31.42.31.68c0,1.03-.83,2.2-2.5,3.51s-3.42,1.96-5.27,1.96c-1.55,0-2.73-.46-3.54-1.37s-1.22-2.23-1.22-3.94c0-1.58.59-4.74,1.78-9.47-.75.08-1.27.12-1.56.12h-.37c-.54,0-1.09-.18-1.64-.53s-.83-.91-.83-1.69c0-.98.56-1.48,1.67-1.48l3.76-.14c.49-1.42,1.01-3.28,1.56-5.57.33-1.43,1.07-2.14,2.23-2.14.64,0,1.15.2,1.51.59s.54.83.54,1.31c0,.19-.5,2-1.49,5.43,3.73-.33,5.77-.49,6.13-.49.62,0,1.03.09,1.23.27s.3.53.3,1.05c0,1.04-.88,1.71-2.65,1.99l-6.06,1.02Z"/>
      <path class="st3" d="M979.11,511.43l-.3,3.15c-.09,1.01-.14,2-.14,2.99,0,.89.08,1.92.25,3.09-.12.41-.41.76-.88,1.05s-.96.44-1.48.44c-1.61,0-2.41-1.02-2.41-3.06,0-.9.25-3.06.76-6.47.35-2.45.53-4.27.53-5.47,0-.07-.07-.15-.21-.25-.81-.52-1.21-1.01-1.21-1.48,0-.61.45-1.27,1.35-1.99.43-.34.7-.74.8-1.19s.24-1.16.43-2.14c.63-3.74,1.61-6.4,2.94-7.97s3.02-2.36,5.07-2.36c1.2,0,2.21.39,3.03,1.17s1.24,1.74,1.24,2.89c0,1.03-.24,2.1-.71,3.21s-1.1,1.66-1.87,1.66c-.34,0-.63-.11-.86-.33s-.35-.5-.35-.85l.11-1.53c0-1.83-.38-2.74-1.14-2.74-.95,0-1.84,1.19-2.66,3.58s-1.24,4.42-1.24,6.09c0,.18.11.26.33.26,2.43,0,4.14-.01,5.14-.04s1.5.36,1.5,1.16-.61,1.34-1.82,1.71-2.49.55-3.82.55c-.9.08-1.49.16-1.76.23-.28,1.73-.49,3.26-.62,4.59v.02Z"/>
      <path class="st3" d="M999.68,514.49c-3.08,4.07-6.06,6.1-8.93,6.1-1.05,0-1.96-.42-2.72-1.25s-1.14-1.89-1.14-3.18c0-3.11,1.38-6.41,4.15-9.92s5.55-5.26,8.37-5.26c1.43,0,2.37.72,2.81,2.16,1.35,0,2.02.52,2.02,1.55,0,.49-.13,1.38-.39,2.67-.47,2.41-.7,4.34-.7,5.78s.1,2.55.31,3.16.35,1.01.45,1.2.38.39.84.6c.47.22.7.53.7.93,0,.6-.3,1.1-.91,1.49s-1.23.6-1.89.6c-2.2,0-3.19-2.21-2.97-6.63ZM998.62,504.73c-1.18,0-2.72,1.31-4.61,3.93s-2.84,4.84-2.84,6.67c0,.96.2,1.44.6,1.44,1.38,0,3.08-1.23,5.11-3.68s3.03-4.6,3.03-6.44c0-.59-.13-1.05-.4-1.4s-.56-.52-.89-.52Z"/>
      <path class="st3" d="M1015.13,490.62c1.27,0,1.9.69,1.9,2.07,0,.63-.09,1.32-.26,2.05s-.66,2.55-1.44,5.44c-.57,2.1-1.01,4.39-1.31,6.86s-.45,4.42-.45,5.81c0,1.49.11,3.26.33,5.31.06.55.09.9.09,1.04,0,.7-.26,1.31-.77,1.81s-1.08.76-1.69.76c-.83,0-1.42-.39-1.76-1.18s-.51-2.13-.51-4.04c0-4.11.48-8.96,1.45-14.54s1.76-8.87,2.37-9.88,1.3-1.51,2.05-1.51Z"/>
      <path class="st3" d="M1031.35,514.5c-3.04,4.3-6.09,6.45-9.16,6.45-1.24,0-2.24-.49-3.01-1.47s-1.14-2.22-1.14-3.74c0-3.06,1.25-6.1,3.75-9.12s5.04-4.54,7.6-4.54c1.48,0,2.53.39,3.15,1.16.88-3.84,1.4-6.25,1.56-7.21.35-1.78.64-2.96.88-3.55s.59-1.04,1.07-1.36.9-.48,1.25-.48c.6,0,1.05.25,1.37.74s.47,1.11.47,1.86c0,.33-.26,1.27-.77,2.83-.84,2.53-1.62,5.59-2.35,9.18s-1.08,6.44-1.08,8.56.45,3.04,1.34,3.04c.46,0,.94-.12,1.46-.37.52-.23.88-.35,1.09-.35.57,0,.86.33.86,1,0,.81-.58,1.61-1.75,2.42s-2.27,1.2-3.31,1.2c-1.12,0-1.99-.6-2.6-1.81s-.84-2.69-.69-4.45ZM1029.4,505.49c-1.54,0-3.14,1.17-4.81,3.52s-2.51,4.49-2.51,6.43c0,1.14.42,1.71,1.27,1.71,1.43,0,3.13-1.27,5.12-3.81s2.97-4.55,2.97-6.03c0-.45-.19-.86-.56-1.24s-.87-.57-1.48-.57Z"/>
      <path class="st3" d="M1058.81,503.31c1.14-6.74,1.95-10.73,2.45-11.97s1.37-1.86,2.61-1.86c.96,0,1.44.85,1.44,2.55,0,1.16-.48,3.57-1.44,7.22-.5,1.8-1.11,4.54-1.83,8.19,1.45-1.93,3.04-3.5,4.75-4.69s3.25-1.79,4.6-1.79c1.1,0,2.02.47,2.75,1.42s1.1,2.05,1.1,3.33c0,3.61-1.39,7-4.16,10.18s-5.72,4.76-8.83,4.76c-.94,0-1.81-.25-2.62-.76s-1.27-1.16-1.37-1.96c-.05-.43-.13-.72-.26-.86s-.26-.29-.4-.46c-.34-.35-.51-.84-.51-1.48,0-.73.18-2.24.54-4.54l1.18-7.28ZM1060.88,515.79c.49.82,1.04,1.23,1.65,1.23,1.1,0,2.32-.51,3.67-1.52s2.51-2.44,3.5-4.28,1.49-3.37,1.49-4.59-.18-1.74-.54-1.74c-1.86,0-3.96,1.36-6.28,4.09s-3.48,5-3.48,6.81Z"/>
      <path class="st3" d="M1089.97,514.49c-3.08,4.07-6.06,6.1-8.93,6.1-1.05,0-1.96-.42-2.72-1.25s-1.14-1.89-1.14-3.18c0-3.11,1.38-6.41,4.15-9.92s5.55-5.26,8.37-5.26c1.43,0,2.37.72,2.81,2.16,1.35,0,2.02.52,2.02,1.55,0,.49-.13,1.38-.39,2.67-.47,2.41-.7,4.34-.7,5.78s.1,2.55.31,3.16.35,1.01.45,1.2.38.39.84.6c.47.22.7.53.7.93,0,.6-.3,1.1-.91,1.49s-1.23.6-1.89.6c-2.2,0-3.19-2.21-2.97-6.63ZM1088.92,504.73c-1.18,0-2.72,1.31-4.61,3.93s-2.84,4.84-2.84,6.67c0,.96.2,1.44.6,1.44,1.38,0,3.08-1.23,5.11-3.68s3.03-4.6,3.03-6.44c0-.59-.13-1.05-.4-1.4s-.56-.52-.89-.52Z"/>
      <path class="st3" d="M1103.39,511.66l.3-.56c1.42-2.85,2.94-5.16,4.58-6.93s3.23-2.66,4.79-2.66c1.2,0,2.17.33,2.93.98s1.13,1.44,1.13,2.34c0,.56-.13,1.05-.39,1.45s-.62.61-1.07.61c-.73,0-1.39-.3-1.99-.9-.42-.39-.76-.58-1-.58-.88,0-2.35,1.37-4.41,4.1s-3.3,5.8-3.73,9.21c-.13.98-.42,1.67-.86,2.07s-1.05.59-1.81.59c-.81,0-1.38-.46-1.72-1.38s-.51-2.42-.51-4.51c0-.86.02-2.01.07-3.46.05-1.37.18-3.05.4-5.03.06-.52.1-.92.12-1.21.11-1.15.23-1.94.36-2.36s.45-.83.94-1.2,1.04-.56,1.63-.56c.63,0,1.11.18,1.44.54s.49.76.49,1.2c0,.55-.26,1.69-.79,3.43-.19.6-.35,1.31-.47,2.14l-.44,2.71Z"/>
      <path class="st3" d="M1133.16,514.33c0,1.22-1.03,2.67-3.08,4.37s-4.37,2.54-6.94,2.54c-1.98,0-3.54-.62-4.68-1.87s-1.71-2.99-1.71-5.21c0-3.28,1.16-6.36,3.48-9.23s4.8-4.31,7.44-4.31c1.31,0,2.37.42,3.16,1.25s1.2,1.82,1.2,2.97c0,2.04-.98,3.98-2.94,5.83s-4.46,3.12-7.52,3.82c-.35.08-.53.29-.53.63,0,.56.25,1.1.75,1.61s1.16.76,2,.76c2.36,0,4.69-1.21,7.01-3.64.45-.47.88-.7,1.3-.7.7,0,1.05.39,1.05,1.18ZM1121.37,511.22c1.85-.38,3.48-1.17,4.9-2.37s2.12-2.3,2.12-3.29c0-.39-.11-.71-.33-.98s-.5-.4-.83-.4c-1.02,0-2.15.75-3.39,2.25s-2.06,3.09-2.46,4.78Z"/>
      <path class="st3" d="M388.99,551.9v.02c.38-2.13.56-3.35.56-3.66,0-.87.19-1.59.57-2.18s.91-.88,1.59-.88c.8,0,1.42.19,1.86.56s.67.8.67,1.27-.22,1.44-.65,2.9l-.11.39c-.64,2.26-1.03,4.11-1.16,5.54s-.19,2.58-.19,3.46c0,.71.12,1.67.37,2.87.04.21.05.39.05.53,0,.27-.25.63-.76,1.09s-1.06.69-1.64.69c-1.55,0-2.32-1.17-2.32-3.52,0-1.99.28-4.42.84-7.28.12-.63.22-1.23.32-1.79ZM397.48,537.46c0,.83-.38,1.56-1.12,2.19s-1.4.94-1.95.94c-.7,0-1.33-.29-1.87-.88s-.82-1.17-.82-1.76c0-.84.27-1.53.81-2.05s1.31-.78,2.32-.78c.79,0,1.42.23,1.91.69s.73,1.01.73,1.64Z"/>
      <path class="st3" d="M412.85,561.01c-.56-1.05-.97-3.02-1.23-5.91-.26-3-.83-4.5-1.72-4.5-.84,0-2.3,1.56-4.38,4.68s-3.35,5.43-3.83,6.92c-.11.45-.3.81-.59,1.11s-.57.44-.85.44c-1.78,0-2.67-.81-2.67-2.44,0-.55.18-1.8.53-3.76.46-2.53.69-5.62.69-9.28,0-.55.24-1.14.72-1.77s.99-.94,1.53-.94c.68,0,1.2.17,1.56.51s.54,1.24.54,2.71c0,1.11-.33,3.27-1,6.47,2.54-5.95,5.38-8.93,8.51-8.93,2.72,0,4.31,2.14,4.78,6.42.47,4.36,1.01,6.54,1.62,6.54.27,0,.58-.06.93-.18.42-.14.76-.21,1-.21.56,0,.84.33.84.98,0,.6-.39,1.23-1.16,1.91s-1.75,1.01-2.92,1.01c-1.36,0-2.33-.59-2.92-1.78h.02Z"/>
      <path class="st3" d="M434.31,557.71c-3.04,4.3-6.09,6.45-9.16,6.45-1.24,0-2.24-.49-3.01-1.47s-1.14-2.22-1.14-3.74c0-3.06,1.25-6.1,3.75-9.12s5.04-4.54,7.6-4.54c1.48,0,2.53.39,3.15,1.16.88-3.84,1.4-6.25,1.56-7.21.35-1.78.64-2.96.88-3.55s.59-1.04,1.07-1.36.9-.48,1.25-.48c.6,0,1.05.25,1.37.74s.47,1.11.47,1.86c0,.33-.26,1.27-.77,2.83-.84,2.53-1.63,5.59-2.35,9.18s-1.08,6.44-1.08,8.56.45,3.04,1.34,3.04c.46,0,.94-.12,1.46-.37.52-.23.88-.35,1.09-.35.57,0,.86.33.86,1,0,.81-.58,1.61-1.75,2.42s-2.27,1.2-3.31,1.2c-1.12,0-1.99-.6-2.6-1.81s-.84-2.69-.69-4.45ZM432.36,548.69c-1.54,0-3.14,1.17-4.81,3.52s-2.5,4.49-2.5,6.43c0,1.14.42,1.71,1.27,1.71,1.43,0,3.13-1.27,5.12-3.81s2.97-4.55,2.97-6.03c0-.45-.19-.86-.56-1.24s-.87-.57-1.48-.57Z"/>
      <path class="st3" d="M461.35,557.53c0,1.22-1.03,2.67-3.08,4.37s-4.37,2.54-6.94,2.54c-1.98,0-3.54-.62-4.68-1.87s-1.71-2.99-1.71-5.21c0-3.28,1.16-6.36,3.48-9.23s4.8-4.31,7.44-4.31c1.31,0,2.37.42,3.16,1.25s1.2,1.82,1.2,2.97c0,2.04-.98,3.98-2.94,5.83s-4.46,3.12-7.52,3.82c-.35.08-.53.29-.53.63,0,.56.25,1.1.75,1.61s1.16.76,2,.76c2.36,0,4.69-1.21,7.01-3.64.45-.47.88-.7,1.3-.7.7,0,1.05.39,1.05,1.18ZM449.55,554.42c1.85-.38,3.48-1.17,4.9-2.37s2.12-2.3,2.12-3.29c0-.39-.11-.71-.33-.98s-.5-.4-.83-.4c-1.02,0-2.15.75-3.39,2.25s-2.06,3.09-2.46,4.78Z"/>
      <path class="st3" d="M479.03,561.01c-.56-1.05-.97-3.02-1.23-5.91-.26-3-.83-4.5-1.72-4.5-.84,0-2.3,1.56-4.38,4.68s-3.35,5.43-3.83,6.92c-.11.45-.3.81-.59,1.11s-.57.44-.85.44c-1.78,0-2.67-.81-2.67-2.44,0-.55.18-1.8.53-3.76.46-2.53.69-5.62.69-9.28,0-.55.24-1.14.72-1.77s.99-.94,1.53-.94c.68,0,1.2.17,1.56.51s.54,1.24.54,2.71c0,1.11-.33,3.27-1,6.47,2.54-5.95,5.38-8.93,8.51-8.93,2.72,0,4.31,2.14,4.78,6.42.47,4.36,1.01,6.54,1.62,6.54.27,0,.58-.06.93-.18.42-.14.76-.21,1-.21.56,0,.84.33.84.98,0,.6-.39,1.23-1.16,1.91s-1.75,1.01-2.92,1.01c-1.36,0-2.33-.59-2.92-1.78h.02Z"/>
      <path class="st3" d="M514.89,557.71c-3.04,4.3-6.09,6.45-9.16,6.45-1.24,0-2.24-.49-3.01-1.47s-1.14-2.22-1.14-3.74c0-3.06,1.25-6.1,3.75-9.12s5.04-4.54,7.6-4.54c1.48,0,2.53.39,3.15,1.16.88-3.84,1.4-6.25,1.56-7.21.35-1.78.64-2.96.88-3.55s.59-1.04,1.07-1.36.9-.48,1.25-.48c.6,0,1.05.25,1.37.74s.47,1.11.47,1.86c0,.33-.26,1.27-.77,2.83-.84,2.53-1.63,5.59-2.35,9.18s-1.08,6.44-1.08,8.56.45,3.04,1.34,3.04c.46,0,.94-.12,1.46-.37.52-.23.88-.35,1.09-.35.57,0,.86.33.86,1,0,.81-.58,1.61-1.75,2.42s-2.27,1.2-3.31,1.2c-1.12,0-1.99-.6-2.6-1.81s-.84-2.69-.69-4.45ZM512.94,548.69c-1.54,0-3.14,1.17-4.81,3.52s-2.5,4.49-2.5,6.43c0,1.14.42,1.71,1.27,1.71,1.43,0,3.13-1.27,5.12-3.81s2.97-4.55,2.97-6.03c0-.45-.19-.86-.56-1.24s-.87-.57-1.48-.57Z"/>
      <path class="st3" d="M527.44,551.9v.02c.38-2.13.56-3.35.56-3.66,0-.87.19-1.59.57-2.18s.91-.88,1.59-.88c.8,0,1.42.19,1.86.56s.67.8.67,1.27-.22,1.44-.65,2.9l-.11.39c-.64,2.26-1.03,4.11-1.16,5.54s-.19,2.58-.19,3.46c0,.71.12,1.67.37,2.87.04.21.05.39.05.53,0,.27-.25.63-.76,1.09s-1.06.69-1.64.69c-1.55,0-2.32-1.17-2.32-3.52,0-1.99.28-4.42.84-7.28.12-.63.22-1.23.32-1.79ZM535.93,537.46c0,.83-.38,1.56-1.12,2.19s-1.4.94-1.95.94c-.7,0-1.33-.29-1.87-.88s-.82-1.17-.82-1.76c0-.84.27-1.53.81-2.05s1.31-.78,2.32-.78c.79,0,1.42.23,1.91.69s.73,1.01.73,1.64Z"/>
      <path class="st3" d="M551.29,561.01c-.56-1.05-.97-3.02-1.23-5.91-.26-3-.83-4.5-1.72-4.5-.84,0-2.3,1.56-4.38,4.68s-3.35,5.43-3.83,6.92c-.11.45-.3.81-.59,1.11s-.57.44-.85.44c-1.78,0-2.67-.81-2.67-2.44,0-.55.18-1.8.53-3.76.46-2.53.69-5.62.69-9.28,0-.55.24-1.14.72-1.77s.99-.94,1.53-.94c.68,0,1.2.17,1.56.51s.54,1.24.54,2.71c0,1.11-.33,3.27-1,6.47,2.54-5.95,5.38-8.93,8.51-8.93,2.72,0,4.31,2.14,4.78,6.42.47,4.36,1.01,6.54,1.62,6.54.27,0,.58-.06.93-.18.42-.14.76-.21,1-.21.56,0,.84.33.84.98,0,.6-.39,1.23-1.16,1.91s-1.75,1.01-2.92,1.01c-1.36,0-2.33-.59-2.92-1.78h.02Z"/>
      <path class="st3" d="M579.36,562.54c-.14,1.21-.81,1.81-2.02,1.81-1.54,0-2.3-1.11-2.3-3.32,0-3.59.19-6.65.58-9.19.3-1.98.46-3.93.46-5.84,0-.46.15-.84.44-1.15s.7-.47,1.23-.47c1.76,0,2.64,1.07,2.64,3.2,0,.69-.31,2.46-.93,5.29-.38,1.69-.56,2.91-.56,3.67,3.35-7.36,6.38-11.04,9.07-11.04,1.09,0,1.97.43,2.63,1.3s1,2.79,1.03,5.77c.01,2.72.15,4.08.42,4.08.21,0,.94-1.32,2.2-3.96,1.39-2.92,2.59-4.85,3.58-5.78s2.03-1.41,3.12-1.41c1.3,0,2.24.56,2.83,1.68s1,3.01,1.23,5.67c.18,2.11.41,3.7.71,4.78s.81,1.79,1.54,2.14c.59.28.88.7.88,1.27,0,.5-.33,1.01-1,1.52s-1.35.76-2.04.76c-1.2,0-2.13-.59-2.8-1.77s-1.13-3.54-1.36-7.09c-.13-1.71-.27-2.84-.41-3.4s-.37-.83-.66-.83c-.26,0-.63.42-1.12,1.26s-1.34,2.5-2.55,5c-1.07,2.25-1.98,3.82-2.75,4.71s-1.59,1.34-2.47,1.34c-.68,0-1.36-.29-2.05-.88s-1.06-2.71-1.12-6.38c-.06-3.27-.27-4.9-.63-4.9-.49,0-1.68,1.45-3.55,4.36s-3.29,5.51-4.24,7.8Z"/>
      <path class="st3" d="M627.34,554.66c-.79,2.74-2.28,5.05-4.47,6.93s-4.39,2.82-6.58,2.82c-1.73,0-3.16-.64-4.29-1.91s-1.69-2.83-1.69-4.68c0-3.02,1.03-6,3.09-8.93s4.56-4.39,7.51-4.39c2,0,3.63.74,4.87,2.22s1.86,3.25,1.86,5.3c0,.89-.1,1.76-.3,2.62v.02ZM618.19,549.11c-.82.73-1.62,1.89-2.41,3.48s-1.18,3.19-1.18,4.8c0,.97.18,1.78.54,2.41s.83.95,1.42.95c1.45,0,2.96-.86,4.54-2.58s2.36-3.66,2.36-5.8c0-1.21-.25-2.2-.76-2.98s-1.22-1.17-2.14-1.17-1.65.3-2.34.9h-.02Z"/>
      <path class="st3" d="M635.4,554.86l.3-.56c1.42-2.85,2.94-5.16,4.58-6.93s3.23-2.66,4.79-2.66c1.2,0,2.17.33,2.93.98s1.13,1.44,1.13,2.34c0,.56-.13,1.05-.39,1.45s-.62.61-1.07.61c-.73,0-1.39-.3-1.99-.9-.42-.39-.76-.58-1-.58-.88,0-2.35,1.37-4.41,4.1s-3.3,5.8-3.73,9.21c-.13.98-.42,1.67-.86,2.07s-1.05.59-1.81.59c-.81,0-1.38-.46-1.72-1.38s-.51-2.42-.51-4.51c0-.86.02-2.01.07-3.46.05-1.37.18-3.05.4-5.03.06-.52.1-.92.12-1.21.11-1.15.23-1.94.36-2.36s.45-.83.94-1.2,1.04-.56,1.63-.56c.63,0,1.11.18,1.44.54s.49.76.49,1.2c0,.55-.26,1.69-.79,3.43-.19.6-.35,1.31-.47,2.14l-.44,2.71Z"/>
      <path class="st3" d="M679.98,548.9h.02l-.04.04c-.68.38-1.23.7-1.65.98-.79.53-1.58,1.1-2.37,1.71-.91.7-1.6,1.29-2.06,1.78-.39.4-.58.69-.58.88,0,.21.69,1.03,2.06,2.47s2.46,2.46,3.26,3.08,1.6.93,2.38.93l.77-.02c.28,0,.51.08.68.25s.25.42.25.76c0,.48-.3,1.04-.9,1.67s-1.62.95-3.08.95c-.86,0-1.72-.31-2.6-.94s-2.23-2.04-4.04-4.25c-1.45-1.77-2.24-2.65-2.37-2.65-.08,0-.33.21-.74.63s-.68.74-.81.97v.02c-.2.97-.3,2.24-.3,3.81,0,.79-.23,1.42-.69,1.92s-1.03.74-1.7.74-1.23-.2-1.62-.59-.58-.79-.58-1.19c0-.42.15-1.35.44-2.78.56-2.78,1.04-6.46,1.42-11.06.38-3.67.7-6.53.98-8.59s.53-3.4.76-4.04.57-1.15,1.04-1.53.97-.57,1.51-.57.93.21,1.24.64.47.95.47,1.56c0,.76-.49,3.74-1.48,8.93l-.42,2.3h.02c-.52,3.39-.78,5.34-.79,5.87l5.4-4.89c2.75-2.66,4.78-3.99,6.06-3.99s1.86.5,1.86,1.49c0,1.24-.6,2.14-1.81,2.69Z"/>
      <path class="st3" d="M701.5,554.66c-.79,2.74-2.28,5.05-4.47,6.93s-4.39,2.82-6.58,2.82c-1.73,0-3.16-.64-4.29-1.91s-1.69-2.83-1.69-4.68c0-3.02,1.03-6,3.09-8.93s4.56-4.39,7.51-4.39c2,0,3.63.74,4.87,2.22s1.86,3.25,1.86,5.3c0,.89-.1,1.76-.3,2.62v.02ZM692.36,549.11c-.82.73-1.62,1.89-2.41,3.48s-1.18,3.19-1.18,4.8c0,.97.18,1.78.54,2.41s.83.95,1.42.95c1.45,0,2.96-.86,4.54-2.58s2.36-3.66,2.36-5.8c0-1.21-.25-2.2-.76-2.98s-1.22-1.17-2.14-1.17-1.65.3-2.34.9h-.02Z"/>
      <path class="st3" d="M709.81,562.54c-.14,1.21-.81,1.81-2.02,1.81-1.54,0-2.3-1.11-2.3-3.32,0-3.59.19-6.65.58-9.19.3-1.98.46-3.93.46-5.84,0-.46.15-.84.44-1.15s.7-.47,1.23-.47c1.76,0,2.64,1.07,2.64,3.2,0,.69-.31,2.46-.93,5.29-.38,1.69-.56,2.91-.56,3.67,3.35-7.36,6.38-11.04,9.07-11.04,1.09,0,1.97.43,2.63,1.3s1,2.79,1.03,5.77c.01,2.72.15,4.08.42,4.08.21,0,.94-1.32,2.2-3.96,1.39-2.92,2.59-4.85,3.58-5.78s2.03-1.41,3.12-1.41c1.3,0,2.24.56,2.83,1.68s1,3.01,1.23,5.67c.18,2.11.41,3.7.71,4.78s.81,1.79,1.54,2.14c.59.28.88.7.88,1.27,0,.5-.33,1.01-1,1.52s-1.35.76-2.04.76c-1.2,0-2.13-.59-2.8-1.77s-1.13-3.54-1.36-7.09c-.13-1.71-.27-2.84-.41-3.4s-.37-.83-.66-.83c-.26,0-.63.42-1.12,1.26s-1.34,2.5-2.55,5c-1.07,2.25-1.98,3.82-2.75,4.71s-1.59,1.34-2.47,1.34c-.68,0-1.36-.29-2.05-.88s-1.06-2.71-1.12-6.38c-.06-3.27-.27-4.9-.63-4.9-.49,0-1.68,1.45-3.55,4.36s-3.29,5.51-4.24,7.8Z"/>
      <path class="st3" d="M745.81,562.54c-.14,1.21-.81,1.81-2.02,1.81-1.54,0-2.3-1.11-2.3-3.32,0-3.59.19-6.65.58-9.19.3-1.98.46-3.93.46-5.84,0-.46.15-.84.44-1.15s.7-.47,1.23-.47c1.76,0,2.64,1.07,2.64,3.2,0,.69-.31,2.46-.93,5.29-.38,1.69-.56,2.91-.56,3.67,3.35-7.36,6.38-11.04,9.07-11.04,1.09,0,1.97.43,2.63,1.3s1,2.79,1.03,5.77c.01,2.72.15,4.08.42,4.08.21,0,.94-1.32,2.2-3.96,1.39-2.92,2.59-4.85,3.58-5.78s2.03-1.41,3.12-1.41c1.3,0,2.24.56,2.83,1.68s1,3.01,1.23,5.67c.18,2.11.41,3.7.71,4.78s.81,1.79,1.54,2.14c.59.28.88.7.88,1.27,0,.5-.33,1.01-1,1.52s-1.35.76-2.04.76c-1.2,0-2.13-.59-2.8-1.77s-1.13-3.54-1.36-7.09c-.13-1.71-.27-2.84-.41-3.4s-.37-.83-.66-.83c-.26,0-.63.42-1.12,1.26s-1.34,2.5-2.55,5c-1.07,2.25-1.98,3.82-2.75,4.71s-1.59,1.34-2.47,1.34c-.68,0-1.36-.29-2.05-.88s-1.06-2.71-1.12-6.38c-.06-3.27-.27-4.9-.63-4.9-.49,0-1.68,1.45-3.55,4.36s-3.29,5.51-4.24,7.8Z"/>
      <path class="st3" d="M792.9,557.53c0,1.22-1.03,2.67-3.08,4.37s-4.37,2.54-6.94,2.54c-1.98,0-3.54-.62-4.68-1.87s-1.71-2.99-1.71-5.21c0-3.28,1.16-6.36,3.48-9.23s4.8-4.31,7.44-4.31c1.31,0,2.37.42,3.16,1.25s1.2,1.82,1.2,2.97c0,2.04-.98,3.98-2.94,5.83s-4.46,3.12-7.52,3.82c-.35.08-.53.29-.53.63,0,.56.25,1.1.75,1.61s1.16.76,2,.76c2.36,0,4.69-1.21,7.01-3.64.45-.47.88-.7,1.3-.7.7,0,1.05.39,1.05,1.18ZM781.11,554.42c1.85-.38,3.48-1.17,4.9-2.37s2.12-2.3,2.12-3.29c0-.39-.11-.71-.33-.98s-.5-.4-.83-.4c-1.02,0-2.15.75-3.39,2.25s-2.06,3.09-2.46,4.78Z"/>
      <path class="st3" d="M800.22,554.86l.3-.56c1.42-2.85,2.94-5.16,4.58-6.93s3.23-2.66,4.79-2.66c1.2,0,2.17.33,2.93.98s1.13,1.44,1.13,2.34c0,.56-.13,1.05-.39,1.45s-.62.61-1.07.61c-.73,0-1.39-.3-1.99-.9-.42-.39-.76-.58-1-.58-.88,0-2.35,1.37-4.41,4.1s-3.3,5.8-3.73,9.21c-.13.98-.42,1.67-.86,2.07s-1.05.59-1.81.59c-.81,0-1.38-.46-1.72-1.38s-.51-2.42-.51-4.51c0-.86.02-2.01.07-3.46.05-1.37.18-3.05.4-5.03.06-.52.1-.92.12-1.21.11-1.15.23-1.94.36-2.36s.45-.83.94-1.2,1.04-.56,1.63-.56c.63,0,1.11.18,1.44.54s.49.76.49,1.2c0,.55-.26,1.69-.79,3.43-.19.6-.35,1.31-.47,2.14l-.44,2.71Z"/>
      <path class="st3" d="M832.56,562.33c-.2.82-.4,2.06-.6,3.73l-.84,6.91c-.14,1.12-.41,1.9-.82,2.34s-.9.65-1.49.65c-.53,0-1.03-.2-1.5-.59s-.71-.83-.71-1.31c0-.95.15-2.04.44-3.29,1.75-6.97,2.7-14.21,2.87-21.71v-.35c0-1.57.04-2.62.13-3.14s.34-.98.76-1.38,1-.6,1.77-.6c1.28,0,1.92.98,1.92,2.94,0,.8-.15,2.15-.44,4.06l-.18,1.21c1.34-2.23,2.92-4.08,4.76-5.55s3.49-2.21,4.94-2.21c1.31,0,2.43.47,3.35,1.41s1.38,2.12,1.38,3.53c0,3.79-1.47,7.23-4.4,10.33s-5.84,4.65-8.71,4.65c-1.36,0-2.23-.54-2.62-1.63ZM842.88,548.04c-1.43,0-3.28,1.39-5.56,4.18s-3.42,4.98-3.42,6.57c0,.41.2.78.61,1.1s.88.48,1.42.48c1.49,0,3.2-1.17,5.12-3.51s2.89-4.6,2.89-6.78c0-.73-.11-1.25-.33-1.57s-.46-.48-.72-.48Z"/>
      <path class="st3" d="M863.71,557.69c-3.08,4.07-6.06,6.1-8.93,6.1-1.05,0-1.96-.42-2.72-1.25s-1.14-1.89-1.14-3.18c0-3.11,1.38-6.41,4.15-9.92s5.55-5.26,8.37-5.26c1.43,0,2.37.72,2.81,2.16,1.35,0,2.02.52,2.02,1.55,0,.49-.13,1.38-.39,2.67-.47,2.41-.7,4.34-.7,5.78s.1,2.55.31,3.16.35,1.01.45,1.2.38.39.84.6c.47.22.7.53.7.93,0,.6-.3,1.1-.91,1.49s-1.23.6-1.89.6c-2.2,0-3.19-2.21-2.97-6.63ZM862.65,547.93c-1.18,0-2.72,1.31-4.61,3.93s-2.84,4.84-2.84,6.67c0,.96.2,1.44.6,1.44,1.38,0,3.08-1.23,5.11-3.68s3.03-4.6,3.03-6.44c0-.59-.13-1.05-.4-1.4s-.56-.52-.89-.52ZM867.96,536.72c.25.57.37,1.08.37,1.53,0,1.17-.58,2.25-1.73,3.23s-2.36,1.48-3.61,1.48-2.33-.42-3.17-1.26-1.26-1.85-1.26-3.03c0-1.05.52-2.08,1.57-3.08s2.45-1.49,4.19-1.49c.43,0,1.08.2,1.94.61s1.43,1.08,1.7,2.03v-.02ZM862.78,536.79c-.22.02-.43.25-.62.69s-.28.87-.28,1.32c0,.4.15.81.45,1.24s.57.64.82.64c.09,0,.45-.14,1.06-.42s.92-.9.92-1.85c0-.06-.02-.16-.05-.3-.05-.14-.09-.29-.12-.46l-.12-.42c-.05-.13-.07-.21-.07-.25,0-.09-.17-.17-.5-.23s-.57-.09-.71-.09c-.28,0-.54.04-.77.12Z"/>
      <path class="st3" d="M888.9,546.51c1.14-6.74,1.95-10.73,2.45-11.97s1.37-1.86,2.61-1.86c.96,0,1.44.85,1.44,2.55,0,1.16-.48,3.57-1.44,7.22-.5,1.8-1.11,4.54-1.83,8.19,1.45-1.93,3.04-3.5,4.75-4.69s3.25-1.79,4.6-1.79c1.1,0,2.02.47,2.75,1.42s1.1,2.05,1.1,3.33c0,3.61-1.39,7-4.16,10.18s-5.72,4.76-8.83,4.76c-.94,0-1.81-.25-2.62-.76s-1.27-1.16-1.37-1.96c-.05-.43-.13-.72-.26-.86s-.26-.29-.4-.46c-.34-.35-.51-.84-.51-1.48,0-.73.18-2.24.54-4.54l1.18-7.28ZM890.97,558.99c.49.82,1.04,1.23,1.65,1.23,1.1,0,2.32-.51,3.67-1.52s2.51-2.44,3.5-4.28,1.49-3.37,1.49-4.59-.18-1.74-.54-1.74c-1.86,0-3.96,1.36-6.28,4.09s-3.48,5-3.48,6.81Z"/>
      <path class="st3" d="M923.76,557.53c0,1.22-1.03,2.67-3.08,4.37s-4.37,2.54-6.94,2.54c-1.98,0-3.54-.62-4.68-1.87s-1.71-2.99-1.71-5.21c0-3.28,1.16-6.36,3.48-9.23s4.8-4.31,7.44-4.31c1.31,0,2.37.42,3.16,1.25s1.2,1.82,1.2,2.97c0,2.04-.98,3.98-2.94,5.83s-4.46,3.12-7.52,3.82c-.35.08-.53.29-.53.63,0,.56.25,1.1.75,1.61s1.16.76,2,.76c2.36,0,4.69-1.21,7.01-3.64.45-.47.88-.7,1.3-.7.7,0,1.05.39,1.05,1.18ZM911.96,554.42c1.85-.38,3.48-1.17,4.9-2.37s2.12-2.3,2.12-3.29c0-.39-.11-.71-.33-.98s-.5-.4-.83-.4c-1.02,0-2.15.75-3.39,2.25s-2.06,3.09-2.46,4.78Z"/>
      <path class="st3" d="M934.95,559.11c-.05-.63-1.05-1.41-3.02-2.32-2.41-1.16-3.96-2.16-4.62-3s-1-1.75-1-2.73c0-2.07,1.16-3.89,3.49-5.44s4.5-2.33,6.51-2.33,2.97.86,2.97,2.58c0,.46-.23.87-.68,1.23s-.83.54-1.15.54c-.13,0-.36-.08-.69-.25s-.58-.25-.76-.25c-1.04,0-2.19.35-3.45,1.05s-1.88,1.52-1.88,2.46c0,.46.22.9.67,1.33s1.35.96,2.72,1.61c2.03.96,3.36,1.83,4.01,2.6s.97,1.63.97,2.57c0,1.71-1.16,3.14-3.47,4.28s-4.91,1.71-7.8,1.71c-2.12,0-3.18-.77-3.18-2.3,0-.56.22-1.04.67-1.44s.94-.6,1.49-.6c.22,0,.57.08,1.04.25.47.18.9.26,1.3.26,1.1,0,2.26-.18,3.46-.53s2-.79,2.39-1.3Z"/>
      <path class="st3" d="M957.33,547.16c1.22,1.96,1.83,3.7,1.83,5.24,0,2.25-.68,4.4-2.03,6.44s-2.93,3.49-4.74,4.32-3.46,1.26-4.96,1.26c-.45,0-.88-.05-1.3-.16-.88,1.51-1.62,2.27-2.21,2.27-.49,0-.92-.16-1.28-.49s-.54-.69-.54-1.07.32-1.2.97-2.43c-1.07-1.43-1.6-3-1.6-4.71,0-3.61.97-6.73,2.91-9.37s4.5-3.96,7.69-3.96c.7,0,1.48.15,2.34.46l.46-.54c.64-.82,1.26-1.23,1.85-1.23.42,0,.81.25,1.18.75s.54.95.54,1.34c0,.15-.09.37-.28.65-.2.29-.47.7-.81,1.23ZM948.98,548.78c-.71.59-1.56,1.82-2.55,3.7s-1.38,3.41-1.18,4.58l.28,1.62c1.04-1.51,2.89-4.38,5.55-8.61l1.34-2.11c-1.59,0-2.74.28-3.43.83h-.02ZM954.82,550.6c-2.33,3.3-3.62,5.19-3.85,5.66-.67,1.28-1.52,2.61-2.57,4.01l-.16.42c2.29-.4,4.01-1.44,5.18-3.14s1.75-3.3,1.75-4.81c0-.11-.05-.47-.16-1.09l-.19-1.05Z"/>
      <path class="st3" d="M974.21,558.2c-1.3,1.46-2.82,2.67-4.54,3.61s-3.22,1.42-4.47,1.42-2.21-.36-2.89-1.09-1.03-1.73-1.03-3.01c0-1.82.69-3.84,2.07-6.06s3.29-4.16,5.73-5.81,4.64-2.47,6.6-2.47c1.08,0,2.01.29,2.79.88.19.14.35.26.49.35.28.2.54.57.78,1.1s.36.96.36,1.29c0,.21-.22.92-.67,2.13-.46,1.25-.78,2.47-.96,3.65s-.54,4.12-1.08,8.82c-.48,4.09-1.62,7.08-3.43,8.96s-3.81,2.83-6.01,2.83-4.55-.78-6.72-2.33c-2.17-1.55-3.26-2.83-3.26-3.84,0-.89.43-1.34,1.3-1.34.34,0,1.03.34,2.07,1.02,2.67,1.76,4.96,2.64,6.87,2.64,1.45,0,2.67-.91,3.66-2.73s1.76-5.16,2.34-10.01ZM974.63,548.42c-.87,0-2,.52-3.41,1.56s-2.71,2.43-3.9,4.19-1.79,3.22-1.79,4.38c0,.61.22.91.67.91,1.51,0,3.01-.61,4.5-1.84s2.69-2.63,3.61-4.23,1.38-2.8,1.38-3.62c0-.41-.11-.74-.32-.98s-.46-.37-.74-.37Z"/>
      <path class="st3" d="M984.51,563.12c-.7,0-1.22-.14-1.56-.41s-.5-1-.5-2.17c0-.66.03-1.16.09-1.5s.34-.62.85-.82,1.25-.3,2.21-.3c.71,0,1.26.17,1.63.5s.56.7.56,1.1c0,.66-.1,1.16-.31,1.51s-.65.79-1.34,1.31-1.23.78-1.64.78Z"/>
    </g>
    <g>
      <path class="st1" d="M1181.76,74.35c0,9-9,72-18,81s0,18,0,18c0,0,9,18,18,9s9,9,9,9v9s0,63-18,63-18,9-27,18-63,0-54-54,45-99,45-108c0,9,0,27,9,9s9-27,0-36,18-54,27-54,9,27,9,36Z"/>
      <path class="st6" d="M1109.76,191.35s45-18,45,0,0,9,9,18,9,36-9,45-18,9-27,9-27-18-27-27,0-36,9-45Z"/>
      <path class="st2" d="M1104.66,222.05c-1.24.14-3.9-1.87-3.9-3.12-.02-3.95,24.51-30.03,39.36-27.38,4.65.83,12.75,4.58,9.97,10.15-.56,1.12-3.69,2.25-4.74,1.58-3.63-2.33-3.36-6.32-6.1-6.81-10.12-1.81-24.74,24.49-34.58,25.58Z"/>
      <g>
        <path class="st2" d="M1118.06,250.47c-3.12,0-5.1-.98-5.9-2.91-1.74-4.19,3.58-9.8,13.14-19.35,9.62-9.62,28.16-10.22,28.77-9.73.97.79.88,4.11,0,5-.12.12-17.09.12-25.23,8.27-4.18,4.18-10.99,10.99-11.89,13.65.25.04.61.08,1.13.08,6.89,0,20.73-10.46,25.88-8.74,1.19.4,2.75,3.33,2.24,4.47-.35.77-18.64,9.26-28.12,9.26Z"/>
        <path class="st2" d="M1118.06,251.97c-4.71,0-6.56-2.09-7.29-3.84-2.11-5.09,3.17-10.69,13.46-20.99,9.74-9.74,29.17-11.13,30.77-9.84.93.75,1.19,2.11,1.24,3.11.07,1.37-.18,3.17-1.12,4.11-.42.42-.78.44-1.58.48-10.83.6-19.23,3.36-23.66,7.79-2.74,2.74-7.82,7.82-10.25,11,2.86-.57,6.73-2.44,10.48-4.27,5.89-2.86,10.98-5.32,14.29-4.22,1.26.42,2.29,1.91,2.84,3.17.4.92.78,2.26.28,3.34-.94,2.06-20.81,10.14-29.48,10.14ZM1152.59,219.83c-4.28,0-18.58,1.78-26.23,9.43-8.87,8.87-14.15,14.48-12.81,17.72.2.49.82,1.99,4.52,1.99,8.26,0,23.86-6.95,26.7-8.58-.15-.72-.88-2.01-1.33-2.25-2.12-.7-7.36,1.84-11.99,4.09-4.81,2.33-9.79,4.74-13.38,4.74-.52,0-.99-.03-1.38-.1l-1.74-.3.57-1.67c.94-2.77,6.33-8.31,12.25-14.23,4.99-4.99,13.76-7.97,25.38-8.65.14-.6.16-1.63,0-2.19-.16,0-.35-.01-.57-.01ZM1153.04,219.56h0Z"/>
      </g>
    </g>
    <g>
      <path class="st1" d="M1588.31,217.19s0,36-18,63,27,99,54,90c-18-9-27-27-18-45s-9-54-9-63-9-45-9-45Z"/>
      <path class="st1" d="M1561.31,388.19s9-36,36,0,36,63,27,72,9,54,9,54c0,0,18,45,9,54-9,18-90,54-99,9s-18-72,9-99c27-27,9-90,9-90Z"/>
      <path class="st6" d="M1597.31,469.19s-18,18,9,27q9-9-9-27Z"/>
      <path class="st6" d="M1570.31,514.19s27,18,36,0c9,0,27,27,27,36s-36,27-36,45c-9,18-45,0-45-27s-9-54,18-54Z"/>
      <g>
        <path class="st2" d="M1583.13,567.38c-1.53,0-2.85-.32-3.94-.77-6.4-2.65-12.55-12.49-9.37-16.42.16-.19.82-.18,1,0,3.38,3.38,2.78,13.02,8.76,15.49,4.84,2,10.8-.31,17.24-6.7-.09-25.95-17-25.79-17.5-26.29-.18-.18-.19-.84,0-1,.14-.12,18.5.31,18.5,27.5v.21l-.15.15c-6.05,6.05-10.9,7.84-14.54,7.84Z"/>
        <path class="st2" d="M1583.13,569.88c-1.71,0-3.36-.32-4.9-.96-5.04-2.09-10.05-7.94-11.43-13.33-.9-3.55.08-5.75,1.06-6.96.52-.64,1.3-1.01,2.22-1.06.46-.03,1.64.01,2.49.87,1.8,1.8,2.61,4.47,3.46,7.28,1.03,3.42,2.01,6.64,4.49,7.67,4.53,1.88,9.87-1.75,13.77-5.44-.29-13.26-5.23-20.87-14.7-22.61-.78-.14-1.45-.27-2.06-.88-.85-.85-.89-2.02-.86-2.49.05-.92.42-1.7,1.06-2.22,2.15-1.73,8.77,1.26,8.83,1.29,6.27,3,13.74,10.32,13.74,28.15v1.24l-.88.88c-5.68,5.69-11.17,8.57-16.3,8.57Z"/>
      </g>
      <path class="st2" d="M1617.55,560.31c-1.19.4-4.2-1.02-4.47-2.24-3.71-16.93-7.66-22.96-7.89-23.65-.39-1.19,1.02-4.2,2.24-4.47.22-.05,5.07,2.57,8.76,7.49,3.5,4.67,12.43,19.18,1.36,22.87Z"/>
      <path class="st2" d="M1570.31,586.19s9-9,18-9c0,9-9,18-18,9Z"/>
    </g>
    <g>
      <path class="st1" d="M1260.15,946.3s36-36,90-36,72-9,72-9h9s18,18,36,18c9,9,45,36-27,27s-54,27-153,0c-27,0-27,9-54-9-18,0-18-9-27,0s-36,0-36,9,27,0,45,0,36,9,45,0Z"/>
      <path class="st6" d="M1314.15,919.3s-9-45,72-18c18,0,36-18,54,9s9,54-63,36c-54,9-54,0-63-27Z"/>
      <path class="st2" d="M1323.15,933.87c-6.25.6-12.58-16.33-11.23-22.46.27-1.22,3.29-2.63,4.47-2.24,3.69,1.23,6.95,13.91,6.95,13.91,3.58-5.39,10.97-14.35,21.44-16.05,8.36-1.35,16.82,2.17,25.13,10.49,7.41,7.41,13.86,10.42,19.19,8.95,8.9-2.45,6.04-16.18,12.62-16.79,1.24-.12,4.32.08,4.85,1.22.3.65-4.41,17.15-16.12,20.39-7.19,1.99-13.53,5.78-22.3-3-7.11-7.11-15.87-17.4-22.55-16.33-12.31,1.98-20.16,17.29-20.22,17.45-.42,1.17-1,4.34-2.24,4.46Z"/>
      <path class="st2" d="M1396.27,948.53c-1.19-.4-2.75-3.34-2.24-4.47,2.09-4.58,18-9,18-9,16.04-8.02,16.56-15.77,16.62-15.83.91-.86,4.22-.91,5,.06.67.84-.54,10.82-19.38,20.24,0,0-13.23,10.59-18,9Z"/>
      <path class="st2" d="M1360.22,940.91c4.62,11.86-23.72,9.24-20.1,1l3.62-8.24s11.86-4.62,16.48,7.24Z"/>
    </g>
    <g>
      <path class="st1" d="M206.19,857.52s-27,9-45,9-18,0-18,9,27,9,54,9,36,9,72,9,27-9,81-9c18,0,18-9,18-9,0,0,0-9-27-9s-135-9-135-9Z"/>
      <path class="st6" d="M233.19,839.52s9,0,18-9,27-27,36-9,18,36,27,36,36,18,18,18-72,9-90,0-27,0-36-9-18-36,9-27,18,0,18,0Z"/>
      <path class="st2" d="M215.19,830.52s27,0,27,9-18,27-18,9-36,0-9-18Z"/>
      <path class="st2" d="M269.19,839.52s27-9,36,9c0,9,0,0-18,0s-27,9-18-9Z"/>
      <path class="st2" d="M303.42,877.29c-7.72-.82-20.03-8.27-43.23-8.27-8.44,0-14.77-8.23-11.5-11.5.88-.88,5.13-1.24,5,0-.07.62-2.5,0-2.5,0l2.5-.02c.01,1.09.39,6.52,6.5,6.52,15.9,0,46.77-2.6,46.77,9.73,0,1.25-2.29,3.67-3.54,3.54Z"/>
      <path class="st1" d="M431.19,893.52s-18-9-27-9-9,9-18,9-18,9-18,9c0,0,54,0,63-9Z"/>
    </g>
  </g>
</svg>