<?xml version="1.0" encoding="UTF-8"?>
<svg xmlns="http://www.w3.org/2000/svg" version="1.1" viewBox="0 0 1920 1080">
  <!-- Generator: Adobe Illustrator 29.0.1, SVG Export Plug-In . SVG Version: 2.1.0 Build 192)  -->
  <defs>
    <style>
      .st0 {
        fill: #f0d35d;
      }

      .st1 {
        fill: #d1745d;
      }

      .st2 {
        fill: #59452f;
      }

      .st3 {
        fill: #fff;
      }

      .st4 {
        fill: #2e342f;
      }

      .st5 {
        fill: #161c17;
      }

      .st6 {
        fill: #faf5ea;
      }

      .st7 {
        fill: #2b2e4e;
      }

      .st8 {
        fill: #1c4551;
      }

      .st9 {
        fill: #98aa6d;
      }

      .st10 {
        fill: #3f2e1c;
      }

      .st11 {
        fill: #e5decf;
      }

      .st12 {
        fill: #231f20;
      }

      .st13 {
        fill: #3e6e7c;
      }

      .st14 {
        fill: #454975;
      }

      .st15 {
        fill: #ebe9e5;
      }

      .st16 {
        fill: #eddad5;
      }

      .st17 {
        fill: #092b35;
      }

      .st18 {
        fill: #ddab63;
      }
    </style>
  </defs>
  <g id="Layer_1">
    <g>
      <rect class="st6" width="1920" height="1080"/>
      <path class="st12" d="M1920.5,1080.5H-.5V-.5h1921v1081ZM.5,1079.5h1919V.5H.5v1079Z"/>
    </g>
  </g>
  <g id="Layer_2">
    <path class="st9" d="M220.25,248.65l762.68-92.55s65.01-6.61,95.67,12.94c36.45,23.24,36.06,77.35,36.06,77.35l39.42,490.99s2.24,33.69-13.64,47.48c-15.23,13.23-53.67,10.99-53.67,10.99l-808.65-24.94s-76.67-1.55-112.22-32.54c-27.59-24.05-21.43-108.48-21.43-108.48l8.65-312.13s-.98-28.97,18.46-47.2c18.52-17.37,48.67-21.91,48.67-21.91Z"/>
    <g>
      <path class="st5" d="M263.9,292.74c-5.5,0-10.38-2.65-14.65-7.93s-6.4-10.75-6.4-16.38c0-6.64,2.03-14.09,6.1-22.36,4.07-8.27,9.32-15.02,15.75-20.26,6.43-5.24,13.14-7.86,20.14-7.86,5.44,0,9.92.65,13.45,1.95,3.53,1.3,6.79,3.21,9.77,5.74,2.98,2.52,4.96,5.13,5.96,7.81s1.49,6.37,1.49,11.06c0,4.13-1.33,9.16-3.98,15.06s-6.51,11.48-11.57,16.72c-5.06,5.24-10.21,9.29-15.45,12.16s-12.11,4.3-20.61,4.3ZM255.21,267.98c0,4,1.19,7.34,3.56,10.01,2.38,2.67,5.11,4,8.2,4,8.72,0,16.91-4.19,24.56-12.57,7.65-8.38,11.47-17.28,11.47-26.68,0-3.32-.63-6-1.9-8.03-1.27-2.03-3.43-3.73-6.47-5.08-3.04-1.35-6.31-2.03-9.79-2.03-6.28,0-12.79,4.54-19.53,13.62s-10.11,18-10.11,26.76Z"/>
      <path class="st5" d="M368.79,264.61c-2.18,7.62-6.32,14.04-12.43,19.26s-12.2,7.84-18.29,7.84c-4.82,0-8.79-1.77-11.91-5.3s-4.69-7.87-4.69-13.01c0-8.4,2.86-16.67,8.59-24.8,5.73-8.14,12.68-12.21,20.85-12.21,5.57,0,10.08,2.06,13.53,6.18,3.45,4.12,5.18,9.03,5.18,14.72,0,2.47-.28,4.9-.83,7.28v.05ZM343.4,249.18c-2.28,2.02-4.51,5.24-6.69,9.67-2.18,4.43-3.27,8.87-3.27,13.33,0,2.7.5,4.93,1.49,6.69s2.3,2.64,3.93,2.64c4.04,0,8.24-2.39,12.6-7.18s6.54-10.16,6.54-16.11c0-3.35-.71-6.11-2.12-8.28-1.42-2.16-3.39-3.25-5.93-3.25s-4.57.83-6.49,2.49h-.05Z"/>
      <path class="st5" d="M390.32,285.9c-.55,2.28-1.11,5.73-1.66,10.35l-2.34,19.19c-.39,3.12-1.15,5.29-2.27,6.49-1.12,1.2-2.5,1.81-4.13,1.81-1.46,0-2.86-.55-4.17-1.64-1.32-1.09-1.98-2.3-1.98-3.64,0-2.64.41-5.68,1.22-9.13,4.85-19.37,7.5-39.47,7.96-60.3v-.98c0-4.36.12-7.27.37-8.72.24-1.45.94-2.73,2.1-3.83,1.16-1.11,2.79-1.66,4.91-1.66,3.55,0,5.32,2.72,5.32,8.15,0,2.21-.41,5.97-1.22,11.28l-.49,3.37c3.71-6.18,8.12-11.32,13.23-15.41,5.11-4.08,9.68-6.13,13.72-6.13,3.65,0,6.75,1.3,9.3,3.91,2.56,2.6,3.83,5.88,3.83,9.81,0,10.51-4.08,20.08-12.23,28.69-8.15,8.61-16.22,12.92-24.19,12.92-3.78,0-6.2-1.51-7.28-4.54ZM418.98,246.2c-3.97,0-9.12,3.87-15.45,11.62-6.33,7.75-9.5,13.83-9.5,18.26,0,1.14.56,2.16,1.68,3.05,1.12.9,2.43,1.34,3.93,1.34,4.13,0,8.88-3.25,14.23-9.74s8.03-12.77,8.03-18.82c0-2.02-.31-3.47-.93-4.37-.62-.9-1.29-1.34-2-1.34Z"/>
      <path class="st5" d="M466.44,276.97c-.13-1.76-2.93-3.91-8.4-6.45-6.71-3.22-10.99-6-12.84-8.33-1.86-2.33-2.78-4.86-2.78-7.59,0-5.76,3.23-10.8,9.69-15.11,6.46-4.31,12.49-6.47,18.09-6.47s8.25,2.39,8.25,7.18c0,1.27-.63,2.41-1.88,3.42-1.25,1.01-2.32,1.51-3.2,1.51-.36,0-.99-.23-1.9-.68-.91-.46-1.61-.68-2.1-.68-2.9,0-6.09.98-9.57,2.93s-5.22,4.23-5.22,6.84c0,1.27.62,2.5,1.86,3.69,1.24,1.19,3.76,2.68,7.57,4.47,5.63,2.67,9.34,5.08,11.13,7.23s2.69,4.52,2.69,7.13c0,4.75-3.21,8.72-9.64,11.89s-13.65,4.76-21.66,4.76c-5.89,0-8.84-2.13-8.84-6.4,0-1.56.62-2.9,1.86-4,1.24-1.11,2.62-1.66,4.15-1.66.62,0,1.58.23,2.88.68,1.3.49,2.51.73,3.61.73,3.06,0,6.27-.49,9.62-1.46s5.57-2.18,6.64-3.61Z"/>
      <path class="st5" d="M489.15,256.95v.05c1.04-5.92,1.56-9.31,1.56-10.16,0-2.41.53-4.43,1.59-6.05,1.06-1.63,2.53-2.44,4.42-2.44,2.21,0,3.94.52,5.18,1.56,1.24,1.04,1.86,2.21,1.86,3.52s-.6,3.99-1.81,8.06l-.29,1.07c-1.79,6.28-2.86,11.41-3.22,15.38-.36,3.97-.54,7.18-.54,9.62,0,1.99.34,4.64,1.03,7.96.1.59.15,1.07.15,1.46,0,.75-.71,1.76-2.12,3.03s-2.94,1.9-4.57,1.9c-4.3,0-6.45-3.25-6.45-9.77,0-5.53.78-12.27,2.34-20.21.33-1.76.62-3.42.88-4.98ZM512.73,216.81c0,2.31-1.04,4.34-3.12,6.08-2.08,1.74-3.89,2.61-5.42,2.61-1.95,0-3.69-.81-5.2-2.44-1.51-1.63-2.27-3.25-2.27-4.88,0-2.34.75-4.24,2.25-5.69,1.5-1.45,3.65-2.17,6.45-2.17,2.18,0,3.95.64,5.3,1.93,1.35,1.29,2.03,2.81,2.03,4.57Z"/>
      <path class="st5" d="M558.09,272.57c0,3.39-2.85,7.43-8.54,12.13s-12.13,7.06-19.29,7.06c-5.5,0-9.83-1.73-12.99-5.2s-4.74-8.29-4.74-14.48c0-9.11,3.22-17.66,9.67-25.63,6.45-7.98,13.33-11.96,20.65-11.96,3.65,0,6.58,1.16,8.79,3.47,2.21,2.31,3.32,5.06,3.32,8.25,0,5.66-2.72,11.06-8.15,16.19s-12.4,8.67-20.9,10.62c-.98.23-1.46.81-1.46,1.76,0,1.56.69,3.05,2.08,4.47s3.23,2.12,5.54,2.12c6.54,0,13.04-3.37,19.48-10.11,1.24-1.3,2.44-1.95,3.61-1.95,1.95,0,2.93,1.09,2.93,3.27ZM525.33,263.93c5.14-1.04,9.68-3.24,13.6-6.59,3.92-3.35,5.88-6.4,5.88-9.13,0-1.07-.3-1.98-.9-2.71s-1.38-1.1-2.32-1.1c-2.83,0-5.97,2.08-9.42,6.25-3.45,4.17-5.73,8.59-6.84,13.28Z"/>
      <path class="st5" d="M623.04,267.25c-.81,7.55-1.22,13.61-1.22,18.16,0,1.79-.54,3.39-1.61,4.79s-2.54,2.1-4.39,2.1c-4,0-6.01-2.33-6.01-6.98,0-2.57.94-11.26,2.83-26.07,1.53-11.98,2.29-19.12,2.29-21.44,0-2.64-.11-4.13-.34-4.49-2.12-1.07-3.17-3.01-3.17-5.81s4.41-5.12,13.23-7.15c8.82-2.03,16.37-3.05,22.66-3.05,7.36,0,13.22,1.51,17.58,4.54s6.54,7.11,6.54,12.26c0,7.42-4,13.94-12.01,19.56s-17.74,9.59-29.2,11.94c-4.2.88-6.59,1.43-7.18,1.66ZM627.38,230.58l-2.88,25.68c9.38-1.56,17.61-4.34,24.71-8.33,7.1-3.99,10.64-8.26,10.64-12.82,0-5.44-4.3-8.15-12.89-8.15-5.96,0-12.48,1.2-19.58,3.61Z"/>
      <path class="st5" d="M720.35,264.61c-2.18,7.62-6.32,14.04-12.43,19.26s-12.2,7.84-18.29,7.84c-4.82,0-8.79-1.77-11.91-5.3s-4.69-7.87-4.69-13.01c0-8.4,2.86-16.67,8.59-24.8,5.73-8.14,12.68-12.21,20.85-12.21,5.57,0,10.07,2.06,13.53,6.18,3.45,4.12,5.18,9.03,5.18,14.72,0,2.47-.28,4.9-.83,7.28v.05ZM694.96,249.18c-2.28,2.02-4.51,5.24-6.69,9.67-2.18,4.43-3.27,8.87-3.27,13.33,0,2.7.5,4.93,1.49,6.69s2.3,2.64,3.93,2.64c4.04,0,8.24-2.39,12.6-7.18,4.36-4.79,6.54-10.16,6.54-16.11,0-3.35-.71-6.11-2.12-8.28-1.42-2.16-3.39-3.25-5.93-3.25s-4.57.83-6.49,2.49h-.05Z"/>
      <path class="st5" d="M776.7,264.61c-2.18,7.62-6.32,14.04-12.43,19.26s-12.2,7.84-18.29,7.84c-4.82,0-8.79-1.77-11.91-5.3s-4.69-7.87-4.69-13.01c0-8.4,2.86-16.67,8.59-24.8,5.73-8.14,12.68-12.21,20.85-12.21,5.57,0,10.07,2.06,13.53,6.18,3.45,4.12,5.18,9.03,5.18,14.72,0,2.47-.28,4.9-.83,7.28v.05ZM751.31,249.18c-2.28,2.02-4.51,5.24-6.69,9.67-2.18,4.43-3.27,8.87-3.27,13.33,0,2.7.5,4.93,1.49,6.69.99,1.76,2.3,2.64,3.93,2.64,4.04,0,8.24-2.39,12.6-7.18,4.36-4.79,6.54-10.16,6.54-16.11,0-3.35-.71-6.11-2.12-8.28-1.42-2.16-3.39-3.25-5.93-3.25s-4.57.83-6.49,2.49h-.05Z"/>
      <path class="st5" d="M798.23,285.9c-.55,2.28-1.11,5.73-1.66,10.35l-2.34,19.19c-.39,3.12-1.15,5.29-2.27,6.49-1.12,1.2-2.5,1.81-4.13,1.81-1.46,0-2.86-.55-4.17-1.64-1.32-1.09-1.98-2.3-1.98-3.64,0-2.64.41-5.68,1.22-9.13,4.85-19.37,7.5-39.47,7.96-60.3v-.98c0-4.36.12-7.27.37-8.72.24-1.45.94-2.73,2.1-3.83,1.16-1.11,2.79-1.66,4.91-1.66,3.55,0,5.32,2.72,5.32,8.15,0,2.21-.41,5.97-1.22,11.28l-.49,3.37c3.71-6.18,8.12-11.32,13.23-15.41,5.11-4.08,9.68-6.13,13.72-6.13,3.65,0,6.75,1.3,9.3,3.91,2.55,2.6,3.83,5.88,3.83,9.81,0,10.51-4.08,20.08-12.23,28.69-8.15,8.61-16.22,12.92-24.19,12.92-3.78,0-6.2-1.51-7.28-4.54ZM826.89,246.2c-3.97,0-9.12,3.87-15.45,11.62-6.33,7.75-9.5,13.83-9.5,18.26,0,1.14.56,2.16,1.68,3.05,1.12.9,2.43,1.34,3.93,1.34,4.13,0,8.88-3.25,14.23-9.74,5.35-6.49,8.03-12.77,8.03-18.82,0-2.02-.31-3.47-.93-4.37-.62-.9-1.29-1.34-2-1.34Z"/>
      <path class="st5" d="M874.35,276.97c-.13-1.76-2.93-3.91-8.4-6.45-6.71-3.22-10.99-6-12.84-8.33-1.86-2.33-2.78-4.86-2.78-7.59,0-5.76,3.23-10.8,9.69-15.11,6.46-4.31,12.49-6.47,18.09-6.47s8.25,2.39,8.25,7.18c0,1.27-.63,2.41-1.88,3.42-1.25,1.01-2.32,1.51-3.2,1.51-.36,0-.99-.23-1.9-.68-.91-.46-1.61-.68-2.1-.68-2.9,0-6.09.98-9.57,2.93-3.48,1.95-5.22,4.23-5.22,6.84,0,1.27.62,2.5,1.86,3.69,1.24,1.19,3.76,2.68,7.57,4.47,5.63,2.67,9.34,5.08,11.13,7.23,1.79,2.15,2.69,4.52,2.69,7.13,0,4.75-3.21,8.72-9.64,11.89-6.43,3.17-13.65,4.76-21.66,4.76-5.89,0-8.84-2.13-8.84-6.4,0-1.56.62-2.9,1.86-4,1.24-1.11,2.62-1.66,4.15-1.66.62,0,1.58.23,2.88.68,1.3.49,2.51.73,3.61.73,3.06,0,6.27-.49,9.62-1.46,3.35-.98,5.57-2.18,6.64-3.61Z"/>
      <path class="st5" d="M897.06,256.95v.05c1.04-5.92,1.56-9.31,1.56-10.16,0-2.41.53-4.43,1.59-6.05,1.06-1.63,2.53-2.44,4.42-2.44,2.21,0,3.94.52,5.18,1.56,1.24,1.04,1.86,2.21,1.86,3.52s-.6,3.99-1.81,8.06l-.29,1.07c-1.79,6.28-2.87,11.41-3.22,15.38-.36,3.97-.54,7.18-.54,9.62,0,1.99.34,4.64,1.03,7.96.1.59.15,1.07.15,1.46,0,.75-.71,1.76-2.12,3.03s-2.94,1.9-4.57,1.9c-4.3,0-6.45-3.25-6.45-9.77,0-5.53.78-12.27,2.34-20.21.33-1.76.62-3.42.88-4.98ZM920.64,216.81c0,2.31-1.04,4.34-3.12,6.08-2.08,1.74-3.89,2.61-5.42,2.61-1.95,0-3.69-.81-5.2-2.44-1.51-1.63-2.27-3.25-2.27-4.88,0-2.34.75-4.24,2.25-5.69,1.5-1.45,3.65-2.17,6.45-2.17,2.18,0,3.95.64,5.3,1.93,1.35,1.29,2.03,2.81,2.03,4.57Z"/>
      <path class="st5" d="M966,272.57c0,3.39-2.85,7.43-8.54,12.13-5.7,4.7-12.13,7.06-19.29,7.06-5.5,0-9.83-1.73-12.99-5.2-3.16-3.47-4.74-8.29-4.74-14.48,0-9.11,3.22-17.66,9.67-25.63,6.45-7.98,13.33-11.96,20.65-11.96,3.65,0,6.58,1.16,8.79,3.47,2.21,2.31,3.32,5.06,3.32,8.25,0,5.66-2.72,11.06-8.15,16.19-5.44,5.13-12.4,8.67-20.9,10.62-.98.23-1.46.81-1.46,1.76,0,1.56.69,3.05,2.08,4.47,1.38,1.42,3.23,2.12,5.54,2.12,6.54,0,13.04-3.37,19.48-10.11,1.24-1.3,2.44-1.95,3.61-1.95,1.95,0,2.93,1.09,2.93,3.27ZM933.24,263.93c5.14-1.04,9.68-3.24,13.6-6.59,3.92-3.35,5.88-6.4,5.88-9.13,0-1.07-.3-1.98-.9-2.71-.6-.73-1.38-1.1-2.32-1.1-2.83,0-5.97,2.08-9.42,6.25-3.45,4.17-5.73,8.59-6.84,13.28Z"/>
      <path class="st5" d="M979.33,288.44c-3.58,0-5.37-1.99-5.37-5.96,0-1.5.73-3.22,2.2-5.18s3.04-2.93,4.74-2.93c1.11,0,2.49.54,4.15,1.61s2.49,1.99,2.49,2.73l-.49,3.03c-.29,2.15-1.35,3.8-3.17,4.96-1.82,1.16-3.34,1.73-4.54,1.73ZM986.27,265.98c-3.26,0-5.78-.67-7.57-2-.52-6.35-.07-12.87,1.37-19.58,1.59-7.26,2.39-12.7,2.39-16.31,0-.36.17-1.72.51-4.08.34-2.36,1.38-4.16,3.1-5.4,1.72-1.24,3.19-1.86,4.39-1.86,1.3,0,2.55.48,3.74,1.44,1.19.96,1.78,2.01,1.78,3.15,0,.91-.66,4.29-1.98,10.13-1.32,5.84-2.63,11.22-3.93,16.14-1.37,5.11-2.08,9.2-2.15,12.26-.07,2.31-.62,4.35-1.66,6.1Z"/>
    </g>
    <g>
      <path class="st1" d="M829.83,626.32h306.34s49.52-1.97,49.52,42.07-49.52,46.02-49.52,46.02h-306.34s-43.39,0-43.39-44.05c0-44.05,43.39-44.04,43.39-44.04Z"/>
      <g>
        <path class="st6" d="M967.85,659.25c0-1.38-.35-2.33-1.06-2.87s-1.75-.8-3.13-.8c-2.35,0-4.54.57-6.55,1.72s-3.02,2.41-3.02,3.79c0,.88.38,1.62,1.14,2.24.76.62,2.72,1.39,5.88,2.31,3.31.96,5.77,2.01,7.38,3.16s2.41,2.53,2.41,4.15c0,2.69-2.05,5.15-6.14,7.38-4.09,2.23-8.35,3.35-12.76,3.35-1.43,0-2.58-.3-3.45-.9s-1.29-1.34-1.29-2.21c0-.7.19-1.34.58-1.94s.86-.9,1.4-.9c.33,0,.64.06.92.17,1.46.63,2.83.94,4.09.94,2.17,0,4.61-.61,7.32-1.83,2.71-1.22,4.06-2.41,4.06-3.58,0-.49-.34-.96-1.01-1.41-.68-.45-2.05-1.02-4.12-1.7-3.02-.99-5.29-1.8-6.82-2.44s-2.68-1.48-3.47-2.52c-.79-1.04-1.18-2.29-1.18-3.75,0-2.6,1.52-5.03,4.55-7.27s6.6-3.36,10.69-3.36c2.35,0,4.21.47,5.56,1.4s2.04,2,2.04,3.2c0,2.45-1.34,3.67-4.03,3.67Z"/>
        <path class="st6" d="M980.17,680.22c-.24.97-.47,2.45-.71,4.43l-1,8.21c-.17,1.34-.49,2.26-.97,2.78-.48.51-1.07.77-1.76.77-.63,0-1.22-.23-1.79-.7-.56-.47-.85-.99-.85-1.56,0-1.13.17-2.43.52-3.91,2.07-8.28,3.21-16.88,3.4-25.79v-.42c0-1.87.05-3.11.16-3.73.1-.62.4-1.17.9-1.64.49-.47,1.19-.71,2.1-.71,1.52,0,2.28,1.16,2.28,3.49,0,.95-.17,2.55-.52,4.82l-.21,1.44c1.59-2.64,3.47-4.84,5.66-6.59s4.14-2.62,5.87-2.62c1.56,0,2.88.56,3.98,1.67,1.09,1.11,1.64,2.51,1.64,4.2,0,4.5-1.74,8.59-5.23,12.27s-6.94,5.52-10.35,5.52c-1.62,0-2.65-.65-3.11-1.94ZM992.43,663.24c-1.7,0-3.9,1.66-6.61,4.97-2.71,3.31-4.06,5.92-4.06,7.81,0,.49.24.92.72,1.3.48.38,1.04.57,1.68.57,1.77,0,3.8-1.39,6.09-4.17s3.43-5.46,3.43-8.05c0-.86-.13-1.49-.4-1.87s-.55-.57-.86-.57Z"/>
        <path class="st6" d="M1004.38,667.84v.02c.45-2.53.67-3.98.67-4.34,0-1.03.23-1.89.68-2.59.45-.7,1.08-1.04,1.89-1.04.95,0,1.68.22,2.21.67s.79.95.79,1.5-.26,1.71-.77,3.45l-.12.46c-.77,2.69-1.22,4.88-1.38,6.58s-.23,3.07-.23,4.11c0,.85.15,1.98.44,3.4.04.25.06.46.06.63,0,.32-.3.75-.91,1.29s-1.26.81-1.95.81c-1.84,0-2.76-1.39-2.76-4.18,0-2.37.33-5.25,1-8.64.14-.75.26-1.46.38-2.13ZM1014.46,650.67c0,.99-.45,1.86-1.34,2.6-.89.75-1.66,1.12-2.32,1.12-.83,0-1.58-.35-2.22-1.04s-.97-1.39-.97-2.09c0-1,.32-1.81.96-2.43.64-.62,1.56-.93,2.76-.93.93,0,1.69.28,2.27.83.58.55.87,1.2.87,1.95Z"/>
        <path class="st6" d="M1022.81,646.35c1.5,0,2.25.82,2.25,2.46,0,.75-.1,1.56-.31,2.43-.21.87-.78,3.02-1.71,6.46-.68,2.49-1.2,5.21-1.56,8.15-.35,2.94-.53,5.24-.53,6.9,0,1.77.13,3.87.4,6.31.07.65.1,1.06.1,1.23,0,.84-.31,1.55-.92,2.15-.61.6-1.28.9-2,.9-.99,0-1.68-.47-2.09-1.4-.4-.93-.61-2.53-.61-4.8,0-4.89.57-10.64,1.72-17.27,1.15-6.63,2.09-10.54,2.82-11.74s1.54-1.8,2.43-1.8Z"/>
      </g>
    </g>
    <g>
      <path class="st6" d="M316.86,434.35c.13-.57.23-1.61.3-3.09.27-4.08.77-8.34,1.51-12.8.19-.94.28-1.65.28-2.14,0-.21-.09-.34-.28-.39-1.24-.32-1.86-.86-1.86-1.63,0-.56.25-1.09.76-1.59s1.05-.75,1.63-.75l2.37.07c1.08,0,2.56-.08,4.45-.23,1.61-.14,2.91-.21,3.92-.21,3.27,0,5.92.92,7.94,2.75s3.03,4.26,3.03,7.29c0,3.38-1.56,6.42-4.68,9.15s-6.89,4.58-11.32,5.58c-1.17.26-2,.48-2.48.67s-1.04.49-1.69.9c-.8.55-1.58.83-2.36.83-.6,0-1.13-.29-1.6-.86s-.7-1.04-.7-1.41c0-.25.12-.6.37-1.07l.4-1.05ZM321.45,433.47c.62,0,2.4-.45,5.33-1.36s5.32-2.31,7.15-4.19,2.74-4.04,2.74-6.45c0-1.93-.68-3.47-2.03-4.61s-3.13-1.71-5.32-1.71c-1.5,0-3.3.14-5.41.42-.27.04-.49.06-.65.07-1.28,7.83-1.92,13.35-1.92,16.58,0,.6.04,1.02.11,1.27Z"/>
      <path class="st6" d="M359.74,431.14c0,1.22-1.03,2.67-3.08,4.37s-4.37,2.54-6.94,2.54c-1.98,0-3.54-.62-4.68-1.87s-1.71-2.99-1.71-5.21c0-3.28,1.16-6.36,3.48-9.23s4.8-4.31,7.44-4.31c1.31,0,2.37.42,3.16,1.25s1.2,1.82,1.2,2.97c0,2.04-.98,3.98-2.94,5.83s-4.46,3.12-7.52,3.82c-.35.08-.53.29-.53.63,0,.56.25,1.1.75,1.61s1.16.76,2,.76c2.36,0,4.69-1.21,7.01-3.64.45-.47.88-.7,1.3-.7.7,0,1.05.39,1.05,1.18ZM347.94,428.02c1.85-.38,3.48-1.17,4.9-2.37s2.12-2.3,2.12-3.29c0-.39-.11-.71-.33-.98s-.5-.4-.83-.4c-1.02,0-2.15.75-3.39,2.25s-2.06,3.09-2.46,4.78Z"/>
      <path class="st6" d="M367.05,428.46l.3-.56c1.42-2.85,2.94-5.16,4.58-6.93s3.23-2.66,4.79-2.66c1.2,0,2.17.33,2.93.98s1.13,1.44,1.13,2.34c0,.56-.13,1.05-.39,1.45s-.62.61-1.07.61c-.73,0-1.39-.3-1.99-.9-.42-.39-.76-.58-1-.58-.88,0-2.35,1.37-4.41,4.1s-3.3,5.8-3.73,9.21c-.13.98-.42,1.67-.86,2.07s-1.05.59-1.81.59c-.81,0-1.38-.46-1.72-1.38s-.51-2.42-.51-4.51c0-.86.02-2.01.07-3.46.05-1.37.18-3.05.4-5.03.06-.52.1-.92.12-1.21.11-1.15.23-1.94.36-2.36s.45-.83.94-1.2,1.04-.56,1.63-.56c.63,0,1.11.18,1.44.54s.49.76.49,1.2c0,.55-.26,1.69-.79,3.43-.19.6-.35,1.31-.47,2.14l-.44,2.71Z"/>
      <path class="st6" d="M411.05,431.14c0,1.22-1.03,2.67-3.08,4.37s-4.37,2.54-6.94,2.54c-1.98,0-3.54-.62-4.68-1.87s-1.71-2.99-1.71-5.21c0-3.28,1.16-6.36,3.48-9.23s4.8-4.31,7.44-4.31c1.31,0,2.37.42,3.16,1.25s1.2,1.82,1.2,2.97c0,2.04-.98,3.98-2.94,5.83s-4.46,3.12-7.52,3.82c-.35.08-.53.29-.53.63,0,.56.25,1.1.75,1.61s1.16.76,2,.76c2.36,0,4.69-1.21,7.01-3.64.45-.47.88-.7,1.3-.7.7,0,1.05.39,1.05,1.18ZM399.25,428.02c1.85-.38,3.48-1.17,4.9-2.37s2.12-2.3,2.12-3.29c0-.39-.11-.71-.33-.98s-.5-.4-.83-.4c-1.02,0-2.15.75-3.39,2.25s-2.06,3.09-2.46,4.78Z"/>
      <path class="st6" d="M418.36,428.46l.3-.56c1.42-2.85,2.94-5.16,4.58-6.93s3.23-2.66,4.79-2.66c1.2,0,2.17.33,2.93.98s1.13,1.44,1.13,2.34c0,.56-.13,1.05-.39,1.45s-.62.61-1.07.61c-.73,0-1.39-.3-1.99-.9-.42-.39-.76-.58-1-.58-.88,0-2.35,1.37-4.41,4.1s-3.3,5.8-3.73,9.21c-.13.98-.42,1.67-.86,2.07s-1.05.59-1.81.59c-.81,0-1.38-.46-1.72-1.38s-.51-2.42-.51-4.51c0-.86.02-2.01.07-3.46.05-1.37.18-3.05.4-5.03.06-.52.1-.92.12-1.21.11-1.15.23-1.94.36-2.36s.45-.83.94-1.2,1.04-.56,1.63-.56c.63,0,1.11.18,1.44.54s.49.76.49,1.2c0,.55-.26,1.69-.79,3.43-.19.6-.35,1.31-.47,2.14l-.44,2.71Z"/>
      <path class="st6" d="M447.87,425.51v.02c.38-2.13.56-3.35.56-3.66,0-.87.19-1.59.57-2.18s.91-.88,1.59-.88c.8,0,1.42.19,1.86.56s.67.8.67,1.27-.22,1.44-.65,2.9l-.11.39c-.64,2.26-1.03,4.11-1.16,5.54s-.19,2.58-.19,3.46c0,.71.12,1.67.37,2.87.04.21.05.39.05.53,0,.27-.25.63-.76,1.09s-1.06.69-1.64.69c-1.55,0-2.32-1.17-2.32-3.52,0-1.99.28-4.42.84-7.28.12-.63.22-1.23.32-1.79ZM456.36,411.06c0,.83-.38,1.56-1.12,2.19s-1.4.94-1.95.94c-.7,0-1.33-.29-1.87-.88s-.82-1.17-.82-1.76c0-.84.27-1.53.81-2.05s1.31-.78,2.32-.78c.79,0,1.42.23,1.91.69s.73,1.01.73,1.64Z"/>
      <path class="st6" d="M471.73,434.62c-.56-1.05-.97-3.02-1.23-5.91-.26-3-.83-4.5-1.72-4.5-.84,0-2.3,1.56-4.38,4.68s-3.35,5.43-3.83,6.92c-.11.45-.3.81-.59,1.11s-.57.44-.85.44c-1.78,0-2.67-.81-2.67-2.44,0-.55.18-1.8.53-3.76.46-2.53.69-5.62.69-9.28,0-.55.24-1.14.72-1.77s.99-.94,1.53-.94c.68,0,1.2.17,1.56.51s.54,1.24.54,2.71c0,1.11-.33,3.27-1,6.47,2.54-5.95,5.38-8.93,8.51-8.93,2.72,0,4.31,2.14,4.78,6.42.47,4.36,1.01,6.54,1.62,6.54.27,0,.58-.06.93-.18.42-.14.76-.21,1-.21.56,0,.84.33.84.98,0,.6-.39,1.23-1.16,1.91s-1.75,1.01-2.92,1.01c-1.36,0-2.33-.59-2.92-1.78h.02Z"/>
      <path class="st6" d="M487.93,422.91c-.11,0-.44,1.31-.99,3.92s-.83,4.2-.83,4.75c0,.96.1,1.63.31,2.01s.54.57,1.01.57c.66,0,1.29-.11,1.89-.34s1.4-.74,2.38-1.54c.61-.5,1.12-.76,1.55-.76.34,0,.61.1.82.29s.31.42.31.68c0,1.03-.83,2.2-2.5,3.51s-3.42,1.96-5.27,1.96c-1.55,0-2.73-.46-3.54-1.37s-1.22-2.23-1.22-3.94c0-1.58.59-4.74,1.78-9.47-.75.08-1.27.12-1.56.12h-.37c-.54,0-1.09-.18-1.64-.53s-.83-.91-.83-1.69c0-.98.56-1.48,1.67-1.48l3.76-.14c.49-1.42,1.01-3.28,1.56-5.57.33-1.43,1.07-2.14,2.23-2.14.64,0,1.15.2,1.51.59s.54.83.54,1.31c0,.19-.5,2-1.49,5.43,3.73-.33,5.77-.49,6.13-.49.62,0,1.03.09,1.23.27s.3.53.3,1.05c0,1.04-.88,1.71-2.65,1.99l-6.06,1.02Z"/>
      <path class="st6" d="M513.3,431.14c0,1.22-1.03,2.67-3.08,4.37s-4.37,2.54-6.94,2.54c-1.98,0-3.54-.62-4.68-1.87s-1.71-2.99-1.71-5.21c0-3.28,1.16-6.36,3.48-9.23s4.8-4.31,7.44-4.31c1.31,0,2.37.42,3.16,1.25s1.2,1.82,1.2,2.97c0,2.04-.98,3.98-2.94,5.83s-4.46,3.12-7.52,3.82c-.35.08-.53.29-.53.63,0,.56.25,1.1.75,1.61s1.16.76,2,.76c2.36,0,4.69-1.21,7.01-3.64.45-.47.88-.7,1.3-.7.7,0,1.05.39,1.05,1.18ZM501.5,428.02c1.85-.38,3.48-1.17,4.9-2.37s2.12-2.3,2.12-3.29c0-.39-.11-.71-.33-.98s-.5-.4-.83-.4c-1.02,0-2.15.75-3.39,2.25s-2.06,3.09-2.46,4.78Z"/>
      <path class="st6" d="M523.39,422.91c-.11,0-.44,1.31-.99,3.92s-.83,4.2-.83,4.75c0,.96.1,1.63.31,2.01s.54.57,1.01.57c.66,0,1.29-.11,1.89-.34s1.4-.74,2.38-1.54c.61-.5,1.12-.76,1.55-.76.34,0,.61.1.82.29s.31.42.31.68c0,1.03-.83,2.2-2.5,3.51s-3.42,1.96-5.27,1.96c-1.55,0-2.73-.46-3.54-1.37s-1.22-2.23-1.22-3.94c0-1.58.59-4.74,1.78-9.47-.75.08-1.27.12-1.56.12h-.37c-.54,0-1.09-.18-1.64-.53s-.83-.91-.83-1.69c0-.98.56-1.48,1.67-1.48l3.76-.14c.49-1.42,1.01-3.28,1.56-5.57.33-1.43,1.07-2.14,2.23-2.14.64,0,1.15.2,1.51.59s.54.83.54,1.31c0,.19-.5,2-1.49,5.43,3.73-.33,5.77-.49,6.13-.49.62,0,1.03.09,1.23.27s.3.53.3,1.05c0,1.04-.88,1.71-2.65,1.99l-6.06,1.02Z"/>
      <path class="st6" d="M550.65,437.01c.01-.77-.45-2.44-1.39-4.99-1.89-5.05-2.83-8.65-2.83-10.79,0-1.92.76-2.88,2.27-2.88s2.21.88,2.21,2.64c0,1.12.03,1.92.08,2.4s.23,1.34.54,2.58.62,2.29.92,3.12c.18.5.39,1.16.63,1.97.14.5.26.86.37,1.05.07-.11.32-.56.74-1.37.25-.49,1.08-1.89,2.5-4.19s2.66-4.14,3.74-5.51,1.87-2.21,2.4-2.51,1.08-.46,1.67-.46,1.11.2,1.5.6.59.88.59,1.46c0,.68-.49,1.35-1.48,2-.96.66-2.27,2.16-3.93,4.5s-3.44,5.29-5.35,8.84c-1.08,2.03-2.04,3.04-2.9,3.04-.74,0-1.5-.5-2.29-1.49Z"/>
      <path class="st6" d="M576.81,431.86c-.28.6-.6,1.16-.95,1.69h.02c-2.07,3.25-4.22,4.87-6.43,4.87-1.07,0-1.9-.45-2.49-1.34s-.89-1.97-.89-3.25c0-1.79.27-3.51.81-5.15v.02c.6-1.8,1.33-3.4,2.2-4.78v.02c.83-1.35,1.87-2.55,3.11-3.62h-.02c1.55-1.31,3.45-1.97,5.7-1.97,1.23,0,2.02.32,2.37.95s.53,1.28.53,1.95c2.16-2.58,4.52-3.87,7.1-3.87,1.03,0,1.88.44,2.55,1.31s1,1.8,1,2.79c0,1.5-.55,3.01-1.64,4.52s-3.82,3.45-8.18,5.82c-.35.2-.53.45-.53.74,0,.41.24.8.73,1.16s1.16.54,2.01.54c2,0,4.28-1.34,6.84-4.01.45-.47.88-.7,1.3-.7.82,0,1.23.46,1.23,1.37,0,1.28-1.08,2.78-3.23,4.5s-4.42,2.58-6.79,2.58c-1.97,0-3.52-.54-4.65-1.63s-1.7-2.59-1.7-4.5ZM577.02,423.24c0-.21.06-.43.18-.65.13-.26.19-.52.19-.77,0-.19-.2-.28-.6-.28-1.22,0-2.26.59-3.14,1.76s-1.75,2.51-2.64,4.03-1.33,3.63-1.33,6.35c0,.35.23.53.69.53.29,0,.59-.11.88-.33s.85-.95,1.67-2.18,1.75-2.92,2.78-5.08l1.32-3.36ZM581.29,428.52c.19-.13.64-.41,1.37-.84,1.18-.69,2.35-1.62,3.51-2.79s1.73-2.06,1.73-2.68c0-.33-.11-.62-.32-.88s-.4-.39-.58-.39c-.97,0-2.04.74-3.19,2.22s-2,3.27-2.52,5.35Z"/>
      <path class="st6" d="M600.75,428.46l.3-.56c1.42-2.85,2.94-5.16,4.58-6.93s3.23-2.66,4.79-2.66c1.2,0,2.17.33,2.93.98s1.13,1.44,1.13,2.34c0,.56-.13,1.05-.39,1.45s-.62.61-1.07.61c-.73,0-1.39-.3-1.99-.9-.42-.39-.76-.58-1-.58-.88,0-2.35,1.37-4.41,4.1s-3.3,5.8-3.73,9.21c-.13.98-.42,1.67-.86,2.07s-1.05.59-1.81.59c-.81,0-1.38-.46-1.72-1.38s-.51-2.42-.51-4.51c0-.86.02-2.01.07-3.46.05-1.37.18-3.05.4-5.03.06-.52.1-.92.12-1.21.11-1.15.23-1.94.36-2.36s.45-.83.94-1.2,1.04-.56,1.63-.56c.63,0,1.11.18,1.44.54s.49.76.49,1.2c0,.55-.26,1.69-.79,3.43-.19.6-.35,1.31-.47,2.14l-.44,2.71Z"/>
      <path class="st6" d="M619.36,428.46l.3-.56c1.42-2.85,2.94-5.16,4.58-6.93s3.23-2.66,4.79-2.66c1.2,0,2.17.33,2.93.98s1.13,1.44,1.13,2.34c0,.56-.13,1.05-.39,1.45s-.62.61-1.07.61c-.73,0-1.39-.3-1.99-.9-.42-.39-.76-.58-1-.58-.88,0-2.35,1.37-4.41,4.1s-3.3,5.8-3.73,9.21c-.13.98-.42,1.67-.86,2.07s-1.05.59-1.81.59c-.81,0-1.38-.46-1.72-1.38s-.51-2.42-.51-4.51c0-.86.02-2.01.07-3.46.05-1.37.18-3.05.4-5.03.06-.52.1-.92.12-1.21.11-1.15.23-1.94.36-2.36s.45-.83.94-1.2,1.04-.56,1.63-.56c.63,0,1.11.18,1.44.54s.49.76.49,1.2c0,.55-.26,1.69-.79,3.43-.19.6-.35,1.31-.47,2.14l-.44,2.71Z"/>
      <path class="st6" d="M649.14,431.14c0,1.22-1.03,2.67-3.08,4.37s-4.37,2.54-6.94,2.54c-1.98,0-3.54-.62-4.68-1.87s-1.71-2.99-1.71-5.21c0-3.28,1.16-6.36,3.48-9.23s4.8-4.31,7.44-4.31c1.31,0,2.37.42,3.16,1.25s1.2,1.82,1.2,2.97c0,2.04-.98,3.98-2.94,5.83s-4.46,3.12-7.52,3.82c-.35.08-.53.29-.53.63,0,.56.25,1.1.75,1.61s1.16.76,2,.76c2.36,0,4.69-1.21,7.01-3.64.45-.47.88-.7,1.3-.7.7,0,1.05.39,1.05,1.18ZM637.35,428.02c1.85-.38,3.48-1.17,4.9-2.37s2.12-2.3,2.12-3.29c0-.39-.11-.71-.33-.98s-.5-.4-.83-.4c-1.02,0-2.15.75-3.39,2.25s-2.06,3.09-2.46,4.78Z"/>
      <path class="st6" d="M682.19,431.14c0,1.22-1.03,2.67-3.08,4.37s-4.37,2.54-6.94,2.54c-1.98,0-3.54-.62-4.68-1.87s-1.71-2.99-1.71-5.21c0-3.28,1.16-6.36,3.48-9.23s4.8-4.31,7.44-4.31c1.31,0,2.37.42,3.16,1.25s1.2,1.82,1.2,2.97c0,2.04-.98,3.98-2.94,5.83s-4.46,3.12-7.52,3.82c-.35.08-.53.29-.53.63,0,.56.25,1.1.75,1.61s1.16.76,2,.76c2.36,0,4.69-1.21,7.01-3.64.45-.47.88-.7,1.3-.7.7,0,1.05.39,1.05,1.18ZM670.39,428.02c1.85-.38,3.48-1.17,4.9-2.37s2.12-2.3,2.12-3.29c0-.39-.11-.71-.33-.98s-.5-.4-.83-.4c-1.02,0-2.15.75-3.39,2.25s-2.06,3.09-2.46,4.78Z"/>
      <path class="st6" d="M699.87,434.62c-.56-1.05-.97-3.02-1.23-5.91-.26-3-.83-4.5-1.72-4.5-.84,0-2.3,1.56-4.38,4.68s-3.35,5.43-3.83,6.92c-.11.45-.3.81-.59,1.11s-.57.44-.85.44c-1.78,0-2.67-.81-2.67-2.44,0-.55.18-1.8.53-3.76.46-2.53.69-5.62.69-9.28,0-.55.24-1.14.72-1.77s.99-.94,1.53-.94c.68,0,1.2.17,1.56.51s.54,1.24.54,2.71c0,1.11-.33,3.27-1,6.47,2.54-5.95,5.38-8.93,8.51-8.93,2.72,0,4.31,2.14,4.78,6.42.47,4.36,1.01,6.54,1.62,6.54.27,0,.58-.06.93-.18.42-.14.76-.21,1-.21.56,0,.84.33.84.98,0,.6-.39,1.23-1.16,1.91s-1.75,1.01-2.92,1.01c-1.36,0-2.33-.59-2.92-1.78h.02Z"/>
      <path class="st6" d="M721.34,431.31c-3.04,4.3-6.09,6.45-9.16,6.45-1.24,0-2.24-.49-3.01-1.47s-1.14-2.22-1.14-3.74c0-3.06,1.25-6.1,3.75-9.12s5.04-4.54,7.6-4.54c1.48,0,2.53.39,3.15,1.16.88-3.84,1.4-6.25,1.56-7.21.35-1.78.64-2.96.88-3.55s.59-1.04,1.07-1.36.9-.48,1.25-.48c.6,0,1.05.25,1.37.74s.47,1.11.47,1.86c0,.33-.26,1.27-.77,2.83-.84,2.53-1.63,5.59-2.35,9.18s-1.08,6.44-1.08,8.56.45,3.04,1.34,3.04c.46,0,.94-.12,1.46-.37.52-.23.88-.35,1.09-.35.57,0,.86.33.86,1,0,.81-.58,1.61-1.75,2.42s-2.27,1.2-3.31,1.2c-1.12,0-1.99-.6-2.6-1.81s-.84-2.69-.69-4.45ZM719.38,422.29c-1.54,0-3.14,1.17-4.81,3.52s-2.5,4.49-2.5,6.43c0,1.14.42,1.71,1.27,1.71,1.43,0,3.13-1.27,5.12-3.81s2.97-4.55,2.97-6.03c0-.45-.19-.86-.56-1.24s-.87-.57-1.48-.57Z"/>
      <path class="st6" d="M759.08,431.29c-3.08,4.07-6.06,6.1-8.93,6.1-1.05,0-1.96-.42-2.72-1.25s-1.14-1.89-1.14-3.18c0-3.11,1.38-6.41,4.15-9.92s5.55-5.26,8.37-5.26c1.43,0,2.37.72,2.81,2.16,1.35,0,2.02.52,2.02,1.55,0,.49-.13,1.38-.39,2.67-.47,2.41-.7,4.34-.7,5.78s.1,2.55.31,3.16.35,1.01.45,1.2.38.39.84.6c.47.22.7.53.7.93,0,.6-.3,1.1-.91,1.49s-1.23.6-1.89.6c-2.2,0-3.19-2.21-2.97-6.63ZM758.02,421.54c-1.18,0-2.72,1.31-4.61,3.93s-2.84,4.84-2.84,6.67c0,.96.2,1.44.6,1.44,1.38,0,3.08-1.23,5.11-3.68s3.03-4.6,3.03-6.44c0-.59-.13-1.05-.4-1.4s-.56-.52-.89-.52Z"/>
      <path class="st6" d="M775.27,422.91c-.11,0-.44,1.31-.99,3.92s-.83,4.2-.83,4.75c0,.96.1,1.63.31,2.01s.54.57,1.01.57c.66,0,1.29-.11,1.89-.34s1.4-.74,2.38-1.54c.61-.5,1.12-.76,1.55-.76.34,0,.61.1.82.29s.31.42.31.68c0,1.03-.83,2.2-2.5,3.51s-3.42,1.96-5.27,1.96c-1.55,0-2.73-.46-3.54-1.37s-1.22-2.23-1.22-3.94c0-1.58.59-4.74,1.78-9.47-.75.08-1.27.12-1.56.12h-.37c-.54,0-1.09-.18-1.64-.53s-.83-.91-.83-1.69c0-.98.56-1.48,1.67-1.48l3.76-.14c.49-1.42,1.01-3.28,1.56-5.57.33-1.43,1.07-2.14,2.23-2.14.64,0,1.15.2,1.51.59s.54.83.54,1.31c0,.19-.5,2-1.49,5.43,3.73-.33,5.77-.49,6.13-.49.62,0,1.03.09,1.23.27s.3.53.3,1.05c0,1.04-.88,1.71-2.65,1.99l-6.06,1.02Z"/>
      <path class="st6" d="M301.14,475.92c-.05-.63-1.05-1.41-3.02-2.32-2.41-1.16-3.96-2.16-4.62-3s-1-1.75-1-2.73c0-2.07,1.16-3.89,3.49-5.44s4.5-2.33,6.51-2.33,2.97.86,2.97,2.58c0,.46-.23.87-.68,1.23s-.83.54-1.15.54c-.13,0-.36-.08-.69-.25s-.58-.25-.76-.25c-1.04,0-2.19.35-3.45,1.05s-1.88,1.52-1.88,2.46c0,.46.22.9.67,1.33s1.35.96,2.72,1.61c2.03.96,3.36,1.83,4.01,2.6s.97,1.63.97,2.57c0,1.71-1.16,3.14-3.47,4.28s-4.91,1.71-7.8,1.71c-2.12,0-3.18-.77-3.18-2.3,0-.56.22-1.04.67-1.44s.94-.6,1.49-.6c.22,0,.57.08,1.04.25.47.18.9.26,1.3.26,1.1,0,2.26-.18,3.46-.53s2-.79,2.39-1.3Z"/>
      <path class="st6" d="M324.38,465.71h.02l-.04.04c-.68.38-1.23.7-1.65.98-.79.53-1.58,1.1-2.37,1.71-.91.7-1.6,1.29-2.06,1.78-.39.4-.58.69-.58.88,0,.21.69,1.03,2.06,2.47s2.46,2.46,3.26,3.08,1.6.93,2.38.93l.77-.02c.28,0,.51.08.68.25s.25.42.25.76c0,.48-.3,1.04-.9,1.67s-1.62.95-3.08.95c-.86,0-1.72-.31-2.6-.94s-2.23-2.04-4.04-4.25c-1.45-1.77-2.24-2.65-2.37-2.65-.08,0-.33.21-.74.63s-.68.74-.81.97v.02c-.2.97-.3,2.24-.3,3.81,0,.79-.23,1.42-.69,1.92s-1.03.74-1.7.74-1.23-.2-1.62-.59-.58-.79-.58-1.19c0-.42.15-1.35.44-2.78.56-2.78,1.04-6.46,1.42-11.06.38-3.67.7-6.53.98-8.59s.53-3.4.76-4.04.57-1.15,1.04-1.53.97-.57,1.51-.57.93.21,1.24.64.47.95.47,1.56c0,.76-.49,3.74-1.48,8.93l-.42,2.3h.02c-.52,3.39-.78,5.34-.79,5.87l5.4-4.89c2.75-2.66,4.78-3.99,6.06-3.99s1.86.5,1.86,1.49c0,1.24-.6,2.14-1.81,2.69Z"/>
      <path class="st6" d="M341.66,473.95c-1.12,2.05-2.43,3.68-3.91,4.89s-2.99,1.81-4.51,1.81c-.9,0-1.81-.47-2.73-1.42s-1.38-2.41-1.38-4.38c0-1.39.35-3.5,1.05-6.31.61-2.32.91-4.08.91-5.29.47-.98,1.2-1.48,2.2-1.48.68,0,1.22.23,1.63.68s.61.91.61,1.36c0,.83-.29,2.02-.88,3.55-.34.91-.71,2.21-1.1,3.88s-.59,2.74-.59,3.21c0,1.56.32,2.34.97,2.34,1.02,0,2.4-.98,4.13-2.94s2.87-3.96,3.39-6.01c.53-2,1-3.32,1.41-3.94s.99-.93,1.74-.93c1.22,0,1.83.68,1.83,2.04,0,.2-.1.6-.3,1.2-.69,2.07-1.04,4.41-1.04,7.01,0,3.05.52,4.87,1.55,5.47.34.2.51.45.51.74,0,.42-.3.82-.9,1.2s-1.17.56-1.71.56c-.93,0-1.64-.65-2.14-1.96s-.75-3.06-.75-5.26Z"/>
      <path class="st6" d="M357.6,450.62c1.27,0,1.9.69,1.9,2.07,0,.63-.09,1.32-.26,2.05s-.66,2.55-1.44,5.44c-.57,2.1-1.01,4.39-1.31,6.86s-.45,4.42-.45,5.81c0,1.49.11,3.26.33,5.31.06.55.09.9.09,1.04,0,.7-.26,1.31-.77,1.81s-1.08.76-1.69.76c-.83,0-1.42-.39-1.76-1.18s-.51-2.13-.51-4.04c0-4.11.48-8.96,1.45-14.54s1.76-8.87,2.37-9.88,1.3-1.51,2.05-1.51Z"/>
      <path class="st6" d="M367.83,450.62c1.27,0,1.9.69,1.9,2.07,0,.63-.09,1.32-.26,2.05s-.66,2.55-1.44,5.44c-.57,2.1-1.01,4.39-1.31,6.86s-.45,4.42-.45,5.81c0,1.49.11,3.26.33,5.31.06.55.09.9.09,1.04,0,.7-.26,1.31-.77,1.81s-1.08.76-1.69.76c-.83,0-1.42-.39-1.76-1.18s-.51-2.13-.51-4.04c0-4.11.48-8.96,1.45-14.54s1.76-8.87,2.37-9.88,1.3-1.51,2.05-1.51Z"/>
      <path class="st6" d="M387.36,474.34c0,1.22-1.03,2.67-3.08,4.37s-4.37,2.54-6.94,2.54c-1.98,0-3.54-.62-4.68-1.87s-1.71-2.99-1.71-5.21c0-3.28,1.16-6.36,3.48-9.23s4.8-4.31,7.44-4.31c1.31,0,2.37.42,3.16,1.25s1.2,1.82,1.2,2.97c0,2.04-.98,3.98-2.94,5.83s-4.46,3.12-7.52,3.82c-.35.08-.53.29-.53.63,0,.56.25,1.1.75,1.61s1.16.76,2,.76c2.36,0,4.69-1.21,7.01-3.64.45-.47.88-.7,1.3-.7.7,0,1.05.39,1.05,1.18ZM375.56,471.22c1.85-.38,3.48-1.17,4.9-2.37s2.12-2.3,2.12-3.29c0-.39-.11-.71-.33-.98s-.5-.4-.83-.4c-1.02,0-2.15.75-3.39,2.25s-2.06,3.09-2.46,4.78Z"/>
      <path class="st6" d="M411.85,466.11c-.11,0-.44,1.31-.99,3.92s-.83,4.2-.83,4.75c0,.96.1,1.63.31,2.01s.54.57,1.01.57c.66,0,1.29-.11,1.89-.34s1.4-.74,2.38-1.54c.61-.5,1.12-.76,1.55-.76.34,0,.61.1.82.29s.31.42.31.68c0,1.03-.83,2.2-2.5,3.51s-3.42,1.96-5.27,1.96c-1.55,0-2.73-.46-3.54-1.37s-1.22-2.23-1.22-3.94c0-1.58.59-4.74,1.78-9.47-.75.08-1.27.12-1.56.12h-.37c-.54,0-1.09-.18-1.64-.53s-.83-.91-.83-1.69c0-.98.56-1.48,1.67-1.48l3.76-.14c.49-1.42,1.01-3.28,1.56-5.57.33-1.43,1.07-2.14,2.23-2.14.64,0,1.15.2,1.51.59s.54.83.54,1.31c0,.19-.5,2-1.49,5.43,3.73-.33,5.77-.49,6.13-.49.62,0,1.03.09,1.23.27s.3.53.3,1.05c0,1.04-.88,1.71-2.65,1.99l-6.06,1.02Z"/>
      <path class="st6" d="M436.93,463.96c1.22,1.96,1.83,3.7,1.83,5.24,0,2.25-.68,4.4-2.03,6.44s-2.93,3.49-4.74,4.32-3.46,1.26-4.96,1.26c-.45,0-.88-.05-1.3-.16-.88,1.51-1.62,2.27-2.21,2.27-.49,0-.92-.16-1.28-.49s-.54-.69-.54-1.07.32-1.2.97-2.43c-1.07-1.43-1.6-3-1.6-4.71,0-3.61.97-6.73,2.91-9.37s4.5-3.96,7.69-3.96c.7,0,1.48.15,2.34.46l.46-.54c.64-.82,1.26-1.23,1.85-1.23.42,0,.81.25,1.18.75s.54.95.54,1.34c0,.15-.09.37-.28.65-.2.29-.47.7-.81,1.23ZM428.58,465.58c-.71.59-1.56,1.82-2.55,3.7s-1.38,3.41-1.18,4.58l.28,1.62c1.04-1.51,2.89-4.38,5.55-8.61l1.34-2.11c-1.59,0-2.74.28-3.43.83h-.02ZM434.42,467.41c-2.33,3.3-3.62,5.19-3.85,5.66-.67,1.28-1.52,2.61-2.57,4.01l-.16.42c2.29-.4,4.01-1.44,5.18-3.14s1.75-3.3,1.75-4.81c0-.11-.05-.47-.16-1.09l-.19-1.05Z"/>
      <path class="st6" d="M446.16,471.66l.3-.56c1.42-2.85,2.94-5.16,4.58-6.93s3.23-2.66,4.79-2.66c1.2,0,2.17.33,2.93.98s1.13,1.44,1.13,2.34c0,.56-.13,1.05-.39,1.45s-.62.61-1.07.61c-.73,0-1.39-.3-1.99-.9-.42-.39-.76-.58-1-.58-.88,0-2.35,1.37-4.41,4.1s-3.3,5.8-3.73,9.21c-.13.98-.42,1.67-.86,2.07s-1.05.59-1.81.59c-.81,0-1.38-.46-1.72-1.38s-.51-2.42-.51-4.51c0-.86.02-2.01.07-3.46.05-1.37.18-3.05.4-5.03.06-.52.1-.92.12-1.21.11-1.15.23-1.94.36-2.36s.45-.83.94-1.2,1.04-.56,1.63-.56c.63,0,1.11.18,1.44.54s.49.76.49,1.2c0,.55-.26,1.69-.79,3.43-.19.6-.35,1.31-.47,2.14l-.44,2.71Z"/>
      <path class="st6" d="M464.77,471.66l.3-.56c1.42-2.85,2.94-5.16,4.58-6.93s3.23-2.66,4.79-2.66c1.2,0,2.17.33,2.93.98s1.13,1.44,1.13,2.34c0,.56-.13,1.05-.39,1.45s-.62.61-1.07.61c-.73,0-1.39-.3-1.99-.9-.42-.39-.76-.58-1-.58-.88,0-2.35,1.37-4.41,4.1s-3.3,5.8-3.73,9.21c-.13.98-.42,1.67-.86,2.07s-1.05.59-1.81.59c-.81,0-1.38-.46-1.72-1.38s-.51-2.42-.51-4.51c0-.86.02-2.01.07-3.46.05-1.37.18-3.05.4-5.03.06-.52.1-.92.12-1.21.11-1.15.23-1.94.36-2.36s.45-.83.94-1.2,1.04-.56,1.63-.56c.63,0,1.11.18,1.44.54s.49.76.49,1.2c0,.55-.26,1.69-.79,3.43-.19.6-.35,1.31-.47,2.14l-.44,2.71Z"/>
      <path class="st6" d="M494.55,474.34c0,1.22-1.03,2.67-3.08,4.37s-4.37,2.54-6.94,2.54c-1.98,0-3.54-.62-4.68-1.87s-1.71-2.99-1.71-5.21c0-3.28,1.16-6.36,3.48-9.23s4.8-4.31,7.44-4.31c1.31,0,2.37.42,3.16,1.25s1.2,1.82,1.2,2.97c0,2.04-.98,3.98-2.94,5.83s-4.46,3.12-7.52,3.82c-.35.08-.53.29-.53.63,0,.56.25,1.1.75,1.61s1.16.76,2,.76c2.36,0,4.69-1.21,7.01-3.64.45-.47.88-.7,1.3-.7.7,0,1.05.39,1.05,1.18ZM482.76,471.22c1.85-.38,3.48-1.17,4.9-2.37s2.12-2.3,2.12-3.29c0-.39-.11-.71-.33-.98s-.5-.4-.83-.4c-1.02,0-2.15.75-3.39,2.25s-2.06,3.09-2.46,4.78Z"/>
      <path class="st6" d="M527.6,474.34c0,1.22-1.03,2.67-3.08,4.37s-4.37,2.54-6.94,2.54c-1.98,0-3.54-.62-4.68-1.87s-1.71-2.99-1.71-5.21c0-3.28,1.16-6.36,3.48-9.23s4.8-4.31,7.44-4.31c1.31,0,2.37.42,3.16,1.25s1.2,1.82,1.2,2.97c0,2.04-.98,3.98-2.94,5.83s-4.46,3.12-7.52,3.82c-.35.08-.53.29-.53.63,0,.56.25,1.1.75,1.61s1.16.76,2,.76c2.36,0,4.69-1.21,7.01-3.64.45-.47.88-.7,1.3-.7.7,0,1.05.39,1.05,1.18ZM515.8,471.22c1.85-.38,3.48-1.17,4.9-2.37s2.12-2.3,2.12-3.29c0-.39-.11-.71-.33-.98s-.5-.4-.83-.4c-1.02,0-2.15.75-3.39,2.25s-2.06,3.09-2.46,4.78Z"/>
      <path class="st6" d="M545.28,477.82c-.56-1.05-.97-3.02-1.23-5.91-.26-3-.83-4.5-1.72-4.5-.84,0-2.3,1.56-4.38,4.68s-3.35,5.43-3.83,6.92c-.11.45-.3.81-.59,1.11s-.57.44-.85.44c-1.78,0-2.67-.81-2.67-2.44,0-.55.18-1.8.53-3.76.46-2.53.69-5.62.69-9.28,0-.55.24-1.14.72-1.77s.99-.94,1.53-.94c.68,0,1.2.17,1.56.51s.54,1.24.54,2.71c0,1.11-.33,3.27-1,6.47,2.54-5.95,5.38-8.93,8.51-8.93,2.72,0,4.31,2.14,4.78,6.42.47,4.36,1.01,6.54,1.62,6.54.27,0,.58-.06.93-.18.42-.14.76-.21,1-.21.56,0,.84.33.84.98,0,.6-.39,1.23-1.16,1.91s-1.75,1.01-2.92,1.01c-1.36,0-2.33-.59-2.92-1.78h.02Z"/>
      <path class="st6" d="M573.53,471.44l-.3,3.15c-.09,1.01-.14,2-.14,2.99,0,.89.08,1.92.25,3.09-.12.41-.41.76-.88,1.05s-.96.44-1.48.44c-1.61,0-2.41-1.02-2.41-3.06,0-.9.25-3.06.76-6.47.35-2.45.53-4.27.53-5.47,0-.07-.07-.15-.21-.25-.81-.52-1.21-1.01-1.21-1.48,0-.61.45-1.27,1.35-1.99.43-.34.7-.74.8-1.19s.24-1.16.43-2.14c.63-3.74,1.61-6.4,2.94-7.97s3.02-2.36,5.07-2.36c1.2,0,2.21.39,3.03,1.17s1.24,1.74,1.24,2.89c0,1.03-.24,2.1-.71,3.21s-1.1,1.66-1.87,1.66c-.34,0-.63-.11-.86-.33s-.35-.5-.35-.85l.11-1.53c0-1.83-.38-2.74-1.14-2.74-.95,0-1.84,1.19-2.66,3.58s-1.24,4.42-1.24,6.09c0,.18.11.26.33.26,2.43,0,4.14-.01,5.14-.04s1.5.36,1.5,1.16-.61,1.34-1.82,1.71-2.49.55-3.82.55c-.9.08-1.49.16-1.76.23-.28,1.73-.49,3.26-.62,4.59v.02Z"/>
      <path class="st6" d="M594.43,473.95c-1.12,2.05-2.43,3.68-3.91,4.89s-2.99,1.81-4.51,1.81c-.9,0-1.81-.47-2.73-1.42s-1.38-2.41-1.38-4.38c0-1.39.35-3.5,1.05-6.31.61-2.32.91-4.08.91-5.29.47-.98,1.2-1.48,2.2-1.48.68,0,1.22.23,1.63.68s.61.91.61,1.36c0,.83-.29,2.02-.88,3.55-.34.91-.71,2.21-1.1,3.88s-.59,2.74-.59,3.21c0,1.56.32,2.34.97,2.34,1.02,0,2.4-.98,4.13-2.94s2.87-3.96,3.39-6.01c.53-2,1-3.32,1.41-3.94s.99-.93,1.74-.93c1.22,0,1.83.68,1.83,2.04,0,.2-.1.6-.3,1.2-.69,2.07-1.04,4.41-1.04,7.01,0,3.05.52,4.87,1.55,5.47.34.2.51.45.51.74,0,.42-.3.82-.9,1.2s-1.17.56-1.71.56c-.93,0-1.64-.65-2.14-1.96s-.75-3.06-.75-5.26Z"/>
      <path class="st6" d="M615.98,475c-1.3,1.46-2.82,2.67-4.54,3.61s-3.22,1.42-4.47,1.42-2.21-.36-2.89-1.09-1.03-1.73-1.03-3.01c0-1.82.69-3.84,2.07-6.06s3.29-4.16,5.73-5.81,4.64-2.47,6.6-2.47c1.08,0,2.01.29,2.79.88.19.14.35.26.49.35.28.2.54.57.78,1.1s.36.96.36,1.29c0,.21-.22.92-.67,2.13-.46,1.25-.78,2.47-.96,3.65s-.54,4.12-1.08,8.82c-.48,4.09-1.62,7.08-3.43,8.96s-3.81,2.83-6.01,2.83-4.55-.78-6.72-2.33-3.26-2.83-3.26-3.84c0-.89.43-1.34,1.3-1.34.34,0,1.03.34,2.07,1.02,2.67,1.76,4.96,2.64,6.87,2.64,1.45,0,2.67-.91,3.66-2.73s1.76-5.16,2.34-10.01ZM616.4,465.23c-.87,0-2,.52-3.41,1.56s-2.71,2.43-3.9,4.19-1.79,3.22-1.79,4.38c0,.61.22.91.67.91,1.51,0,3.01-.61,4.5-1.84s2.69-2.63,3.61-4.23,1.38-2.8,1.38-3.62c0-.41-.11-.74-.32-.98s-.46-.37-.74-.37Z"/>
      <path class="st6" d="M630.98,450.62c1.27,0,1.9.69,1.9,2.07,0,.63-.09,1.32-.26,2.05s-.66,2.55-1.44,5.44c-.57,2.1-1.01,4.39-1.31,6.86s-.45,4.42-.45,5.81c0,1.49.11,3.26.33,5.31.06.55.09.9.09,1.04,0,.7-.26,1.31-.77,1.81s-1.08.76-1.69.76c-.83,0-1.42-.39-1.76-1.18s-.51-2.13-.51-4.04c0-4.11.48-8.96,1.45-14.54s1.76-8.87,2.37-9.88,1.3-1.51,2.05-1.51Z"/>
      <path class="st6" d="M650.5,474.34c0,1.22-1.03,2.67-3.08,4.37s-4.37,2.54-6.94,2.54c-1.98,0-3.54-.62-4.68-1.87s-1.71-2.99-1.71-5.21c0-3.28,1.16-6.36,3.48-9.23s4.8-4.31,7.44-4.31c1.31,0,2.37.42,3.16,1.25s1.2,1.82,1.2,2.97c0,2.04-.98,3.98-2.94,5.83s-4.46,3.12-7.52,3.82c-.35.08-.53.29-.53.63,0,.56.25,1.1.75,1.61s1.16.76,2,.76c2.36,0,4.69-1.21,7.01-3.64.45-.47.88-.7,1.3-.7.7,0,1.05.39,1.05,1.18ZM638.71,471.22c1.85-.38,3.48-1.17,4.9-2.37s2.12-2.3,2.12-3.29c0-.39-.11-.71-.33-.98s-.5-.4-.83-.4c-1.02,0-2.15.75-3.39,2.25s-2.06,3.09-2.46,4.78Z"/>
      <path class="st6" d="M669.73,465.71h.02l-.04.04c-.68.38-1.23.7-1.65.98-.79.53-1.58,1.1-2.37,1.71-.91.7-1.6,1.29-2.06,1.78-.39.4-.58.69-.58.88,0,.21.69,1.03,2.06,2.47s2.46,2.46,3.26,3.08,1.6.93,2.38.93l.77-.02c.28,0,.51.08.68.25s.25.42.25.76c0,.48-.3,1.04-.9,1.67s-1.62.95-3.08.95c-.86,0-1.72-.31-2.6-.94s-2.23-2.04-4.04-4.25c-1.45-1.77-2.24-2.65-2.37-2.65-.08,0-.33.21-.74.63s-.68.74-.81.97v.02c-.2.97-.3,2.24-.3,3.81,0,.79-.23,1.42-.69,1.92s-1.03.74-1.7.74-1.23-.2-1.62-.59-.58-.79-.58-1.19c0-.42.15-1.35.44-2.78.56-2.78,1.04-6.46,1.42-11.06.38-3.67.7-6.53.98-8.59s.53-3.4.76-4.04.57-1.15,1.04-1.53.97-.57,1.51-.57.93.21,1.24.64.47.95.47,1.56c0,.76-.49,3.74-1.48,8.93l-.42,2.3h.02c-.52,3.39-.78,5.34-.79,5.87l5.4-4.89c2.75-2.66,4.78-3.99,6.06-3.99s1.86.5,1.86,1.49c0,1.24-.6,2.14-1.81,2.69Z"/>
      <path class="st6" d="M681.07,450.62c1.27,0,1.9.69,1.9,2.07,0,.63-.09,1.32-.26,2.05s-.66,2.55-1.44,5.44c-.57,2.1-1.01,4.39-1.31,6.86s-.45,4.42-.45,5.81c0,1.49.11,3.26.33,5.31.06.55.09.9.09,1.04,0,.7-.26,1.31-.77,1.81s-1.08.76-1.69.76c-.83,0-1.42-.39-1.76-1.18s-.51-2.13-.51-4.04c0-4.11.48-8.96,1.45-14.54s1.76-8.87,2.37-9.88,1.3-1.51,2.05-1.51Z"/>
      <path class="st6" d="M696.91,474.49c-3.08,4.07-6.06,6.1-8.93,6.1-1.05,0-1.96-.42-2.72-1.25s-1.14-1.89-1.14-3.18c0-3.11,1.38-6.41,4.15-9.92s5.55-5.26,8.37-5.26c1.43,0,2.37.72,2.81,2.16,1.35,0,2.02.52,2.02,1.55,0,.49-.13,1.38-.39,2.67-.47,2.41-.7,4.34-.7,5.78s.1,2.55.31,3.16.35,1.01.45,1.2.38.39.84.6c.47.22.7.53.7.93,0,.6-.3,1.1-.91,1.49s-1.23.6-1.89.6c-2.2,0-3.19-2.21-2.97-6.63ZM695.86,464.74c-1.18,0-2.72,1.31-4.61,3.93s-2.84,4.84-2.84,6.67c0,.96.2,1.44.6,1.44,1.38,0,3.08-1.23,5.11-3.68s3.03-4.6,3.03-6.44c0-.59-.13-1.05-.4-1.4s-.56-.52-.89-.52Z"/>
      <path class="st6" d="M713.1,466.11c-.11,0-.44,1.31-.99,3.92s-.83,4.2-.83,4.75c0,.96.1,1.63.31,2.01s.54.57,1.01.57c.66,0,1.29-.11,1.89-.34s1.4-.74,2.38-1.54c.61-.5,1.12-.76,1.55-.76.34,0,.61.1.82.29s.31.42.31.68c0,1.03-.83,2.2-2.5,3.51s-3.42,1.96-5.27,1.96c-1.55,0-2.73-.46-3.54-1.37s-1.22-2.23-1.22-3.94c0-1.58.59-4.74,1.78-9.47-.75.08-1.27.12-1.56.12h-.37c-.54,0-1.09-.18-1.64-.53s-.83-.91-.83-1.69c0-.98.56-1.48,1.67-1.48l3.76-.14c.49-1.42,1.01-3.28,1.56-5.57.33-1.43,1.07-2.14,2.23-2.14.64,0,1.15.2,1.51.59s.54.83.54,1.31c0,.19-.5,2-1.49,5.43,3.73-.33,5.77-.49,6.13-.49.62,0,1.03.09,1.23.27s.3.53.3,1.05c0,1.04-.88,1.71-2.65,1.99l-6.06,1.02Z"/>
      <path class="st6" d="M753.74,471.47c-.79,2.74-2.28,5.05-4.47,6.93s-4.39,2.82-6.58,2.82c-1.73,0-3.16-.64-4.29-1.91s-1.69-2.83-1.69-4.68c0-3.02,1.03-6,3.09-8.93s4.56-4.39,7.51-4.39c2,0,3.63.74,4.87,2.22s1.86,3.25,1.86,5.3c0,.89-.1,1.76-.3,2.62v.02ZM744.6,465.92c-.82.73-1.62,1.89-2.41,3.48s-1.18,3.19-1.18,4.8c0,.97.18,1.78.54,2.41s.83.95,1.42.95c1.45,0,2.96-.86,4.54-2.58s2.36-3.66,2.36-5.8c0-1.21-.25-2.2-.76-2.98s-1.22-1.17-2.14-1.17-1.65.3-2.34.9h-.02Z"/>
      <path class="st6" d="M761.49,479.13c-.2.82-.4,2.06-.6,3.73l-.84,6.91c-.14,1.12-.41,1.9-.82,2.34s-.9.65-1.49.65c-.53,0-1.03-.2-1.5-.59s-.71-.83-.71-1.31c0-.95.15-2.04.44-3.29,1.75-6.97,2.7-14.21,2.87-21.71v-.35c0-1.57.04-2.62.13-3.14s.34-.98.76-1.38,1-.6,1.77-.6c1.28,0,1.92.98,1.92,2.94,0,.8-.15,2.15-.44,4.06l-.18,1.21c1.34-2.23,2.92-4.08,4.76-5.55s3.49-2.21,4.94-2.21c1.31,0,2.43.47,3.35,1.41s1.38,2.12,1.38,3.53c0,3.79-1.47,7.23-4.4,10.33s-5.84,4.65-8.71,4.65c-1.36,0-2.23-.54-2.62-1.63ZM771.81,464.84c-1.43,0-3.28,1.39-5.56,4.18s-3.42,4.98-3.42,6.57c0,.41.2.78.61,1.1s.88.48,1.42.48c1.49,0,3.2-1.17,5.12-3.51s2.89-4.6,2.89-6.78c0-.73-.11-1.25-.33-1.57s-.46-.48-.72-.48Z"/>
      <path class="st6" d="M782.36,479.93c-.7,0-1.22-.14-1.56-.41s-.5-1-.5-2.17c0-.66.03-1.16.09-1.5s.34-.62.85-.82,1.25-.3,2.21-.3c.71,0,1.26.17,1.63.5s.56.7.56,1.1c0,.66-.1,1.16-.31,1.51s-.65.79-1.34,1.31-1.23.78-1.64.78Z"/>
      <path class="st6" d="M791.32,479.93c-.7,0-1.22-.14-1.56-.41s-.5-1-.5-2.17c0-.66.03-1.16.09-1.5s.34-.62.85-.82,1.25-.3,2.21-.3c.71,0,1.26.17,1.63.5s.56.7.56,1.1c0,.66-.1,1.16-.31,1.51s-.65.79-1.34,1.31-1.23.78-1.64.78Z"/>
      <path class="st6" d="M800.29,479.93c-.7,0-1.22-.14-1.56-.41s-.5-1-.5-2.17c0-.66.03-1.16.09-1.5s.34-.62.85-.82,1.25-.3,2.21-.3c.71,0,1.26.17,1.63.5s.56.7.56,1.1c0,.66-.1,1.16-.31,1.51s-.65.79-1.34,1.31-1.23.78-1.64.78Z"/>
      <path class="st6" d="M324.12,544.84c-.28.19-.62.28-1.02.28-.23,0-.44-.02-.62-.07-.3-.06-.81-.09-1.51-.09-1.45,0-3.11.11-4.98.32s-3.15.46-3.84.74c-.74,2.23-1.2,4.88-1.37,7.96.48-.07.97-.13,1.46-.19,1.82-.19,3.51-.43,5.08-.72,1.31-.23,2.37-.35,3.16-.35,1.78,0,2.67.62,2.67,1.86,0,.22-.17.52-.52.91s-.72.65-1.12.82-1.14.32-2.21.47l-4.71.58c-1.8.22-3.14.45-4.01.67-.13.06-.23.17-.29.33s-.15.87-.25,2.13-.15,2.42-.15,3.49l.07,2.23c0,1.38-.64,2.07-1.93,2.07-.66,0-1.28-.24-1.87-.72s-.89-1.13-.89-1.95c0-1.52.18-3.71.53-6.56.02-.13.63-4.46,1.83-12.99,0-.4-.06-.74-.18-1.02-.18-.5-.26-.91-.26-1.21,0-.42.25-.86.75-1.33s.96-.69,1.38-.69c.28,0,.57.04.88.11.43.09.88.14,1.35.14s2.33-.19,5.62-.56c2.14-.23,3.74-.35,4.8-.35,1.11,0,1.98.17,2.59.52s.92.66.92.94c0,.98-.46,1.74-1.37,2.27v-.02Z"/>
      <path class="st6" d="M337.82,560.89c-3.08,4.07-6.06,6.1-8.93,6.1-1.05,0-1.96-.42-2.72-1.25s-1.14-1.89-1.14-3.18c0-3.11,1.38-6.41,4.15-9.92s5.55-5.26,8.37-5.26c1.43,0,2.37.72,2.81,2.16,1.35,0,2.02.52,2.02,1.55,0,.49-.13,1.38-.39,2.67-.47,2.41-.7,4.34-.7,5.78s.1,2.55.31,3.16.35,1.01.45,1.2.38.39.84.6c.47.22.7.53.7.93,0,.6-.3,1.1-.91,1.49s-1.23.6-1.89.6c-2.2,0-3.19-2.21-2.97-6.63ZM336.76,551.14c-1.18,0-2.72,1.31-4.61,3.93s-2.84,4.84-2.84,6.67c0,.96.2,1.44.6,1.44,1.38,0,3.08-1.23,5.11-3.68s3.03-4.6,3.03-6.44c0-.59-.13-1.05-.4-1.4s-.56-.52-.89-.52Z"/>
      <path class="st6" d="M361.6,564.22c-.56-1.05-.97-3.02-1.23-5.91-.26-3-.83-4.5-1.72-4.5-.84,0-2.3,1.56-4.38,4.68s-3.35,5.43-3.83,6.92c-.11.45-.3.81-.59,1.11s-.57.44-.85.44c-1.78,0-2.67-.81-2.67-2.44,0-.55.18-1.8.53-3.76.46-2.53.69-5.62.69-9.28,0-.55.24-1.14.72-1.77s.99-.94,1.53-.94c.68,0,1.2.17,1.56.51s.54,1.24.54,2.71c0,1.11-.33,3.27-1,6.47,2.54-5.95,5.38-8.93,8.51-8.93,2.72,0,4.31,2.14,4.78,6.42.47,4.36,1.01,6.54,1.62,6.54.27,0,.58-.06.93-.18.42-.14.76-.21,1-.21.56,0,.84.33.84.98,0,.6-.39,1.23-1.16,1.91s-1.75,1.01-2.92,1.01c-1.36,0-2.33-.59-2.92-1.78h.02Z"/>
      <path class="st6" d="M382.68,561.4c-1.3,1.46-2.82,2.67-4.54,3.61s-3.22,1.42-4.47,1.42-2.21-.36-2.89-1.09-1.03-1.73-1.03-3.01c0-1.82.69-3.84,2.07-6.06s3.29-4.16,5.73-5.81,4.64-2.47,6.6-2.47c1.08,0,2.01.29,2.79.88.19.14.35.26.49.35.28.2.54.57.78,1.1s.36.96.36,1.29c0,.21-.22.92-.67,2.13-.46,1.25-.78,2.47-.96,3.65s-.54,4.12-1.08,8.82c-.48,4.09-1.62,7.08-3.43,8.96s-3.81,2.83-6.01,2.83-4.55-.78-6.72-2.33-3.26-2.83-3.26-3.84c0-.89.43-1.34,1.3-1.34.34,0,1.03.34,2.07,1.02,2.67,1.76,4.96,2.64,6.87,2.64,1.45,0,2.67-.91,3.66-2.73s1.76-5.16,2.34-10.01ZM383.1,551.63c-.87,0-2,.52-3.41,1.56s-2.71,2.43-3.9,4.19-1.79,3.22-1.79,4.38c0,.61.22.91.67.91,1.51,0,3.01-.61,4.5-1.84s2.69-2.63,3.61-4.23,1.38-2.8,1.38-3.62c0-.41-.11-.74-.32-.98s-.46-.37-.74-.37Z"/>
      <path class="st6" d="M418.06,560.91c-3.04,4.3-6.09,6.45-9.16,6.45-1.24,0-2.24-.49-3.01-1.47s-1.14-2.22-1.14-3.74c0-3.06,1.25-6.1,3.75-9.12s5.04-4.54,7.6-4.54c1.48,0,2.53.39,3.15,1.16.88-3.84,1.4-6.25,1.56-7.21.35-1.78.64-2.96.88-3.55s.59-1.04,1.07-1.36.9-.48,1.25-.48c.6,0,1.05.25,1.37.74s.47,1.11.47,1.86c0,.33-.26,1.27-.77,2.83-.84,2.53-1.63,5.59-2.35,9.18s-1.08,6.44-1.08,8.56.45,3.04,1.34,3.04c.46,0,.94-.12,1.46-.37.52-.23.88-.35,1.09-.35.57,0,.86.33.86,1,0,.81-.58,1.61-1.75,2.42s-2.27,1.2-3.31,1.2c-1.12,0-1.99-.6-2.6-1.81s-.84-2.69-.69-4.45ZM416.11,551.89c-1.54,0-3.14,1.17-4.81,3.52s-2.5,4.49-2.5,6.43c0,1.14.42,1.71,1.27,1.71,1.43,0,3.13-1.27,5.12-3.81s2.97-4.55,2.97-6.03c0-.45-.19-.86-.56-1.24s-.87-.57-1.48-.57Z"/>
      <path class="st6" d="M445.1,560.74c0,1.22-1.03,2.67-3.08,4.37s-4.37,2.54-6.94,2.54c-1.98,0-3.54-.62-4.68-1.87s-1.71-2.99-1.71-5.21c0-3.28,1.16-6.36,3.48-9.23s4.8-4.31,7.44-4.31c1.31,0,2.37.42,3.16,1.25s1.2,1.82,1.2,2.97c0,2.04-.98,3.98-2.94,5.83s-4.46,3.12-7.52,3.82c-.35.08-.53.29-.53.63,0,.56.25,1.1.75,1.61s1.16.76,2,.76c2.36,0,4.69-1.21,7.01-3.64.45-.47.88-.7,1.3-.7.7,0,1.05.39,1.05,1.18ZM433.3,557.62c1.85-.38,3.48-1.17,4.9-2.37s2.12-2.3,2.12-3.29c0-.39-.11-.71-.33-.98s-.5-.4-.83-.4c-1.02,0-2.15.75-3.39,2.25s-2.06,3.09-2.46,4.78Z"/>
      <path class="st6" d="M452.65,565.75c-.14,1.21-.81,1.81-2.02,1.81-1.54,0-2.3-1.11-2.3-3.32,0-3.59.19-6.65.58-9.19.3-1.98.46-3.93.46-5.84,0-.46.15-.84.44-1.15s.7-.47,1.23-.47c1.76,0,2.64,1.07,2.64,3.2,0,.69-.31,2.46-.93,5.29-.38,1.69-.56,2.91-.56,3.67,3.35-7.36,6.38-11.04,9.07-11.04,1.09,0,1.97.43,2.63,1.3s1,2.79,1.03,5.77c.01,2.72.15,4.08.42,4.08.21,0,.94-1.32,2.2-3.96,1.39-2.92,2.59-4.85,3.58-5.78s2.03-1.41,3.12-1.41c1.3,0,2.24.56,2.83,1.68s1,3.01,1.23,5.67c.18,2.11.41,3.7.71,4.78s.81,1.79,1.54,2.14c.59.28.88.7.88,1.27,0,.5-.33,1.01-1,1.52s-1.35.76-2.04.76c-1.2,0-2.13-.59-2.8-1.77s-1.13-3.54-1.36-7.09c-.13-1.71-.27-2.84-.41-3.4s-.37-.83-.66-.83c-.26,0-.63.42-1.12,1.26s-1.34,2.5-2.55,5c-1.07,2.25-1.98,3.82-2.75,4.71s-1.59,1.34-2.47,1.34c-.68,0-1.36-.29-2.05-.88s-1.06-2.71-1.12-6.38c-.06-3.27-.27-4.9-.63-4.9-.49,0-1.68,1.45-3.55,4.36s-3.29,5.51-4.24,7.8Z"/>
      <path class="st6" d="M503.23,557.83l-.3,3.15c-.09,1.01-.14,2-.14,2.99,0,.89.08,1.92.25,3.09-.12.41-.41.76-.88,1.05s-.96.44-1.48.44c-1.61,0-2.41-1.02-2.41-3.06,0-.9.25-3.06.76-6.47.35-2.45.53-4.27.53-5.47,0-.07-.07-.15-.21-.25-.81-.52-1.21-1.01-1.21-1.48,0-.61.45-1.27,1.35-1.99.43-.34.7-.74.8-1.19s.24-1.16.43-2.14c.63-3.74,1.61-6.4,2.94-7.97s3.02-2.36,5.07-2.36c1.2,0,2.21.39,3.03,1.17s1.24,1.74,1.24,2.89c0,1.03-.24,2.1-.71,3.21s-1.1,1.66-1.87,1.66c-.34,0-.63-.11-.86-.33s-.35-.5-.35-.85l.11-1.53c0-1.83-.38-2.74-1.14-2.74-.95,0-1.84,1.19-2.66,3.58s-1.24,4.42-1.24,6.09c0,.18.11.26.33.26,2.43,0,4.14-.01,5.14-.04s1.5.36,1.5,1.16-.61,1.34-1.82,1.71-2.49.55-3.82.55c-.9.08-1.49.16-1.76.23-.28,1.73-.49,3.26-.62,4.59v.02Z"/>
      <path class="st6" d="M527.2,550.36c1.22,1.96,1.83,3.7,1.83,5.24,0,2.25-.68,4.4-2.03,6.44s-2.93,3.49-4.74,4.32-3.46,1.26-4.96,1.26c-.45,0-.88-.05-1.3-.16-.88,1.51-1.62,2.27-2.21,2.27-.49,0-.92-.16-1.28-.49s-.54-.69-.54-1.07.32-1.2.97-2.43c-1.07-1.43-1.6-3-1.6-4.71,0-3.61.97-6.73,2.91-9.37s4.5-3.96,7.69-3.96c.7,0,1.48.15,2.34.46l.46-.54c.64-.82,1.26-1.23,1.85-1.23.42,0,.81.25,1.18.75s.54.95.54,1.34c0,.15-.09.37-.28.65-.2.29-.47.7-.81,1.23ZM518.85,551.98c-.71.59-1.56,1.82-2.55,3.7s-1.38,3.41-1.18,4.58l.28,1.62c1.04-1.51,2.89-4.38,5.55-8.61l1.34-2.11c-1.59,0-2.74.28-3.43.83h-.02ZM524.69,553.81c-2.33,3.3-3.62,5.19-3.85,5.66-.67,1.28-1.52,2.61-2.57,4.01l-.16.42c2.29-.4,4.01-1.44,5.18-3.14s1.75-3.3,1.75-4.81c0-.11-.05-.47-.16-1.09l-.19-1.05Z"/>
      <path class="st6" d="M536.43,558.06l.3-.56c1.42-2.85,2.94-5.16,4.58-6.93s3.23-2.66,4.79-2.66c1.2,0,2.17.33,2.93.98s1.13,1.44,1.13,2.34c0,.56-.13,1.05-.39,1.45s-.62.61-1.07.61c-.73,0-1.39-.3-1.99-.9-.42-.39-.76-.58-1-.58-.88,0-2.35,1.37-4.41,4.1s-3.3,5.8-3.73,9.21c-.13.98-.42,1.67-.86,2.07s-1.05.59-1.81.59c-.81,0-1.38-.46-1.72-1.38s-.51-2.42-.51-4.51c0-.86.02-2.01.07-3.46.05-1.37.18-3.05.4-5.03.06-.52.1-.92.12-1.21.11-1.15.23-1.94.36-2.36s.45-.83.94-1.2,1.04-.56,1.63-.56c.63,0,1.11.18,1.44.54s.49.76.49,1.2c0,.55-.26,1.69-.79,3.43-.19.6-.35,1.31-.47,2.14l-.44,2.71Z"/>
      <path class="st6" d="M577.12,560.91c-3.04,4.3-6.09,6.45-9.16,6.45-1.24,0-2.24-.49-3.01-1.47s-1.14-2.22-1.14-3.74c0-3.06,1.25-6.1,3.75-9.12s5.04-4.54,7.6-4.54c1.48,0,2.53.39,3.15,1.16.88-3.84,1.4-6.25,1.56-7.21.35-1.78.64-2.96.88-3.55s.59-1.04,1.07-1.36.9-.48,1.25-.48c.6,0,1.05.25,1.37.74s.47,1.11.47,1.86c0,.33-.26,1.27-.77,2.83-.84,2.53-1.63,5.59-2.35,9.18s-1.08,6.44-1.08,8.56.45,3.04,1.34,3.04c.46,0,.94-.12,1.46-.37.52-.23.88-.35,1.09-.35.57,0,.86.33.86,1,0,.81-.58,1.61-1.75,2.42s-2.27,1.2-3.31,1.2c-1.12,0-1.99-.6-2.6-1.81s-.84-2.69-.69-4.45ZM575.17,551.89c-1.54,0-3.14,1.17-4.81,3.52s-2.5,4.49-2.5,6.43c0,1.14.42,1.71,1.27,1.71,1.43,0,3.13-1.27,5.12-3.81s2.97-4.55,2.97-6.03c0-.45-.19-.86-.56-1.24s-.87-.57-1.48-.57Z"/>
      <path class="st6" d="M604.16,560.74c0,1.22-1.03,2.67-3.08,4.37s-4.37,2.54-6.94,2.54c-1.98,0-3.54-.62-4.68-1.87s-1.71-2.99-1.71-5.21c0-3.28,1.16-6.36,3.48-9.23s4.8-4.31,7.44-4.31c1.31,0,2.37.42,3.16,1.25s1.2,1.82,1.2,2.97c0,2.04-.98,3.98-2.94,5.83s-4.46,3.12-7.52,3.82c-.35.08-.53.29-.53.63,0,.56.25,1.1.75,1.61s1.16.76,2,.76c2.36,0,4.69-1.21,7.01-3.64.45-.47.88-.7,1.3-.7.7,0,1.05.39,1.05,1.18ZM592.36,557.62c1.85-.38,3.48-1.17,4.9-2.37s2.12-2.3,2.12-3.29c0-.39-.11-.71-.33-.98s-.5-.4-.83-.4c-1.02,0-2.15.75-3.39,2.25s-2.06,3.09-2.46,4.78Z"/>
      <path class="st6" d="M627.91,537.02c1.27,0,1.9.69,1.9,2.07,0,.63-.09,1.32-.26,2.05s-.66,2.55-1.44,5.44c-.57,2.1-1.01,4.39-1.31,6.86s-.45,4.42-.45,5.81c0,1.49.11,3.26.33,5.31.06.55.09.9.09,1.04,0,.7-.26,1.31-.77,1.81s-1.08.76-1.69.76c-.83,0-1.42-.39-1.76-1.18s-.51-2.13-.51-4.04c0-4.11.48-8.96,1.45-14.54s1.76-8.87,2.37-9.88,1.3-1.51,2.05-1.51Z"/>
      <path class="st6" d="M643.75,560.89c-3.08,4.07-6.06,6.1-8.93,6.1-1.05,0-1.96-.42-2.72-1.25s-1.14-1.89-1.14-3.18c0-3.11,1.38-6.41,4.15-9.92s5.55-5.26,8.37-5.26c1.43,0,2.37.72,2.81,2.16,1.35,0,2.02.52,2.02,1.55,0,.49-.13,1.38-.39,2.67-.47,2.41-.7,4.34-.7,5.78s.1,2.55.31,3.16.35,1.01.45,1.2.38.39.84.6c.47.22.7.53.7.93,0,.6-.3,1.1-.91,1.49s-1.23.6-1.89.6c-2.2,0-3.19-2.21-2.97-6.63ZM642.69,551.14c-1.18,0-2.72,1.31-4.61,3.93s-2.84,4.84-2.84,6.67c0,.96.2,1.44.6,1.44,1.38,0,3.08-1.23,5.11-3.68s3.03-4.6,3.03-6.44c0-.59-.13-1.05-.4-1.4s-.56-.52-.89-.52Z"/>
      <path class="st6" d="M667.53,564.22c-.56-1.05-.97-3.02-1.23-5.91-.26-3-.83-4.5-1.72-4.5-.84,0-2.3,1.56-4.38,4.68s-3.35,5.43-3.83,6.92c-.11.45-.3.81-.59,1.11s-.57.44-.85.44c-1.78,0-2.67-.81-2.67-2.44,0-.55.18-1.8.53-3.76.46-2.53.69-5.62.69-9.28,0-.55.24-1.14.72-1.77s.99-.94,1.53-.94c.68,0,1.2.17,1.56.51s.54,1.24.54,2.71c0,1.11-.33,3.27-1,6.47,2.54-5.95,5.38-8.93,8.51-8.93,2.72,0,4.31,2.14,4.78,6.42.47,4.36,1.01,6.54,1.62,6.54.27,0,.58-.06.93-.18.42-.14.76-.21,1-.21.56,0,.84.33.84.98,0,.6-.39,1.23-1.16,1.91s-1.75,1.01-2.92,1.01c-1.36,0-2.33-.59-2.92-1.78h.02Z"/>
      <path class="st6" d="M688.99,560.91c-3.04,4.3-6.09,6.45-9.16,6.45-1.24,0-2.24-.49-3.01-1.47s-1.14-2.22-1.14-3.74c0-3.06,1.25-6.1,3.75-9.12s5.04-4.54,7.6-4.54c1.48,0,2.53.39,3.15,1.16.88-3.84,1.4-6.25,1.56-7.21.35-1.78.64-2.96.88-3.55s.59-1.04,1.07-1.36.9-.48,1.25-.48c.6,0,1.05.25,1.37.74s.47,1.11.47,1.86c0,.33-.26,1.27-.77,2.83-.84,2.53-1.63,5.59-2.35,9.18s-1.08,6.44-1.08,8.56.45,3.04,1.34,3.04c.46,0,.94-.12,1.46-.37.52-.23.88-.35,1.09-.35.57,0,.86.33.86,1,0,.81-.58,1.61-1.75,2.42s-2.27,1.2-3.31,1.2c-1.12,0-1.99-.6-2.6-1.81s-.84-2.69-.69-4.45ZM687.04,551.89c-1.54,0-3.14,1.17-4.81,3.52s-2.5,4.49-2.5,6.43c0,1.14.42,1.71,1.27,1.71,1.43,0,3.13-1.27,5.12-3.81s2.97-4.55,2.97-6.03c0-.45-.19-.86-.56-1.24s-.87-.57-1.48-.57Z"/>
      <path class="st6" d="M716.03,560.74c0,1.22-1.03,2.67-3.08,4.37s-4.37,2.54-6.94,2.54c-1.98,0-3.54-.62-4.68-1.87s-1.71-2.99-1.71-5.21c0-3.28,1.16-6.36,3.48-9.23s4.8-4.31,7.44-4.31c1.31,0,2.37.42,3.16,1.25s1.2,1.82,1.2,2.97c0,2.04-.98,3.98-2.94,5.83s-4.46,3.12-7.52,3.82c-.35.08-.53.29-.53.63,0,.56.25,1.1.75,1.61s1.16.76,2,.76c2.36,0,4.69-1.21,7.01-3.64.45-.47.88-.7,1.3-.7.7,0,1.05.39,1.05,1.18ZM704.23,557.62c1.85-.38,3.48-1.17,4.9-2.37s2.12-2.3,2.12-3.29c0-.39-.11-.71-.33-.98s-.5-.4-.83-.4c-1.02,0-2.15.75-3.39,2.25s-2.06,3.09-2.46,4.78Z"/>
      <path class="st6" d="M723.34,558.06l.3-.56c1.42-2.85,2.94-5.16,4.58-6.93s3.23-2.66,4.79-2.66c1.2,0,2.17.33,2.93.98s1.13,1.44,1.13,2.34c0,.56-.13,1.05-.39,1.45s-.62.61-1.07.61c-.73,0-1.39-.3-1.99-.9-.42-.39-.76-.58-1-.58-.88,0-2.35,1.37-4.41,4.1s-3.3,5.8-3.73,9.21c-.13.98-.42,1.67-.86,2.07s-1.05.59-1.81.59c-.81,0-1.38-.46-1.72-1.38s-.51-2.42-.51-4.51c0-.86.02-2.01.07-3.46.05-1.37.18-3.05.4-5.03.06-.52.1-.92.12-1.21.11-1.15.23-1.94.36-2.36s.45-.83.94-1.2,1.04-.56,1.63-.56c.63,0,1.11.18,1.44.54s.49.76.49,1.2c0,.55-.26,1.69-.79,3.43-.19.6-.35,1.31-.47,2.14l-.44,2.71Z"/>
      <path class="st6" d="M755.68,565.53c-.2.82-.4,2.06-.6,3.73l-.84,6.91c-.14,1.12-.41,1.9-.82,2.34s-.9.65-1.49.65c-.53,0-1.03-.2-1.5-.59s-.71-.83-.71-1.31c0-.95.15-2.04.44-3.29,1.75-6.97,2.7-14.21,2.87-21.71v-.35c0-1.57.04-2.62.13-3.14s.34-.98.76-1.38,1-.6,1.77-.6c1.28,0,1.92.98,1.92,2.94,0,.8-.15,2.15-.44,4.06l-.18,1.21c1.34-2.23,2.92-4.08,4.76-5.55s3.49-2.21,4.94-2.21c1.31,0,2.43.47,3.35,1.41s1.38,2.12,1.38,3.53c0,3.79-1.47,7.23-4.4,10.33s-5.84,4.65-8.71,4.65c-1.36,0-2.23-.54-2.62-1.63ZM766,551.24c-1.43,0-3.28,1.39-5.56,4.18s-3.42,4.98-3.42,6.57c0,.41.2.78.61,1.1s.88.48,1.42.48c1.49,0,3.2-1.17,5.12-3.51s2.89-4.6,2.89-6.78c0-.73-.11-1.25-.33-1.57s-.46-.48-.72-.48Z"/>
      <path class="st6" d="M786.83,560.89c-3.08,4.07-6.06,6.1-8.93,6.1-1.05,0-1.96-.42-2.72-1.25s-1.14-1.89-1.14-3.18c0-3.11,1.38-6.41,4.15-9.92s5.55-5.26,8.37-5.26c1.43,0,2.37.72,2.81,2.16,1.35,0,2.02.52,2.02,1.55,0,.49-.13,1.38-.39,2.67-.47,2.41-.7,4.34-.7,5.78s.1,2.55.31,3.16.35,1.01.45,1.2.38.39.84.6c.47.22.7.53.7.93,0,.6-.3,1.1-.91,1.49s-1.23.6-1.89.6c-2.2,0-3.19-2.21-2.97-6.63ZM785.78,551.14c-1.18,0-2.72,1.31-4.61,3.93s-2.84,4.84-2.84,6.67c0,.96.2,1.44.6,1.44,1.38,0,3.08-1.23,5.11-3.68s3.03-4.6,3.03-6.44c0-.59-.13-1.05-.4-1.4s-.56-.52-.89-.52ZM791.09,539.92c.25.57.37,1.08.37,1.53,0,1.17-.58,2.25-1.73,3.23s-2.36,1.48-3.61,1.48-2.33-.42-3.17-1.26-1.26-1.85-1.26-3.03c0-1.05.52-2.08,1.57-3.08s2.45-1.49,4.19-1.49c.43,0,1.08.2,1.94.61s1.43,1.08,1.7,2.03v-.02ZM785.9,539.99c-.22.02-.43.25-.62.69s-.28.87-.28,1.32c0,.4.15.81.45,1.24s.57.64.82.64c.09,0,.45-.14,1.06-.42s.92-.9.92-1.85c0-.06-.02-.16-.05-.3-.05-.14-.09-.29-.12-.46l-.12-.42c-.05-.13-.07-.21-.07-.25,0-.09-.17-.17-.5-.23s-.57-.09-.71-.09c-.28,0-.54.04-.77.12Z"/>
      <path class="st6" d="M502.55,604.6c-1.3,1.46-2.82,2.67-4.54,3.61s-3.22,1.42-4.47,1.42-2.21-.36-2.89-1.09-1.03-1.73-1.03-3.01c0-1.82.69-3.84,2.07-6.06s3.29-4.16,5.73-5.81,4.64-2.47,6.6-2.47c1.08,0,2.01.29,2.79.88.19.14.35.26.49.35.28.2.54.57.78,1.1s.36.96.36,1.29c0,.21-.22.92-.67,2.13-.46,1.25-.78,2.47-.96,3.65s-.54,4.12-1.08,8.82c-.48,4.09-1.62,7.08-3.43,8.96s-3.81,2.83-6.01,2.83-4.55-.78-6.72-2.33-3.26-2.83-3.26-3.84c0-.89.43-1.34,1.3-1.34.34,0,1.03.34,2.07,1.02,2.67,1.76,4.96,2.64,6.87,2.64,1.45,0,2.67-.91,3.66-2.73s1.76-5.16,2.34-10.01ZM502.97,594.83c-.87,0-2,.52-3.41,1.56s-2.71,2.43-3.9,4.19-1.79,3.22-1.79,4.38c0,.61.22.91.67.91,1.51,0,3.01-.61,4.5-1.84s2.69-2.63,3.61-4.23,1.38-2.8,1.38-3.62c0-.41-.11-.74-.32-.98s-.46-.37-.74-.37Z"/>
      <path class="st6" d="M523.48,603.55c-1.12,2.05-2.43,3.68-3.91,4.89s-2.99,1.81-4.51,1.81c-.9,0-1.81-.47-2.73-1.42s-1.38-2.41-1.38-4.38c0-1.39.35-3.5,1.05-6.31.61-2.32.91-4.08.91-5.29.47-.98,1.2-1.48,2.2-1.48.68,0,1.22.23,1.63.68s.61.91.61,1.36c0,.83-.29,2.02-.88,3.55-.34.91-.71,2.21-1.1,3.88s-.59,2.74-.59,3.21c0,1.56.32,2.34.97,2.34,1.02,0,2.4-.98,4.13-2.94s2.87-3.96,3.39-6.01c.53-2,1-3.32,1.41-3.94s.99-.93,1.74-.93c1.22,0,1.83.68,1.83,2.04,0,.2-.1.6-.3,1.2-.69,2.07-1.04,4.41-1.04,7.01,0,3.05.52,4.87,1.55,5.47.34.2.51.45.51.74,0,.42-.3.82-.9,1.2s-1.17.56-1.71.56c-.93,0-1.64-.65-2.14-1.96s-.75-3.06-.75-5.26Z"/>
      <path class="st6" d="M539.43,580.22c1.27,0,1.9.69,1.9,2.07,0,.63-.09,1.32-.26,2.05s-.66,2.55-1.44,5.44c-.57,2.1-1.01,4.39-1.31,6.86s-.45,4.42-.45,5.81c0,1.49.11,3.26.33,5.31.06.55.09.9.09,1.04,0,.7-.26,1.31-.77,1.81s-1.08.76-1.69.76c-.83,0-1.42-.39-1.76-1.18s-.51-2.13-.51-4.04c0-4.11.48-8.96,1.45-14.54s1.76-8.87,2.37-9.88,1.3-1.51,2.05-1.51Z"/>
      <path class="st6" d="M558.96,603.94c0,1.22-1.03,2.67-3.08,4.37s-4.37,2.54-6.94,2.54c-1.98,0-3.54-.62-4.68-1.87s-1.71-2.99-1.71-5.21c0-3.28,1.16-6.36,3.48-9.23s4.8-4.31,7.44-4.31c1.31,0,2.37.42,3.16,1.25s1.2,1.82,1.2,2.97c0,2.04-.98,3.98-2.94,5.83s-4.46,3.12-7.52,3.82c-.35.08-.53.29-.53.63,0,.56.25,1.1.75,1.61s1.16.76,2,.76c2.36,0,4.69-1.21,7.01-3.64.45-.47.88-.7,1.3-.7.7,0,1.05.39,1.05,1.18ZM547.16,600.82c1.85-.38,3.48-1.17,4.9-2.37s2.12-2.3,2.12-3.29c0-.39-.11-.71-.33-.98s-.5-.4-.83-.4c-1.02,0-2.15.75-3.39,2.25s-2.06,3.09-2.46,4.78Z"/>
      <path class="st6" d="M565.11,609.81c.01-.77-.45-2.44-1.39-4.99-1.89-5.05-2.83-8.65-2.83-10.79,0-1.92.76-2.88,2.27-2.88s2.21.88,2.21,2.64c0,1.12.03,1.92.08,2.4s.23,1.34.54,2.58.62,2.29.92,3.12c.18.5.39,1.16.63,1.97.14.5.26.86.37,1.05.07-.11.32-.56.74-1.37.25-.49,1.08-1.89,2.5-4.19s2.66-4.14,3.74-5.51,1.87-2.21,2.4-2.51,1.08-.46,1.67-.46,1.11.2,1.5.6.59.88.59,1.46c0,.68-.49,1.35-1.48,2-.96.66-2.27,2.16-3.93,4.5s-3.44,5.29-5.35,8.84c-1.08,2.03-2.04,3.04-2.9,3.04-.74,0-1.5-.5-2.29-1.49Z"/>
      <path class="st6" d="M588.63,595.71c-.11,0-.44,1.31-.99,3.92s-.83,4.2-.83,4.75c0,.96.1,1.63.31,2.01s.54.57,1.01.57c.66,0,1.29-.11,1.89-.34s1.4-.74,2.38-1.54c.61-.5,1.12-.76,1.55-.76.34,0,.61.1.82.29s.31.42.31.68c0,1.03-.83,2.2-2.5,3.51s-3.42,1.96-5.27,1.96c-1.55,0-2.73-.46-3.54-1.37s-1.22-2.23-1.22-3.94c0-1.58.59-4.74,1.78-9.47-.75.08-1.27.12-1.56.12h-.37c-.54,0-1.09-.18-1.64-.53s-.83-.91-.83-1.69c0-.98.56-1.48,1.67-1.48l3.76-.14c.49-1.42,1.01-3.28,1.56-5.57.33-1.43,1.07-2.14,2.23-2.14.64,0,1.15.2,1.51.59s.54.83.54,1.31c0,.19-.5,2-1.49,5.43,3.73-.33,5.77-.49,6.13-.49.62,0,1.03.09,1.23.27s.3.53.3,1.05c0,1.04-.88,1.71-2.65,1.99l-6.06,1.02Z"/>
      <path class="st6" d="M600.14,609.65c-1.29,0-1.93-.71-1.93-2.14,0-.54.26-1.16.79-1.86s1.1-1.05,1.71-1.05c.4,0,.9.19,1.49.58s.9.71.9.98l-.18,1.09c-.11.77-.49,1.37-1.14,1.78s-1.2.62-1.63.62ZM602.64,601.56c-1.17,0-2.08-.24-2.72-.72-.19-2.29-.02-4.63.49-7.05.57-2.61.86-4.57.86-5.87,0-.13.06-.62.18-1.47s.5-1.5,1.12-1.94,1.15-.67,1.58-.67c.47,0,.92.17,1.34.52s.64.72.64,1.13c0,.33-.24,1.54-.71,3.65s-.95,4.04-1.42,5.81c-.49,1.84-.75,3.31-.77,4.41-.02.83-.22,1.56-.6,2.2Z"/>
    </g>
    <g>
      <path class="st3" d="M582.06,935.37s36-36,90-36,72-9,72-9h9s18,18,36,18c9,9,45,36-27,27s-54,27-153,0c-27,0-27,9-54-9-18,0-18-9-27,0s-36,0-36,9,27,0,45,0,36,9,45,0Z"/>
      <path class="st15" d="M636.06,908.37s-9-45,72-18c18,0,36-18,54,9s9,54-63,36c-54,9-54,0-63-27Z"/>
      <path class="st5" d="M645.05,922.95c-6.25.6-12.58-16.33-11.23-22.46.27-1.22,3.29-2.63,4.47-2.24,3.69,1.23,6.95,13.91,6.95,13.91,3.58-5.39,10.97-14.35,21.44-16.05,8.36-1.35,16.82,2.17,25.13,10.49,7.41,7.41,13.86,10.42,19.19,8.95,8.9-2.45,6.04-16.18,12.62-16.79,1.24-.12,4.32.08,4.85,1.22.3.65-4.41,17.15-16.12,20.39-7.19,1.99-13.53,5.78-22.3-3-7.11-7.11-15.87-17.4-22.55-16.33-12.31,1.98-20.16,17.29-20.22,17.45-.42,1.17-1,4.34-2.24,4.46Z"/>
      <path class="st5" d="M718.17,937.61c-1.19-.4-2.75-3.34-2.24-4.47,2.09-4.58,18-9,18-9,16.04-8.02,16.56-15.77,16.62-15.83.91-.86,4.22-.91,5,.06.67.84-.54,10.82-19.38,20.24,0,0-13.23,10.59-18,9Z"/>
      <path class="st5" d="M682.13,929.99c4.62,11.86-23.72,9.24-20.1,1l3.62-8.24s11.86-4.62,16.48,7.24Z"/>
    </g>
    <g>
      <path class="st13" d="M1095.88,385.83s31.7,12.63,47.42,13.4c12.63-7.47,35.82-51.29,35.56-74.74s-14.69-20.1-27.83-12.89c-13.14,7.22-55.67,36.14-77.31,41.14-10.31,17.36-14.95,35.15-14.95,35.15,0,0-2.32-14.43,3.09-28.86-6.44,4.12-22.59,18.04-25.34,43.3,12.82-3.17,59.36-16.49,59.36-16.49Z"/>
      <path class="st8" d="M1097.95,385.48l23.54-13.57s28.78,7.88,41.28,2.01c-3.78,6.55-9.66,19.38-19.46,25.31-8.89-1.25-26.8-3.09-45.36-13.74Z"/>
      <path class="st13" d="M1036.53,402.32c-8.13,1.93,63.48,48.97,106.78-19.59-24.74,20.62-53.39,5.67-53.39,5.67,0,0-34.92,9.54-53.39,13.92Z"/>
      <path class="st5" d="M1010.84,398.2v6.7s92.78,17.78,154.63-80.41c-33.5,40.83-91.49,81.44-154.63,73.71Z"/>
    </g>
    <g>
      <path class="st13" d="M466.18,93.01s-83.78-44.58-75-19.5c-5.88-42.78-15.95-49.15-15.95-49.15,0,0-43.97,3.25-73.89-42.44-5.09-8.05-14.9-15.11-21.34,6.22-3.53,11.69-.59,42.28,23.82,70.32,20.14,23.13,52.58,44.49,128.39,52.26,15.14-9.74,25.86-14.02,25.86-14.02,0,0-8.19,7.96-17.61,15.72,15.73-.19,34.18-19.78,34.18-19.78,0,0,.61-16.42-9.8-36.85,3.6,18.09,1.35,37.23,1.35,37.23Z"/>
      <path class="st8" d="M293.16,44.05s21.65,4.06,31.71-2.13c4.91,4.62,11.38,6.23,11.38,6.23,0,0-20.83,13.69-32.43,10.31-1.59-1.9-3.48-4.09-5.24-6.48-2.93-3.99-5.42-7.92-5.42-7.92Z"/>
      <path class="st8" d="M388.48,20.34s15.32,19.49,34.1,21.78,30.44,8.52,30.44,8.52c0,0,19.75,32.47,14.13,44.51-18.09-2.15-61.2-9.36-61.2-9.36l-8.96-3.28s-11.1-15.46-6.31-28.23-.59-31.65-2.2-33.94Z"/>
      <path class="st8" d="M432.21,110.71s17.75-10.35,25.86-14.02-14.89-4.08-14.89-4.08l-3.14.27s-8.66,6.26-25.54,15.67c8.55,1.14,17.71,2.17,17.71,2.17Z"/>
      <path class="st13" d="M430.83,90.53l35.35,2.48,1.98-3.05s1.99-11.69-15.14-39.31c-4.97-2.25-6.42-4.16-21.94-7.17,18.05,31.37,13.04,45.01,13.04,45.01l-13.29,2.04Z"/>
      <path class="st5" d="M502.35,88.4l12.33,5.63s-141.09,28.87-215.5-83.24c82.32,95.29,185.91,78.24,203.17,77.61Z"/>
    </g>
    <g>
      <path class="st8" d="M59.5,601.25s-9.42,11.29-9.73,36.11c5.29-10.6,14.27-30.03,14.27-30.03l-4.54-6.08Z"/>
      <path class="st8" d="M62.55,600.79s14.76-9.52,23.31-9.96c-2.76,4.81-18.29,16.22-18.29,16.22l-5.03-6.26Z"/>
      <path class="st13" d="M255.16,650.08c7.09-5.71,44.14-1.19,44.14-1.19,0,0,3.06,28.91-28.22,39.21-31.28,10.3-41.88,12.34-41.88,12.34l-47.98-16.64-10.68-20.04s29.02,31.1,84.62-13.68Z"/>
      <path class="st5" d="M299.3,648.89s-74.65,46.34-91.85,39.89l3.67,5.46s45.04-10.57,88.18-45.35Z"/>
      <path class="st8" d="M62.84,608.55l37.6-11.91s45.33,51.07,94.54,78.7c26.38,14.81,53.87,22.89,76.09,12.76-23.42,10.87-116.06,42.58-206.68-44.46-3.03-15.81-1.55-35.09-1.55-35.09Z"/>
      <path class="st5" d="M35.22,558.47s47.18,101.67,168.85,144.24c-121.15-42.88-162.84-124.74-174.76-142.48l5.91-1.77Z"/>
    </g>
  </g>
  <g id="Layer_3">
    <g>
      <path class="st2" d="M1250.41,790.84s25.69-112.8,109.54-79.91c-13.34,32.04-22.31,60.19-23.9,91.86,36.05-13.74,46.36-13.52,46.36-13.52,0,0-27.63,98.69-25.64,127.57-4.78,4.58-4.33,18.02-26.29,25.49-8.81-12.25-6.77-31.07-6.77-31.07,0,0-28.88,36.5-60.55,36.65-7.92-20.24-.4-41.03-.4-41.03,0,0-23.1,32.27-71.3,46.41,0-54.97,25.05-117.79,58.95-162.45Z"/>
      <path class="st10" d="M1306.97,735.2s-42.02,18.17-64.85,62.04c6.6,12.35,18.85,16.83,18.85,16.83,0,0,10.01-42.57,46.01-78.87Z"/>
      <path class="st10" d="M1370.33,806.89l-14.36,117.72s-15.48,24.5-31.81,27.29c-11.15-16.93-9.24-25.1-9.24-25.1,0,0-32.19,34.66-59.67,30.67-8.17-18.12-3.19-34.26-3.19-34.26,0,0-24.55,27.88-60.6,30.07,40.63-14.94,94.86-87.83,113.58-135.24,15.34-25.49,23.3-40.63,23.3-40.63,0,0,2.59,3.59,1.59,8.37-1,4.78-22.31,38.84-29.08,59.75-6.77,20.91-2.95,32.46,14.06,25.1s55.42-63.74,55.42-63.74Z"/>
      <path class="st14" d="M1408.35,645.81s-41.33,4.54-112.73,67.73c36.65-8.59,60.15-2.61,60.15-2.61,0,0-20.51,47.57-23.5,95.37,13.54-2.39,43.59-13.94,43.59-13.94,0,0-6.34,24.9-4.55,40.63,1.79,15.73,77.33-137.83,77.33-137.83l-40.28-49.36Z"/>
      <path class="st7" d="M1430.26,713.89s-3.78-21.71-12.75-29.48c-9.56,5.78-33.46,26.52-33.46,26.52l4.78,7.74s-26.59,33.26-24.05,81.26c13.89-11.08,17.08-18.12,37.59-25.29,20.51-7.17,27.88-60.75,27.88-60.75Z"/>
      <path class="st10" d="M1764.17,775.13s-.02,89.03,16.93,137.03c43.02-25.49,56.96-87.83,36.65-146.99-20.32-59.15-53.58,9.96-53.58,9.96Z"/>
      <path class="st7" d="M1771.04,710.93s55.77,55.54,26.69,112.7c-17.33-9.96-29.88-37.44-29.88-37.44,0,0,3.98,44.41-5.58,53.78-9.56,9.36-37.84-91.62-37.84-91.62l46.61-37.42Z"/>
      <path class="st14" d="M1771.04,692.15s58.6,16.95,55.89,107.97c-15.06-12.95-27.9-29.48-27.9-29.48,0,0-11.86-38.41-27.99-59.72-16.13-21.31,0-18.77,0-18.77Z"/>
      <path class="st8" d="M1324.3,451.38s-22.11-69.91,39.44-123.09c61.54-53.18,154.76-74.09,253.34-34.66,26.89,23.9,46.01,105.76,40.63,113.53,20.32-4.18,95,84.25,107.55,119.5s27.49,80.66,22.71,123.09c-4.78,42.42-5.38,67.52-35.85,107.55,7.77,31.07,20.91,106.36,22.71,120.7-10.16,14.94-1.79,27.49-154.16,121.89-78.87-45.41-74.09-43.32-84.85-45.41,1.2,9.86,15.54,63.93,15.54,63.93,0,0-123.68-69.61-196.58-90.82-18.52-53.78,80.37-232.43,80.37-232.43,0,0-22.71-15.66-37.34-49.36,35.85-11.59,87.24-25.93,87.24-25.93l-160.73-168.5Z"/>
      <path class="st17" d="M1494.47,616.49s55.68,53.08,128.28,0,65.13-59.95,65.13-59.95c0,0,17.41,79.93-66.32,132.35-74.92,46.9-127.7,5.57-139.82-2.39-27.52-18.09-52.13-50.49-52.13-50.49l64.86-19.52Z"/>
      <path class="st17" d="M1435.14,695.17s-107.85,181.34-80.37,232.43c47.5,13.15,199.89,98.59,199.89,98.59,0,0-13.76-43.02-18.84-71.7,18.53,7.36,83.05,51.98,83.05,51.98,0,0,149.08-74.39,155.95-128.46-2.09-12.36-3.12-30.38-5.38-42.72-8.07-44.07-17.33-77.98-17.33-77.98,0,0,9.86,52.28,8.96,75.88-8.07,23.3-36.45,103.07-140.41,110.54-.6-22.71-2.99-87.83-2.99-87.83,0,0-17.13,62.44-19.32,86.04-112.13-7.77-233.47-108.15-163.22-246.77Z"/>
      <path class="st8" d="M1660.7,394.22s89.18-9.31,131.75,72.7c-2.58-1.31-5.76-2.61-9.09-3.84-9.98-3.68-21.24-6.62-21.24-6.62,0,0,32.51,27.29,44.37,63.83-6.37-4.18-25.99-13.34-34.26-15.93,9.66,10.56,29.38,30.82,32.86,74.29-8.02-6.42-36.55-28.08-36.55-28.08l-105.46-143.1-2.39-13.24Z"/>
      <path class="st13" d="M1627.55,346.88s90.81-24.31,151.45,61.06c-25.94.17-50.27-4-120.97,2.95-7.78-24.74-12.8-36.65-30.48-64.02Z"/>
      <path class="st13" d="M1592.13,303.5s33.46-46.31,131.45,33.46c-24.65-1.94-63.04,4.18-79.32,10.31-6.72-9.86-17.03-25.69-52.13-43.77Z"/>
      <path class="st17" d="M1775.53,460.4s-28.19-8.71-49.02-11.4c-1.74-7.02-7.89-13.74-7.89-13.74,0,0,33.52,6.08,56.9,25.15Z"/>
      <path class="st17" d="M1802.15,517.75s-33.79-25.71-59.65-31.48c6.08,7.08,5.3,15.74,5.3,15.74,0,0,29.42,3.68,54.35,15.74Z"/>
      <path class="st17" d="M1805.1,578.65s-15.78-28.98-37.74-42.12c3.29,8.96,1.79,17.33,1.79,17.33,0,0,25.92,16.13,35.95,24.8Z"/>
      <path class="st13" d="M1645.69,476.84s4.17,24.53-9.6,42.74c39.92-1.32,68.8,15.06,68.8,15.06,0,0-8.57-30.47-59.19-57.8Z"/>
      <path class="st13" d="M1712.21,840.58s-13.7,15.95-34.4,16.49c9.78,17.57-11.26,57.9-11.26,57.9,0,0,42.49-25.1,45.66-74.39Z"/>
      <path class="st16" d="M1586.01,657.12s-15.59,30.47-31.35,4.78c5.26,21.71,11.35,28.08,15.68,29.88s17.47-1.79,15.68-34.66Z"/>
      <path class="st16" d="M1652.13,587.02s3.39,25.29-16.73,25.49c13.15,11.35,35.25,10.36,16.73-25.49Z"/>
      <path class="st16" d="M1609.28,616.49s-.2,23.9-23.1,13.15c14.74,21.11,28.68,23.5,23.1-13.15Z"/>
      <path class="st16" d="M1539.84,645.81s-13.74,12.31-23.1-6.61c1.39,21.31,9.56,33.73,23.1,6.61Z"/>
      <path class="st16" d="M1649.74,644.92s-2.19,31.39-23.9,18.91c11.75,27.76,39.44,28.23,23.9-18.91Z"/>
      <g>
        <path class="st6" d="M1462.31,475.44s-10.99-52.05,13.52-71.06c24.51-19.01,51.88-14.2,51.88-14.2,0,0,17.91,1.52,37.01,13.35,2.37,18.93-15.38,48-21.8,55.09s-30.17,18.42-80.61,16.82Z"/>
        <path class="st2" d="M1536.02,417.72s7.47,19.72-12.15,30.67c-19.62,10.95-31.97-4.68-35.25-9.76-3.29-5.08-.3-17.03,12.55-23.9,12.85-6.87,28.48-10.76,34.85,2.99Z"/>
        <path class="st5" d="M1502.75,414.73s18.72-7.47,24.3,6.97c5.58,14.44-8.79,23.6-20.97,19.32-12.19-4.28-17.03-20.87-3.33-26.29Z"/>
        <path class="st6" d="M1516.62,412.42s6.5,7.17-2.99,10.76c-9.49,3.59-9.1-6.91-4.38-10.16,4.72-3.25,7.37-.6,7.37-.6Z"/>
        <path class="st11" d="M1478,412.8s-14.04,20.16-9.96,52.32c29.18,2.39,36.45,0,36.45,0,0,0-23.57-1.28-30.27-3.39-1.89-7.97-1.07-41.07,18.92-56.56-12.55,8.76-18.32,18.74-18.32,18.74,0,0,.5-5.27,3.19-11.11Z"/>
        <path class="st11" d="M1551.85,399.6s5.05,1.25,9.06,4.78-4.43,31.42-14.04,42.82c-9.61,11.4-6.47,7.57-6.47,7.57,0,0,15.44-32.37,15.83-42.42s-4.38-12.75-4.38-12.75Z"/>
      </g>
      <path class="st6" d="M1327.13,455.39s-13.95-20.27-6.7-37.73c23.98-5.91,69.99-2.3,82.74,9.84,12.75,12.14,17.26,30.64,7.57,44.01-9.69,13.36-27.09,15.93-27.09,15.93l-56.52-32.04"/>
      <path class="st4" d="M1384.44,431.43s11.27,5.9,11.87,14.49c.6,8.59-6.77,12.18-11.15,9.59s-10.13-15.19-9.16-18.66c1.19-4.27,3.6-8.57,8.44-5.42Z"/>
      <path class="st11" d="M1406.7,447.95s7.32,24.05-20.59,30.17c-27.91,6.12-7.15-5.98-7.15-5.98,0,0,16.78,4.33,27.73-24.2Z"/>
      <path class="st11" d="M1318.89,422.8s-3.9,11.13,6.08,28.96c3.92-1.92,3.57-5.15,3.57-5.15,0,0-8.09-8.37-9.64-23.8Z"/>
      <path class="st11" d="M1370.44,419.94s-10.16,6.84-8.76,17.33c-1.7-8.66-1.09-16.27,8.76-17.33Z"/>
      <g>
        <path class="st0" d="M1448.63,511.13s35.85,11.65,56.76,45.41c20.91,33.76,15.83,48.85,15.83,48.85,0,0,3.19,19.99-27.19,17.48-21.51,10.16-71.47,33.14-124.76,3.57l1.08-16.12s21.81-1.2,30.47-32.86c8.66-31.67,26.59-35.25,47.8-66.32Z"/>
        <path class="st18" d="M1505.39,556.54s.6,16.03,0,27.29c-.6,11.25-4.58,25.39-22.8,36.05-18.22,10.66-37.74,14.74-52.98,16.13-15.24,1.39-30.3,2.21-33.96,1.16,8.23,1.88,46.21,13.08,98.39-14.31,4.28,1.2,56.37,8.96,11.35-66.32Z"/>
        <path class="st18" d="M1448.63,511.13s-11.05,76.62-36.65,87.65c-5.48,2.77-10.66,6.16-15.14,15.52-4.78,7.77-15.54,7.57-15.54,7.57,0,0,2.43,7.02,10.87,14.31-5.79-1.27-15.52-3.88-22.9-9.74-2.81-8.95-4.5-39.42-4.5-39.42l67.52-51.98,5.98-10.16,10.36-13.74Z"/>
        <path class="st0" d="M1328.53,446.6s-37.94,55.27-26.29,124.28c11.65,69.01,51.39,135.63,98.59,156.55-11.35-15.83-37.34-53.78-30.47-117.11,12.55-2.39,23.3-6.27,30.47-32.86,16.73-7.17,38.54-27.19,40.03-53.78-17.63-21.81-67.22-68.71-112.33-77.08Z"/>
        <path class="st18" d="M1328.53,446.6s-40.33,51.68-26.29,124.28c14.04,72.6,12.01,53.72,41.11,104.24,32.39,47.83,57.48,52.31,57.48,52.31,0,0-103.37-97.39-72.3-280.83Z"/>
      </g>
    </g>
  </g>
</svg>