<?xml version="1.0" encoding="UTF-8"?>
<svg id="Layer_2" xmlns="http://www.w3.org/2000/svg" version="1.1" viewBox="0 0 111 386">
  <!-- Generator: Adobe Illustrator 29.0.1, SVG Export Plug-In . SVG Version: 2.1.0 Build 192)  -->
  <defs>
    <style>
      .st0 {
        fill: #fff;
      }

      .st1, .st2 {
        fill: #161c17;
      }

      .st3 {
        fill: #ebe9e5;
      }

      .st2 {
        stroke: #161c17;
        stroke-miterlimit: 10;
        stroke-width: 5px;
      }
    </style>
  </defs>
  <path class="st0" d="M54.24.38s0,36-18,63,27,99,54,90c-18-9-27-27-18-45s-9-54-9-63S54.24.38,54.24.38Z"/>
  <path class="st0" d="M27.24,171.38s9-36,36,0c27,36,36,63,27,72s9,54,9,54c0,0,18,45,9,54-9,18-90,54-99,9s-18-72,9-99,9-90,9-90Z"/>
  <path class="st3" d="M63.24,252.38s-18,18,9,27q9-9-9-27Z"/>
  <path class="st3" d="M36.24,297.38s27,18,36,0c9,0,27,27,27,36s-36,27-36,45c-9,18-45,0-45-27s-9-54,18-54Z"/>
  <path class="st2" d="M49.06,350.57c-1.53,0-2.85-.32-3.94-.77-6.4-2.65-12.55-12.49-9.37-16.42.16-.19.82-.18,1,0,3.38,3.38,2.78,13.02,8.76,15.49,4.84,2,10.8-.31,17.24-6.7-.09-25.95-17-25.79-17.5-26.29-.18-.18-.19-.84,0-1,.14-.12,18.5.31,18.5,27.5v.21l-.15.15c-6.05,6.05-10.9,7.84-14.54,7.84Z"/>
  <path class="st1" d="M83.48,343.5c-1.19.4-4.2-1.02-4.47-2.24-3.71-16.93-7.66-22.96-7.89-23.65-.39-1.19,1.02-4.2,2.24-4.47.22-.05,5.07,2.57,8.76,7.49,3.5,4.67,12.43,19.18,1.36,22.87Z"/>
  <path class="st1" d="M36.24,369.38s9-9,18-9c0,9-9,18-18,9Z"/>
</svg>