<?xml version="1.0" encoding="UTF-8"?>
<svg id="Layer_2" xmlns="http://www.w3.org/2000/svg" version="1.1" viewBox="0 0 289 89">
  <!-- Generator: Adobe Illustrator 29.0.1, SVG Export Plug-In . SVG Version: 2.1.0 Build 192)  -->
  <defs>
    <style>
      .st0 {
        fill: #fff;
      }

      .st1 {
        fill: #161c17;
      }

      .st2 {
        fill: #ebe9e5;
      }
    </style>
  </defs>
  <path class="st0" d="M63.5,43.85s-27,9-45,9S.5,52.85.5,61.85s27,9,54,9,36,9,72,9,27-9,81-9c18,0,18-9,18-9,0,0,0-9-27-9s-135-9-135-9Z"/>
  <path class="st2" d="M90.5,25.85s9,0,18-9,27-27,36-9,18,36,27,36,36,18,18,18-72,9-90,0-27,0-36-9-18-36,9-27,18,0,18,0Z"/>
  <path class="st1" d="M72.5,16.85s27,0,27,9-18,27-18,9-36,0-9-18Z"/>
  <path class="st1" d="M126.5,25.85s27-9,36,9c0,9,0,0-18,0s-27,9-18-9Z"/>
  <path class="st1" d="M160.73,63.62c-7.72-.82-20.03-8.27-43.23-8.27-8.44,0-14.77-8.23-11.5-11.5.88-.88,5.13-1.24,5,0-.07.62-2.5,0-2.5,0l2.5-.02c.01,1.09.39,6.52,6.5,6.52,15.9,0,46.77-2.6,46.77,9.73,0,1.25-2.29,3.67-3.54,3.54Z"/>
  <path class="st0" d="M288.5,79.85s-18-9-27-9-9,9-18,9-18,9-18,9c0,0,54,0,63-9Z"/>
</svg>