<?xml version="1.0" encoding="UTF-8"?>
<svg id="Layer_2" xmlns="http://www.w3.org/2000/svg" version="1.1" viewBox="0 0 101 246">
  <!-- Generator: Adobe Illustrator 29.0.1, SVG Export Plug-In . SVG Version: 2.1.0 Build 192)  -->
  <defs>
    <style>
      .st0 {
        stroke: #161c17;
        stroke-miterlimit: 10;
        stroke-width: 3px;
      }

      .st0, .st1 {
        fill: #161c17;
      }

      .st2 {
        fill: #fff;
      }

      .st3 {
        fill: #ebe9e5;
      }
    </style>
  </defs>
  <path class="st2" d="M91.5,35.98c0,9-9,72-18,81s0,18,0,18c0,0,9,18,18,9s9,9,9,9v9s0,63-18,63-18,9-27,18-63,0-54-54,45-99,45-108c0,9,0,27,9,9s9-27,0-36S73.5-.02,82.5-.02s9,27,9,36Z"/>
  <path class="st3" d="M19.5,152.98s45-18,45,0,0,9,9,18,9,36-9,45-18,9-27,9-27-18-27-27,0-36,9-45Z"/>
  <path class="st1" d="M14.41,183.67c-1.24.14-3.9-1.87-3.9-3.12-.02-3.95,24.51-30.03,39.36-27.38,4.65.83,12.75,4.58,9.97,10.15-.56,1.12-3.69,2.25-4.74,1.58-3.63-2.33-3.36-6.32-6.1-6.81-10.12-1.81-24.74,24.49-34.58,25.58Z"/>
  <path class="st0" d="M27.81,212.1c-3.12,0-5.1-.98-5.9-2.91-1.74-4.19,3.58-9.8,13.14-19.35,9.62-9.62,28.16-10.22,28.77-9.73.97.79.88,4.11,0,5-.12.12-17.09.12-25.23,8.27-4.18,4.18-10.99,10.99-11.89,13.65.25.04.61.08,1.13.08,6.89,0,20.73-10.46,25.88-8.74,1.19.4,2.75,3.33,2.24,4.47-.35.77-18.64,9.26-28.12,9.26Z"/>
</svg>