<?xml version="1.0" encoding="UTF-8"?>
<svg id="Layer_2" xmlns="http://www.w3.org/2000/svg" version="1.1" viewBox="0 0 314 64">
  <!-- Generator: Adobe Illustrator 29.0.1, SVG Export Plug-In . SVG Version: 2.1.0 Build 192)  -->
  <defs>
    <style>
      .st0 {
        fill: #fff;
      }

      .st1 {
        fill: #161c17;
      }

      .st2 {
        fill: #ebe9e5;
      }
    </style>
  </defs>
  <path class="st0" d="M90.02,53.7s36-36,90-36,72-9,72-9h9s18,18,36,18c9,9,45,36-27,27s-54,27-153,0c-27,0-27,9-54-9-18,0-18-9-27,0S.02,44.7.02,53.7s27,0,45,0,36,9,45,0Z"/>
  <path class="st2" d="M144.02,26.7s-9-45,72-18c18,0,36-18,54,9s9,54-63,36c-54,9-54,0-63-27Z"/>
  <path class="st1" d="M153.01,41.27c-6.25.6-12.58-16.33-11.23-22.46.27-1.22,3.29-2.63,4.47-2.24,3.69,1.23,6.95,13.91,6.95,13.91,3.58-5.39,10.97-14.35,21.44-16.05,8.36-1.35,16.82,2.17,25.13,10.49,7.41,7.41,13.86,10.42,19.19,8.95,8.9-2.45,6.04-16.18,12.62-16.79,1.24-.12,4.32.08,4.85,1.22.3.65-4.41,17.15-16.12,20.39-7.19,1.99-13.53,5.78-22.3-3-7.11-7.11-15.87-17.4-22.55-16.33-12.31,1.98-20.16,17.29-20.22,17.45-.42,1.17-1,4.34-2.24,4.46Z"/>
  <path class="st1" d="M226.14,55.93c-1.19-.4-2.75-3.34-2.24-4.47,2.09-4.58,18-9,18-9,16.04-8.02,16.56-15.77,16.62-15.83.91-.86,4.22-.91,5,.06.67.84-.54,10.82-19.38,20.24,0,0-13.23,10.59-18,9Z"/>
  <path class="st1" d="M190.09,48.31c4.62,11.86-23.72,9.24-20.1,1l3.62-8.24s11.86-4.62,16.48,7.24Z"/>
</svg>