<?xml version="1.0" encoding="UTF-8"?>
<svg xmlns="http://www.w3.org/2000/svg" version="1.1" viewBox="0 0 1920 1080">
  <!-- Generator: Adobe Illustrator 29.0.1, SVG Export Plug-In . SVG Version: 2.1.0 Build 192)  -->
  <defs>
    <style>
      .st0 {
        fill: #f0d35d;
      }

      .st1 {
        fill: #d1745d;
      }

      .st2 {
        fill: #59452f;
      }

      .st3 {
        font-size: 42.76px;
      }

      .st3, .st4, .st5, .st6 {
        fill: #faf5ea;
      }

      .st3, .st6, .st7 {
        font-family: SegoePrint-Bold, 'Segoe Print';
        font-weight: 700;
      }

      .st8 {
        fill: #2e342f;
      }

      .st9, .st7 {
        fill: #161c17;
      }

      .st4 {
        stroke: #231f20;
        stroke-miterlimit: 10;
      }

      .st10 {
        fill: #2b2e4e;
      }

      .st11 {
        fill: #1c4551;
      }

      .st12 {
        fill: #98aa6d;
      }

      .st13 {
        fill: #3f2e1c;
      }

      .st14 {
        fill: #e5decf;
      }

      .st15 {
        fill: #3e6e7c;
      }

      .st16 {
        fill: #454975;
      }

      .st6 {
        font-size: 36px;
      }

      .st7 {
        font-size: 120px;
      }

      .st17 {
        fill: #eddad5;
      }

      .st18 {
        fill: #092b35;
      }

      .st19 {
        fill: #ddab63;
      }
    </style>
  </defs>
  <g id="Layer_1">
    <rect class="st4" x=".38" y=".5" width="1920" height="1080"/>
  </g>
  <g id="Layer_2">
    <path class="st12" d="M877.18,234.6l762.68-92.55s65.01-6.61,95.67,12.94c36.45,23.24,36.06,77.35,36.06,77.35l39.42,490.99s2.24,33.69-13.64,47.48c-15.23,13.23-53.67,10.99-53.67,10.99l-808.65-24.94s-76.67-1.55-112.22-32.54c-27.59-24.05-21.43-108.48-21.43-108.48l8.65-312.13s-.98-28.97,18.46-47.2,48.67-21.91,48.67-21.91Z"/>
    <text class="st7" transform="translate(942.5 262.91)"><tspan x="0" y="0">Victory!!!</tspan></text>
    <g>
      <path class="st1" d="M926.41,596.21h306.34s49.52-1.97,49.52,42.07-49.52,46.02-49.52,46.02h-306.34s-43.39,0-43.39-44.05c0-44.05,43.39-44.04,43.39-44.04Z"/>
      <text class="st3" transform="translate(987.34 651.59)"><tspan x="0" y="0">Spil igen</tspan></text>
    </g>
    <text class="st6" transform="translate(904.73 383.49)"><tspan x="0" y="0">Tillykke, du vandt!</tspan><tspan x="0" y="86.4">Puuha, så behøver du nok ikke at gøre </tspan><tspan x="0" y="129.6">rent ;)</tspan></text>
    <path class="st2" d="M697.56,767.19s-25.69-112.8-109.54-79.91c13.34,32.04,22.31,60.19,23.9,91.86-36.05-13.74-46.36-13.52-46.36-13.52,0,0,27.63,98.69,25.64,127.57,4.78,4.58,4.33,18.02,26.29,25.49,8.81-12.25,6.77-31.07,6.77-31.07,0,0,28.88,36.5,60.55,36.65,7.92-20.24.4-41.03.4-41.03,0,0,23.1,32.27,71.3,46.41,0-54.97-25.05-117.79-58.95-162.45Z"/>
    <path class="st13" d="M641,711.55s42.02,18.17,64.85,62.04c-6.6,12.35-18.85,16.83-18.85,16.83,0,0-10.01-42.57-46.01-78.87Z"/>
    <path class="st13" d="M577.64,783.24l14.36,117.72s15.48,24.5,31.81,27.29c11.15-16.93,9.24-25.1,9.24-25.1,0,0,32.19,34.66,59.67,30.67,8.17-18.12,3.19-34.26,3.19-34.26,0,0,24.55,27.88,60.6,30.07-40.63-14.94-94.86-87.83-113.58-135.24-15.34-25.49-23.3-40.63-23.3-40.63,0,0-2.59,3.59-1.59,8.37s22.31,38.84,29.08,59.75,2.95,32.46-14.06,25.1c-17.01-7.37-55.42-63.74-55.42-63.74Z"/>
    <path class="st16" d="M539.62,622.16s41.33,4.54,112.73,67.73c-36.65-8.59-60.15-2.61-60.15-2.61,0,0,20.51,47.57,23.5,95.37-13.54-2.39-43.59-13.94-43.59-13.94,0,0,6.34,24.9,4.55,40.63s-77.33-137.83-77.33-137.83l40.28-49.36Z"/>
    <path class="st10" d="M517.71,690.24s3.78-21.71,12.75-29.48c9.56,5.78,33.46,26.52,33.46,26.52l-4.78,7.74s26.59,33.26,24.05,81.26c-13.89-11.08-17.08-18.12-37.59-25.29s-27.88-60.75-27.88-60.75Z"/>
    <path class="st13" d="M183.8,751.48s.02,89.03-16.93,137.03c-43.02-25.49-56.96-87.83-36.65-146.99s53.58,9.96,53.58,9.96Z"/>
    <path class="st10" d="M176.93,687.28s-55.77,55.54-26.69,112.7c17.33-9.96,29.88-37.44,29.88-37.44,0,0-3.98,44.41,5.58,53.78,9.56,9.36,37.84-91.62,37.84-91.62l-46.61-37.42Z"/>
    <path class="st16" d="M176.93,668.5s-58.6,16.95-55.89,107.97c15.06-12.95,27.9-29.48,27.9-29.48,0,0,11.86-38.41,27.99-59.72s0-18.77,0-18.77Z"/>
    <path class="st11" d="M623.67,427.73s22.11-69.91-39.44-123.09c-61.54-53.18-154.76-74.09-253.34-34.66-26.89,23.9-46.01,105.76-40.63,113.53-20.32-4.18-95,84.25-107.55,119.5-12.55,35.25-27.49,80.66-22.71,123.09s5.38,67.52,35.85,107.55c-7.77,31.07-20.91,106.36-22.71,120.7,10.16,14.94,1.79,27.49,154.16,121.89,78.87-45.41,74.09-43.32,84.85-45.41-1.2,9.86-15.54,63.93-15.54,63.93,0,0,123.68-69.61,196.58-90.82,18.52-53.78-80.37-232.43-80.37-232.43,0,0,22.71-15.66,37.34-49.36-35.85-11.59-87.24-25.93-87.24-25.93l160.73-168.5Z"/>
    <path class="st18" d="M453.5,592.84s-55.68,53.08-128.28,0c-72.6-53.08-65.13-59.95-65.13-59.95,0,0-17.41,79.93,66.32,132.35,74.92,46.9,127.7,5.57,139.82-2.39,27.52-18.09,52.13-50.49,52.13-50.49l-64.86-19.52Z"/>
    <path class="st18" d="M512.83,671.51s107.85,181.34,80.37,232.43c-47.5,13.15-199.89,98.59-199.89,98.59,0,0,13.76-43.02,18.84-71.7-18.53,7.36-83.05,51.98-83.05,51.98,0,0-149.08-74.39-155.95-128.46,2.09-12.36,3.12-30.38,5.38-42.72,8.07-44.07,17.33-77.98,17.33-77.98,0,0-9.86,52.28-8.96,75.88,8.07,23.3,36.45,103.07,140.41,110.54.6-22.71,2.99-87.83,2.99-87.83,0,0,17.13,62.44,19.32,86.04,112.13-7.77,233.47-108.15,163.22-246.77Z"/>
    <path class="st11" d="M287.27,370.57s-89.18-9.31-131.75,72.7c2.58-1.31,5.76-2.61,9.09-3.84,9.98-3.68,21.24-6.62,21.24-6.62,0,0-32.51,27.29-44.37,63.83,6.37-4.18,25.99-13.34,34.26-15.93-9.66,10.56-29.38,30.82-32.86,74.29,8.02-6.42,36.55-28.08,36.55-28.08l105.46-143.1,2.39-13.24Z"/>
    <path class="st15" d="M320.42,323.23s-90.81-24.31-151.45,61.06c25.94.17,50.27-4,120.97,2.95,7.78-24.74,12.8-36.65,30.48-64.02Z"/>
    <path class="st15" d="M355.84,279.85s-33.46-46.31-131.45,33.46c24.65-1.94,63.04,4.18,79.32,10.31,6.72-9.86,17.03-25.69,52.13-43.77Z"/>
    <path class="st18" d="M172.44,436.74s28.19-8.71,49.02-11.4c1.74-7.02,7.89-13.74,7.89-13.74,0,0-33.52,6.08-56.9,25.15Z"/>
    <path class="st18" d="M145.83,494.1s33.79-25.71,59.65-31.48c-6.08,7.08-5.3,15.74-5.3,15.74,0,0-29.42,3.68-54.35,15.74Z"/>
    <path class="st18" d="M142.88,555s15.78-28.98,37.74-42.12c-3.29,8.96-1.79,17.33-1.79,17.33,0,0-25.92,16.13-35.95,24.8Z"/>
    <path class="st15" d="M302.28,453.19s-4.17,24.53,9.6,42.74c-39.92-1.32-68.8,15.06-68.8,15.06,0,0,8.57-30.47,59.19-57.8Z"/>
    <path class="st15" d="M235.76,816.92s13.7,15.95,34.4,16.49c-9.78,17.57,11.26,57.9,11.26,57.9,0,0-42.49-25.1-45.66-74.39Z"/>
    <path class="st17" d="M361.96,633.47s15.59,30.47,31.35,4.78c-5.26,21.71-11.35,28.08-15.68,29.88s-17.47-1.79-15.68-34.66Z"/>
    <path class="st17" d="M295.84,563.36s-3.39,25.29,16.73,25.49c-13.15,11.35-35.25,10.36-16.73-25.49Z"/>
    <path class="st17" d="M338.69,592.84s.2,23.9,23.1,13.15c-14.74,21.11-28.68,23.5-23.1-13.15Z"/>
    <path class="st17" d="M408.13,622.16s13.74,12.31,23.1-6.61c-1.39,21.31-9.56,33.73-23.1,6.61Z"/>
    <path class="st17" d="M298.23,621.26s2.19,31.39,23.9,18.91c-11.75,27.76-39.44,28.23-23.9-18.91Z"/>
    <g>
      <path class="st5" d="M485.66,451.79s10.99-52.05-13.52-71.06c-24.51-19.01-51.88-14.2-51.88-14.2,0,0-17.91,1.52-37.01,13.35-2.37,18.93,15.38,48,21.8,55.09s30.17,18.42,80.61,16.82Z"/>
      <path class="st2" d="M411.95,394.07s-7.47,19.72,12.15,30.67c19.62,10.95,31.97-4.68,35.25-9.76s.3-17.03-12.55-23.9c-12.85-6.87-28.48-10.76-34.85,2.99Z"/>
      <path class="st9" d="M445.22,391.08s-18.72-7.47-24.3,6.97c-5.58,14.44,8.79,23.6,20.97,19.32s17.03-20.87,3.33-26.29Z"/>
      <path class="st5" d="M431.36,388.77s-6.5,7.17,2.99,10.76c9.49,3.59,9.1-6.91,4.38-10.16s-7.37-.6-7.37-.6Z"/>
      <path class="st14" d="M469.97,389.15s14.04,20.16,9.96,52.32c-29.18,2.39-36.45,0-36.45,0,0,0,23.57-1.28,30.27-3.39,1.89-7.97,1.07-41.07-18.92-56.56,12.55,8.76,18.32,18.74,18.32,18.74,0,0-.5-5.27-3.19-11.11Z"/>
      <path class="st14" d="M396.12,375.95s-5.05,1.25-9.06,4.78,4.43,31.42,14.04,42.82,6.47,7.57,6.47,7.57c0,0-15.44-32.37-15.83-42.42s4.38-12.75,4.38-12.75Z"/>
    </g>
    <path class="st5" d="M620.84,431.74s13.95-20.27,6.7-37.73c-23.98-5.91-69.99-2.3-82.74,9.84s-17.26,30.64-7.57,44.01c9.69,13.36,27.09,15.93,27.09,15.93l56.52-32.04"/>
    <path class="st8" d="M563.53,407.78s-11.27,5.9-11.87,14.49,6.77,12.18,11.15,9.59,10.13-15.19,9.16-18.66c-1.19-4.27-3.6-8.57-8.44-5.42Z"/>
    <path class="st14" d="M541.27,424.29s-7.32,24.05,20.59,30.17,7.15-5.98,7.15-5.98c0,0-16.78,4.33-27.73-24.2Z"/>
    <path class="st14" d="M629.09,399.15s3.9,11.13-6.08,28.96c-3.92-1.92-3.57-5.15-3.57-5.15,0,0,8.09-8.37,9.64-23.8Z"/>
    <path class="st14" d="M577.53,396.29s10.16,6.84,8.76,17.33c1.7-8.66,1.09-16.27-8.76-17.33Z"/>
    <g>
      <path class="st0" d="M499.34,487.48s-35.85,11.65-56.76,45.41c-20.91,33.76-15.83,48.85-15.83,48.85,0,0-3.19,19.99,27.19,17.48,21.51,10.16,71.47,33.14,124.76,3.57l-1.08-16.12s-21.81-1.2-30.47-32.86c-8.66-31.67-26.59-35.25-47.8-66.32Z"/>
      <path class="st19" d="M442.58,532.89s-.6,16.03,0,27.29c.6,11.25,4.58,25.39,22.8,36.05,18.22,10.66,37.74,14.74,52.98,16.13,15.24,1.39,30.3,2.21,33.96,1.16-8.23,1.88-46.21,13.08-98.39-14.31-4.28,1.2-56.37,8.96-11.35-66.32Z"/>
      <path class="st19" d="M499.34,487.48s11.05,76.62,36.65,87.65c5.48,2.77,10.66,6.16,15.14,15.52,4.78,7.77,15.54,7.57,15.54,7.57,0,0-2.43,7.02-10.87,14.31,5.79-1.27,15.52-3.88,22.9-9.74,2.81-8.95,4.5-39.42,4.5-39.42l-67.52-51.98-5.98-10.16-10.36-13.74Z"/>
      <path class="st0" d="M619.44,422.95s37.94,55.27,26.29,124.28c-11.65,69.01-51.39,135.63-98.59,156.55,11.35-15.83,37.34-53.78,30.47-117.11-12.55-2.39-23.3-6.27-30.47-32.86-16.73-7.17-38.54-27.19-40.03-53.78,17.63-21.81,67.22-68.71,112.33-77.08Z"/>
      <path class="st19" d="M619.44,422.95s40.33,51.68,26.29,124.28c-14.04,72.6-12.01,53.72-41.11,104.24-32.39,47.83-57.48,52.31-57.48,52.31,0,0,103.37-97.39,72.3-280.83Z"/>
    </g>
    <g>
      <path class="st15" d="M789.21,119.73s-10.03-28.1-18.6-38.86c-12.2-3.97-54.35,6.12-69.59,19.84s-4.7,21.25,7.62,25.71c12.33,4.46,55.88,15.65,71.66,26.97,17.35-3.27,31.7-10.5,31.7-10.5,0,0-8.13,9.86-20.73,14.65,6.43,1.85,24.89,4.4,43.05-8.39-9.49-6.58-45.12-29.42-45.12-29.42Z"/>
      <path class="st11" d="M787.79,118.58l-22.51-7.6s-11.46-23.44-22.53-28.25c6.48-1.3,18.3-4.86,27.85-1.86,4.32,6.55,13.46,19.38,17.19,37.71Z"/>
      <path class="st15" d="M834.32,149.16c5.97,4.22-4.54-69.95-74.54-58.75,27.82,4.32,34.57,31.76,34.57,31.76,0,0,26.43,17.4,39.98,26.99Z"/>
      <path class="st9" d="M846.46,168.4l4.4-3.87s-41.93-71.16-142.1-55.02c46.15-1.61,106.3,12.99,137.71,58.89Z"/>
    </g>
    <g>
      <path class="st15" d="M1440.09,896.94s107.15-57.01,95.93-24.94c7.52-54.72,20.4-62.86,20.4-62.86,0,0,56.24,4.16,94.51-54.28,6.51-10.29,19.06-19.32,27.3,7.96,4.51,14.95.76,54.08-30.47,89.94-25.76,29.58-67.25,56.91-164.21,66.83-19.37-12.46-33.07-17.94-33.07-17.94,0,0,10.47,10.18,22.53,20.1-20.12-.25-43.72-25.29-43.72-25.29,0,0-.78-21,12.54-47.13-4.6,23.14-1.72,47.62-1.72,47.62Z"/>
      <path class="st11" d="M1661.38,834.32s-27.69,5.19-40.56-2.73c-6.28,5.91-14.55,7.96-14.55,7.96,0,0,26.65,17.51,41.48,13.19,2.03-2.43,4.45-5.23,6.71-8.29,3.75-5.1,6.93-10.14,6.93-10.14Z"/>
      <path class="st11" d="M1539.47,804.01s-19.59,24.93-43.62,27.86c-24.69,3.01-38.93,10.9-38.93,10.9,0,0-25.26,41.53-18.08,56.92,23.14-2.76,78.27-11.98,78.27-11.98l11.46-4.2s14.19-19.77,8.08-36.1c-6.33-16.92.76-40.48,2.82-43.41Z"/>
      <path class="st11" d="M1483.54,919.59s-22.7-13.23-33.07-17.94c-10.38-4.7,19.05-5.22,19.05-5.22l4.01.35s11.07,8.01,32.66,20.04c-10.94,1.45-22.65,2.77-22.65,2.77Z"/>
      <path class="st15" d="M1485.31,893.77l-45.22,3.17-2.53-3.9s-2.54-14.95,19.36-50.27c6.36-2.88,8.21-5.32,28.06-9.16-23.08,40.12-16.68,57.56-16.68,57.56l17,2.61Z"/>
      <path class="st9" d="M1393.83,891.06l-15.77,7.2s180.46,36.92,275.63-106.47c-105.28,121.88-237.78,100.08-259.85,99.27Z"/>
    </g>
    <g>
      <path class="st11" d="M1823.82,270.46s4.76,12.88-2.72,34.82c-1.35-10.98-3.18-30.89-3.18-30.89l5.9-3.93Z"/>
      <path class="st11" d="M1821.29,269.1s-10.01-12.99-17.41-16.05c.93,5.1,11.02,19.99,11.02,19.99l6.38-3.94Z"/>
      <path class="st15" d="M1636.38,252.29c-4.46-7.24-38.48-14.84-38.48-14.84,0,0-11.73,24.49,12.58,43.33,24.31,18.84,33,23.95,33,23.95l47.43.35,15.66-14.3s-35.25,18.3-70.2-38.49Z"/>
      <path class="st9" d="M1597.9,237.44s51.21,64.11,68.37,63.81l-4.94,3.66s-36.34-23.37-63.43-67.47Z"/>
      <path class="st11" d="M1818.6,275.84l-29.37-22.23s-55.86,30.78-107.8,39.72c-27.84,4.79-54.56,3.31-70.95-12.55,17.21,16.88,88.83,73.74,195.78,25.46,7.6-12.97,12.34-30.4,12.34-30.4Z"/>
      <path class="st9" d="M1858.56,240.39s-73.29,74.73-193.68,74.17c120.02.12,182.29-58.89,198.33-70.77l-4.65-3.4Z"/>
    </g>
  </g>
</svg>