<?xml version="1.0" encoding="UTF-8"?>
<svg xmlns="http://www.w3.org/2000/svg" version="1.1" viewBox="0 0 1920 1080">
  <!-- Generator: Adobe Illustrator 29.0.1, SVG Export Plug-In . SVG Version: 2.1.0 Build 192)  -->
  <defs>
    <style>
      .st0 {
        fill: #f0d35d;
      }

      .st1 {
        fill: #d1745d;
      }

      .st2 {
        fill: #59452f;
      }

      .st3 {
        fill: #2e342f;
      }

      .st4 {
        fill: #161c17;
      }

      .st5 {
        fill: #faf5ea;
      }

      .st6 {
        fill: #2b2e4e;
      }

      .st7 {
        fill: #1c4551;
      }

      .st8 {
        fill: #98aa6d;
      }

      .st9 {
        fill: #3f2e1c;
      }

      .st10 {
        fill: #e5decf;
      }

      .st11 {
        fill: #231f20;
      }

      .st12 {
        fill: #3e6e7c;
      }

      .st13 {
        fill: #454975;
      }

      .st14 {
        fill: #eddad5;
      }

      .st15 {
        fill: #092b35;
      }

      .st16 {
        fill: #ddab63;
      }
    </style>
  </defs>
  <g id="Layer_1">
    <g>
      <rect class="st5" x=".38" y=".5" width="1920" height="1080"/>
      <path class="st11" d="M1920.88,1081H-.12V0h1921v1081ZM.88,1080h1919V1H.88v1079Z"/>
    </g>
  </g>
  <g id="Layer_2">
    <path class="st8" d="M877.18,234.6l762.68-92.55s65.01-6.61,95.67,12.94c36.45,23.24,36.06,77.35,36.06,77.35l39.42,490.99s2.24,33.69-13.64,47.48c-15.23,13.23-53.67,10.99-53.67,10.99l-808.65-24.94s-76.67-1.55-112.22-32.54c-27.59-24.05-21.43-108.48-21.43-108.48l8.65-312.13s-.98-28.97,18.46-47.2,48.67-21.91,48.67-21.91Z"/>
    <g>
      <path class="st4" d="M1037.42,182.46c.08.39-1.37,2.7-4.34,6.91-4.53,6.37-8.13,11.72-10.81,16.05s-7.67,12.62-14.97,24.84c-4.45,7.42-7.34,12.15-8.67,14.18-3.67,5.43-5.88,9.61-6.62,12.54-.59,1.88-1.94,3.4-4.07,4.57s-4.66,1.76-7.59,1.76c-1.29,0-2.51-.98-3.66-2.93-1.15-1.95-2.71-5.64-4.66-11.07-2.42-6.52-5.8-15.23-10.14-26.13-9.02-22.54-13.54-34.2-13.54-34.98,0-1.41.67-3.3,2.02-5.68,1.35-2.38,3.25-3.57,5.71-3.57,1.95,0,3.69.71,5.21,2.14,1.52,1.43,2.91,5.3,4.16,11.63.86,4.49,3.64,12.76,8.35,24.81,4.71,12.05,8.39,20.97,11.04,26.75.59-.86,1.91-3.16,3.98-6.91.47-.82.78-1.35.94-1.58,5.39-8.63,9.88-16.39,13.48-23.26,6.56-12.58,12.08-21.95,16.55-28.12,4.47-6.17,8.19-9.26,11.16-9.26,4.34,0,6.5,2.15,6.5,6.45v.47c0,.16-.02.29-.06.41Z"/>
      <path class="st4" d="M1039.12,224v.06c1.25-7.11,1.88-11.17,1.88-12.19,0-2.89.63-5.31,1.9-7.27,1.27-1.95,3.04-2.93,5.3-2.93,2.66,0,4.73.63,6.21,1.88,1.48,1.25,2.23,2.66,2.23,4.22s-.72,4.79-2.17,9.67l-.35,1.29c-2.15,7.54-3.44,13.69-3.87,18.46-.43,4.77-.64,8.61-.64,11.54,0,2.38.41,5.57,1.23,9.55.12.7.18,1.29.18,1.76,0,.9-.85,2.11-2.55,3.63s-3.53,2.29-5.48,2.29c-5.16,0-7.73-3.91-7.73-11.72,0-6.64.94-14.73,2.81-24.26.39-2.11.74-4.1,1.05-5.98ZM1067.42,175.84c0,2.77-1.25,5.21-3.75,7.29-2.5,2.09-4.67,3.13-6.5,3.13-2.34,0-4.42-.98-6.24-2.93-1.82-1.95-2.72-3.91-2.72-5.86,0-2.81.9-5.09,2.7-6.83,1.8-1.74,4.38-2.61,7.73-2.61,2.62,0,4.74.77,6.36,2.31,1.62,1.54,2.43,3.37,2.43,5.48Z"/>
      <path class="st4" d="M1086.7,266.13c-6.45,0-11.35-1.76-14.71-5.27s-5.04-8.4-5.04-14.65c0-9.84,4-20.49,12.01-31.93,8.01-11.44,15.86-17.17,23.55-17.17,3.71,0,6.88,1.85,9.49,5.54s3.93,7.53,3.93,11.51c0,3.75-.69,6.28-2.08,7.59-1.39,1.31-2.72,1.96-4.01,1.96-3.79,0-6-2.62-6.62-7.85-.47-3.83-1.43-5.74-2.87-5.74-3.05,0-7.07,4.34-12.07,13.01s-7.5,16.27-7.5,22.79c0,5.27,2.85,7.91,8.55,7.91,6.29,0,12.64-2.23,19.04-6.68,3.01-2.15,5.39-3.22,7.15-3.22,2.15,0,3.22,1.07,3.22,3.22,0,3.01-3.45,6.92-10.34,11.75s-14.13,7.24-21.71,7.24Z"/>
      <path class="st4" d="M1153.91,215.33c-.35,0-1.46,4.36-3.31,13.07-1.86,8.71-2.78,13.98-2.78,15.82,0,3.2.34,5.44,1.03,6.71.68,1.27,1.81,1.9,3.37,1.9,2.19,0,4.29-.38,6.3-1.14s4.66-2.47,7.94-5.13c2.03-1.68,3.75-2.52,5.16-2.52,1.13,0,2.04.32,2.72.97s1.03,1.4,1.03,2.26c0,3.44-2.77,7.33-8.32,11.69s-11.41,6.53-17.58,6.53c-5.16,0-9.09-1.52-11.81-4.57s-4.07-7.42-4.07-13.12c0-5.27,1.97-15.8,5.92-31.58-2.5.27-4.24.41-5.21.41h-1.23c-1.8,0-3.62-.59-5.48-1.76s-2.78-3.05-2.78-5.62c0-3.28,1.86-4.92,5.57-4.92l12.54-.47c1.64-4.73,3.38-10.92,5.21-18.57,1.09-4.77,3.57-7.15,7.44-7.15,2.15,0,3.83.65,5.04,1.96,1.21,1.31,1.82,2.76,1.82,4.37,0,.63-1.66,6.66-4.98,18.11,12.42-1.09,19.24-1.64,20.45-1.64,2.07,0,3.44.3,4.1.91.66.61,1,1.77,1,3.49,0,3.48-2.95,5.68-8.85,6.62l-20.21,3.4Z"/>
      <path class="st4" d="M1241.39,233.2c-2.62,9.14-7.59,16.85-14.91,23.12s-14.64,9.4-21.94,9.4c-5.78,0-10.55-2.12-14.3-6.36s-5.62-9.44-5.62-15.62c0-10.08,3.44-20,10.31-29.77,6.88-9.77,15.21-14.65,25.02-14.65,6.68,0,12.09,2.47,16.23,7.41,4.14,4.94,6.21,10.83,6.21,17.67,0,2.97-.33,5.88-1,8.73v.06ZM1210.92,214.69c-2.73,2.42-5.41,6.29-8.03,11.6-2.62,5.31-3.93,10.65-3.93,16,0,3.24.6,5.92,1.79,8.03s2.76,3.16,4.72,3.16c4.84,0,9.88-2.87,15.12-8.61s7.85-12.19,7.85-19.34c0-4.02-.85-7.33-2.55-9.93-1.7-2.6-4.07-3.9-7.12-3.9s-5.49,1-7.79,2.99h-.06Z"/>
      <path class="st4" d="M1268.28,233.85l1-1.88c4.73-9.49,9.81-17.2,15.26-23.12s10.77-8.88,15.97-8.88c3.98,0,7.24,1.09,9.76,3.28,2.52,2.19,3.78,4.79,3.78,7.79,0,1.88-.43,3.49-1.29,4.83s-2.05,2.02-3.57,2.02c-2.42,0-4.63-1-6.62-2.99-1.41-1.29-2.52-1.93-3.34-1.93-2.93,0-7.83,4.55-14.71,13.65-6.88,9.1-11.02,19.34-12.42,30.7-.43,3.28-1.39,5.58-2.87,6.88-1.48,1.31-3.5,1.96-6.04,1.96-2.7,0-4.61-1.53-5.74-4.6s-1.7-8.08-1.7-15.03c0-2.85.08-6.7.23-11.54.16-4.57.61-10.16,1.35-16.76.2-1.72.33-3.07.41-4.04.35-3.83.75-6.45,1.2-7.88.45-1.43,1.49-2.76,3.13-4.01,1.64-1.25,3.46-1.88,5.45-1.88,2.11,0,3.71.61,4.8,1.82,1.09,1.21,1.64,2.54,1.64,3.98,0,1.84-.88,5.65-2.64,11.43-.62,1.99-1.15,4.38-1.58,7.15l-1.46,9.02Z"/>
      <path class="st4" d="M1371.06,228.4c-.62,9.49-1.73,18.7-3.31,27.63s-3.91,17.02-6.97,24.29-6.37,12.22-9.9,14.85-7.74,3.96-12.63,3.96c-5.23,0-10.25-1-15.06-2.99h.06c-4.14-1.72-7.74-4.02-10.81-6.91-3.07-2.89-4.6-5.33-4.6-7.32,0-1.84.46-3.3,1.38-4.39.92-1.09,2.12-1.64,3.6-1.64,1.29,0,2.36.55,3.22,1.64,5,6.45,12.27,9.67,21.8,9.67,3.87,0,7.6-4.04,11.19-12.13s5.86-17.79,6.8-29.12c-12.07,9.53-21.37,14.3-27.89,14.3-4.22,0-7.56-1.68-10.02-5.04-2.46-3.36-3.69-7.4-3.69-12.13s1.1-11.59,3.31-20.6c2.21-9,4.08-14.59,5.62-16.76s4.05-3.25,7.53-3.25c1.88,0,3.32.81,4.34,2.43,1.02,1.62,1.52,3.41,1.52,5.36,0,.59-1.41,3.89-4.22,9.9-3.44,7.34-5.16,13.67-5.16,18.98,0,2.73.38,4.81,1.14,6.24.76,1.43,1.55,2.14,2.37,2.14,1.88,0,4.15-.57,6.83-1.7,2.68-1.13,5.82-3.1,9.43-5.89,3.61-2.79,5.95-4.91,7-6.36,1.05-1.44,1.89-3.31,2.52-5.6s1.11-7.31,1.46-15.09c.2-4.53.42-7.38.67-8.55s.95-2.25,2.08-3.22c1.13-.98,2.66-1.46,4.57-1.46,2.58,0,4.4.55,5.48,1.64,1.07,1.09,1.61,3.67,1.61,7.73l-1.29,19.39Z"/>
      <path class="st4" d="M1391.45,261.79c-4.3,0-6.45-2.38-6.45-7.15,0-1.8.88-3.87,2.64-6.21s3.65-3.52,5.68-3.52c1.33,0,2.99.64,4.98,1.93s2.99,2.38,2.99,3.28l-.59,3.63c-.35,2.58-1.62,4.56-3.81,5.95-2.19,1.39-4,2.08-5.45,2.08ZM1399.77,234.84c-3.91,0-6.93-.8-9.08-2.4-.62-7.62-.08-15.45,1.64-23.5,1.91-8.71,2.87-15.23,2.87-19.57,0-.43.21-2.06.62-4.89.41-2.83,1.65-4.99,3.72-6.47,2.07-1.48,3.83-2.23,5.27-2.23,1.56,0,3.06.58,4.48,1.73,1.43,1.15,2.14,2.41,2.14,3.78,0,1.09-.79,5.15-2.37,12.16-1.58,7.01-3.16,13.47-4.72,19.37-1.64,6.13-2.5,11.04-2.58,14.71-.08,2.77-.74,5.21-1.99,7.32Z"/>
      <path class="st4" d="M1430.12,261.79c-4.3,0-6.45-2.38-6.45-7.15,0-1.8.88-3.87,2.64-6.21s3.65-3.52,5.68-3.52c1.33,0,2.99.64,4.98,1.93s2.99,2.38,2.99,3.28l-.59,3.63c-.35,2.58-1.62,4.56-3.81,5.95-2.19,1.39-4,2.08-5.45,2.08ZM1438.44,234.84c-3.91,0-6.93-.8-9.08-2.4-.62-7.62-.08-15.45,1.64-23.5,1.91-8.71,2.87-15.23,2.87-19.57,0-.43.21-2.06.62-4.89.41-2.83,1.65-4.99,3.72-6.47,2.07-1.48,3.83-2.23,5.27-2.23,1.56,0,3.06.58,4.48,1.73,1.43,1.15,2.14,2.41,2.14,3.78,0,1.09-.79,5.15-2.37,12.16-1.58,7.01-3.16,13.47-4.72,19.37-1.64,6.13-2.5,11.04-2.58,14.71-.08,2.77-.74,5.21-1.99,7.32Z"/>
      <path class="st4" d="M1468.79,261.79c-4.3,0-6.45-2.38-6.45-7.15,0-1.8.88-3.87,2.64-6.21s3.65-3.52,5.68-3.52c1.33,0,2.99.64,4.98,1.93s2.99,2.38,2.99,3.28l-.59,3.63c-.35,2.58-1.62,4.56-3.81,5.95-2.19,1.39-4,2.08-5.45,2.08ZM1477.11,234.84c-3.91,0-6.93-.8-9.08-2.4-.62-7.62-.08-15.45,1.64-23.5,1.91-8.71,2.87-15.23,2.87-19.57,0-.43.21-2.06.62-4.89.41-2.83,1.65-4.99,3.72-6.47,2.07-1.48,3.83-2.23,5.27-2.23,1.56,0,3.06.58,4.48,1.73,1.43,1.15,2.14,2.41,2.14,3.78,0,1.09-.79,5.15-2.37,12.16-1.58,7.01-3.16,13.47-4.72,19.37-1.64,6.13-2.5,11.04-2.58,14.71-.08,2.77-.74,5.21-1.99,7.32Z"/>
    </g>
    <g>
      <path class="st1" d="M926.41,596.21h306.34s49.52-1.97,49.52,42.07-49.52,46.02-49.52,46.02h-306.34s-43.39,0-43.39-44.05c0-44.05,43.39-44.04,43.39-44.04Z"/>
      <g>
        <path class="st5" d="M1009.45,629.14c0-1.38-.35-2.33-1.06-2.87s-1.75-.8-3.13-.8c-2.35,0-4.53.57-6.55,1.72s-3.02,2.41-3.02,3.79c0,.88.38,1.62,1.14,2.24.76.62,2.72,1.39,5.88,2.31,3.31.96,5.77,2.01,7.38,3.16,1.61,1.15,2.41,2.53,2.41,4.15,0,2.69-2.05,5.15-6.14,7.38-4.09,2.23-8.34,3.35-12.76,3.35-1.43,0-2.58-.3-3.45-.9s-1.29-1.34-1.29-2.21c0-.7.2-1.34.58-1.94s.86-.9,1.4-.9c.33,0,.64.06.92.17,1.46.63,2.83.94,4.09.94,2.17,0,4.61-.61,7.32-1.83,2.71-1.22,4.06-2.41,4.06-3.58,0-.49-.34-.96-1.01-1.41-.68-.45-2.05-1.02-4.12-1.7-3.02-.99-5.29-1.8-6.82-2.44s-2.68-1.48-3.47-2.52c-.79-1.04-1.18-2.29-1.18-3.75,0-2.6,1.52-5.03,4.55-7.27,3.03-2.24,6.6-3.36,10.69-3.36,2.35,0,4.21.47,5.56,1.4s2.04,2,2.04,3.2c0,2.45-1.34,3.67-4.03,3.67Z"/>
        <path class="st5" d="M1021.77,650.11c-.24.97-.47,2.45-.71,4.43l-1,8.21c-.17,1.34-.49,2.26-.97,2.78-.48.51-1.07.77-1.76.77-.63,0-1.22-.23-1.79-.7-.56-.47-.85-.99-.85-1.56,0-1.13.17-2.43.52-3.91,2.07-8.28,3.21-16.88,3.4-25.79v-.42c0-1.87.05-3.11.16-3.73s.4-1.17.9-1.64c.49-.47,1.19-.71,2.1-.71,1.52,0,2.28,1.16,2.28,3.49,0,.95-.17,2.55-.52,4.82l-.21,1.44c1.59-2.64,3.47-4.84,5.66-6.59,2.18-1.75,4.14-2.62,5.87-2.62,1.56,0,2.88.56,3.98,1.67s1.64,2.51,1.64,4.2c0,4.5-1.74,8.59-5.23,12.27-3.49,3.68-6.94,5.52-10.35,5.52-1.62,0-2.65-.65-3.11-1.94ZM1034.03,633.13c-1.7,0-3.9,1.66-6.61,4.97-2.71,3.31-4.06,5.92-4.06,7.81,0,.49.24.92.72,1.3.48.38,1.04.57,1.68.57,1.77,0,3.8-1.39,6.09-4.17,2.29-2.78,3.43-5.46,3.43-8.05,0-.86-.13-1.49-.4-1.87-.26-.38-.55-.57-.86-.57Z"/>
        <path class="st5" d="M1045.97,637.72v.02c.45-2.53.67-3.98.67-4.34,0-1.03.23-1.89.68-2.59.45-.7,1.08-1.04,1.89-1.04.95,0,1.68.22,2.21.67s.79.95.79,1.5-.26,1.71-.77,3.45l-.13.46c-.77,2.69-1.22,4.88-1.38,6.58s-.23,3.07-.23,4.11c0,.85.15,1.98.44,3.4.04.25.06.46.06.63,0,.32-.3.75-.91,1.29s-1.26.81-1.95.81c-1.84,0-2.76-1.39-2.76-4.18,0-2.37.33-5.25,1-8.64.14-.75.26-1.46.38-2.13ZM1056.06,620.56c0,.99-.45,1.86-1.34,2.6-.89.75-1.66,1.12-2.32,1.12-.83,0-1.58-.35-2.22-1.04s-.97-1.39-.97-2.09c0-1,.32-1.81.96-2.43.64-.62,1.56-.93,2.76-.93.93,0,1.69.28,2.27.83.58.55.87,1.2.87,1.95Z"/>
        <path class="st5" d="M1064.41,616.24c1.5,0,2.26.82,2.26,2.46,0,.75-.1,1.56-.31,2.43s-.78,3.02-1.71,6.46c-.68,2.49-1.2,5.21-1.56,8.15-.36,2.94-.53,5.24-.53,6.9,0,1.77.13,3.87.4,6.31.07.65.1,1.06.1,1.23,0,.84-.31,1.55-.92,2.15-.61.6-1.28.9-2,.9-.99,0-1.68-.47-2.09-1.4-.4-.93-.61-2.53-.61-4.8,0-4.89.57-10.64,1.72-17.27,1.15-6.63,2.09-10.54,2.82-11.74.73-1.2,1.54-1.8,2.43-1.8Z"/>
        <path class="st5" d="M1087.5,637.72v.02c.45-2.53.67-3.98.67-4.34,0-1.03.23-1.89.68-2.59s1.08-1.04,1.89-1.04c.95,0,1.68.22,2.21.67s.79.95.79,1.5-.26,1.71-.77,3.45l-.12.46c-.77,2.69-1.22,4.88-1.38,6.58-.15,1.7-.23,3.07-.23,4.11,0,.85.14,1.98.44,3.4.04.25.06.46.06.63,0,.32-.3.75-.91,1.29s-1.26.81-1.95.81c-1.84,0-2.76-1.39-2.76-4.18,0-2.37.33-5.25,1-8.64.14-.75.26-1.46.38-2.13ZM1097.59,620.56c0,.99-.45,1.86-1.34,2.6-.89.75-1.66,1.12-2.32,1.12-.84,0-1.58-.35-2.22-1.04-.65-.7-.97-1.39-.97-2.09,0-1,.32-1.81.96-2.43.64-.62,1.56-.93,2.76-.93.93,0,1.69.28,2.27.83s.87,1.2.87,1.95Z"/>
        <path class="st5" d="M1112.6,645.2c-1.54,1.74-3.34,3.17-5.4,4.29-2.05,1.12-3.83,1.68-5.31,1.68s-2.62-.43-3.43-1.29c-.81-.86-1.22-2.05-1.22-3.57,0-2.16.82-4.56,2.45-7.2,1.64-2.64,3.91-4.95,6.81-6.9,2.9-1.96,5.52-2.93,7.84-2.93,1.28,0,2.39.35,3.32,1.04.22.17.42.31.58.42.33.24.64.67.93,1.31.29.63.43,1.14.43,1.53,0,.25-.26,1.09-.79,2.53-.54,1.49-.92,2.93-1.14,4.33-.22,1.4-.64,4.89-1.28,10.47-.57,4.86-1.93,8.41-4.07,10.65-2.14,2.24-4.52,3.36-7.14,3.36s-5.41-.92-7.99-2.77c-2.58-1.84-3.87-3.37-3.87-4.56,0-1.06.51-1.59,1.54-1.59.4,0,1.22.4,2.46,1.21,3.17,2.09,5.9,3.13,8.17,3.13,1.73,0,3.17-1.08,4.34-3.25,1.17-2.17,2.09-6.13,2.78-11.89ZM1113.1,633.59c-1.03,0-2.38.62-4.05,1.85-1.67,1.23-3.22,2.89-4.64,4.98-1.42,2.09-2.13,3.82-2.13,5.2,0,.72.26,1.09.79,1.09,1.8,0,3.58-.73,5.35-2.18,1.77-1.45,3.2-3.13,4.29-5.02,1.09-1.89,1.64-3.33,1.64-4.3,0-.49-.12-.88-.38-1.17-.25-.29-.54-.44-.88-.44Z"/>
        <path class="st5" d="M1141.46,644.41c0,1.45-1.22,3.18-3.65,5.19-2.44,2.01-5.19,3.02-8.25,3.02-2.35,0-4.2-.74-5.55-2.22-1.35-1.48-2.03-3.55-2.03-6.19,0-3.9,1.38-7.55,4.13-10.96,2.76-3.41,5.7-5.12,8.83-5.12,1.56,0,2.81.49,3.76,1.48.95.99,1.42,2.17,1.42,3.53,0,2.42-1.16,4.73-3.49,6.92-2.33,2.19-5.3,3.71-8.94,4.54-.42.1-.63.35-.63.75,0,.67.3,1.3.89,1.91.59.61,1.38.91,2.37.91,2.8,0,5.58-1.44,8.33-4.32.53-.56,1.04-.83,1.54-.83.84,0,1.25.47,1.25,1.4ZM1127.45,640.71c2.2-.45,4.14-1.38,5.82-2.82,1.68-1.43,2.52-2.74,2.52-3.9,0-.46-.13-.85-.39-1.16-.26-.31-.59-.47-.99-.47-1.21,0-2.55.89-4.03,2.67s-2.45,3.67-2.92,5.68Z"/>
        <path class="st5" d="M1162.47,648.54c-.67-1.25-1.16-3.59-1.46-7.02-.31-3.56-.99-5.35-2.05-5.35-1,0-2.74,1.86-5.2,5.56-2.46,3.71-3.98,6.45-4.55,8.22-.13.53-.36.97-.7,1.32s-.68.52-1.01.52c-2.12,0-3.17-.97-3.17-2.9,0-.65.21-2.14.63-4.47.54-3.01.81-6.68.81-11.03,0-.65.29-1.35.86-2.1.57-.74,1.18-1.12,1.82-1.12.81,0,1.43.2,1.86.61.43.4.65,1.48.65,3.22,0,1.32-.4,3.88-1.19,7.68,3.02-7.07,6.39-10.61,10.11-10.61,3.23,0,5.12,2.54,5.68,7.62.56,5.18,1.2,7.77,1.92,7.77.32,0,.69-.07,1.11-.21.5-.17.9-.25,1.19-.25.67,0,1,.39,1,1.17,0,.71-.46,1.47-1.38,2.27-.92.8-2.07,1.2-3.47,1.2-1.61,0-2.77-.7-3.47-2.11h.02Z"/>
      </g>
    </g>
    <g>
      <path class="st5" d="M920.57,362.64c-.11.09-.2.36-.28.79s-.32,2.45-.71,6.05-.59,6.47-.59,8.63c0,.89.11,1.89.32,2.99.06.16.09.35.09.56,0,.63-.18,1.2-.55,1.71s-.84.76-1.42.76c-.39,0-.88-.19-1.47-.57s-.95-1.03-1.06-1.94-.18-2.1-.18-3.57c0-2,.23-4.99.7-8.95s.75-5.98.84-6.06c-.33,0-1.64.09-3.94.26-2.31.18-3.65.26-4.03.26-1.21,0-2.04-.16-2.51-.47s-.7-.8-.7-1.47c0-.6.25-1.05.75-1.37s1.76-.47,3.79-.47c3.38,0,6.69-.22,9.93-.67,3.66-.56,6.43-.84,8.31-.84,2.11,0,3.39.25,3.85.75s.69.99.69,1.49c0,1.14-.5,1.71-1.51,1.71-.33,0-.86-.04-1.58-.11-.74-.06-1.6-.09-2.58-.09-2.96,0-5.02.21-6.15.63Z"/>
      <path class="st5" d="M932.08,371.81v.02c.38-2.13.56-3.35.56-3.66,0-.87.19-1.59.57-2.18s.91-.88,1.59-.88c.8,0,1.42.19,1.86.56s.67.8.67,1.27-.22,1.44-.65,2.9l-.11.39c-.64,2.26-1.03,4.11-1.16,5.54s-.19,2.58-.19,3.46c0,.71.12,1.67.37,2.87.04.21.05.39.05.53,0,.27-.25.63-.76,1.09s-1.06.69-1.64.69c-1.55,0-2.32-1.17-2.32-3.52,0-1.99.28-4.42.84-7.28.12-.63.22-1.23.32-1.79ZM940.57,357.36c0,.83-.38,1.56-1.12,2.19s-1.4.94-1.95.94c-.7,0-1.33-.29-1.87-.88s-.82-1.17-.82-1.76c0-.84.27-1.53.81-2.05s1.31-.78,2.32-.78c.79,0,1.42.23,1.91.69s.73,1.01.73,1.64Z"/>
      <path class="st5" d="M947.6,353.73c1.27,0,1.9.69,1.9,2.07,0,.63-.09,1.32-.26,2.05s-.66,2.55-1.44,5.44c-.57,2.1-1.01,4.39-1.31,6.86s-.45,4.42-.45,5.81c0,1.49.11,3.26.33,5.31.06.55.09.9.09,1.04,0,.7-.26,1.31-.77,1.81s-1.08.76-1.69.76c-.83,0-1.42-.39-1.76-1.18s-.51-2.13-.51-4.04c0-4.11.48-8.96,1.45-14.54s1.76-8.87,2.37-9.88,1.3-1.51,2.05-1.51Z"/>
      <path class="st5" d="M957.83,353.73c1.27,0,1.9.69,1.9,2.07,0,.63-.09,1.32-.26,2.05s-.66,2.55-1.44,5.44c-.57,2.1-1.01,4.39-1.31,6.86s-.45,4.42-.45,5.81c0,1.49.11,3.26.33,5.31.06.55.09.9.09,1.04,0,.7-.26,1.31-.77,1.81s-1.08.76-1.69.76c-.83,0-1.42-.39-1.76-1.18s-.51-2.13-.51-4.04c0-4.11.48-8.96,1.45-14.54s1.76-8.87,2.37-9.88,1.3-1.51,2.05-1.51Z"/>
      <path class="st5" d="M978.59,373.13c-.19,2.85-.52,5.61-.99,8.29s-1.17,5.11-2.09,7.29-1.91,3.67-2.97,4.46-2.32,1.19-3.79,1.19c-1.57,0-3.08-.3-4.52-.9h.02c-1.24-.52-2.32-1.21-3.24-2.07-.92-.87-1.38-1.6-1.38-2.2,0-.55.14-.99.41-1.32s.64-.49,1.08-.49c.39,0,.71.16.97.49,1.5,1.93,3.68,2.9,6.54,2.9,1.16,0,2.28-1.21,3.36-3.64s1.76-5.34,2.04-8.74c-3.62,2.86-6.41,4.29-8.37,4.29-1.27,0-2.27-.5-3.01-1.51s-1.11-2.22-1.11-3.64.33-3.48.99-6.18,1.22-4.38,1.69-5.03,1.22-.98,2.26-.98c.56,0,1,.24,1.3.73s.46,1.02.46,1.61c0,.18-.42,1.17-1.27,2.97-1.03,2.2-1.55,4.1-1.55,5.7,0,.82.11,1.44.34,1.87s.47.64.71.64c.56,0,1.25-.17,2.05-.51s1.75-.93,2.83-1.77,1.78-1.47,2.1-1.91.57-.99.76-1.68.33-2.19.44-4.53c.06-1.36.13-2.21.2-2.57s.28-.67.62-.97.8-.44,1.37-.44c.77,0,1.32.16,1.64.49s.48,1.1.48,2.32l-.39,5.82Z"/>
      <path class="st5" d="M999.14,368.81h.02l-.04.04c-.68.38-1.23.7-1.65.98-.79.53-1.58,1.1-2.37,1.71-.91.7-1.6,1.29-2.06,1.78-.39.4-.58.69-.58.88,0,.21.69,1.03,2.06,2.47s2.46,2.46,3.26,3.08,1.6.93,2.38.93l.77-.02c.28,0,.51.08.68.25s.25.42.25.76c0,.48-.3,1.04-.9,1.67s-1.62.95-3.08.95c-.86,0-1.72-.31-2.6-.94s-2.23-2.04-4.04-4.25c-1.45-1.77-2.24-2.65-2.37-2.65-.08,0-.33.21-.74.63s-.68.74-.81.97v.02c-.2.97-.3,2.24-.3,3.81,0,.79-.23,1.42-.69,1.92s-1.03.74-1.7.74-1.23-.2-1.62-.59-.58-.79-.58-1.19c0-.42.15-1.35.44-2.78.56-2.78,1.04-6.46,1.42-11.06.38-3.67.7-6.53.98-8.59s.53-3.4.76-4.04.57-1.15,1.04-1.53.97-.57,1.51-.57.93.21,1.24.64.47.95.47,1.56c0,.76-.49,3.74-1.48,8.93l-.42,2.3h.02c-.52,3.39-.78,5.34-.79,5.87l5.4-4.89c2.75-2.66,4.78-3.99,6.06-3.99s1.86.5,1.86,1.49c0,1.24-.6,2.14-1.81,2.69Z"/>
      <path class="st5" d="M1020.36,368.81h.02l-.04.04c-.68.38-1.23.7-1.65.98-.79.53-1.58,1.1-2.37,1.71-.91.7-1.6,1.29-2.06,1.78-.39.4-.58.69-.58.88,0,.21.69,1.03,2.06,2.47s2.46,2.46,3.26,3.08,1.6.93,2.38.93l.77-.02c.28,0,.51.08.68.25s.25.42.25.76c0,.48-.3,1.04-.9,1.67s-1.62.95-3.08.95c-.86,0-1.72-.31-2.6-.94s-2.23-2.04-4.04-4.25c-1.45-1.77-2.24-2.65-2.37-2.65-.08,0-.33.21-.74.63s-.68.74-.81.97v.02c-.2.97-.3,2.24-.3,3.81,0,.79-.23,1.42-.69,1.92s-1.03.74-1.7.74-1.23-.2-1.62-.59-.58-.79-.58-1.19c0-.42.15-1.35.44-2.78.56-2.78,1.04-6.46,1.42-11.06.38-3.67.7-6.53.98-8.59s.53-3.4.76-4.04.57-1.15,1.04-1.53.97-.57,1.51-.57.93.21,1.24.64.47.95.47,1.56c0,.76-.49,3.74-1.48,8.93l-.42,2.3h.02c-.52,3.39-.78,5.34-.79,5.87l5.4-4.89c2.75-2.66,4.78-3.99,6.06-3.99s1.86.5,1.86,1.49c0,1.24-.6,2.14-1.81,2.69Z"/>
      <path class="st5" d="M1040.99,377.44c0,1.22-1.03,2.67-3.08,4.37s-4.37,2.54-6.94,2.54c-1.98,0-3.54-.62-4.68-1.87s-1.71-2.99-1.71-5.21c0-3.28,1.16-6.36,3.48-9.23s4.8-4.31,7.44-4.31c1.31,0,2.37.42,3.16,1.25s1.2,1.82,1.2,2.97c0,2.04-.98,3.98-2.94,5.83s-4.46,3.12-7.52,3.82c-.35.08-.53.29-.53.63,0,.56.25,1.1.75,1.61s1.16.76,2,.76c2.36,0,4.69-1.21,7.01-3.64.45-.47.88-.7,1.3-.7.7,0,1.05.39,1.05,1.18ZM1029.2,374.33c1.85-.38,3.48-1.17,4.9-2.37s2.12-2.3,2.12-3.29c0-.39-.11-.71-.33-.98s-.5-.4-.83-.4c-1.02,0-2.15.75-3.39,2.25s-2.06,3.09-2.46,4.78Z"/>
      <path class="st5" d="M1044.33,385.75c.54-.09,1.31-.38,2.31-.87s1.64-1.11,1.92-1.86.41-1.15.41-1.19c0-1.01-.12-1.68-.35-2.02-.22-.34-.33-.64-.33-.91,0-.33.13-.69.39-1.1s.58-.61.97-.61.92.13,1.57.4,1.03.51,1.12.71.25.66.45,1.35.3,1.31.3,1.84c0,.22-.24.89-.73,2s-1.12,1.96-1.91,2.53-1.56.93-2.34,1.07c-.15.02-.27.05-.35.07-1.32.48-2.21.72-2.67.72-.77,0-1.16-.43-1.16-1.28,0-.3.13-.59.4-.86Z"/>
      <path class="st5" d="M1082.97,377.61c-3.04,4.3-6.09,6.45-9.16,6.45-1.24,0-2.24-.49-3.01-1.47s-1.14-2.22-1.14-3.74c0-3.06,1.25-6.1,3.75-9.12s5.04-4.54,7.6-4.54c1.48,0,2.53.39,3.15,1.16.88-3.84,1.4-6.25,1.56-7.21.35-1.78.64-2.96.88-3.55s.59-1.04,1.07-1.36.9-.48,1.25-.48c.6,0,1.05.25,1.37.74s.47,1.11.47,1.86c0,.33-.26,1.27-.77,2.83-.84,2.53-1.63,5.59-2.35,9.18s-1.08,6.44-1.08,8.56.45,3.04,1.34,3.04c.46,0,.94-.12,1.46-.37.52-.23.88-.35,1.09-.35.57,0,.86.33.86,1,0,.81-.58,1.61-1.75,2.42s-2.27,1.2-3.31,1.2c-1.12,0-1.99-.6-2.6-1.81s-.84-2.69-.69-4.45ZM1081.02,368.6c-1.54,0-3.14,1.17-4.81,3.52s-2.5,4.49-2.5,6.43c0,1.14.42,1.71,1.27,1.71,1.43,0,3.13-1.27,5.12-3.81s2.97-4.55,2.97-6.03c0-.45-.19-.86-.56-1.24s-.87-.57-1.48-.57Z"/>
      <path class="st5" d="M1106.65,377.05c-1.12,2.05-2.43,3.68-3.91,4.89s-2.99,1.81-4.51,1.81c-.9,0-1.81-.47-2.73-1.42s-1.38-2.41-1.38-4.38c0-1.39.35-3.5,1.05-6.31.61-2.32.91-4.08.91-5.29.47-.98,1.2-1.48,2.2-1.48.68,0,1.22.23,1.63.68s.61.91.61,1.36c0,.83-.29,2.02-.88,3.55-.34.91-.71,2.21-1.1,3.88s-.59,2.74-.59,3.21c0,1.56.32,2.34.97,2.34,1.02,0,2.4-.98,4.13-2.94s2.87-3.96,3.39-6.01c.53-2,1-3.32,1.41-3.94s.99-.93,1.74-.93c1.22,0,1.83.68,1.83,2.04,0,.2-.1.6-.3,1.2-.69,2.07-1.04,4.41-1.04,7.01,0,3.05.52,4.87,1.55,5.47.34.2.51.45.51.74,0,.42-.3.82-.9,1.2s-1.17.56-1.71.56c-.93,0-1.64-.65-2.14-1.96s-.75-3.06-.75-5.26Z"/>
      <path class="st5" d="M1133.79,383.31c.01-.77-.45-2.44-1.39-4.99-1.89-5.05-2.83-8.65-2.83-10.79,0-1.92.76-2.88,2.27-2.88s2.21.88,2.21,2.64c0,1.12.03,1.92.08,2.4s.23,1.34.54,2.58.62,2.29.92,3.12c.18.5.39,1.16.63,1.97.14.5.26.86.37,1.05.07-.11.32-.56.74-1.37.25-.49,1.08-1.89,2.5-4.19s2.66-4.14,3.74-5.51,1.87-2.21,2.4-2.51,1.08-.46,1.67-.46,1.11.2,1.5.6.59.88.59,1.46c0,.68-.49,1.35-1.48,2-.96.66-2.27,2.16-3.93,4.5s-3.44,5.29-5.35,8.84c-1.08,2.03-2.04,3.04-2.9,3.04-.74,0-1.5-.5-2.29-1.49Z"/>
      <path class="st5" d="M1162.18,377.6c-3.08,4.07-6.06,6.1-8.93,6.1-1.05,0-1.96-.42-2.72-1.25s-1.14-1.89-1.14-3.18c0-3.11,1.38-6.41,4.15-9.92s5.55-5.26,8.37-5.26c1.43,0,2.37.72,2.81,2.16,1.35,0,2.02.52,2.02,1.55,0,.49-.13,1.38-.39,2.67-.47,2.41-.7,4.34-.7,5.78s.1,2.55.31,3.16.35,1.01.45,1.2.38.39.84.6c.47.22.7.53.7.93,0,.6-.3,1.1-.91,1.49s-1.23.6-1.89.6c-2.2,0-3.19-2.21-2.97-6.63ZM1161.12,367.84c-1.18,0-2.72,1.31-4.61,3.93s-2.84,4.84-2.84,6.67c0,.96.2,1.44.6,1.44,1.38,0,3.08-1.23,5.11-3.68s3.03-4.6,3.03-6.44c0-.59-.13-1.05-.4-1.4s-.56-.52-.89-.52Z"/>
      <path class="st5" d="M1185.96,380.92c-.56-1.05-.97-3.02-1.23-5.91-.26-3-.83-4.5-1.72-4.5-.84,0-2.3,1.56-4.38,4.68s-3.35,5.43-3.83,6.92c-.11.45-.3.81-.59,1.11s-.57.44-.85.44c-1.78,0-2.67-.81-2.67-2.44,0-.55.18-1.8.53-3.76.46-2.53.69-5.62.69-9.28,0-.55.24-1.14.72-1.77s.99-.94,1.53-.94c.68,0,1.2.17,1.56.51s.54,1.24.54,2.71c0,1.11-.33,3.27-1,6.47,2.54-5.95,5.38-8.93,8.51-8.93,2.72,0,4.31,2.14,4.78,6.42.47,4.36,1.01,6.54,1.62,6.54.27,0,.58-.06.93-.18.42-.14.76-.21,1-.21.56,0,.84.33.84.98,0,.6-.39,1.23-1.16,1.91s-1.75,1.01-2.92,1.01c-1.36,0-2.33-.59-2.92-1.78h.02Z"/>
      <path class="st5" d="M1207.42,377.61c-3.04,4.3-6.09,6.45-9.16,6.45-1.24,0-2.24-.49-3.01-1.47s-1.14-2.22-1.14-3.74c0-3.06,1.25-6.1,3.75-9.12s5.04-4.54,7.6-4.54c1.48,0,2.53.39,3.15,1.16.88-3.84,1.4-6.25,1.56-7.21.35-1.78.64-2.96.88-3.55s.59-1.04,1.07-1.36.9-.48,1.25-.48c.6,0,1.05.25,1.37.74s.47,1.11.47,1.86c0,.33-.26,1.27-.77,2.83-.84,2.53-1.63,5.59-2.35,9.18s-1.08,6.44-1.08,8.56.45,3.04,1.34,3.04c.46,0,.94-.12,1.46-.37.52-.23.88-.35,1.09-.35.57,0,.86.33.86,1,0,.81-.58,1.61-1.75,2.42s-2.27,1.2-3.31,1.2c-1.12,0-1.99-.6-2.6-1.81s-.84-2.69-.69-4.45ZM1205.47,368.6c-1.54,0-3.14,1.17-4.81,3.52s-2.5,4.49-2.5,6.43c0,1.14.42,1.71,1.27,1.71,1.43,0,3.13-1.27,5.12-3.81s2.97-4.55,2.97-6.03c0-.45-.19-.86-.56-1.24s-.87-.57-1.48-.57Z"/>
      <path class="st5" d="M1225.9,369.21c-.11,0-.44,1.31-.99,3.92s-.83,4.2-.83,4.75c0,.96.1,1.63.31,2.01s.54.57,1.01.57c.66,0,1.29-.11,1.89-.34s1.4-.74,2.38-1.54c.61-.5,1.12-.76,1.55-.76.34,0,.61.1.82.29s.31.42.31.68c0,1.03-.83,2.2-2.5,3.51s-3.42,1.96-5.27,1.96c-1.55,0-2.73-.46-3.54-1.37s-1.22-2.23-1.22-3.94c0-1.58.59-4.74,1.78-9.47-.75.08-1.27.12-1.56.12h-.37c-.54,0-1.09-.18-1.64-.53s-.83-.91-.83-1.69c0-.98.56-1.48,1.67-1.48l3.76-.14c.49-1.42,1.01-3.28,1.56-5.57.33-1.43,1.07-2.14,2.23-2.14.64,0,1.15.2,1.51.59s.54.83.54,1.31c0,.19-.5,2-1.49,5.43,3.73-.33,5.77-.49,6.13-.49.62,0,1.03.09,1.23.27s.3.53.3,1.05c0,1.04-.88,1.71-2.65,1.99l-6.06,1.02Z"/>
      <path class="st5" d="M1237.41,383.15c-1.29,0-1.93-.71-1.93-2.14,0-.54.26-1.16.79-1.86s1.1-1.05,1.71-1.05c.4,0,.9.19,1.49.58s.9.71.9.98l-.18,1.09c-.11.77-.49,1.37-1.14,1.78s-1.2.62-1.63.62ZM1239.91,375.07c-1.17,0-2.08-.24-2.72-.72-.19-2.29-.02-4.63.49-7.05.57-2.61.86-4.57.86-5.87,0-.13.06-.62.18-1.47s.5-1.5,1.12-1.94,1.15-.67,1.58-.67c.47,0,.92.17,1.34.52s.64.72.64,1.13c0,.33-.24,1.54-.71,3.65s-.95,4.04-1.42,5.81c-.49,1.84-.75,3.31-.77,4.41-.02.83-.22,1.56-.6,2.2Z"/>
      <path class="st5" d="M912.78,461.92c-.29,2.72-.44,4.9-.44,6.54,0,.64-.19,1.22-.58,1.72s-.91.76-1.58.76c-1.44,0-2.16-.84-2.16-2.51,0-.93.34-4.05,1.02-9.39.55-4.31.83-6.88.83-7.72,0-.95-.04-1.49-.12-1.62-.76-.39-1.14-1.08-1.14-2.09s1.59-1.84,4.76-2.58,5.89-1.1,8.16-1.1c2.65,0,4.76.54,6.33,1.63s2.36,2.56,2.36,4.41c0,2.67-1.44,5.02-4.32,7.04s-6.39,3.45-10.51,4.3c-1.51.32-2.37.52-2.58.6ZM914.34,448.72l-1.04,9.25c3.38-.56,6.34-1.56,8.89-3s3.83-2.97,3.83-4.61c0-1.96-1.55-2.94-4.64-2.94-2.14,0-4.49.43-7.05,1.3Z"/>
      <path class="st5" d="M943.4,463.45c-1.12,2.05-2.43,3.68-3.91,4.89s-2.99,1.81-4.51,1.81c-.9,0-1.81-.47-2.73-1.42s-1.38-2.41-1.38-4.38c0-1.39.35-3.5,1.05-6.31.61-2.32.91-4.08.91-5.29.47-.98,1.2-1.48,2.2-1.48.68,0,1.22.23,1.63.68s.61.91.61,1.36c0,.83-.29,2.02-.88,3.55-.34.91-.71,2.21-1.1,3.88s-.59,2.74-.59,3.21c0,1.56.32,2.34.97,2.34,1.02,0,2.4-.98,4.13-2.94s2.87-3.96,3.39-6.01c.53-2,1-3.32,1.41-3.94s.99-.93,1.74-.93c1.22,0,1.83.68,1.83,2.04,0,.2-.1.6-.3,1.2-.69,2.07-1.04,4.41-1.04,7.01,0,3.05.52,4.87,1.55,5.47.34.2.51.45.51.74,0,.42-.3.82-.9,1.2s-1.17.56-1.71.56c-.93,0-1.64-.65-2.14-1.96s-.75-3.06-.75-5.26Z"/>
      <path class="st5" d="M965.29,463.45c-1.12,2.05-2.43,3.68-3.91,4.89-1.48,1.21-2.98,1.81-4.51,1.81-.9,0-1.81-.47-2.73-1.42s-1.38-2.41-1.38-4.38c0-1.39.35-3.5,1.05-6.31.61-2.32.91-4.08.91-5.29.47-.98,1.2-1.48,2.2-1.48.68,0,1.22.23,1.63.68s.61.91.61,1.36c0,.83-.29,2.02-.88,3.55-.34.91-.71,2.21-1.1,3.88s-.59,2.74-.59,3.21c0,1.56.32,2.34.97,2.34,1.02,0,2.4-.98,4.13-2.94,1.73-1.96,2.87-3.96,3.39-6.01.53-2,1-3.32,1.41-3.94s.99-.93,1.74-.93c1.22,0,1.83.68,1.83,2.04,0,.2-.1.6-.3,1.2-.69,2.07-1.04,4.41-1.04,7.01,0,3.05.52,4.87,1.55,5.47.34.2.51.45.51.74,0,.42-.3.82-.9,1.2s-1.17.56-1.71.56c-.93,0-1.64-.65-2.14-1.96s-.75-3.06-.75-5.26Z"/>
      <path class="st5" d="M978.79,461.78c1.95-3.64,3.62-6.13,5.04-7.44s2.84-1.98,4.28-1.98c1,0,1.83.34,2.49,1.03s1.15,2.47,1.45,5.35c.13,1.37.29,2.48.49,3.32s.42,1.59.67,2.24.6,1.26,1.05,1.84c.35.46.53.9.53,1.32s-.2.81-.61,1.16-.87.53-1.4.53c-1.04,0-1.97-.57-2.78-1.71s-1.29-2.71-1.44-4.71c-.19-2.45-.39-4.01-.61-4.69s-.58-1.02-1.08-1.02c-.68,0-2,1.36-3.96,4.07s-3.38,4.88-4.25,6.51c-.54,1.23-.96,2.03-1.25,2.39s-.66.54-1.09.54c-.71,0-1.29-.18-1.74-.53s-.67-.85-.67-1.49c0-.32.16-1.31.47-2.97,1.2-6.29,2.17-12.99,2.94-20.09.19-1.71.55-2.89,1.08-3.54s1.02-.98,1.47-.98c.62,0,1.16.24,1.62.72s.69,1.15.69,2c0,1.31-.16,2.82-.47,4.54s-.91,4.44-1.78,8.19c-.53,2.26-.91,4.06-1.14,5.4Z"/>
      <path class="st5" d="M1009.3,464c-3.08,4.07-6.06,6.1-8.93,6.1-1.05,0-1.96-.42-2.72-1.25s-1.14-1.89-1.14-3.18c0-3.11,1.38-6.41,4.15-9.92s5.55-5.26,8.37-5.26c1.43,0,2.37.72,2.81,2.16,1.35,0,2.02.52,2.02,1.55,0,.49-.13,1.38-.39,2.67-.47,2.41-.7,4.34-.7,5.78s.1,2.55.31,3.16.35,1.01.45,1.2.38.39.84.6c.47.22.7.53.7.93,0,.6-.3,1.1-.91,1.49s-1.23.6-1.89.6c-2.2,0-3.19-2.21-2.97-6.63ZM1008.25,454.24c-1.18,0-2.72,1.31-4.61,3.93s-2.84,4.84-2.84,6.67c0,.96.2,1.44.6,1.44,1.38,0,3.08-1.23,5.11-3.68s3.03-4.6,3.03-6.44c0-.59-.13-1.05-.4-1.4s-.56-.52-.89-.52Z"/>
      <path class="st5" d="M1018.74,472.15c.54-.09,1.31-.38,2.31-.87s1.64-1.11,1.92-1.86.41-1.15.41-1.19c0-1.01-.12-1.68-.35-2.02-.22-.34-.33-.64-.33-.91,0-.33.13-.69.39-1.1s.58-.61.97-.61.92.13,1.57.4,1.03.51,1.12.71.25.66.45,1.35.3,1.31.3,1.84c0,.22-.24.89-.73,2s-1.12,1.96-1.91,2.53-1.56.93-2.34,1.07c-.15.02-.27.05-.35.07-1.32.48-2.21.72-2.67.72-.77,0-1.16-.43-1.16-1.28,0-.3.13-.59.4-.86Z"/>
      <path class="st5" d="M1053.23,465.42c-.05-.63-1.05-1.41-3.02-2.32-2.41-1.16-3.96-2.16-4.62-3s-1-1.75-1-2.73c0-2.07,1.16-3.89,3.49-5.44s4.5-2.33,6.51-2.33,2.97.86,2.97,2.58c0,.46-.23.87-.68,1.23s-.83.54-1.15.54c-.13,0-.36-.08-.69-.25s-.58-.25-.76-.25c-1.04,0-2.19.35-3.45,1.05s-1.88,1.52-1.88,2.46c0,.46.22.9.67,1.33s1.35.96,2.72,1.61c2.03.96,3.36,1.83,4.01,2.6s.97,1.63.97,2.57c0,1.71-1.16,3.14-3.47,4.28s-4.91,1.71-7.8,1.71c-2.12,0-3.18-.77-3.18-2.3,0-.56.22-1.04.67-1.44s.94-.6,1.49-.6c.22,0,.57.08,1.04.25.47.18.9.26,1.3.26,1.1,0,2.26-.18,3.46-.53s2-.79,2.39-1.3Z"/>
      <path class="st5" d="M1072.18,464c-3.08,4.07-6.06,6.1-8.93,6.1-1.05,0-1.96-.42-2.72-1.25s-1.14-1.89-1.14-3.18c0-3.11,1.38-6.41,4.15-9.92s5.55-5.26,8.37-5.26c1.43,0,2.37.72,2.81,2.16,1.35,0,2.02.52,2.02,1.55,0,.49-.13,1.38-.39,2.67-.47,2.41-.7,4.34-.7,5.78s.1,2.55.31,3.16.35,1.01.45,1.2.38.39.84.6c.47.22.7.53.7.93,0,.6-.3,1.1-.91,1.49s-1.23.6-1.89.6c-2.2,0-3.19-2.21-2.97-6.63ZM1071.12,454.24c-1.18,0-2.72,1.31-4.61,3.93s-2.84,4.84-2.84,6.67c0,.96.2,1.44.6,1.44,1.38,0,3.08-1.23,5.11-3.68s3.03-4.6,3.03-6.44c0-.59-.13-1.05-.4-1.4s-.56-.52-.89-.52ZM1076.43,443.03c.25.57.37,1.08.37,1.53,0,1.17-.58,2.25-1.73,3.23s-2.36,1.48-3.61,1.48-2.33-.42-3.17-1.26-1.26-1.85-1.26-3.03c0-1.05.52-2.08,1.57-3.08s2.45-1.49,4.19-1.49c.43,0,1.08.2,1.94.61s1.43,1.08,1.7,2.03v-.02ZM1071.25,443.1c-.22.02-.43.25-.62.69s-.28.87-.28,1.32c0,.4.15.81.45,1.24s.57.64.82.64c.09,0,.45-.14,1.06-.42s.92-.9.92-1.85c0-.06-.02-.16-.05-.3-.05-.14-.09-.29-.12-.46l-.12-.42c-.05-.13-.07-.21-.07-.25,0-.09-.17-.17-.5-.23s-.57-.09-.71-.09c-.28,0-.54.04-.77.12Z"/>
      <path class="st5" d="M1097.37,452.82c1.14-6.74,1.95-10.73,2.45-11.97s1.37-1.86,2.61-1.86c.96,0,1.44.85,1.44,2.55,0,1.16-.48,3.57-1.44,7.22-.5,1.8-1.11,4.54-1.83,8.19,1.45-1.93,3.04-3.5,4.75-4.69s3.25-1.79,4.6-1.79c1.1,0,2.02.47,2.75,1.42s1.1,2.05,1.1,3.33c0,3.61-1.39,7-4.16,10.18s-5.72,4.76-8.83,4.76c-.94,0-1.81-.25-2.62-.76s-1.27-1.16-1.37-1.96c-.05-.43-.13-.72-.26-.86s-.26-.29-.4-.46c-.34-.35-.51-.84-.51-1.48,0-.73.18-2.24.54-4.54l1.18-7.28ZM1099.44,465.3c.49.82,1.04,1.23,1.65,1.23,1.1,0,2.32-.51,3.67-1.52s2.51-2.44,3.5-4.28,1.49-3.37,1.49-4.59-.18-1.74-.54-1.74c-1.86,0-3.96,1.36-6.28,4.09s-3.48,5-3.48,6.81Z"/>
      <path class="st5" d="M1132.22,463.84c0,1.22-1.03,2.67-3.08,4.37s-4.37,2.54-6.94,2.54c-1.98,0-3.54-.62-4.68-1.87s-1.71-2.99-1.71-5.21c0-3.28,1.16-6.36,3.48-9.23s4.8-4.31,7.44-4.31c1.31,0,2.37.42,3.16,1.25s1.2,1.82,1.2,2.97c0,2.04-.98,3.98-2.94,5.83s-4.46,3.12-7.52,3.82c-.35.08-.53.29-.53.63,0,.56.25,1.1.75,1.61s1.16.76,2,.76c2.36,0,4.69-1.21,7.01-3.64.45-.47.88-.7,1.3-.7.7,0,1.05.39,1.05,1.18ZM1120.43,460.73c1.85-.38,3.48-1.17,4.9-2.37s2.12-2.3,2.12-3.29c0-.39-.11-.71-.33-.98s-.5-.4-.83-.4c-1.02,0-2.15.75-3.39,2.25s-2.06,3.09-2.46,4.78Z"/>
      <path class="st5" d="M1139.13,461.78c1.95-3.64,3.62-6.13,5.04-7.44s2.84-1.98,4.28-1.98c1,0,1.83.34,2.49,1.03s1.15,2.47,1.45,5.35c.13,1.37.29,2.48.49,3.32s.42,1.59.67,2.24.6,1.26,1.05,1.84c.35.46.53.9.53,1.32s-.2.81-.61,1.16-.87.53-1.4.53c-1.04,0-1.97-.57-2.78-1.71s-1.29-2.71-1.44-4.71c-.19-2.45-.39-4.01-.61-4.69s-.58-1.02-1.08-1.02c-.68,0-2,1.36-3.96,4.07s-3.38,4.88-4.25,6.51c-.54,1.23-.96,2.03-1.25,2.39s-.66.54-1.09.54c-.71,0-1.29-.18-1.74-.53s-.67-.85-.67-1.49c0-.32.16-1.31.47-2.97,1.2-6.29,2.17-12.99,2.94-20.09.19-1.71.55-2.89,1.08-3.54s1.02-.98,1.47-.98c.62,0,1.16.24,1.62.72s.69,1.15.69,2c0,1.31-.16,2.82-.47,4.54s-.91,4.44-1.78,8.19c-.53,2.26-.91,4.06-1.14,5.4Z"/>
      <path class="st5" d="M1173.06,453.47c1.22,1.96,1.83,3.7,1.83,5.24,0,2.25-.68,4.4-2.03,6.44s-2.93,3.49-4.74,4.32-3.46,1.26-4.96,1.26c-.45,0-.88-.05-1.3-.16-.88,1.51-1.62,2.27-2.21,2.27-.49,0-.92-.16-1.28-.49s-.54-.69-.54-1.07.32-1.2.97-2.43c-1.07-1.43-1.6-3-1.6-4.71,0-3.61.97-6.73,2.91-9.37s4.5-3.96,7.69-3.96c.7,0,1.48.15,2.34.46l.46-.54c.64-.82,1.26-1.23,1.85-1.23.42,0,.81.25,1.18.75s.54.95.54,1.34c0,.15-.09.37-.28.65-.2.29-.47.7-.81,1.23ZM1164.71,455.08c-.71.59-1.56,1.82-2.55,3.7s-1.38,3.41-1.18,4.58l.28,1.62c1.04-1.51,2.89-4.38,5.55-8.61l1.34-2.11c-1.59,0-2.74.28-3.43.83h-.02ZM1170.54,456.91c-2.33,3.3-3.62,5.19-3.85,5.66-.67,1.28-1.52,2.61-2.57,4.01l-.16.42c2.29-.4,4.01-1.44,5.18-3.14s1.75-3.3,1.75-4.81c0-.11-.05-.47-.16-1.09l-.19-1.05Z"/>
      <path class="st5" d="M1181.13,469.71c.01-.77-.45-2.44-1.39-4.99-1.89-5.05-2.83-8.65-2.83-10.79,0-1.92.76-2.88,2.27-2.88s2.21.88,2.21,2.64c0,1.12.03,1.92.08,2.4s.23,1.34.54,2.58.62,2.29.92,3.12c.18.5.39,1.16.63,1.97.14.5.26.86.37,1.05.07-.11.32-.56.74-1.37.25-.49,1.08-1.89,2.5-4.19s2.66-4.14,3.74-5.51,1.87-2.21,2.4-2.51,1.08-.46,1.67-.46,1.11.2,1.5.6.59.88.59,1.46c0,.68-.49,1.35-1.48,2-.96.66-2.27,2.16-3.93,4.5s-3.44,5.29-5.35,8.84c-1.08,2.03-2.04,3.04-2.9,3.04-.74,0-1.5-.5-2.29-1.49Z"/>
      <path class="st5" d="M1213.21,463.84c0,1.22-1.03,2.67-3.08,4.37s-4.37,2.54-6.94,2.54c-1.98,0-3.54-.62-4.68-1.87s-1.71-2.99-1.71-5.21c0-3.28,1.16-6.36,3.48-9.23s4.8-4.31,7.44-4.31c1.31,0,2.37.42,3.16,1.25s1.2,1.82,1.2,2.97c0,2.04-.98,3.98-2.94,5.83s-4.46,3.12-7.52,3.82c-.35.08-.53.29-.53.63,0,.56.25,1.1.75,1.61s1.16.76,2,.76c2.36,0,4.69-1.21,7.01-3.64.45-.47.88-.7,1.3-.7.7,0,1.05.39,1.05,1.18ZM1201.41,460.73c1.85-.38,3.48-1.17,4.9-2.37s2.12-2.3,2.12-3.29c0-.39-.11-.71-.33-.98s-.5-.4-.83-.4c-1.02,0-2.15.75-3.39,2.25s-2.06,3.09-2.46,4.78Z"/>
      <path class="st5" d="M1220.52,461.17l.3-.56c1.42-2.85,2.94-5.16,4.58-6.93s3.23-2.66,4.79-2.66c1.2,0,2.17.33,2.93.98s1.13,1.44,1.13,2.34c0,.56-.13,1.05-.39,1.45s-.62.61-1.07.61c-.73,0-1.39-.3-1.99-.9-.42-.39-.76-.58-1-.58-.88,0-2.35,1.37-4.41,4.1s-3.3,5.8-3.73,9.21c-.13.98-.42,1.67-.86,2.07s-1.05.59-1.81.59c-.81,0-1.38-.46-1.72-1.38s-.51-2.42-.51-4.51c0-.86.02-2.01.07-3.46.05-1.37.18-3.05.4-5.03.06-.52.1-.92.12-1.21.11-1.15.23-1.94.36-2.36s.45-.83.94-1.2,1.04-.56,1.63-.56c.63,0,1.11.18,1.44.54s.49.76.49,1.2c0,.55-.26,1.69-.79,3.43-.19.6-.35,1.31-.47,2.14l-.44,2.71Z"/>
      <path class="st5" d="M1261.21,464.01c-3.04,4.3-6.09,6.45-9.16,6.45-1.24,0-2.24-.49-3.01-1.47s-1.14-2.22-1.14-3.74c0-3.06,1.25-6.1,3.75-9.12s5.04-4.54,7.6-4.54c1.48,0,2.53.39,3.15,1.16.88-3.84,1.4-6.25,1.56-7.21.35-1.78.64-2.96.88-3.55s.59-1.04,1.07-1.36.9-.48,1.25-.48c.6,0,1.05.25,1.37.74s.47,1.11.47,1.86c0,.33-.26,1.27-.77,2.83-.84,2.53-1.63,5.59-2.35,9.18s-1.08,6.44-1.08,8.56.45,3.04,1.34,3.04c.46,0,.94-.12,1.46-.37.52-.23.88-.35,1.09-.35.57,0,.86.33.86,1,0,.81-.58,1.61-1.75,2.42s-2.27,1.2-3.31,1.2c-1.12,0-1.99-.6-2.6-1.81s-.84-2.69-.69-4.45ZM1259.26,455c-1.54,0-3.14,1.17-4.81,3.52s-2.5,4.49-2.5,6.43c0,1.14.42,1.71,1.27,1.71,1.43,0,3.13-1.27,5.12-3.81s2.97-4.55,2.97-6.03c0-.45-.19-.86-.56-1.24s-.87-.57-1.48-.57Z"/>
      <path class="st5" d="M1284.89,463.45c-1.12,2.05-2.43,3.68-3.91,4.89s-2.99,1.81-4.51,1.81c-.9,0-1.81-.47-2.73-1.42s-1.38-2.41-1.38-4.38c0-1.39.35-3.5,1.05-6.31.61-2.32.91-4.08.91-5.29.47-.98,1.2-1.48,2.2-1.48.68,0,1.22.23,1.63.68s.61.91.61,1.36c0,.83-.29,2.02-.88,3.55-.34.91-.71,2.21-1.1,3.88s-.59,2.74-.59,3.21c0,1.56.32,2.34.97,2.34,1.02,0,2.4-.98,4.13-2.94s2.87-3.96,3.39-6.01c.53-2,1-3.32,1.41-3.94s.99-.93,1.74-.93c1.22,0,1.83.68,1.83,2.04,0,.2-.1.6-.3,1.2-.69,2.07-1.04,4.41-1.04,7.01,0,3.05.52,4.87,1.55,5.47.34.2.51.45.51.74,0,.42-.3.82-.9,1.2s-1.17.56-1.71.56c-.93,0-1.64-.65-2.14-1.96s-.75-3.06-.75-5.26Z"/>
      <path class="st5" d="M1323.56,467.32c-.56-1.05-.97-3.02-1.23-5.91-.26-3-.83-4.5-1.72-4.5-.84,0-2.3,1.56-4.38,4.68s-3.35,5.43-3.83,6.92c-.11.45-.3.81-.59,1.11s-.57.44-.85.44c-1.78,0-2.67-.81-2.67-2.44,0-.55.18-1.8.53-3.76.46-2.53.69-5.62.69-9.28,0-.55.24-1.14.72-1.77s.99-.94,1.53-.94c.68,0,1.2.17,1.56.51s.54,1.24.54,2.71c0,1.11-.33,3.27-1,6.47,2.54-5.95,5.38-8.93,8.51-8.93,2.72,0,4.31,2.14,4.78,6.42.47,4.36,1.01,6.54,1.62,6.54.27,0,.58-.06.93-.18.42-.14.76-.21,1-.21.56,0,.84.33.84.98,0,.6-.39,1.23-1.16,1.91s-1.75,1.01-2.92,1.01c-1.36,0-2.33-.59-2.92-1.78h.02Z"/>
      <path class="st5" d="M1349.21,460.97c-.79,2.74-2.28,5.05-4.47,6.93s-4.39,2.82-6.58,2.82c-1.73,0-3.16-.64-4.29-1.91s-1.69-2.83-1.69-4.68c0-3.02,1.03-6,3.09-8.93s4.56-4.39,7.51-4.39c2,0,3.63.74,4.87,2.22s1.86,3.25,1.86,5.3c0,.89-.1,1.76-.3,2.62v.02ZM1340.07,455.42c-.82.73-1.62,1.89-2.41,3.48s-1.18,3.19-1.18,4.8c0,.97.18,1.78.54,2.41s.83.95,1.42.95c1.45,0,2.96-.86,4.54-2.58s2.36-3.66,2.36-5.8c0-1.21-.25-2.2-.76-2.98s-1.22-1.17-2.14-1.17-1.65.3-2.34.9h-.02Z"/>
      <path class="st5" d="M1369.2,455.21h.02l-.04.04c-.68.38-1.23.7-1.65.98-.79.53-1.58,1.1-2.37,1.71-.91.7-1.6,1.29-2.06,1.78-.39.4-.58.69-.58.88,0,.21.69,1.03,2.06,2.47s2.46,2.46,3.26,3.08,1.6.93,2.38.93l.77-.02c.28,0,.51.08.68.25s.25.42.25.76c0,.48-.3,1.04-.9,1.67s-1.62.95-3.08.95c-.86,0-1.72-.31-2.6-.94s-2.23-2.04-4.04-4.25c-1.45-1.77-2.24-2.65-2.37-2.65-.08,0-.33.21-.74.63s-.68.74-.81.97v.02c-.2.97-.3,2.24-.3,3.81,0,.79-.23,1.42-.69,1.92s-1.03.74-1.7.74-1.23-.2-1.62-.59-.58-.79-.58-1.19c0-.42.15-1.35.44-2.78.56-2.78,1.04-6.46,1.42-11.06.38-3.67.7-6.53.98-8.59s.53-3.4.76-4.04.57-1.15,1.04-1.53.97-.57,1.51-.57.93.21,1.24.64.47.95.47,1.56c0,.76-.49,3.74-1.48,8.93l-.42,2.3h.02c-.52,3.39-.78,5.34-.79,5.87l5.4-4.89c2.75-2.66,4.78-3.99,6.06-3.99s1.86.5,1.86,1.49c0,1.24-.6,2.14-1.81,2.69Z"/>
      <path class="st5" d="M1389.74,458.21v.02c.38-2.13.56-3.35.56-3.66,0-.87.19-1.59.57-2.18s.91-.88,1.59-.88c.8,0,1.42.19,1.86.56s.67.8.67,1.27-.22,1.44-.65,2.9l-.11.39c-.64,2.26-1.03,4.11-1.16,5.54s-.19,2.58-.19,3.46c0,.71.12,1.67.37,2.87.04.21.05.39.05.53,0,.27-.25.63-.76,1.09s-1.06.69-1.64.69c-1.55,0-2.32-1.17-2.32-3.52,0-1.99.28-4.42.84-7.28.12-.63.22-1.23.32-1.79ZM1398.23,443.76c0,.83-.38,1.56-1.12,2.19s-1.4.94-1.95.94c-.7,0-1.33-.29-1.87-.88s-.82-1.17-.82-1.76c0-.84.27-1.53.81-2.05s1.31-.78,2.32-.78c.79,0,1.42.23,1.91.69s.73,1.01.73,1.64Z"/>
      <path class="st5" d="M1415.14,455.21h.02l-.04.04c-.68.38-1.23.7-1.65.98-.79.53-1.58,1.1-2.37,1.71-.91.7-1.6,1.29-2.06,1.78-.39.4-.58.69-.58.88,0,.21.69,1.03,2.06,2.47s2.46,2.46,3.26,3.08,1.6.93,2.38.93l.77-.02c.28,0,.51.08.68.25s.25.42.25.76c0,.48-.3,1.04-.9,1.67s-1.62.95-3.08.95c-.86,0-1.72-.31-2.6-.94s-2.23-2.04-4.04-4.25c-1.45-1.77-2.24-2.65-2.37-2.65-.08,0-.33.21-.74.63s-.68.74-.81.97v.02c-.2.97-.3,2.24-.3,3.81,0,.79-.23,1.42-.69,1.92s-1.03.74-1.7.74-1.23-.2-1.62-.59-.58-.79-.58-1.19c0-.42.15-1.35.44-2.78.56-2.78,1.04-6.46,1.42-11.06.38-3.67.7-6.53.98-8.59s.53-3.4.76-4.04.57-1.15,1.04-1.53.97-.57,1.51-.57.93.21,1.24.64.47.95.47,1.56c0,.76-.49,3.74-1.48,8.93l-.42,2.3h.02c-.52,3.39-.78,5.34-.79,5.87l5.4-4.89c2.75-2.66,4.78-3.99,6.06-3.99s1.86.5,1.86,1.49c0,1.24-.6,2.14-1.81,2.69Z"/>
      <path class="st5" d="M1436.36,455.21h.02l-.04.04c-.68.38-1.23.7-1.65.98-.79.53-1.58,1.1-2.37,1.71-.91.7-1.6,1.29-2.06,1.78-.39.4-.58.69-.58.88,0,.21.69,1.03,2.06,2.47s2.46,2.46,3.26,3.08,1.6.93,2.38.93l.77-.02c.28,0,.51.08.68.25s.25.42.25.76c0,.48-.3,1.04-.9,1.67s-1.62.95-3.08.95c-.86,0-1.72-.31-2.6-.94s-2.23-2.04-4.04-4.25c-1.45-1.77-2.24-2.65-2.37-2.65-.08,0-.33.21-.74.63s-.68.74-.81.97v.02c-.2.97-.3,2.24-.3,3.81,0,.79-.23,1.42-.69,1.92s-1.03.74-1.7.74-1.23-.2-1.62-.59-.58-.79-.58-1.19c0-.42.15-1.35.44-2.78.56-2.78,1.04-6.46,1.42-11.06.38-3.67.7-6.53.98-8.59s.53-3.4.76-4.04.57-1.15,1.04-1.53.97-.57,1.51-.57.93.21,1.24.64.47.95.47,1.56c0,.76-.49,3.74-1.48,8.93l-.42,2.3h.02c-.52,3.39-.78,5.34-.79,5.87l5.4-4.89c2.75-2.66,4.78-3.99,6.06-3.99s1.86.5,1.86,1.49c0,1.24-.6,2.14-1.81,2.69Z"/>
      <path class="st5" d="M1457,463.84c0,1.22-1.03,2.67-3.08,4.37s-4.37,2.54-6.94,2.54c-1.98,0-3.54-.62-4.68-1.87s-1.71-2.99-1.71-5.21c0-3.28,1.16-6.36,3.48-9.23s4.8-4.31,7.44-4.31c1.31,0,2.37.42,3.16,1.25s1.2,1.82,1.2,2.97c0,2.04-.98,3.98-2.94,5.83s-4.46,3.12-7.52,3.82c-.35.08-.53.29-.53.63,0,.56.25,1.1.75,1.61s1.16.76,2,.76c2.36,0,4.69-1.21,7.01-3.64.45-.47.88-.7,1.3-.7.7,0,1.05.39,1.05,1.18ZM1445.2,460.73c1.85-.38,3.48-1.17,4.9-2.37s2.12-2.3,2.12-3.29c0-.39-.11-.71-.33-.98s-.5-.4-.83-.4c-1.02,0-2.15.75-3.39,2.25s-2.06,3.09-2.46,4.78Z"/>
      <path class="st5" d="M1486.35,464c-3.08,4.07-6.06,6.1-8.93,6.1-1.05,0-1.96-.42-2.72-1.25s-1.14-1.89-1.14-3.18c0-3.11,1.38-6.41,4.15-9.92s5.55-5.26,8.37-5.26c1.43,0,2.37.72,2.81,2.16,1.35,0,2.02.52,2.02,1.55,0,.49-.13,1.38-.39,2.67-.47,2.41-.7,4.34-.7,5.78s.1,2.55.31,3.16.35,1.01.45,1.2.38.39.84.6c.47.22.7.53.7.93,0,.6-.3,1.1-.91,1.49s-1.23.6-1.89.6c-2.2,0-3.19-2.21-2.97-6.63ZM1485.3,454.24c-1.18,0-2.72,1.31-4.61,3.93s-2.84,4.84-2.84,6.67c0,.96.2,1.44.6,1.44,1.38,0,3.08-1.23,5.11-3.68s3.03-4.6,3.03-6.44c0-.59-.13-1.05-.4-1.4s-.56-.52-.89-.52Z"/>
      <path class="st5" d="M1502.54,455.61c-.11,0-.44,1.31-.99,3.92s-.83,4.2-.83,4.75c0,.96.1,1.63.31,2.01s.54.57,1.01.57c.66,0,1.29-.11,1.89-.34s1.4-.74,2.38-1.54c.61-.5,1.12-.76,1.55-.76.34,0,.61.1.82.29s.31.42.31.68c0,1.03-.83,2.2-2.5,3.51s-3.42,1.96-5.27,1.96c-1.55,0-2.73-.46-3.54-1.37s-1.22-2.23-1.22-3.94c0-1.58.59-4.74,1.78-9.47-.75.08-1.27.12-1.56.12h-.37c-.54,0-1.09-.18-1.64-.53s-.83-.91-.83-1.69c0-.98.56-1.48,1.67-1.48l3.76-.14c.49-1.42,1.01-3.28,1.56-5.57.33-1.43,1.07-2.14,2.23-2.14.64,0,1.15.2,1.51.59s.54.83.54,1.31c0,.19-.5,2-1.49,5.43,3.73-.33,5.77-.49,6.13-.49.62,0,1.03.09,1.23.27s.3.53.3,1.05c0,1.04-.88,1.71-2.65,1.99l-6.06,1.02Z"/>
      <path class="st5" d="M1538.61,464.51c-1.3,1.46-2.82,2.67-4.54,3.61s-3.22,1.42-4.47,1.42-2.21-.36-2.89-1.09-1.03-1.73-1.03-3.01c0-1.82.69-3.84,2.07-6.06s3.29-4.16,5.73-5.81,4.64-2.47,6.6-2.47c1.08,0,2.01.29,2.79.88.19.14.35.26.49.35.28.2.54.57.78,1.1s.36.96.36,1.29c0,.21-.22.92-.67,2.13-.46,1.25-.78,2.47-.96,3.65s-.54,4.12-1.08,8.82c-.48,4.09-1.62,7.08-3.43,8.96s-3.81,2.83-6.01,2.83-4.55-.78-6.72-2.33-3.26-2.83-3.26-3.84c0-.89.43-1.34,1.3-1.34.34,0,1.03.34,2.07,1.02,2.67,1.76,4.96,2.64,6.87,2.64,1.45,0,2.67-.91,3.66-2.73s1.76-5.16,2.34-10.01ZM1539.04,454.73c-.87,0-2,.52-3.41,1.56s-2.71,2.43-3.9,4.19-1.79,3.22-1.79,4.38c0,.61.22.91.67.91,1.51,0,3.01-.61,4.5-1.84s2.69-2.63,3.61-4.23,1.38-2.8,1.38-3.62c0-.41-.11-.74-.32-.98s-.46-.37-.74-.37Z"/>
      <path class="st5" d="M1562.62,453.47c1.22,1.96,1.83,3.7,1.83,5.24,0,2.25-.68,4.4-2.03,6.44s-2.93,3.49-4.74,4.32-3.46,1.26-4.96,1.26c-.45,0-.88-.05-1.3-.16-.88,1.51-1.62,2.27-2.21,2.27-.49,0-.92-.16-1.28-.49s-.54-.69-.54-1.07.32-1.2.97-2.43c-1.07-1.43-1.6-3-1.6-4.71,0-3.61.97-6.73,2.91-9.37s4.5-3.96,7.69-3.96c.7,0,1.48.15,2.34.46l.46-.54c.64-.82,1.26-1.23,1.85-1.23.42,0,.81.25,1.18.75s.54.95.54,1.34c0,.15-.09.37-.28.65-.2.29-.47.7-.81,1.23ZM1554.28,455.08c-.71.59-1.56,1.82-2.55,3.7s-1.38,3.41-1.18,4.58l.28,1.62c1.04-1.51,2.89-4.38,5.55-8.61l1.34-2.11c-1.59,0-2.74.28-3.43.83h-.02ZM1560.11,456.91c-2.33,3.3-3.62,5.19-3.85,5.66-.67,1.28-1.52,2.61-2.57,4.01l-.16.42c2.29-.4,4.01-1.44,5.18-3.14s1.75-3.3,1.75-4.81c0-.11-.05-.47-.16-1.09l-.19-1.05Z"/>
      <path class="st5" d="M1571.85,461.17l.3-.56c1.42-2.85,2.94-5.16,4.58-6.93s3.23-2.66,4.79-2.66c1.2,0,2.17.33,2.93.98s1.13,1.44,1.13,2.34c0,.56-.13,1.05-.39,1.45s-.62.61-1.07.61c-.73,0-1.39-.3-1.99-.9-.42-.39-.76-.58-1-.58-.88,0-2.35,1.37-4.41,4.1s-3.3,5.8-3.73,9.21c-.13.98-.42,1.67-.86,2.07s-1.05.59-1.81.59c-.81,0-1.38-.46-1.72-1.38s-.51-2.42-.51-4.51c0-.86.02-2.01.07-3.46.05-1.37.18-3.05.4-5.03.06-.52.1-.92.12-1.21.11-1.15.23-1.94.36-2.36s.45-.83.94-1.2,1.04-.56,1.63-.56c.63,0,1.11.18,1.44.54s.49.76.49,1.2c0,.55-.26,1.69-.79,3.43-.19.6-.35,1.31-.47,2.14l-.44,2.71Z"/>
      <path class="st5" d="M1601.63,463.84c0,1.22-1.03,2.67-3.08,4.37s-4.37,2.54-6.94,2.54c-1.98,0-3.54-.62-4.68-1.87s-1.71-2.99-1.71-5.21c0-3.28,1.16-6.36,3.48-9.23s4.8-4.31,7.44-4.31c1.31,0,2.37.42,3.16,1.25s1.2,1.82,1.2,2.97c0,2.04-.98,3.98-2.94,5.83s-4.46,3.12-7.52,3.82c-.35.08-.53.29-.53.63,0,.56.25,1.1.75,1.61s1.16.76,2,.76c2.36,0,4.69-1.21,7.01-3.64.45-.47.88-.7,1.3-.7.7,0,1.05.39,1.05,1.18ZM1589.84,460.73c1.85-.38,3.48-1.17,4.9-2.37s2.12-2.3,2.12-3.29c0-.39-.11-.71-.33-.98s-.5-.4-.83-.4c-1.02,0-2.15.75-3.39,2.25s-2.06,3.09-2.46,4.78Z"/>
      <path class="st5" d="M911.11,504.37l.3-.56c1.42-2.85,2.94-5.16,4.58-6.93s3.23-2.66,4.79-2.66c1.2,0,2.17.33,2.93.98s1.13,1.44,1.13,2.34c0,.56-.13,1.05-.39,1.45s-.62.61-1.07.61c-.73,0-1.39-.3-1.99-.9-.42-.39-.76-.58-1-.58-.88,0-2.35,1.37-4.41,4.1s-3.3,5.8-3.73,9.21c-.13.98-.42,1.67-.86,2.07s-1.05.59-1.81.59c-.81,0-1.38-.46-1.72-1.38s-.51-2.42-.51-4.51c0-.86.02-2.01.07-3.46.05-1.37.18-3.05.4-5.03.06-.52.1-.92.12-1.21.11-1.15.23-1.94.36-2.36s.45-.83.94-1.2,1.04-.56,1.63-.56c.63,0,1.11.18,1.44.54s.49.76.49,1.2c0,.55-.26,1.69-.79,3.43-.19.6-.35,1.31-.47,2.14l-.44,2.71Z"/>
      <path class="st5" d="M940.89,507.04c0,1.22-1.03,2.67-3.08,4.37s-4.37,2.54-6.94,2.54c-1.98,0-3.54-.62-4.68-1.87s-1.71-2.99-1.71-5.21c0-3.28,1.16-6.36,3.48-9.23s4.8-4.31,7.44-4.31c1.31,0,2.37.42,3.16,1.25s1.2,1.82,1.2,2.97c0,2.04-.98,3.98-2.94,5.83s-4.46,3.12-7.52,3.82c-.35.08-.53.29-.53.63,0,.56.25,1.1.75,1.61s1.16.76,2,.76c2.36,0,4.69-1.21,7.01-3.64.45-.47.88-.7,1.3-.7.7,0,1.05.39,1.05,1.18ZM929.09,503.93c1.85-.38,3.48-1.17,4.9-2.37s2.12-2.3,2.12-3.29c0-.39-.11-.71-.33-.98s-.5-.4-.83-.4c-1.02,0-2.15.75-3.39,2.25s-2.06,3.09-2.46,4.78Z"/>
      <path class="st5" d="M958.57,510.52c-.56-1.05-.97-3.02-1.23-5.91-.26-3-.83-4.5-1.72-4.5-.84,0-2.3,1.56-4.38,4.68s-3.35,5.43-3.83,6.92c-.11.45-.3.81-.59,1.11s-.57.44-.85.44c-1.78,0-2.67-.81-2.67-2.44,0-.55.18-1.8.53-3.76.46-2.53.69-5.62.69-9.28,0-.55.24-1.14.72-1.77s.99-.94,1.53-.94c.68,0,1.2.17,1.56.51s.54,1.24.54,2.71c0,1.11-.33,3.27-1,6.47,2.54-5.95,5.38-8.93,8.51-8.93,2.72,0,4.31,2.14,4.78,6.42.47,4.36,1.01,6.54,1.62,6.54.27,0,.58-.06.93-.18.42-.14.76-.21,1-.21.56,0,.84.33.84.98,0,.6-.39,1.23-1.16,1.91s-1.75,1.01-2.92,1.01c-1.36,0-2.33-.59-2.92-1.78h.02Z"/>
      <path class="st5" d="M974.78,498.81c-.11,0-.44,1.31-.99,3.92s-.83,4.2-.83,4.75c0,.96.1,1.63.31,2.01s.54.57,1.01.57c.66,0,1.29-.11,1.89-.34s1.4-.74,2.38-1.54c.61-.5,1.12-.76,1.55-.76.34,0,.61.1.82.29s.31.42.31.68c0,1.03-.83,2.2-2.5,3.51s-3.42,1.96-5.27,1.96c-1.55,0-2.73-.46-3.54-1.37s-1.22-2.23-1.22-3.94c0-1.58.59-4.74,1.78-9.47-.75.08-1.27.12-1.56.12h-.37c-.54,0-1.09-.18-1.64-.53s-.83-.91-.83-1.69c0-.98.56-1.48,1.67-1.48l3.76-.14c.49-1.42,1.01-3.28,1.56-5.57.33-1.43,1.07-2.14,2.23-2.14.64,0,1.15.2,1.51.59s.54.83.54,1.31c0,.19-.5,2-1.49,5.43,3.73-.33,5.77-.49,6.13-.49.62,0,1.03.09,1.23.27s.3.53.3,1.05c0,1.04-.88,1.71-2.65,1.99l-6.06,1.02Z"/>
      <path class="st5" d="M996.7,515.12c.52-.12,1.24-.36,2.18-.74s1.59-.95,1.96-1.71.55-1.23.55-1.38c0-1.16-.11-1.89-.32-2.2-.22-.3-.33-.6-.33-.9,0-.4.15-.79.44-1.16s.66-.56,1.09-.56c.52,0,.98.08,1.39.25s.69.35.83.54.32.7.54,1.53.33,1.52.33,2.06c0,.28-.23.96-.69,2.03s-1,1.8-1.62,2.19-1.5.85-2.65,1.39-2.12.81-2.91.81-1.12-.4-1.12-1.2c0-.29.12-.61.35-.95ZM1001.78,495.19v.02c.23-.16.54-.25.91-.25.2,0,.62.15,1.27.46h-.02c.82.3,1.32.64,1.5,1s.27.75.27,1.16c0,.6-.36,1.14-1.08,1.63s-1.5.74-2.33.74c-.48,0-.9-.25-1.27-.74s-.54-.98-.54-1.46c0-.28.14-.73.43-1.34s.57-1.02.85-1.22Z"/>
      <path class="st5" d="M1012.22,522.01c-.6,0-1.11-.18-1.55-.53s-.65-.72-.65-1.11c0-.54.72-1.71,2.16-3.5.95-1.14,1.88-2.89,2.8-5.26s1.38-3.83,1.38-4.39c0-1.98-.16-3.86-.47-5.64s-.89-3.69-1.75-5.72-1.57-3.53-2.15-4.48-1.63-2.13-3.16-3.52c-.28-.27-.42-.62-.42-1.05,0-.3.23-.65.69-1.03s.95-.57,1.47-.57c1.11,0,2.51,1.25,4.2,3.74s2.71,4.34,3.06,5.56c.12.41.26.85.42,1.32.73,2.17,1.22,3.91,1.49,5.23s.4,2.95.4,4.9c0,2.2-.38,4.28-1.13,6.23s-1.61,3.57-2.56,4.84c-1.01,1.34-1.61,2.18-1.79,2.53-.48.98-.89,1.64-1.24,1.97s-.75.49-1.2.49Z"/>
    </g>
    <path class="st2" d="M697.56,767.19s-25.69-112.8-109.54-79.91c13.34,32.04,22.31,60.19,23.9,91.86-36.05-13.74-46.36-13.52-46.36-13.52,0,0,27.63,98.69,25.64,127.57,4.78,4.58,4.33,18.02,26.29,25.49,8.81-12.25,6.77-31.07,6.77-31.07,0,0,28.88,36.5,60.55,36.65,7.92-20.24.4-41.03.4-41.03,0,0,23.1,32.27,71.3,46.41,0-54.97-25.05-117.79-58.95-162.45Z"/>
    <path class="st9" d="M641,711.55s42.02,18.17,64.85,62.04c-6.6,12.35-18.85,16.83-18.85,16.83,0,0-10.01-42.57-46.01-78.87Z"/>
    <path class="st9" d="M577.64,783.24l14.36,117.72s15.48,24.5,31.81,27.29c11.15-16.93,9.24-25.1,9.24-25.1,0,0,32.19,34.66,59.67,30.67,8.17-18.12,3.19-34.26,3.19-34.26,0,0,24.55,27.88,60.6,30.07-40.63-14.94-94.86-87.83-113.58-135.24-15.34-25.49-23.3-40.63-23.3-40.63,0,0-2.59,3.59-1.59,8.37s22.31,38.84,29.08,59.75,2.95,32.46-14.06,25.1c-17.01-7.37-55.42-63.74-55.42-63.74Z"/>
    <path class="st13" d="M539.62,622.16s41.33,4.54,112.73,67.73c-36.65-8.59-60.15-2.61-60.15-2.61,0,0,20.51,47.57,23.5,95.37-13.54-2.39-43.59-13.94-43.59-13.94,0,0,6.34,24.9,4.55,40.63s-77.33-137.83-77.33-137.83l40.28-49.36Z"/>
    <path class="st6" d="M517.71,690.24s3.78-21.71,12.75-29.48c9.56,5.78,33.46,26.52,33.46,26.52l-4.78,7.74s26.59,33.26,24.05,81.26c-13.89-11.08-17.08-18.12-37.59-25.29s-27.88-60.75-27.88-60.75Z"/>
    <path class="st9" d="M183.8,751.48s.02,89.03-16.93,137.03c-43.02-25.49-56.96-87.83-36.65-146.99s53.58,9.96,53.58,9.96Z"/>
    <path class="st6" d="M176.93,687.28s-55.77,55.54-26.69,112.7c17.33-9.96,29.88-37.44,29.88-37.44,0,0-3.98,44.41,5.58,53.78,9.56,9.36,37.84-91.62,37.84-91.62l-46.61-37.42Z"/>
    <path class="st13" d="M176.93,668.5s-58.6,16.95-55.89,107.97c15.06-12.95,27.9-29.48,27.9-29.48,0,0,11.86-38.41,27.99-59.72s0-18.77,0-18.77Z"/>
    <path class="st7" d="M623.67,427.73s22.11-69.91-39.44-123.09c-61.54-53.18-154.76-74.09-253.34-34.66-26.89,23.9-46.01,105.76-40.63,113.53-20.32-4.18-95,84.25-107.55,119.5-12.55,35.25-27.49,80.66-22.71,123.09s5.38,67.52,35.85,107.55c-7.77,31.07-20.91,106.36-22.71,120.7,10.16,14.94,1.79,27.49,154.16,121.89,78.87-45.41,74.09-43.32,84.85-45.41-1.2,9.86-15.54,63.93-15.54,63.93,0,0,123.68-69.61,196.58-90.82,18.52-53.78-80.37-232.43-80.37-232.43,0,0,22.71-15.66,37.34-49.36-35.85-11.59-87.24-25.93-87.24-25.93l160.73-168.5Z"/>
    <path class="st15" d="M453.5,592.84s-55.68,53.08-128.28,0c-72.6-53.08-65.13-59.95-65.13-59.95,0,0-17.41,79.93,66.32,132.35,74.92,46.9,127.7,5.57,139.82-2.39,27.52-18.09,52.13-50.49,52.13-50.49l-64.86-19.52Z"/>
    <path class="st15" d="M512.83,671.51s107.85,181.34,80.37,232.43c-47.5,13.15-199.89,98.59-199.89,98.59,0,0,13.76-43.02,18.84-71.7-18.53,7.36-83.05,51.98-83.05,51.98,0,0-149.08-74.39-155.95-128.46,2.09-12.36,3.12-30.38,5.38-42.72,8.07-44.07,17.33-77.98,17.33-77.98,0,0-9.86,52.28-8.96,75.88,8.07,23.3,36.45,103.07,140.41,110.54.6-22.71,2.99-87.83,2.99-87.83,0,0,17.13,62.44,19.32,86.04,112.13-7.77,233.47-108.15,163.22-246.77Z"/>
    <path class="st7" d="M287.27,370.57s-89.18-9.31-131.75,72.7c2.58-1.31,5.76-2.61,9.09-3.84,9.98-3.68,21.24-6.62,21.24-6.62,0,0-32.51,27.29-44.37,63.83,6.37-4.18,25.99-13.34,34.26-15.93-9.66,10.56-29.38,30.82-32.86,74.29,8.02-6.42,36.55-28.08,36.55-28.08l105.46-143.1,2.39-13.24Z"/>
    <path class="st12" d="M320.42,323.23s-90.81-24.31-151.45,61.06c25.94.17,50.27-4,120.97,2.95,7.78-24.74,12.8-36.65,30.48-64.02Z"/>
    <path class="st12" d="M355.84,279.85s-33.46-46.31-131.45,33.46c24.65-1.94,63.04,4.18,79.32,10.31,6.72-9.86,17.03-25.69,52.13-43.77Z"/>
    <path class="st15" d="M172.44,436.74s28.19-8.71,49.02-11.4c1.74-7.02,7.89-13.74,7.89-13.74,0,0-33.52,6.08-56.9,25.15Z"/>
    <path class="st15" d="M145.83,494.1s33.79-25.71,59.65-31.48c-6.08,7.08-5.3,15.74-5.3,15.74,0,0-29.42,3.68-54.35,15.74Z"/>
    <path class="st15" d="M142.88,555s15.78-28.98,37.74-42.12c-3.29,8.96-1.79,17.33-1.79,17.33,0,0-25.92,16.13-35.95,24.8Z"/>
    <path class="st12" d="M302.28,453.19s-4.17,24.53,9.6,42.74c-39.92-1.32-68.8,15.06-68.8,15.06,0,0,8.57-30.47,59.19-57.8Z"/>
    <path class="st12" d="M235.76,816.92s13.7,15.95,34.4,16.49c-9.78,17.57,11.26,57.9,11.26,57.9,0,0-42.49-25.1-45.66-74.39Z"/>
    <path class="st14" d="M361.96,633.47s15.59,30.47,31.35,4.78c-5.26,21.71-11.35,28.08-15.68,29.88s-17.47-1.79-15.68-34.66Z"/>
    <path class="st14" d="M295.84,563.36s-3.39,25.29,16.73,25.49c-13.15,11.35-35.25,10.36-16.73-25.49Z"/>
    <path class="st14" d="M338.69,592.84s.2,23.9,23.1,13.15c-14.74,21.11-28.68,23.5-23.1-13.15Z"/>
    <path class="st14" d="M408.13,622.16s13.74,12.31,23.1-6.61c-1.39,21.31-9.56,33.73-23.1,6.61Z"/>
    <path class="st14" d="M298.23,621.26s2.19,31.39,23.9,18.91c-11.75,27.76-39.44,28.23-23.9-18.91Z"/>
    <g>
      <path class="st5" d="M485.66,451.79s10.99-52.05-13.52-71.06c-24.51-19.01-51.88-14.2-51.88-14.2,0,0-17.91,1.52-37.01,13.35-2.37,18.93,15.38,48,21.8,55.09s30.17,18.42,80.61,16.82Z"/>
      <path class="st2" d="M411.95,394.07s-7.47,19.72,12.15,30.67c19.62,10.95,31.97-4.68,35.25-9.76s.3-17.03-12.55-23.9c-12.85-6.87-28.48-10.76-34.85,2.99Z"/>
      <path class="st4" d="M445.22,391.08s-18.72-7.47-24.3,6.97c-5.58,14.44,8.79,23.6,20.97,19.32s17.03-20.87,3.33-26.29Z"/>
      <path class="st5" d="M431.36,388.77s-6.5,7.17,2.99,10.76c9.49,3.59,9.1-6.91,4.38-10.16s-7.37-.6-7.37-.6Z"/>
      <path class="st10" d="M469.97,389.15s14.04,20.16,9.96,52.32c-29.18,2.39-36.45,0-36.45,0,0,0,23.57-1.28,30.27-3.39,1.89-7.97,1.07-41.07-18.92-56.56,12.55,8.76,18.32,18.74,18.32,18.74,0,0-.5-5.27-3.19-11.11Z"/>
      <path class="st10" d="M396.12,375.95s-5.05,1.25-9.06,4.78,4.43,31.42,14.04,42.82,6.47,7.57,6.47,7.57c0,0-15.44-32.37-15.83-42.42s4.38-12.75,4.38-12.75Z"/>
    </g>
    <path class="st5" d="M620.84,431.74s13.95-20.27,6.7-37.73c-23.98-5.91-69.99-2.3-82.74,9.84s-17.26,30.64-7.57,44.01c9.69,13.36,27.09,15.93,27.09,15.93l56.52-32.04"/>
    <path class="st3" d="M563.53,407.78s-11.27,5.9-11.87,14.49,6.77,12.18,11.15,9.59,10.13-15.19,9.16-18.66c-1.19-4.27-3.6-8.57-8.44-5.42Z"/>
    <path class="st10" d="M541.27,424.29s-7.32,24.05,20.59,30.17,7.15-5.98,7.15-5.98c0,0-16.78,4.33-27.73-24.2Z"/>
    <path class="st10" d="M629.09,399.15s3.9,11.13-6.08,28.96c-3.92-1.92-3.57-5.15-3.57-5.15,0,0,8.09-8.37,9.64-23.8Z"/>
    <path class="st10" d="M577.53,396.29s10.16,6.84,8.76,17.33c1.7-8.66,1.09-16.27-8.76-17.33Z"/>
    <g>
      <path class="st0" d="M499.34,487.48s-35.85,11.65-56.76,45.41c-20.91,33.76-15.83,48.85-15.83,48.85,0,0-3.19,19.99,27.19,17.48,21.51,10.16,71.47,33.14,124.76,3.57l-1.08-16.12s-21.81-1.2-30.47-32.86c-8.66-31.67-26.59-35.25-47.8-66.32Z"/>
      <path class="st16" d="M442.58,532.89s-.6,16.03,0,27.29c.6,11.25,4.58,25.39,22.8,36.05,18.22,10.66,37.74,14.74,52.98,16.13,15.24,1.39,30.3,2.21,33.96,1.16-8.23,1.88-46.21,13.08-98.39-14.31-4.28,1.2-56.37,8.96-11.35-66.32Z"/>
      <path class="st16" d="M499.34,487.48s11.05,76.62,36.65,87.65c5.48,2.77,10.66,6.16,15.14,15.52,4.78,7.77,15.54,7.57,15.54,7.57,0,0-2.43,7.02-10.87,14.31,5.79-1.27,15.52-3.88,22.9-9.74,2.81-8.95,4.5-39.42,4.5-39.42l-67.52-51.98-5.98-10.16-10.36-13.74Z"/>
      <path class="st0" d="M619.44,422.95s37.94,55.27,26.29,124.28c-11.65,69.01-51.39,135.63-98.59,156.55,11.35-15.83,37.34-53.78,30.47-117.11-12.55-2.39-23.3-6.27-30.47-32.86-16.73-7.17-38.54-27.19-40.03-53.78,17.63-21.81,67.22-68.71,112.33-77.08Z"/>
      <path class="st16" d="M619.44,422.95s40.33,51.68,26.29,124.28c-14.04,72.6-12.01,53.72-41.11,104.24-32.39,47.83-57.48,52.31-57.48,52.31,0,0,103.37-97.39,72.3-280.83Z"/>
    </g>
    <g>
      <path class="st12" d="M789.21,119.73s-10.03-28.1-18.6-38.86c-12.2-3.97-54.35,6.12-69.59,19.84s-4.7,21.25,7.62,25.71c12.33,4.46,55.88,15.65,71.66,26.97,17.35-3.27,31.7-10.5,31.7-10.5,0,0-8.13,9.86-20.73,14.65,6.43,1.85,24.89,4.4,43.05-8.39-9.49-6.58-45.12-29.42-45.12-29.42Z"/>
      <path class="st7" d="M787.79,118.58l-22.51-7.6s-11.46-23.44-22.53-28.25c6.48-1.3,18.3-4.86,27.85-1.86,4.32,6.55,13.46,19.38,17.19,37.71Z"/>
      <path class="st12" d="M834.32,149.16c5.97,4.22-4.54-69.95-74.54-58.75,27.82,4.32,34.57,31.76,34.57,31.76,0,0,26.43,17.4,39.98,26.99Z"/>
      <path class="st4" d="M846.46,168.4l4.4-3.87s-41.93-71.16-142.1-55.02c46.15-1.61,106.3,12.99,137.71,58.89Z"/>
    </g>
    <g>
      <path class="st12" d="M1440.09,896.94s107.15-57.01,95.93-24.94c7.52-54.72,20.4-62.86,20.4-62.86,0,0,56.24,4.16,94.51-54.28,6.51-10.29,19.06-19.32,27.3,7.96,4.51,14.95.76,54.08-30.47,89.94-25.76,29.58-67.25,56.91-164.21,66.83-19.37-12.46-33.07-17.94-33.07-17.94,0,0,10.47,10.18,22.53,20.1-20.12-.25-43.72-25.29-43.72-25.29,0,0-.78-21,12.54-47.13-4.6,23.14-1.72,47.62-1.72,47.62Z"/>
      <path class="st7" d="M1661.38,834.32s-27.69,5.19-40.56-2.73c-6.28,5.91-14.55,7.96-14.55,7.96,0,0,26.65,17.51,41.48,13.19,2.03-2.43,4.45-5.23,6.71-8.29,3.75-5.1,6.93-10.14,6.93-10.14Z"/>
      <path class="st7" d="M1539.47,804.01s-19.59,24.93-43.62,27.86c-24.69,3.01-38.93,10.9-38.93,10.9,0,0-25.26,41.53-18.08,56.92,23.14-2.76,78.27-11.98,78.27-11.98l11.46-4.2s14.19-19.77,8.08-36.1c-6.33-16.92.76-40.48,2.82-43.41Z"/>
      <path class="st7" d="M1483.54,919.59s-22.7-13.23-33.07-17.94c-10.38-4.7,19.05-5.22,19.05-5.22l4.01.35s11.07,8.01,32.66,20.04c-10.94,1.45-22.65,2.77-22.65,2.77Z"/>
      <path class="st12" d="M1485.31,893.77l-45.22,3.17-2.53-3.9s-2.54-14.95,19.36-50.27c6.36-2.88,8.21-5.32,28.06-9.16-23.08,40.12-16.68,57.56-16.68,57.56l17,2.61Z"/>
      <path class="st4" d="M1393.83,891.06l-15.77,7.2s180.46,36.92,275.63-106.47c-105.28,121.88-237.78,100.08-259.85,99.27Z"/>
    </g>
    <g>
      <path class="st7" d="M1823.82,270.46s4.76,12.88-2.72,34.82c-1.35-10.98-3.18-30.89-3.18-30.89l5.9-3.93Z"/>
      <path class="st7" d="M1821.29,269.1s-10.01-12.99-17.41-16.05c.93,5.1,11.02,19.99,11.02,19.99l6.38-3.94Z"/>
      <path class="st12" d="M1636.38,252.29c-4.46-7.24-38.48-14.84-38.48-14.84,0,0-11.73,24.49,12.58,43.33,24.31,18.84,33,23.95,33,23.95l47.43.35,15.66-14.3s-35.25,18.3-70.2-38.49Z"/>
      <path class="st4" d="M1597.9,237.44s51.21,64.11,68.37,63.81l-4.94,3.66s-36.34-23.37-63.43-67.47Z"/>
      <path class="st7" d="M1818.6,275.84l-29.37-22.23s-55.86,30.78-107.8,39.72c-27.84,4.79-54.56,3.31-70.95-12.55,17.21,16.88,88.83,73.74,195.78,25.46,7.6-12.97,12.34-30.4,12.34-30.4Z"/>
      <path class="st4" d="M1858.56,240.39s-73.29,74.73-193.68,74.17c120.02.12,182.29-58.89,198.33-70.77l-4.65-3.4Z"/>
    </g>
  </g>
</svg>